M48
; DRILL file KiCad 10.0.6-10.0.6~ubuntu24.04.1 date 2026-09-07T21:02:46
; FORMAT={-:-/ absolute / metric / decimal}
; #@! TF.CreationDate,2026-09-07T21:02:46+08:00
; #@! TF.GenerationSoftware,Kicad,Pcbnew,10.0.6-10.0.6~ubuntu24.04.1
; #@! TF.FileFunction,Plated,1,2,PTH
FMAT,2
METRIC
; #@! TA.AperFunction,Plated,PTH,ComponentDrill
T1C0.200
; #@! TA.AperFunction,Plated,PTH,ViaDrill
T2C0.300
; #@! TA.AperFunction,Plated,PTH,ViaDrill
T3C0.400
; #@! TA.AperFunction,Plated,PTH,ComponentDrill
T4C0.600
; #@! TA.AperFunction,Plated,PTH,ComponentDrill
T5C0.650
; #@! TA.AperFunction,Plated,PTH,ComponentDrill
T6C0.750
; #@! TA.AperFunction,Plated,PTH,ComponentDrill
T7C3.200
%
G90
G05
T1
X154.373Y-120.16
X154.373Y-121.34
X155.552Y-120.16
X155.552Y-121.34
T2
X131.375Y-80.625
X133.0Y-90.0
X135.0Y-88.0
X135.5Y-100.0
X151.301Y-96.15
X151.5Y-98.02
X151.9Y-95.0
X152.0Y-62.0
X152.0Y-88.0
X152.25Y-96.15
X152.5Y-91.5
X152.5Y-98.02
X153.0Y-62.0
X153.247Y-93.241
X153.5Y-83.5
X153.5Y-94.0
X153.5Y-98.0
X153.877Y-86.994
X154.5Y-86.15
X154.674Y-95.674
X155.5Y-80.0
X156.133Y-89.5
X156.5Y-95.0
X156.5Y-99.5
X156.5Y-105.0
X156.606Y-90.145
X160.599Y-106.802
X160.65Y-91.5
X162.35Y-107.5
X162.819Y-115.949
X166.75Y-86.25
X167.0Y-124.0
X167.5Y-116.0
X167.5Y-118.0
X171.5Y-121.5
X173.5Y-109.5
X175.291Y-125.709
X177.0Y-121.0
X180.0Y-126.0
X182.5Y-83.0
X183.5Y-97.0
T3
X113.42Y-86.0
X113.42Y-105.75
X124.831Y-80.0
X125.0Y-98.25
X125.725Y-108.5
X125.831Y-88.0
X126.725Y-99.25
X127.881Y-79.0
X129.175Y-108.0
X129.781Y-88.0
X140.27Y-108.02
X141.0Y-84.0
X142.25Y-89.5
X143.478Y-83.949
X143.893Y-97.75
X144.75Y-89.5
X145.0Y-83.5
X145.566Y-122.066
X148.25Y-114.75
X150.0Y-82.0
X150.25Y-83.5
X151.5Y-92.95
X153.0Y-115.287
X154.5Y-99.49
X157.5Y-81.0
X159.0Y-124.5
X160.0Y-76.5
X160.0Y-85.75
X160.0Y-112.0
X160.25Y-92.75
X160.25Y-97.25
X161.5Y-85.0
X163.0Y-112.585
X164.0Y-127.0
X165.0Y-107.5
X165.5Y-111.75
X167.0Y-106.5
X169.75Y-85.5
X170.5Y-126.0
X171.0Y-76.5
X171.5Y-108.5
X171.78Y-105.959
X174.0Y-119.0
X176.5Y-81.0
X178.131Y-90.131
X180.0Y-105.0
X180.5Y-106.5
X181.0Y-123.07
X181.5Y-86.0
X181.5Y-90.0
T5
X140.96Y-62.5
X140.96Y-63.77
X142.23Y-62.5
X142.23Y-63.77
X143.5Y-62.5
X143.5Y-63.77
X144.77Y-62.5
X144.77Y-63.77
X146.04Y-62.5
X146.04Y-63.77
X184.73Y-104.73
X184.73Y-106.0
X184.73Y-107.27
X184.73Y-108.54
X184.73Y-109.81
X186.0Y-104.73
X186.0Y-106.0
X186.0Y-107.27
X186.0Y-108.54
X186.0Y-109.81
T6
X181.05Y-115.75
X181.05Y-117.75
T7
X112.475Y-59.225
X112.475Y-129.775
X186.525Y-59.225
X186.525Y-129.775
T4
G00X172.18Y-127.595
M15
G01X172.18Y-128.695
M16
G05
G00X172.18Y-131.925
M15
G01X172.18Y-132.725
M16
G05
G00X180.82Y-127.595
M15
G01X180.82Y-128.695
M16
G05
G00X180.82Y-131.925
M15
G01X180.82Y-132.725
M16
G05
M30
