%TF.GenerationSoftware,KiCad,Pcbnew,10.0.6-10.0.6~ubuntu24.04.1*%
%TF.CreationDate,2026-09-07T21:02:58+08:00*%
%TF.ProjectId,FESboard,46455362-6f61-4726-942e-6b696361645f,rev?*%
%TF.SameCoordinates,Original*%
%TF.FileFunction,Paste,Top*%
%TF.FilePolarity,Positive*%
%FSLAX46Y46*%
G04 Gerber Fmt 4.6, Leading zero omitted, Abs format (unit mm)*
G04 Created by KiCad (PCBNEW 10.0.6-10.0.6~ubuntu24.04.1) date 2026-09-07 21:02:58*
%MOMM*%
%LPD*%
G01*
G04 APERTURE LIST*
G04 Aperture macros list*
%AMRoundRect*
0 Rectangle with rounded corners*
0 $1 Rounding radius*
0 $2 $3 $4 $5 $6 $7 $8 $9 X,Y pos of 4 corners*
0 Add a 4 corners polygon primitive as box body*
4,1,4,$2,$3,$4,$5,$6,$7,$8,$9,$2,$3,0*
0 Add four circle primitives for the rounded corners*
1,1,$1+$1,$2,$3*
1,1,$1+$1,$4,$5*
1,1,$1+$1,$6,$7*
1,1,$1+$1,$8,$9*
0 Add four rect primitives between the rounded corners*
20,1,$1+$1,$2,$3,$4,$5,0*
20,1,$1+$1,$4,$5,$6,$7,0*
20,1,$1+$1,$6,$7,$8,$9,0*
20,1,$1+$1,$8,$9,$2,$3,0*%
G04 Aperture macros list end*
%ADD10RoundRect,0.200000X-0.275000X0.200000X-0.275000X-0.200000X0.275000X-0.200000X0.275000X0.200000X0*%
%ADD11RoundRect,0.237500X0.300000X0.237500X-0.300000X0.237500X-0.300000X-0.237500X0.300000X-0.237500X0*%
%ADD12RoundRect,0.225000X-0.250000X0.225000X-0.250000X-0.225000X0.250000X-0.225000X0.250000X0.225000X0*%
%ADD13RoundRect,0.150000X-0.150000X0.587500X-0.150000X-0.587500X0.150000X-0.587500X0.150000X0.587500X0*%
%ADD14RoundRect,0.182500X-0.182500X0.182500X-0.182500X-0.182500X0.182500X-0.182500X0.182500X0.182500X0*%
%ADD15RoundRect,0.062500X-0.062500X0.350000X-0.062500X-0.350000X0.062500X-0.350000X0.062500X0.350000X0*%
%ADD16RoundRect,0.062500X-0.350000X0.062500X-0.350000X-0.062500X0.350000X-0.062500X0.350000X0.062500X0*%
%ADD17RoundRect,0.140000X0.140000X0.170000X-0.140000X0.170000X-0.140000X-0.170000X0.140000X-0.170000X0*%
%ADD18RoundRect,0.140000X-0.140000X-0.170000X0.140000X-0.170000X0.140000X0.170000X-0.140000X0.170000X0*%
%ADD19RoundRect,0.140000X-0.170000X0.140000X-0.170000X-0.140000X0.170000X-0.140000X0.170000X0.140000X0*%
%ADD20RoundRect,0.135000X-0.185000X0.135000X-0.185000X-0.135000X0.185000X-0.135000X0.185000X0.135000X0*%
%ADD21RoundRect,0.150000X0.150000X-0.587500X0.150000X0.587500X-0.150000X0.587500X-0.150000X-0.587500X0*%
%ADD22RoundRect,0.140000X0.170000X-0.140000X0.170000X0.140000X-0.170000X0.140000X-0.170000X-0.140000X0*%
%ADD23RoundRect,0.200000X-0.200000X-0.275000X0.200000X-0.275000X0.200000X0.275000X-0.200000X0.275000X0*%
%ADD24RoundRect,0.218750X-0.218750X-0.256250X0.218750X-0.256250X0.218750X0.256250X-0.218750X0.256250X0*%
%ADD25RoundRect,0.135000X0.135000X0.185000X-0.135000X0.185000X-0.135000X-0.185000X0.135000X-0.185000X0*%
%ADD26RoundRect,0.250000X0.450000X0.350000X-0.450000X0.350000X-0.450000X-0.350000X0.450000X-0.350000X0*%
%ADD27R,1.200000X2.500000*%
%ADD28RoundRect,0.135000X-0.135000X-0.185000X0.135000X-0.185000X0.135000X0.185000X-0.135000X0.185000X0*%
%ADD29RoundRect,0.135000X0.185000X-0.135000X0.185000X0.135000X-0.185000X0.135000X-0.185000X-0.135000X0*%
%ADD30RoundRect,0.225000X-0.225000X-0.250000X0.225000X-0.250000X0.225000X0.250000X-0.225000X0.250000X0*%
%ADD31RoundRect,0.150000X0.150000X-0.512500X0.150000X0.512500X-0.150000X0.512500X-0.150000X-0.512500X0*%
%ADD32RoundRect,0.200000X0.200000X0.275000X-0.200000X0.275000X-0.200000X-0.275000X0.200000X-0.275000X0*%
%ADD33RoundRect,0.225000X0.225000X0.250000X-0.225000X0.250000X-0.225000X-0.250000X0.225000X-0.250000X0*%
%ADD34RoundRect,0.225000X0.250000X-0.225000X0.250000X0.225000X-0.250000X0.225000X-0.250000X-0.225000X0*%
%ADD35RoundRect,0.160000X0.160000X-0.160000X0.160000X0.160000X-0.160000X0.160000X-0.160000X-0.160000X0*%
%ADD36RoundRect,0.062500X0.062500X-0.375000X0.062500X0.375000X-0.062500X0.375000X-0.062500X-0.375000X0*%
%ADD37RoundRect,0.062500X0.375000X-0.062500X0.375000X0.062500X-0.375000X0.062500X-0.375000X-0.062500X0*%
%ADD38RoundRect,0.150000X-0.150000X-0.425000X0.150000X-0.425000X0.150000X0.425000X-0.150000X0.425000X0*%
%ADD39RoundRect,0.075000X-0.075000X-0.500000X0.075000X-0.500000X0.075000X0.500000X-0.075000X0.500000X0*%
%ADD40O,1.000000X2.100000*%
%ADD41O,1.000000X1.800000*%
%ADD42RoundRect,0.075000X-0.662500X-0.075000X0.662500X-0.075000X0.662500X0.075000X-0.662500X0.075000X0*%
%ADD43RoundRect,0.075000X-0.075000X-0.662500X0.075000X-0.662500X0.075000X0.662500X-0.075000X0.662500X0*%
%ADD44RoundRect,0.075000X-0.075000X0.662500X-0.075000X-0.662500X0.075000X-0.662500X0.075000X0.662500X0*%
%ADD45RoundRect,0.075000X-0.662500X0.075000X-0.662500X-0.075000X0.662500X-0.075000X0.662500X0.075000X0*%
%ADD46RoundRect,0.218750X0.256250X-0.218750X0.256250X0.218750X-0.256250X0.218750X-0.256250X-0.218750X0*%
%ADD47RoundRect,0.087500X-0.207500X-0.087500X0.207500X-0.087500X0.207500X0.087500X-0.207500X0.087500X0*%
%ADD48RoundRect,0.087500X-0.087500X-0.207500X0.087500X-0.207500X0.087500X0.207500X-0.087500X0.207500X0*%
G04 APERTURE END LIST*
D10*
%TO.C,R28*%
X151680000Y-120687500D03*
X151680000Y-122337500D03*
%TD*%
D11*
%TO.C,C35*%
X156075000Y-115340000D03*
X154350000Y-115340000D03*
%TD*%
D12*
%TO.C,C26*%
X143500000Y-101250000D03*
X143500000Y-102800000D03*
%TD*%
D13*
%TO.C,D1*%
X129781251Y-80625000D03*
X127881251Y-80625000D03*
X128831251Y-82500000D03*
%TD*%
D14*
%TO.C,U3*%
X155382500Y-120330000D03*
X154542500Y-120330000D03*
X155382500Y-121170000D03*
X154542500Y-121170000D03*
D15*
X155712500Y-119287500D03*
X155212500Y-119287500D03*
X154712500Y-119287500D03*
X154212500Y-119287500D03*
D16*
X153500000Y-120000000D03*
X153500000Y-120500000D03*
X153500000Y-121000000D03*
X153500000Y-121500000D03*
D15*
X154212500Y-122212500D03*
X154712500Y-122212500D03*
X155212500Y-122212500D03*
X155712500Y-122212500D03*
D16*
X156425000Y-121500000D03*
X156425000Y-121000000D03*
X156425000Y-120500000D03*
X156425000Y-120000000D03*
%TD*%
D17*
%TO.C,C62*%
X170960000Y-107000000D03*
X170000000Y-107000000D03*
%TD*%
D18*
%TO.C,C24*%
X140270000Y-101837500D03*
X141230000Y-101837500D03*
%TD*%
D19*
%TO.C,C41*%
X156500000Y-103020000D03*
X156500000Y-103980000D03*
%TD*%
D12*
%TO.C,C16*%
X171437500Y-122637500D03*
X171437500Y-124187500D03*
%TD*%
D19*
%TO.C,C23*%
X142230000Y-100965000D03*
X142230000Y-101925000D03*
%TD*%
D13*
%TO.C,D3*%
X129175000Y-100625000D03*
X127275000Y-100625000D03*
X128225000Y-102500000D03*
%TD*%
D20*
%TO.C,R23*%
X138000000Y-84990000D03*
X138000000Y-86010000D03*
%TD*%
D21*
%TO.C,D4*%
X127275000Y-106375000D03*
X129175000Y-106375000D03*
X128225000Y-104500000D03*
%TD*%
D22*
%TO.C,C54*%
X162600000Y-81000000D03*
X162600000Y-80040000D03*
%TD*%
D23*
%TO.C,R2*%
X124345000Y-94900000D03*
X125995000Y-94900000D03*
%TD*%
D22*
%TO.C,C45*%
X156500000Y-91980000D03*
X156500000Y-91020000D03*
%TD*%
D24*
%TO.C,D10*%
X168362500Y-118837500D03*
X169937500Y-118837500D03*
%TD*%
D25*
%TO.C,R21*%
X172460000Y-118937500D03*
X171440000Y-118937500D03*
%TD*%
D18*
%TO.C,C56*%
X161520000Y-111585000D03*
X162480000Y-111585000D03*
%TD*%
D26*
%TO.C,Y1*%
X168100000Y-78500000D03*
X165900000Y-78500000D03*
X165900000Y-80200000D03*
X168100000Y-80200000D03*
%TD*%
D25*
%TO.C,R20*%
X172560000Y-116837500D03*
X171540000Y-116837500D03*
%TD*%
D27*
%TO.C,J1*%
X116325000Y-108250000D03*
X113325000Y-108250000D03*
X121425000Y-114750000D03*
X120325000Y-108250000D03*
%TD*%
D20*
%TO.C,R18*%
X181000000Y-124060000D03*
X181000000Y-125080000D03*
%TD*%
D19*
%TO.C,C18*%
X146750000Y-102008440D03*
X146750000Y-102968440D03*
%TD*%
D28*
%TO.C,R5*%
X160755000Y-119837500D03*
X161775000Y-119837500D03*
%TD*%
D19*
%TO.C,C33*%
X139000000Y-85020000D03*
X139000000Y-85980000D03*
%TD*%
D29*
%TO.C,R14*%
X168800000Y-123010000D03*
X168800000Y-121990000D03*
%TD*%
D28*
%TO.C,R17*%
X160765000Y-120937500D03*
X161785000Y-120937500D03*
%TD*%
D19*
%TO.C,C8*%
X124831251Y-84000000D03*
X124831251Y-84960000D03*
%TD*%
D29*
%TO.C,R15*%
X167500000Y-123010000D03*
X167500000Y-121990000D03*
%TD*%
D28*
%TO.C,R34*%
X173490000Y-107000000D03*
X174510000Y-107000000D03*
%TD*%
D20*
%TO.C,R19*%
X179010000Y-124060000D03*
X179010000Y-125080000D03*
%TD*%
D25*
%TO.C,R29*%
X151760000Y-90337500D03*
X150740000Y-90337500D03*
%TD*%
D29*
%TO.C,R31*%
X152500000Y-100020000D03*
X152500000Y-99000000D03*
%TD*%
D19*
%TO.C,C61*%
X182500000Y-96020000D03*
X182500000Y-96980000D03*
%TD*%
%TO.C,C7*%
X124831251Y-82020000D03*
X124831251Y-82980000D03*
%TD*%
D21*
%TO.C,D2*%
X127881251Y-86375000D03*
X129781251Y-86375000D03*
X128831251Y-84500000D03*
%TD*%
D30*
%TO.C,C15*%
X165150000Y-116037500D03*
X166700000Y-116037500D03*
%TD*%
D22*
%TO.C,C44*%
X160600000Y-81000000D03*
X160600000Y-80040000D03*
%TD*%
D24*
%TO.C,D9*%
X168362500Y-116837500D03*
X169937500Y-116837500D03*
%TD*%
D27*
%TO.C,J2*%
X116325000Y-88250000D03*
X113325000Y-88250000D03*
X121425000Y-94750000D03*
X120325000Y-88250000D03*
%TD*%
D31*
%TO.C,U4*%
X145550000Y-119637500D03*
X146500000Y-119637500D03*
X147450000Y-119637500D03*
X147450000Y-117362500D03*
X145550000Y-117362500D03*
%TD*%
D22*
%TO.C,C42*%
X161600000Y-81000000D03*
X161600000Y-80040000D03*
%TD*%
D12*
%TO.C,C25*%
X158962500Y-121762500D03*
X158962500Y-123312500D03*
%TD*%
D19*
%TO.C,C17*%
X145750000Y-102008440D03*
X145750000Y-102968440D03*
%TD*%
D32*
%TO.C,R26*%
X156037500Y-117087500D03*
X154387500Y-117087500D03*
%TD*%
D22*
%TO.C,C60*%
X159600000Y-81000000D03*
X159600000Y-80040000D03*
%TD*%
D33*
%TO.C,C28*%
X153980000Y-123925000D03*
X152430000Y-123925000D03*
%TD*%
%TO.C,C14*%
X162150000Y-118537500D03*
X160600000Y-118537500D03*
%TD*%
D19*
%TO.C,C29*%
X144250000Y-84520000D03*
X144250000Y-85480000D03*
%TD*%
D25*
%TO.C,R24*%
X147010000Y-85500000D03*
X145990000Y-85500000D03*
%TD*%
D17*
%TO.C,C59*%
X170960000Y-106000000D03*
X170000000Y-106000000D03*
%TD*%
D19*
%TO.C,C58*%
X181500000Y-96020000D03*
X181500000Y-96980000D03*
%TD*%
D22*
%TO.C,C31*%
X149250000Y-88297500D03*
X149250000Y-87337500D03*
%TD*%
%TO.C,C20*%
X141970000Y-86000000D03*
X141970000Y-85040000D03*
%TD*%
D29*
%TO.C,R25*%
X153500000Y-100020000D03*
X153500000Y-99000000D03*
%TD*%
D34*
%TO.C,C30*%
X146500000Y-123275000D03*
X146500000Y-121725000D03*
%TD*%
D22*
%TO.C,C51*%
X156500000Y-101480000D03*
X156500000Y-100520000D03*
%TD*%
D19*
%TO.C,C1*%
X122225000Y-103020000D03*
X122225000Y-103980000D03*
%TD*%
D22*
%TO.C,C50*%
X164350000Y-79980000D03*
X164350000Y-79020000D03*
%TD*%
D19*
%TO.C,C2*%
X122831251Y-83020000D03*
X122831251Y-83980000D03*
%TD*%
D22*
%TO.C,C37*%
X181500000Y-84780000D03*
X181500000Y-83820000D03*
%TD*%
D35*
%TO.C,U1*%
X164850000Y-119837500D03*
X165650000Y-119837500D03*
X164850000Y-119037500D03*
X165650000Y-119037500D03*
D36*
X164500000Y-120875000D03*
X165000000Y-120875000D03*
X165500000Y-120875000D03*
X166000000Y-120875000D03*
D37*
X166687500Y-120187500D03*
X166687500Y-119687500D03*
X166687500Y-119187500D03*
X166687500Y-118687500D03*
D36*
X166000000Y-118000000D03*
X165500000Y-118000000D03*
X165000000Y-118000000D03*
X164500000Y-118000000D03*
D37*
X163812500Y-118687500D03*
X163812500Y-119187500D03*
X163812500Y-119687500D03*
X163812500Y-120187500D03*
%TD*%
D18*
%TO.C,C39*%
X178020000Y-106000000D03*
X178980000Y-106000000D03*
%TD*%
D28*
%TO.C,R8*%
X120321251Y-83000000D03*
X121341251Y-83000000D03*
%TD*%
D38*
%TO.C,J5*%
X173300000Y-127570000D03*
X174100000Y-127570000D03*
D39*
X175250000Y-127570000D03*
X176250000Y-127570000D03*
X176750000Y-127570000D03*
X177750000Y-127570000D03*
D38*
X178900000Y-127570000D03*
X179700000Y-127570000D03*
X179700000Y-127570000D03*
X178900000Y-127570000D03*
D39*
X178250000Y-127570000D03*
X177250000Y-127570000D03*
X175750000Y-127570000D03*
X174750000Y-127570000D03*
D38*
X174100000Y-127570000D03*
X173300000Y-127570000D03*
D40*
X172180000Y-128145000D03*
D41*
X172180000Y-132325000D03*
D40*
X180820000Y-128145000D03*
D41*
X180820000Y-132325000D03*
%TD*%
D22*
%TO.C,C49*%
X171000000Y-80980000D03*
X171000000Y-80020000D03*
%TD*%
D28*
%TO.C,R6*%
X119715000Y-103000000D03*
X120735000Y-103000000D03*
%TD*%
D17*
%TO.C,C47*%
X156480000Y-85700000D03*
X155520000Y-85700000D03*
%TD*%
D22*
%TO.C,C48*%
X161500000Y-76960000D03*
X161500000Y-76000000D03*
%TD*%
D42*
%TO.C,U2*%
X137337500Y-89750000D03*
X137337500Y-90250000D03*
X137337500Y-90750000D03*
X137337500Y-91250000D03*
X137337500Y-91750000D03*
X137337500Y-92250000D03*
X137337500Y-92750000D03*
X137337500Y-93250000D03*
X137337500Y-93750000D03*
X137337500Y-94250000D03*
X137337500Y-94750000D03*
X137337500Y-95250000D03*
X137337500Y-95750000D03*
X137337500Y-96250000D03*
X137337500Y-96750000D03*
X137337500Y-97250000D03*
D43*
X139250000Y-99162500D03*
X139750000Y-99162500D03*
X140250000Y-99162500D03*
X140750000Y-99162500D03*
X141250000Y-99162500D03*
X141750000Y-99162500D03*
X142250000Y-99162500D03*
X142750000Y-99162500D03*
X143250000Y-99162500D03*
X143750000Y-99162500D03*
X144250000Y-99162500D03*
X144750000Y-99162500D03*
X145250000Y-99162500D03*
X145750000Y-99162500D03*
X146250000Y-99162500D03*
X146750000Y-99162500D03*
D42*
X148662500Y-97250000D03*
X148662500Y-96750000D03*
X148662500Y-96250000D03*
X148662500Y-95750000D03*
X148662500Y-95250000D03*
X148662500Y-94750000D03*
X148662500Y-94250000D03*
X148662500Y-93750000D03*
X148662500Y-93250000D03*
X148662500Y-92750000D03*
X148662500Y-92250000D03*
X148662500Y-91750000D03*
X148662500Y-91250000D03*
X148662500Y-90750000D03*
X148662500Y-90250000D03*
X148662500Y-89750000D03*
D43*
X146750000Y-87837500D03*
X146250000Y-87837500D03*
X145750000Y-87837500D03*
X145250000Y-87837500D03*
X144750000Y-87837500D03*
X144250000Y-87837500D03*
X143750000Y-87837500D03*
X143250000Y-87837500D03*
X142750000Y-87837500D03*
X142250000Y-87837500D03*
X141750000Y-87837500D03*
X141250000Y-87837500D03*
X140750000Y-87837500D03*
X140250000Y-87837500D03*
X139750000Y-87837500D03*
X139250000Y-87837500D03*
%TD*%
D44*
%TO.C,U6*%
X177750000Y-82837500D03*
X177250000Y-82837500D03*
X176750000Y-82837500D03*
X176250000Y-82837500D03*
X175750000Y-82837500D03*
X175250000Y-82837500D03*
X174750000Y-82837500D03*
X174250000Y-82837500D03*
X173750000Y-82837500D03*
X173250000Y-82837500D03*
X172750000Y-82837500D03*
X172250000Y-82837500D03*
X171750000Y-82837500D03*
X171250000Y-82837500D03*
X170750000Y-82837500D03*
X170250000Y-82837500D03*
X169750000Y-82837500D03*
X169250000Y-82837500D03*
X168750000Y-82837500D03*
X168250000Y-82837500D03*
X167750000Y-82837500D03*
X167250000Y-82837500D03*
X166750000Y-82837500D03*
X166250000Y-82837500D03*
X165750000Y-82837500D03*
X165250000Y-82837500D03*
X164750000Y-82837500D03*
X164250000Y-82837500D03*
X163750000Y-82837500D03*
X163250000Y-82837500D03*
X162750000Y-82837500D03*
X162250000Y-82837500D03*
X161750000Y-82837500D03*
X161250000Y-82837500D03*
X160750000Y-82837500D03*
X160250000Y-82837500D03*
D45*
X158337500Y-84750000D03*
X158337500Y-85250000D03*
X158337500Y-85750000D03*
X158337500Y-86250000D03*
X158337500Y-86750000D03*
X158337500Y-87250000D03*
X158337500Y-87750000D03*
X158337500Y-88250000D03*
X158337500Y-88750000D03*
X158337500Y-89250000D03*
X158337500Y-89750000D03*
X158337500Y-90250000D03*
X158337500Y-90750000D03*
X158337500Y-91250000D03*
X158337500Y-91750000D03*
X158337500Y-92250000D03*
X158337500Y-92750000D03*
X158337500Y-93250000D03*
X158337500Y-93750000D03*
X158337500Y-94250000D03*
X158337500Y-94750000D03*
X158337500Y-95250000D03*
X158337500Y-95750000D03*
X158337500Y-96250000D03*
X158337500Y-96750000D03*
X158337500Y-97250000D03*
X158337500Y-97750000D03*
X158337500Y-98250000D03*
X158337500Y-98750000D03*
X158337500Y-99250000D03*
X158337500Y-99750000D03*
X158337500Y-100250000D03*
X158337500Y-100750000D03*
X158337500Y-101250000D03*
X158337500Y-101750000D03*
X158337500Y-102250000D03*
D44*
X160250000Y-104162500D03*
X160750000Y-104162500D03*
X161250000Y-104162500D03*
X161750000Y-104162500D03*
X162250000Y-104162500D03*
X162750000Y-104162500D03*
X163250000Y-104162500D03*
X163750000Y-104162500D03*
X164250000Y-104162500D03*
X164750000Y-104162500D03*
X165250000Y-104162500D03*
X165750000Y-104162500D03*
X166250000Y-104162500D03*
X166750000Y-104162500D03*
X167250000Y-104162500D03*
X167750000Y-104162500D03*
X168250000Y-104162500D03*
X168750000Y-104162500D03*
X169250000Y-104162500D03*
X169750000Y-104162500D03*
X170250000Y-104162500D03*
X170750000Y-104162500D03*
X171250000Y-104162500D03*
X171750000Y-104162500D03*
X172250000Y-104162500D03*
X172750000Y-104162500D03*
X173250000Y-104162500D03*
X173750000Y-104162500D03*
X174250000Y-104162500D03*
X174750000Y-104162500D03*
X175250000Y-104162500D03*
X175750000Y-104162500D03*
X176250000Y-104162500D03*
X176750000Y-104162500D03*
X177250000Y-104162500D03*
X177750000Y-104162500D03*
D45*
X179662500Y-102250000D03*
X179662500Y-101750000D03*
X179662500Y-101250000D03*
X179662500Y-100750000D03*
X179662500Y-100250000D03*
X179662500Y-99750000D03*
X179662500Y-99250000D03*
X179662500Y-98750000D03*
X179662500Y-98250000D03*
X179662500Y-97750000D03*
X179662500Y-97250000D03*
X179662500Y-96750000D03*
X179662500Y-96250000D03*
X179662500Y-95750000D03*
X179662500Y-95250000D03*
X179662500Y-94750000D03*
X179662500Y-94250000D03*
X179662500Y-93750000D03*
X179662500Y-93250000D03*
X179662500Y-92750000D03*
X179662500Y-92250000D03*
X179662500Y-91750000D03*
X179662500Y-91250000D03*
X179662500Y-90750000D03*
X179662500Y-90250000D03*
X179662500Y-89750000D03*
X179662500Y-89250000D03*
X179662500Y-88750000D03*
X179662500Y-88250000D03*
X179662500Y-87750000D03*
X179662500Y-87250000D03*
X179662500Y-86750000D03*
X179662500Y-86250000D03*
X179662500Y-85750000D03*
X179662500Y-85250000D03*
X179662500Y-84750000D03*
%TD*%
D33*
%TO.C,C13*%
X162150000Y-116937500D03*
X160600000Y-116937500D03*
%TD*%
D17*
%TO.C,C40*%
X165980000Y-106000000D03*
X165020000Y-106000000D03*
%TD*%
D20*
%TO.C,R32*%
X162520000Y-75970000D03*
X162520000Y-76990000D03*
%TD*%
D22*
%TO.C,C36*%
X182500000Y-84780000D03*
X182500000Y-83820000D03*
%TD*%
D17*
%TO.C,C55*%
X164480000Y-111585000D03*
X163520000Y-111585000D03*
%TD*%
D25*
%TO.C,R7*%
X120735000Y-104000000D03*
X119715000Y-104000000D03*
%TD*%
D19*
%TO.C,C21*%
X144750000Y-102008440D03*
X144750000Y-102968440D03*
%TD*%
D22*
%TO.C,C19*%
X143000000Y-86000000D03*
X143000000Y-85040000D03*
%TD*%
D25*
%TO.C,R35*%
X174510000Y-106000000D03*
X173490000Y-106000000D03*
%TD*%
D23*
%TO.C,R1*%
X124345000Y-115800000D03*
X125995000Y-115800000D03*
%TD*%
D19*
%TO.C,C46*%
X169600000Y-79020000D03*
X169600000Y-79980000D03*
%TD*%
D46*
%TO.C,L1*%
X158052500Y-117787500D03*
X158052500Y-116212500D03*
%TD*%
D19*
%TO.C,C5*%
X124225000Y-102020000D03*
X124225000Y-102980000D03*
%TD*%
%TO.C,C6*%
X124225000Y-104020000D03*
X124225000Y-104980000D03*
%TD*%
D25*
%TO.C,R9*%
X121341251Y-84000000D03*
X120321251Y-84000000D03*
%TD*%
D47*
%TO.C,U5*%
X160835000Y-108750000D03*
X160835000Y-109250000D03*
X160835000Y-109750000D03*
X160835000Y-110250000D03*
D48*
X161500000Y-110415000D03*
X162000000Y-110415000D03*
X162500000Y-110415000D03*
D47*
X163165000Y-110250000D03*
X163165000Y-109750000D03*
X163165000Y-109250000D03*
X163165000Y-108750000D03*
D48*
X162500000Y-108585000D03*
X162000000Y-108585000D03*
X161500000Y-108585000D03*
%TD*%
D22*
%TO.C,C52*%
X175200000Y-81080000D03*
X175200000Y-80120000D03*
%TD*%
D25*
%TO.C,R33*%
X182510000Y-87800000D03*
X181490000Y-87800000D03*
%TD*%
D30*
%TO.C,C22*%
X155680000Y-123925000D03*
X157230000Y-123925000D03*
%TD*%
D10*
%TO.C,R27*%
X151680000Y-117287500D03*
X151680000Y-118937500D03*
%TD*%
D20*
%TO.C,R16*%
X163525000Y-115427500D03*
X163525000Y-116447500D03*
%TD*%
D18*
%TO.C,C27*%
X140270000Y-100867500D03*
X141230000Y-100867500D03*
%TD*%
D19*
%TO.C,C38*%
X181500000Y-91000000D03*
X181500000Y-91960000D03*
%TD*%
D29*
%TO.C,R30*%
X151500000Y-100020000D03*
X151500000Y-99000000D03*
%TD*%
D22*
%TO.C,C43*%
X156500000Y-96980000D03*
X156500000Y-96020000D03*
%TD*%
D46*
%TO.C,F1*%
X174000000Y-124287500D03*
X174000000Y-122712500D03*
%TD*%
D18*
%TO.C,C53*%
X178020000Y-107500000D03*
X178980000Y-107500000D03*
%TD*%
D30*
%TO.C,C34*%
X145425000Y-114700000D03*
X146975000Y-114700000D03*
%TD*%
D22*
%TO.C,C32*%
X150250000Y-88297500D03*
X150250000Y-87337500D03*
%TD*%
D25*
%TO.C,R22*%
X165850000Y-122837500D03*
X164830000Y-122837500D03*
%TD*%
D22*
%TO.C,C57*%
X158500000Y-81000000D03*
X158500000Y-80040000D03*
%TD*%
M02*
