%TF.GenerationSoftware,KiCad,Pcbnew,10.0.6-10.0.6~ubuntu24.04.1*%
%TF.CreationDate,2026-09-07T21:02:58+08:00*%
%TF.ProjectId,FESboard,46455362-6f61-4726-942e-6b696361645f,rev?*%
%TF.SameCoordinates,Original*%
%TF.FileFunction,Legend,Top*%
%TF.FilePolarity,Positive*%
%FSLAX46Y46*%
G04 Gerber Fmt 4.6, Leading zero omitted, Abs format (unit mm)*
G04 Created by KiCad (PCBNEW 10.0.6-10.0.6~ubuntu24.04.1) date 2026-09-07 21:02:58*
%MOMM*%
%LPD*%
G01*
G04 APERTURE LIST*
%ADD10C,0.150000*%
%ADD11C,0.120000*%
%ADD12C,0.127000*%
%ADD13C,0.200000*%
G04 APERTURE END LIST*
D10*
X150574795Y-121801785D02*
X150193842Y-122068452D01*
X150574795Y-122258928D02*
X149774795Y-122258928D01*
X149774795Y-122258928D02*
X149774795Y-121954166D01*
X149774795Y-121954166D02*
X149812890Y-121877976D01*
X149812890Y-121877976D02*
X149850985Y-121839881D01*
X149850985Y-121839881D02*
X149927176Y-121801785D01*
X149927176Y-121801785D02*
X150041461Y-121801785D01*
X150041461Y-121801785D02*
X150117652Y-121839881D01*
X150117652Y-121839881D02*
X150155747Y-121877976D01*
X150155747Y-121877976D02*
X150193842Y-121954166D01*
X150193842Y-121954166D02*
X150193842Y-122258928D01*
X149850985Y-121497024D02*
X149812890Y-121458928D01*
X149812890Y-121458928D02*
X149774795Y-121382738D01*
X149774795Y-121382738D02*
X149774795Y-121192262D01*
X149774795Y-121192262D02*
X149812890Y-121116071D01*
X149812890Y-121116071D02*
X149850985Y-121077976D01*
X149850985Y-121077976D02*
X149927176Y-121039881D01*
X149927176Y-121039881D02*
X150003366Y-121039881D01*
X150003366Y-121039881D02*
X150117652Y-121077976D01*
X150117652Y-121077976D02*
X150574795Y-121535119D01*
X150574795Y-121535119D02*
X150574795Y-121039881D01*
X150117652Y-120582738D02*
X150079557Y-120658928D01*
X150079557Y-120658928D02*
X150041461Y-120697023D01*
X150041461Y-120697023D02*
X149965271Y-120735119D01*
X149965271Y-120735119D02*
X149927176Y-120735119D01*
X149927176Y-120735119D02*
X149850985Y-120697023D01*
X149850985Y-120697023D02*
X149812890Y-120658928D01*
X149812890Y-120658928D02*
X149774795Y-120582738D01*
X149774795Y-120582738D02*
X149774795Y-120430357D01*
X149774795Y-120430357D02*
X149812890Y-120354166D01*
X149812890Y-120354166D02*
X149850985Y-120316071D01*
X149850985Y-120316071D02*
X149927176Y-120277976D01*
X149927176Y-120277976D02*
X149965271Y-120277976D01*
X149965271Y-120277976D02*
X150041461Y-120316071D01*
X150041461Y-120316071D02*
X150079557Y-120354166D01*
X150079557Y-120354166D02*
X150117652Y-120430357D01*
X150117652Y-120430357D02*
X150117652Y-120582738D01*
X150117652Y-120582738D02*
X150155747Y-120658928D01*
X150155747Y-120658928D02*
X150193842Y-120697023D01*
X150193842Y-120697023D02*
X150270033Y-120735119D01*
X150270033Y-120735119D02*
X150422414Y-120735119D01*
X150422414Y-120735119D02*
X150498604Y-120697023D01*
X150498604Y-120697023D02*
X150536700Y-120658928D01*
X150536700Y-120658928D02*
X150574795Y-120582738D01*
X150574795Y-120582738D02*
X150574795Y-120430357D01*
X150574795Y-120430357D02*
X150536700Y-120354166D01*
X150536700Y-120354166D02*
X150498604Y-120316071D01*
X150498604Y-120316071D02*
X150422414Y-120277976D01*
X150422414Y-120277976D02*
X150270033Y-120277976D01*
X150270033Y-120277976D02*
X150193842Y-120316071D01*
X150193842Y-120316071D02*
X150155747Y-120354166D01*
X150155747Y-120354166D02*
X150117652Y-120430357D01*
X154738214Y-114478604D02*
X154700118Y-114516700D01*
X154700118Y-114516700D02*
X154585833Y-114554795D01*
X154585833Y-114554795D02*
X154509642Y-114554795D01*
X154509642Y-114554795D02*
X154395356Y-114516700D01*
X154395356Y-114516700D02*
X154319166Y-114440509D01*
X154319166Y-114440509D02*
X154281071Y-114364319D01*
X154281071Y-114364319D02*
X154242975Y-114211938D01*
X154242975Y-114211938D02*
X154242975Y-114097652D01*
X154242975Y-114097652D02*
X154281071Y-113945271D01*
X154281071Y-113945271D02*
X154319166Y-113869080D01*
X154319166Y-113869080D02*
X154395356Y-113792890D01*
X154395356Y-113792890D02*
X154509642Y-113754795D01*
X154509642Y-113754795D02*
X154585833Y-113754795D01*
X154585833Y-113754795D02*
X154700118Y-113792890D01*
X154700118Y-113792890D02*
X154738214Y-113830985D01*
X155004880Y-113754795D02*
X155500118Y-113754795D01*
X155500118Y-113754795D02*
X155233452Y-114059557D01*
X155233452Y-114059557D02*
X155347737Y-114059557D01*
X155347737Y-114059557D02*
X155423928Y-114097652D01*
X155423928Y-114097652D02*
X155462023Y-114135747D01*
X155462023Y-114135747D02*
X155500118Y-114211938D01*
X155500118Y-114211938D02*
X155500118Y-114402414D01*
X155500118Y-114402414D02*
X155462023Y-114478604D01*
X155462023Y-114478604D02*
X155423928Y-114516700D01*
X155423928Y-114516700D02*
X155347737Y-114554795D01*
X155347737Y-114554795D02*
X155119166Y-114554795D01*
X155119166Y-114554795D02*
X155042975Y-114516700D01*
X155042975Y-114516700D02*
X155004880Y-114478604D01*
X156223928Y-113754795D02*
X155842976Y-113754795D01*
X155842976Y-113754795D02*
X155804880Y-114135747D01*
X155804880Y-114135747D02*
X155842976Y-114097652D01*
X155842976Y-114097652D02*
X155919166Y-114059557D01*
X155919166Y-114059557D02*
X156109642Y-114059557D01*
X156109642Y-114059557D02*
X156185833Y-114097652D01*
X156185833Y-114097652D02*
X156223928Y-114135747D01*
X156223928Y-114135747D02*
X156262023Y-114211938D01*
X156262023Y-114211938D02*
X156262023Y-114402414D01*
X156262023Y-114402414D02*
X156223928Y-114478604D01*
X156223928Y-114478604D02*
X156185833Y-114516700D01*
X156185833Y-114516700D02*
X156109642Y-114554795D01*
X156109642Y-114554795D02*
X155919166Y-114554795D01*
X155919166Y-114554795D02*
X155842976Y-114516700D01*
X155842976Y-114516700D02*
X155804880Y-114478604D01*
X143786104Y-105039285D02*
X143824200Y-105077381D01*
X143824200Y-105077381D02*
X143862295Y-105191666D01*
X143862295Y-105191666D02*
X143862295Y-105267857D01*
X143862295Y-105267857D02*
X143824200Y-105382143D01*
X143824200Y-105382143D02*
X143748009Y-105458333D01*
X143748009Y-105458333D02*
X143671819Y-105496428D01*
X143671819Y-105496428D02*
X143519438Y-105534524D01*
X143519438Y-105534524D02*
X143405152Y-105534524D01*
X143405152Y-105534524D02*
X143252771Y-105496428D01*
X143252771Y-105496428D02*
X143176580Y-105458333D01*
X143176580Y-105458333D02*
X143100390Y-105382143D01*
X143100390Y-105382143D02*
X143062295Y-105267857D01*
X143062295Y-105267857D02*
X143062295Y-105191666D01*
X143062295Y-105191666D02*
X143100390Y-105077381D01*
X143100390Y-105077381D02*
X143138485Y-105039285D01*
X143138485Y-104734524D02*
X143100390Y-104696428D01*
X143100390Y-104696428D02*
X143062295Y-104620238D01*
X143062295Y-104620238D02*
X143062295Y-104429762D01*
X143062295Y-104429762D02*
X143100390Y-104353571D01*
X143100390Y-104353571D02*
X143138485Y-104315476D01*
X143138485Y-104315476D02*
X143214676Y-104277381D01*
X143214676Y-104277381D02*
X143290866Y-104277381D01*
X143290866Y-104277381D02*
X143405152Y-104315476D01*
X143405152Y-104315476D02*
X143862295Y-104772619D01*
X143862295Y-104772619D02*
X143862295Y-104277381D01*
X143062295Y-103591666D02*
X143062295Y-103744047D01*
X143062295Y-103744047D02*
X143100390Y-103820238D01*
X143100390Y-103820238D02*
X143138485Y-103858333D01*
X143138485Y-103858333D02*
X143252771Y-103934523D01*
X143252771Y-103934523D02*
X143405152Y-103972619D01*
X143405152Y-103972619D02*
X143709914Y-103972619D01*
X143709914Y-103972619D02*
X143786104Y-103934523D01*
X143786104Y-103934523D02*
X143824200Y-103896428D01*
X143824200Y-103896428D02*
X143862295Y-103820238D01*
X143862295Y-103820238D02*
X143862295Y-103667857D01*
X143862295Y-103667857D02*
X143824200Y-103591666D01*
X143824200Y-103591666D02*
X143786104Y-103553571D01*
X143786104Y-103553571D02*
X143709914Y-103515476D01*
X143709914Y-103515476D02*
X143519438Y-103515476D01*
X143519438Y-103515476D02*
X143443247Y-103553571D01*
X143443247Y-103553571D02*
X143405152Y-103591666D01*
X143405152Y-103591666D02*
X143367057Y-103667857D01*
X143367057Y-103667857D02*
X143367057Y-103820238D01*
X143367057Y-103820238D02*
X143405152Y-103896428D01*
X143405152Y-103896428D02*
X143443247Y-103934523D01*
X143443247Y-103934523D02*
X143519438Y-103972619D01*
X131593546Y-82152975D02*
X130793546Y-82152975D01*
X130793546Y-82152975D02*
X130793546Y-81962499D01*
X130793546Y-81962499D02*
X130831641Y-81848213D01*
X130831641Y-81848213D02*
X130907831Y-81772023D01*
X130907831Y-81772023D02*
X130984022Y-81733928D01*
X130984022Y-81733928D02*
X131136403Y-81695832D01*
X131136403Y-81695832D02*
X131250689Y-81695832D01*
X131250689Y-81695832D02*
X131403070Y-81733928D01*
X131403070Y-81733928D02*
X131479260Y-81772023D01*
X131479260Y-81772023D02*
X131555451Y-81848213D01*
X131555451Y-81848213D02*
X131593546Y-81962499D01*
X131593546Y-81962499D02*
X131593546Y-82152975D01*
X131593546Y-80933928D02*
X131593546Y-81391071D01*
X131593546Y-81162499D02*
X130793546Y-81162499D01*
X130793546Y-81162499D02*
X130907831Y-81238690D01*
X130907831Y-81238690D02*
X130984022Y-81314880D01*
X130984022Y-81314880D02*
X131022117Y-81391071D01*
X156114795Y-118949523D02*
X156762414Y-118949523D01*
X156762414Y-118949523D02*
X156838604Y-118911428D01*
X156838604Y-118911428D02*
X156876700Y-118873333D01*
X156876700Y-118873333D02*
X156914795Y-118797142D01*
X156914795Y-118797142D02*
X156914795Y-118644761D01*
X156914795Y-118644761D02*
X156876700Y-118568571D01*
X156876700Y-118568571D02*
X156838604Y-118530476D01*
X156838604Y-118530476D02*
X156762414Y-118492380D01*
X156762414Y-118492380D02*
X156114795Y-118492380D01*
X156114795Y-118187619D02*
X156114795Y-117692381D01*
X156114795Y-117692381D02*
X156419557Y-117959047D01*
X156419557Y-117959047D02*
X156419557Y-117844762D01*
X156419557Y-117844762D02*
X156457652Y-117768571D01*
X156457652Y-117768571D02*
X156495747Y-117730476D01*
X156495747Y-117730476D02*
X156571938Y-117692381D01*
X156571938Y-117692381D02*
X156762414Y-117692381D01*
X156762414Y-117692381D02*
X156838604Y-117730476D01*
X156838604Y-117730476D02*
X156876700Y-117768571D01*
X156876700Y-117768571D02*
X156914795Y-117844762D01*
X156914795Y-117844762D02*
X156914795Y-118073333D01*
X156914795Y-118073333D02*
X156876700Y-118149524D01*
X156876700Y-118149524D02*
X156838604Y-118187619D01*
X169985714Y-109286104D02*
X169947618Y-109324200D01*
X169947618Y-109324200D02*
X169833333Y-109362295D01*
X169833333Y-109362295D02*
X169757142Y-109362295D01*
X169757142Y-109362295D02*
X169642856Y-109324200D01*
X169642856Y-109324200D02*
X169566666Y-109248009D01*
X169566666Y-109248009D02*
X169528571Y-109171819D01*
X169528571Y-109171819D02*
X169490475Y-109019438D01*
X169490475Y-109019438D02*
X169490475Y-108905152D01*
X169490475Y-108905152D02*
X169528571Y-108752771D01*
X169528571Y-108752771D02*
X169566666Y-108676580D01*
X169566666Y-108676580D02*
X169642856Y-108600390D01*
X169642856Y-108600390D02*
X169757142Y-108562295D01*
X169757142Y-108562295D02*
X169833333Y-108562295D01*
X169833333Y-108562295D02*
X169947618Y-108600390D01*
X169947618Y-108600390D02*
X169985714Y-108638485D01*
X170671428Y-108562295D02*
X170519047Y-108562295D01*
X170519047Y-108562295D02*
X170442856Y-108600390D01*
X170442856Y-108600390D02*
X170404761Y-108638485D01*
X170404761Y-108638485D02*
X170328571Y-108752771D01*
X170328571Y-108752771D02*
X170290475Y-108905152D01*
X170290475Y-108905152D02*
X170290475Y-109209914D01*
X170290475Y-109209914D02*
X170328571Y-109286104D01*
X170328571Y-109286104D02*
X170366666Y-109324200D01*
X170366666Y-109324200D02*
X170442856Y-109362295D01*
X170442856Y-109362295D02*
X170595237Y-109362295D01*
X170595237Y-109362295D02*
X170671428Y-109324200D01*
X170671428Y-109324200D02*
X170709523Y-109286104D01*
X170709523Y-109286104D02*
X170747618Y-109209914D01*
X170747618Y-109209914D02*
X170747618Y-109019438D01*
X170747618Y-109019438D02*
X170709523Y-108943247D01*
X170709523Y-108943247D02*
X170671428Y-108905152D01*
X170671428Y-108905152D02*
X170595237Y-108867057D01*
X170595237Y-108867057D02*
X170442856Y-108867057D01*
X170442856Y-108867057D02*
X170366666Y-108905152D01*
X170366666Y-108905152D02*
X170328571Y-108943247D01*
X170328571Y-108943247D02*
X170290475Y-109019438D01*
X171052380Y-108638485D02*
X171090476Y-108600390D01*
X171090476Y-108600390D02*
X171166666Y-108562295D01*
X171166666Y-108562295D02*
X171357142Y-108562295D01*
X171357142Y-108562295D02*
X171433333Y-108600390D01*
X171433333Y-108600390D02*
X171471428Y-108638485D01*
X171471428Y-108638485D02*
X171509523Y-108714676D01*
X171509523Y-108714676D02*
X171509523Y-108790866D01*
X171509523Y-108790866D02*
X171471428Y-108905152D01*
X171471428Y-108905152D02*
X171014285Y-109362295D01*
X171014285Y-109362295D02*
X171509523Y-109362295D01*
X138235714Y-102123604D02*
X138197618Y-102161700D01*
X138197618Y-102161700D02*
X138083333Y-102199795D01*
X138083333Y-102199795D02*
X138007142Y-102199795D01*
X138007142Y-102199795D02*
X137892856Y-102161700D01*
X137892856Y-102161700D02*
X137816666Y-102085509D01*
X137816666Y-102085509D02*
X137778571Y-102009319D01*
X137778571Y-102009319D02*
X137740475Y-101856938D01*
X137740475Y-101856938D02*
X137740475Y-101742652D01*
X137740475Y-101742652D02*
X137778571Y-101590271D01*
X137778571Y-101590271D02*
X137816666Y-101514080D01*
X137816666Y-101514080D02*
X137892856Y-101437890D01*
X137892856Y-101437890D02*
X138007142Y-101399795D01*
X138007142Y-101399795D02*
X138083333Y-101399795D01*
X138083333Y-101399795D02*
X138197618Y-101437890D01*
X138197618Y-101437890D02*
X138235714Y-101475985D01*
X138540475Y-101475985D02*
X138578571Y-101437890D01*
X138578571Y-101437890D02*
X138654761Y-101399795D01*
X138654761Y-101399795D02*
X138845237Y-101399795D01*
X138845237Y-101399795D02*
X138921428Y-101437890D01*
X138921428Y-101437890D02*
X138959523Y-101475985D01*
X138959523Y-101475985D02*
X138997618Y-101552176D01*
X138997618Y-101552176D02*
X138997618Y-101628366D01*
X138997618Y-101628366D02*
X138959523Y-101742652D01*
X138959523Y-101742652D02*
X138502380Y-102199795D01*
X138502380Y-102199795D02*
X138997618Y-102199795D01*
X139683333Y-101666461D02*
X139683333Y-102199795D01*
X139492857Y-101361700D02*
X139302380Y-101933128D01*
X139302380Y-101933128D02*
X139797619Y-101933128D01*
X155786104Y-104014285D02*
X155824200Y-104052381D01*
X155824200Y-104052381D02*
X155862295Y-104166666D01*
X155862295Y-104166666D02*
X155862295Y-104242857D01*
X155862295Y-104242857D02*
X155824200Y-104357143D01*
X155824200Y-104357143D02*
X155748009Y-104433333D01*
X155748009Y-104433333D02*
X155671819Y-104471428D01*
X155671819Y-104471428D02*
X155519438Y-104509524D01*
X155519438Y-104509524D02*
X155405152Y-104509524D01*
X155405152Y-104509524D02*
X155252771Y-104471428D01*
X155252771Y-104471428D02*
X155176580Y-104433333D01*
X155176580Y-104433333D02*
X155100390Y-104357143D01*
X155100390Y-104357143D02*
X155062295Y-104242857D01*
X155062295Y-104242857D02*
X155062295Y-104166666D01*
X155062295Y-104166666D02*
X155100390Y-104052381D01*
X155100390Y-104052381D02*
X155138485Y-104014285D01*
X155328961Y-103328571D02*
X155862295Y-103328571D01*
X155024200Y-103519047D02*
X155595628Y-103709524D01*
X155595628Y-103709524D02*
X155595628Y-103214285D01*
X155862295Y-102490476D02*
X155862295Y-102947619D01*
X155862295Y-102719047D02*
X155062295Y-102719047D01*
X155062295Y-102719047D02*
X155176580Y-102795238D01*
X155176580Y-102795238D02*
X155252771Y-102871428D01*
X155252771Y-102871428D02*
X155290866Y-102947619D01*
X170286104Y-123514285D02*
X170324200Y-123552381D01*
X170324200Y-123552381D02*
X170362295Y-123666666D01*
X170362295Y-123666666D02*
X170362295Y-123742857D01*
X170362295Y-123742857D02*
X170324200Y-123857143D01*
X170324200Y-123857143D02*
X170248009Y-123933333D01*
X170248009Y-123933333D02*
X170171819Y-123971428D01*
X170171819Y-123971428D02*
X170019438Y-124009524D01*
X170019438Y-124009524D02*
X169905152Y-124009524D01*
X169905152Y-124009524D02*
X169752771Y-123971428D01*
X169752771Y-123971428D02*
X169676580Y-123933333D01*
X169676580Y-123933333D02*
X169600390Y-123857143D01*
X169600390Y-123857143D02*
X169562295Y-123742857D01*
X169562295Y-123742857D02*
X169562295Y-123666666D01*
X169562295Y-123666666D02*
X169600390Y-123552381D01*
X169600390Y-123552381D02*
X169638485Y-123514285D01*
X170362295Y-122752381D02*
X170362295Y-123209524D01*
X170362295Y-122980952D02*
X169562295Y-122980952D01*
X169562295Y-122980952D02*
X169676580Y-123057143D01*
X169676580Y-123057143D02*
X169752771Y-123133333D01*
X169752771Y-123133333D02*
X169790866Y-123209524D01*
X169562295Y-122066666D02*
X169562295Y-122219047D01*
X169562295Y-122219047D02*
X169600390Y-122295238D01*
X169600390Y-122295238D02*
X169638485Y-122333333D01*
X169638485Y-122333333D02*
X169752771Y-122409523D01*
X169752771Y-122409523D02*
X169905152Y-122447619D01*
X169905152Y-122447619D02*
X170209914Y-122447619D01*
X170209914Y-122447619D02*
X170286104Y-122409523D01*
X170286104Y-122409523D02*
X170324200Y-122371428D01*
X170324200Y-122371428D02*
X170362295Y-122295238D01*
X170362295Y-122295238D02*
X170362295Y-122142857D01*
X170362295Y-122142857D02*
X170324200Y-122066666D01*
X170324200Y-122066666D02*
X170286104Y-122028571D01*
X170286104Y-122028571D02*
X170209914Y-121990476D01*
X170209914Y-121990476D02*
X170019438Y-121990476D01*
X170019438Y-121990476D02*
X169943247Y-122028571D01*
X169943247Y-122028571D02*
X169905152Y-122066666D01*
X169905152Y-122066666D02*
X169867057Y-122142857D01*
X169867057Y-122142857D02*
X169867057Y-122295238D01*
X169867057Y-122295238D02*
X169905152Y-122371428D01*
X169905152Y-122371428D02*
X169943247Y-122409523D01*
X169943247Y-122409523D02*
X170019438Y-122447619D01*
X142286104Y-103959285D02*
X142324200Y-103997381D01*
X142324200Y-103997381D02*
X142362295Y-104111666D01*
X142362295Y-104111666D02*
X142362295Y-104187857D01*
X142362295Y-104187857D02*
X142324200Y-104302143D01*
X142324200Y-104302143D02*
X142248009Y-104378333D01*
X142248009Y-104378333D02*
X142171819Y-104416428D01*
X142171819Y-104416428D02*
X142019438Y-104454524D01*
X142019438Y-104454524D02*
X141905152Y-104454524D01*
X141905152Y-104454524D02*
X141752771Y-104416428D01*
X141752771Y-104416428D02*
X141676580Y-104378333D01*
X141676580Y-104378333D02*
X141600390Y-104302143D01*
X141600390Y-104302143D02*
X141562295Y-104187857D01*
X141562295Y-104187857D02*
X141562295Y-104111666D01*
X141562295Y-104111666D02*
X141600390Y-103997381D01*
X141600390Y-103997381D02*
X141638485Y-103959285D01*
X141638485Y-103654524D02*
X141600390Y-103616428D01*
X141600390Y-103616428D02*
X141562295Y-103540238D01*
X141562295Y-103540238D02*
X141562295Y-103349762D01*
X141562295Y-103349762D02*
X141600390Y-103273571D01*
X141600390Y-103273571D02*
X141638485Y-103235476D01*
X141638485Y-103235476D02*
X141714676Y-103197381D01*
X141714676Y-103197381D02*
X141790866Y-103197381D01*
X141790866Y-103197381D02*
X141905152Y-103235476D01*
X141905152Y-103235476D02*
X142362295Y-103692619D01*
X142362295Y-103692619D02*
X142362295Y-103197381D01*
X141562295Y-102930714D02*
X141562295Y-102435476D01*
X141562295Y-102435476D02*
X141867057Y-102702142D01*
X141867057Y-102702142D02*
X141867057Y-102587857D01*
X141867057Y-102587857D02*
X141905152Y-102511666D01*
X141905152Y-102511666D02*
X141943247Y-102473571D01*
X141943247Y-102473571D02*
X142019438Y-102435476D01*
X142019438Y-102435476D02*
X142209914Y-102435476D01*
X142209914Y-102435476D02*
X142286104Y-102473571D01*
X142286104Y-102473571D02*
X142324200Y-102511666D01*
X142324200Y-102511666D02*
X142362295Y-102587857D01*
X142362295Y-102587857D02*
X142362295Y-102816428D01*
X142362295Y-102816428D02*
X142324200Y-102892619D01*
X142324200Y-102892619D02*
X142286104Y-102930714D01*
X131187295Y-102052975D02*
X130387295Y-102052975D01*
X130387295Y-102052975D02*
X130387295Y-101862499D01*
X130387295Y-101862499D02*
X130425390Y-101748213D01*
X130425390Y-101748213D02*
X130501580Y-101672023D01*
X130501580Y-101672023D02*
X130577771Y-101633928D01*
X130577771Y-101633928D02*
X130730152Y-101595832D01*
X130730152Y-101595832D02*
X130844438Y-101595832D01*
X130844438Y-101595832D02*
X130996819Y-101633928D01*
X130996819Y-101633928D02*
X131073009Y-101672023D01*
X131073009Y-101672023D02*
X131149200Y-101748213D01*
X131149200Y-101748213D02*
X131187295Y-101862499D01*
X131187295Y-101862499D02*
X131187295Y-102052975D01*
X130387295Y-101329166D02*
X130387295Y-100833928D01*
X130387295Y-100833928D02*
X130692057Y-101100594D01*
X130692057Y-101100594D02*
X130692057Y-100986309D01*
X130692057Y-100986309D02*
X130730152Y-100910118D01*
X130730152Y-100910118D02*
X130768247Y-100872023D01*
X130768247Y-100872023D02*
X130844438Y-100833928D01*
X130844438Y-100833928D02*
X131034914Y-100833928D01*
X131034914Y-100833928D02*
X131111104Y-100872023D01*
X131111104Y-100872023D02*
X131149200Y-100910118D01*
X131149200Y-100910118D02*
X131187295Y-100986309D01*
X131187295Y-100986309D02*
X131187295Y-101214880D01*
X131187295Y-101214880D02*
X131149200Y-101291071D01*
X131149200Y-101291071D02*
X131111104Y-101329166D01*
X138362295Y-84024285D02*
X137981342Y-84290952D01*
X138362295Y-84481428D02*
X137562295Y-84481428D01*
X137562295Y-84481428D02*
X137562295Y-84176666D01*
X137562295Y-84176666D02*
X137600390Y-84100476D01*
X137600390Y-84100476D02*
X137638485Y-84062381D01*
X137638485Y-84062381D02*
X137714676Y-84024285D01*
X137714676Y-84024285D02*
X137828961Y-84024285D01*
X137828961Y-84024285D02*
X137905152Y-84062381D01*
X137905152Y-84062381D02*
X137943247Y-84100476D01*
X137943247Y-84100476D02*
X137981342Y-84176666D01*
X137981342Y-84176666D02*
X137981342Y-84481428D01*
X137638485Y-83719524D02*
X137600390Y-83681428D01*
X137600390Y-83681428D02*
X137562295Y-83605238D01*
X137562295Y-83605238D02*
X137562295Y-83414762D01*
X137562295Y-83414762D02*
X137600390Y-83338571D01*
X137600390Y-83338571D02*
X137638485Y-83300476D01*
X137638485Y-83300476D02*
X137714676Y-83262381D01*
X137714676Y-83262381D02*
X137790866Y-83262381D01*
X137790866Y-83262381D02*
X137905152Y-83300476D01*
X137905152Y-83300476D02*
X138362295Y-83757619D01*
X138362295Y-83757619D02*
X138362295Y-83262381D01*
X137562295Y-82995714D02*
X137562295Y-82500476D01*
X137562295Y-82500476D02*
X137867057Y-82767142D01*
X137867057Y-82767142D02*
X137867057Y-82652857D01*
X137867057Y-82652857D02*
X137905152Y-82576666D01*
X137905152Y-82576666D02*
X137943247Y-82538571D01*
X137943247Y-82538571D02*
X138019438Y-82500476D01*
X138019438Y-82500476D02*
X138209914Y-82500476D01*
X138209914Y-82500476D02*
X138286104Y-82538571D01*
X138286104Y-82538571D02*
X138324200Y-82576666D01*
X138324200Y-82576666D02*
X138362295Y-82652857D01*
X138362295Y-82652857D02*
X138362295Y-82881428D01*
X138362295Y-82881428D02*
X138324200Y-82957619D01*
X138324200Y-82957619D02*
X138286104Y-82995714D01*
X131187295Y-105990475D02*
X130387295Y-105990475D01*
X130387295Y-105990475D02*
X130387295Y-105799999D01*
X130387295Y-105799999D02*
X130425390Y-105685713D01*
X130425390Y-105685713D02*
X130501580Y-105609523D01*
X130501580Y-105609523D02*
X130577771Y-105571428D01*
X130577771Y-105571428D02*
X130730152Y-105533332D01*
X130730152Y-105533332D02*
X130844438Y-105533332D01*
X130844438Y-105533332D02*
X130996819Y-105571428D01*
X130996819Y-105571428D02*
X131073009Y-105609523D01*
X131073009Y-105609523D02*
X131149200Y-105685713D01*
X131149200Y-105685713D02*
X131187295Y-105799999D01*
X131187295Y-105799999D02*
X131187295Y-105990475D01*
X130653961Y-104847618D02*
X131187295Y-104847618D01*
X130349200Y-105038094D02*
X130920628Y-105228571D01*
X130920628Y-105228571D02*
X130920628Y-104733332D01*
X162986104Y-79014285D02*
X163024200Y-79052381D01*
X163024200Y-79052381D02*
X163062295Y-79166666D01*
X163062295Y-79166666D02*
X163062295Y-79242857D01*
X163062295Y-79242857D02*
X163024200Y-79357143D01*
X163024200Y-79357143D02*
X162948009Y-79433333D01*
X162948009Y-79433333D02*
X162871819Y-79471428D01*
X162871819Y-79471428D02*
X162719438Y-79509524D01*
X162719438Y-79509524D02*
X162605152Y-79509524D01*
X162605152Y-79509524D02*
X162452771Y-79471428D01*
X162452771Y-79471428D02*
X162376580Y-79433333D01*
X162376580Y-79433333D02*
X162300390Y-79357143D01*
X162300390Y-79357143D02*
X162262295Y-79242857D01*
X162262295Y-79242857D02*
X162262295Y-79166666D01*
X162262295Y-79166666D02*
X162300390Y-79052381D01*
X162300390Y-79052381D02*
X162338485Y-79014285D01*
X162262295Y-78290476D02*
X162262295Y-78671428D01*
X162262295Y-78671428D02*
X162643247Y-78709524D01*
X162643247Y-78709524D02*
X162605152Y-78671428D01*
X162605152Y-78671428D02*
X162567057Y-78595238D01*
X162567057Y-78595238D02*
X162567057Y-78404762D01*
X162567057Y-78404762D02*
X162605152Y-78328571D01*
X162605152Y-78328571D02*
X162643247Y-78290476D01*
X162643247Y-78290476D02*
X162719438Y-78252381D01*
X162719438Y-78252381D02*
X162909914Y-78252381D01*
X162909914Y-78252381D02*
X162986104Y-78290476D01*
X162986104Y-78290476D02*
X163024200Y-78328571D01*
X163024200Y-78328571D02*
X163062295Y-78404762D01*
X163062295Y-78404762D02*
X163062295Y-78595238D01*
X163062295Y-78595238D02*
X163024200Y-78671428D01*
X163024200Y-78671428D02*
X162986104Y-78709524D01*
X162528961Y-77566666D02*
X163062295Y-77566666D01*
X162224200Y-77757142D02*
X162795628Y-77947619D01*
X162795628Y-77947619D02*
X162795628Y-77452380D01*
X125036667Y-93832295D02*
X124770000Y-93451342D01*
X124579524Y-93832295D02*
X124579524Y-93032295D01*
X124579524Y-93032295D02*
X124884286Y-93032295D01*
X124884286Y-93032295D02*
X124960476Y-93070390D01*
X124960476Y-93070390D02*
X124998571Y-93108485D01*
X124998571Y-93108485D02*
X125036667Y-93184676D01*
X125036667Y-93184676D02*
X125036667Y-93298961D01*
X125036667Y-93298961D02*
X124998571Y-93375152D01*
X124998571Y-93375152D02*
X124960476Y-93413247D01*
X124960476Y-93413247D02*
X124884286Y-93451342D01*
X124884286Y-93451342D02*
X124579524Y-93451342D01*
X125341428Y-93108485D02*
X125379524Y-93070390D01*
X125379524Y-93070390D02*
X125455714Y-93032295D01*
X125455714Y-93032295D02*
X125646190Y-93032295D01*
X125646190Y-93032295D02*
X125722381Y-93070390D01*
X125722381Y-93070390D02*
X125760476Y-93108485D01*
X125760476Y-93108485D02*
X125798571Y-93184676D01*
X125798571Y-93184676D02*
X125798571Y-93260866D01*
X125798571Y-93260866D02*
X125760476Y-93375152D01*
X125760476Y-93375152D02*
X125303333Y-93832295D01*
X125303333Y-93832295D02*
X125798571Y-93832295D01*
X155626104Y-92014285D02*
X155664200Y-92052381D01*
X155664200Y-92052381D02*
X155702295Y-92166666D01*
X155702295Y-92166666D02*
X155702295Y-92242857D01*
X155702295Y-92242857D02*
X155664200Y-92357143D01*
X155664200Y-92357143D02*
X155588009Y-92433333D01*
X155588009Y-92433333D02*
X155511819Y-92471428D01*
X155511819Y-92471428D02*
X155359438Y-92509524D01*
X155359438Y-92509524D02*
X155245152Y-92509524D01*
X155245152Y-92509524D02*
X155092771Y-92471428D01*
X155092771Y-92471428D02*
X155016580Y-92433333D01*
X155016580Y-92433333D02*
X154940390Y-92357143D01*
X154940390Y-92357143D02*
X154902295Y-92242857D01*
X154902295Y-92242857D02*
X154902295Y-92166666D01*
X154902295Y-92166666D02*
X154940390Y-92052381D01*
X154940390Y-92052381D02*
X154978485Y-92014285D01*
X155168961Y-91328571D02*
X155702295Y-91328571D01*
X154864200Y-91519047D02*
X155435628Y-91709524D01*
X155435628Y-91709524D02*
X155435628Y-91214285D01*
X154902295Y-90528571D02*
X154902295Y-90909523D01*
X154902295Y-90909523D02*
X155283247Y-90947619D01*
X155283247Y-90947619D02*
X155245152Y-90909523D01*
X155245152Y-90909523D02*
X155207057Y-90833333D01*
X155207057Y-90833333D02*
X155207057Y-90642857D01*
X155207057Y-90642857D02*
X155245152Y-90566666D01*
X155245152Y-90566666D02*
X155283247Y-90528571D01*
X155283247Y-90528571D02*
X155359438Y-90490476D01*
X155359438Y-90490476D02*
X155549914Y-90490476D01*
X155549914Y-90490476D02*
X155626104Y-90528571D01*
X155626104Y-90528571D02*
X155664200Y-90566666D01*
X155664200Y-90566666D02*
X155702295Y-90642857D01*
X155702295Y-90642857D02*
X155702295Y-90833333D01*
X155702295Y-90833333D02*
X155664200Y-90909523D01*
X155664200Y-90909523D02*
X155626104Y-90947619D01*
X167678571Y-120599795D02*
X167678571Y-119799795D01*
X167678571Y-119799795D02*
X167869047Y-119799795D01*
X167869047Y-119799795D02*
X167983333Y-119837890D01*
X167983333Y-119837890D02*
X168059523Y-119914080D01*
X168059523Y-119914080D02*
X168097618Y-119990271D01*
X168097618Y-119990271D02*
X168135714Y-120142652D01*
X168135714Y-120142652D02*
X168135714Y-120256938D01*
X168135714Y-120256938D02*
X168097618Y-120409319D01*
X168097618Y-120409319D02*
X168059523Y-120485509D01*
X168059523Y-120485509D02*
X167983333Y-120561700D01*
X167983333Y-120561700D02*
X167869047Y-120599795D01*
X167869047Y-120599795D02*
X167678571Y-120599795D01*
X168897618Y-120599795D02*
X168440475Y-120599795D01*
X168669047Y-120599795D02*
X168669047Y-119799795D01*
X168669047Y-119799795D02*
X168592856Y-119914080D01*
X168592856Y-119914080D02*
X168516666Y-119990271D01*
X168516666Y-119990271D02*
X168440475Y-120028366D01*
X169392857Y-119799795D02*
X169469047Y-119799795D01*
X169469047Y-119799795D02*
X169545238Y-119837890D01*
X169545238Y-119837890D02*
X169583333Y-119875985D01*
X169583333Y-119875985D02*
X169621428Y-119952176D01*
X169621428Y-119952176D02*
X169659523Y-120104557D01*
X169659523Y-120104557D02*
X169659523Y-120295033D01*
X169659523Y-120295033D02*
X169621428Y-120447414D01*
X169621428Y-120447414D02*
X169583333Y-120523604D01*
X169583333Y-120523604D02*
X169545238Y-120561700D01*
X169545238Y-120561700D02*
X169469047Y-120599795D01*
X169469047Y-120599795D02*
X169392857Y-120599795D01*
X169392857Y-120599795D02*
X169316666Y-120561700D01*
X169316666Y-120561700D02*
X169278571Y-120523604D01*
X169278571Y-120523604D02*
X169240476Y-120447414D01*
X169240476Y-120447414D02*
X169202380Y-120295033D01*
X169202380Y-120295033D02*
X169202380Y-120104557D01*
X169202380Y-120104557D02*
X169240476Y-119952176D01*
X169240476Y-119952176D02*
X169278571Y-119875985D01*
X169278571Y-119875985D02*
X169316666Y-119837890D01*
X169316666Y-119837890D02*
X169392857Y-119799795D01*
X171485714Y-120362295D02*
X171219047Y-119981342D01*
X171028571Y-120362295D02*
X171028571Y-119562295D01*
X171028571Y-119562295D02*
X171333333Y-119562295D01*
X171333333Y-119562295D02*
X171409523Y-119600390D01*
X171409523Y-119600390D02*
X171447618Y-119638485D01*
X171447618Y-119638485D02*
X171485714Y-119714676D01*
X171485714Y-119714676D02*
X171485714Y-119828961D01*
X171485714Y-119828961D02*
X171447618Y-119905152D01*
X171447618Y-119905152D02*
X171409523Y-119943247D01*
X171409523Y-119943247D02*
X171333333Y-119981342D01*
X171333333Y-119981342D02*
X171028571Y-119981342D01*
X171790475Y-119638485D02*
X171828571Y-119600390D01*
X171828571Y-119600390D02*
X171904761Y-119562295D01*
X171904761Y-119562295D02*
X172095237Y-119562295D01*
X172095237Y-119562295D02*
X172171428Y-119600390D01*
X172171428Y-119600390D02*
X172209523Y-119638485D01*
X172209523Y-119638485D02*
X172247618Y-119714676D01*
X172247618Y-119714676D02*
X172247618Y-119790866D01*
X172247618Y-119790866D02*
X172209523Y-119905152D01*
X172209523Y-119905152D02*
X171752380Y-120362295D01*
X171752380Y-120362295D02*
X172247618Y-120362295D01*
X173009523Y-120362295D02*
X172552380Y-120362295D01*
X172780952Y-120362295D02*
X172780952Y-119562295D01*
X172780952Y-119562295D02*
X172704761Y-119676580D01*
X172704761Y-119676580D02*
X172628571Y-119752771D01*
X172628571Y-119752771D02*
X172552380Y-119790866D01*
X166619048Y-76981342D02*
X166619048Y-77362295D01*
X166352381Y-76562295D02*
X166619048Y-76981342D01*
X166619048Y-76981342D02*
X166885714Y-76562295D01*
X167571428Y-77362295D02*
X167114285Y-77362295D01*
X167342857Y-77362295D02*
X167342857Y-76562295D01*
X167342857Y-76562295D02*
X167266666Y-76676580D01*
X167266666Y-76676580D02*
X167190476Y-76752771D01*
X167190476Y-76752771D02*
X167114285Y-76790866D01*
X171735714Y-115799795D02*
X171469047Y-115418842D01*
X171278571Y-115799795D02*
X171278571Y-114999795D01*
X171278571Y-114999795D02*
X171583333Y-114999795D01*
X171583333Y-114999795D02*
X171659523Y-115037890D01*
X171659523Y-115037890D02*
X171697618Y-115075985D01*
X171697618Y-115075985D02*
X171735714Y-115152176D01*
X171735714Y-115152176D02*
X171735714Y-115266461D01*
X171735714Y-115266461D02*
X171697618Y-115342652D01*
X171697618Y-115342652D02*
X171659523Y-115380747D01*
X171659523Y-115380747D02*
X171583333Y-115418842D01*
X171583333Y-115418842D02*
X171278571Y-115418842D01*
X172040475Y-115075985D02*
X172078571Y-115037890D01*
X172078571Y-115037890D02*
X172154761Y-114999795D01*
X172154761Y-114999795D02*
X172345237Y-114999795D01*
X172345237Y-114999795D02*
X172421428Y-115037890D01*
X172421428Y-115037890D02*
X172459523Y-115075985D01*
X172459523Y-115075985D02*
X172497618Y-115152176D01*
X172497618Y-115152176D02*
X172497618Y-115228366D01*
X172497618Y-115228366D02*
X172459523Y-115342652D01*
X172459523Y-115342652D02*
X172002380Y-115799795D01*
X172002380Y-115799795D02*
X172497618Y-115799795D01*
X172992857Y-114999795D02*
X173069047Y-114999795D01*
X173069047Y-114999795D02*
X173145238Y-115037890D01*
X173145238Y-115037890D02*
X173183333Y-115075985D01*
X173183333Y-115075985D02*
X173221428Y-115152176D01*
X173221428Y-115152176D02*
X173259523Y-115304557D01*
X173259523Y-115304557D02*
X173259523Y-115495033D01*
X173259523Y-115495033D02*
X173221428Y-115647414D01*
X173221428Y-115647414D02*
X173183333Y-115723604D01*
X173183333Y-115723604D02*
X173145238Y-115761700D01*
X173145238Y-115761700D02*
X173069047Y-115799795D01*
X173069047Y-115799795D02*
X172992857Y-115799795D01*
X172992857Y-115799795D02*
X172916666Y-115761700D01*
X172916666Y-115761700D02*
X172878571Y-115723604D01*
X172878571Y-115723604D02*
X172840476Y-115647414D01*
X172840476Y-115647414D02*
X172802380Y-115495033D01*
X172802380Y-115495033D02*
X172802380Y-115304557D01*
X172802380Y-115304557D02*
X172840476Y-115152176D01*
X172840476Y-115152176D02*
X172878571Y-115075985D01*
X172878571Y-115075985D02*
X172916666Y-115037890D01*
X172916666Y-115037890D02*
X172992857Y-114999795D01*
X182362295Y-125084285D02*
X181981342Y-125350952D01*
X182362295Y-125541428D02*
X181562295Y-125541428D01*
X181562295Y-125541428D02*
X181562295Y-125236666D01*
X181562295Y-125236666D02*
X181600390Y-125160476D01*
X181600390Y-125160476D02*
X181638485Y-125122381D01*
X181638485Y-125122381D02*
X181714676Y-125084285D01*
X181714676Y-125084285D02*
X181828961Y-125084285D01*
X181828961Y-125084285D02*
X181905152Y-125122381D01*
X181905152Y-125122381D02*
X181943247Y-125160476D01*
X181943247Y-125160476D02*
X181981342Y-125236666D01*
X181981342Y-125236666D02*
X181981342Y-125541428D01*
X182362295Y-124322381D02*
X182362295Y-124779524D01*
X182362295Y-124550952D02*
X181562295Y-124550952D01*
X181562295Y-124550952D02*
X181676580Y-124627143D01*
X181676580Y-124627143D02*
X181752771Y-124703333D01*
X181752771Y-124703333D02*
X181790866Y-124779524D01*
X181905152Y-123865238D02*
X181867057Y-123941428D01*
X181867057Y-123941428D02*
X181828961Y-123979523D01*
X181828961Y-123979523D02*
X181752771Y-124017619D01*
X181752771Y-124017619D02*
X181714676Y-124017619D01*
X181714676Y-124017619D02*
X181638485Y-123979523D01*
X181638485Y-123979523D02*
X181600390Y-123941428D01*
X181600390Y-123941428D02*
X181562295Y-123865238D01*
X181562295Y-123865238D02*
X181562295Y-123712857D01*
X181562295Y-123712857D02*
X181600390Y-123636666D01*
X181600390Y-123636666D02*
X181638485Y-123598571D01*
X181638485Y-123598571D02*
X181714676Y-123560476D01*
X181714676Y-123560476D02*
X181752771Y-123560476D01*
X181752771Y-123560476D02*
X181828961Y-123598571D01*
X181828961Y-123598571D02*
X181867057Y-123636666D01*
X181867057Y-123636666D02*
X181905152Y-123712857D01*
X181905152Y-123712857D02*
X181905152Y-123865238D01*
X181905152Y-123865238D02*
X181943247Y-123941428D01*
X181943247Y-123941428D02*
X181981342Y-123979523D01*
X181981342Y-123979523D02*
X182057533Y-124017619D01*
X182057533Y-124017619D02*
X182209914Y-124017619D01*
X182209914Y-124017619D02*
X182286104Y-123979523D01*
X182286104Y-123979523D02*
X182324200Y-123941428D01*
X182324200Y-123941428D02*
X182362295Y-123865238D01*
X182362295Y-123865238D02*
X182362295Y-123712857D01*
X182362295Y-123712857D02*
X182324200Y-123636666D01*
X182324200Y-123636666D02*
X182286104Y-123598571D01*
X182286104Y-123598571D02*
X182209914Y-123560476D01*
X182209914Y-123560476D02*
X182057533Y-123560476D01*
X182057533Y-123560476D02*
X181981342Y-123598571D01*
X181981342Y-123598571D02*
X181943247Y-123636666D01*
X181943247Y-123636666D02*
X181905152Y-123712857D01*
X147036104Y-105022725D02*
X147074200Y-105060821D01*
X147074200Y-105060821D02*
X147112295Y-105175106D01*
X147112295Y-105175106D02*
X147112295Y-105251297D01*
X147112295Y-105251297D02*
X147074200Y-105365583D01*
X147074200Y-105365583D02*
X146998009Y-105441773D01*
X146998009Y-105441773D02*
X146921819Y-105479868D01*
X146921819Y-105479868D02*
X146769438Y-105517964D01*
X146769438Y-105517964D02*
X146655152Y-105517964D01*
X146655152Y-105517964D02*
X146502771Y-105479868D01*
X146502771Y-105479868D02*
X146426580Y-105441773D01*
X146426580Y-105441773D02*
X146350390Y-105365583D01*
X146350390Y-105365583D02*
X146312295Y-105251297D01*
X146312295Y-105251297D02*
X146312295Y-105175106D01*
X146312295Y-105175106D02*
X146350390Y-105060821D01*
X146350390Y-105060821D02*
X146388485Y-105022725D01*
X147112295Y-104260821D02*
X147112295Y-104717964D01*
X147112295Y-104489392D02*
X146312295Y-104489392D01*
X146312295Y-104489392D02*
X146426580Y-104565583D01*
X146426580Y-104565583D02*
X146502771Y-104641773D01*
X146502771Y-104641773D02*
X146540866Y-104717964D01*
X146655152Y-103803678D02*
X146617057Y-103879868D01*
X146617057Y-103879868D02*
X146578961Y-103917963D01*
X146578961Y-103917963D02*
X146502771Y-103956059D01*
X146502771Y-103956059D02*
X146464676Y-103956059D01*
X146464676Y-103956059D02*
X146388485Y-103917963D01*
X146388485Y-103917963D02*
X146350390Y-103879868D01*
X146350390Y-103879868D02*
X146312295Y-103803678D01*
X146312295Y-103803678D02*
X146312295Y-103651297D01*
X146312295Y-103651297D02*
X146350390Y-103575106D01*
X146350390Y-103575106D02*
X146388485Y-103537011D01*
X146388485Y-103537011D02*
X146464676Y-103498916D01*
X146464676Y-103498916D02*
X146502771Y-103498916D01*
X146502771Y-103498916D02*
X146578961Y-103537011D01*
X146578961Y-103537011D02*
X146617057Y-103575106D01*
X146617057Y-103575106D02*
X146655152Y-103651297D01*
X146655152Y-103651297D02*
X146655152Y-103803678D01*
X146655152Y-103803678D02*
X146693247Y-103879868D01*
X146693247Y-103879868D02*
X146731342Y-103917963D01*
X146731342Y-103917963D02*
X146807533Y-103956059D01*
X146807533Y-103956059D02*
X146959914Y-103956059D01*
X146959914Y-103956059D02*
X147036104Y-103917963D01*
X147036104Y-103917963D02*
X147074200Y-103879868D01*
X147074200Y-103879868D02*
X147112295Y-103803678D01*
X147112295Y-103803678D02*
X147112295Y-103651297D01*
X147112295Y-103651297D02*
X147074200Y-103575106D01*
X147074200Y-103575106D02*
X147036104Y-103537011D01*
X147036104Y-103537011D02*
X146959914Y-103498916D01*
X146959914Y-103498916D02*
X146807533Y-103498916D01*
X146807533Y-103498916D02*
X146731342Y-103537011D01*
X146731342Y-103537011D02*
X146693247Y-103575106D01*
X146693247Y-103575106D02*
X146655152Y-103651297D01*
X158241667Y-120299795D02*
X157975000Y-119918842D01*
X157784524Y-120299795D02*
X157784524Y-119499795D01*
X157784524Y-119499795D02*
X158089286Y-119499795D01*
X158089286Y-119499795D02*
X158165476Y-119537890D01*
X158165476Y-119537890D02*
X158203571Y-119575985D01*
X158203571Y-119575985D02*
X158241667Y-119652176D01*
X158241667Y-119652176D02*
X158241667Y-119766461D01*
X158241667Y-119766461D02*
X158203571Y-119842652D01*
X158203571Y-119842652D02*
X158165476Y-119880747D01*
X158165476Y-119880747D02*
X158089286Y-119918842D01*
X158089286Y-119918842D02*
X157784524Y-119918842D01*
X158965476Y-119499795D02*
X158584524Y-119499795D01*
X158584524Y-119499795D02*
X158546428Y-119880747D01*
X158546428Y-119880747D02*
X158584524Y-119842652D01*
X158584524Y-119842652D02*
X158660714Y-119804557D01*
X158660714Y-119804557D02*
X158851190Y-119804557D01*
X158851190Y-119804557D02*
X158927381Y-119842652D01*
X158927381Y-119842652D02*
X158965476Y-119880747D01*
X158965476Y-119880747D02*
X159003571Y-119956938D01*
X159003571Y-119956938D02*
X159003571Y-120147414D01*
X159003571Y-120147414D02*
X158965476Y-120223604D01*
X158965476Y-120223604D02*
X158927381Y-120261700D01*
X158927381Y-120261700D02*
X158851190Y-120299795D01*
X158851190Y-120299795D02*
X158660714Y-120299795D01*
X158660714Y-120299795D02*
X158584524Y-120261700D01*
X158584524Y-120261700D02*
X158546428Y-120223604D01*
X139286104Y-83994285D02*
X139324200Y-84032381D01*
X139324200Y-84032381D02*
X139362295Y-84146666D01*
X139362295Y-84146666D02*
X139362295Y-84222857D01*
X139362295Y-84222857D02*
X139324200Y-84337143D01*
X139324200Y-84337143D02*
X139248009Y-84413333D01*
X139248009Y-84413333D02*
X139171819Y-84451428D01*
X139171819Y-84451428D02*
X139019438Y-84489524D01*
X139019438Y-84489524D02*
X138905152Y-84489524D01*
X138905152Y-84489524D02*
X138752771Y-84451428D01*
X138752771Y-84451428D02*
X138676580Y-84413333D01*
X138676580Y-84413333D02*
X138600390Y-84337143D01*
X138600390Y-84337143D02*
X138562295Y-84222857D01*
X138562295Y-84222857D02*
X138562295Y-84146666D01*
X138562295Y-84146666D02*
X138600390Y-84032381D01*
X138600390Y-84032381D02*
X138638485Y-83994285D01*
X138562295Y-83727619D02*
X138562295Y-83232381D01*
X138562295Y-83232381D02*
X138867057Y-83499047D01*
X138867057Y-83499047D02*
X138867057Y-83384762D01*
X138867057Y-83384762D02*
X138905152Y-83308571D01*
X138905152Y-83308571D02*
X138943247Y-83270476D01*
X138943247Y-83270476D02*
X139019438Y-83232381D01*
X139019438Y-83232381D02*
X139209914Y-83232381D01*
X139209914Y-83232381D02*
X139286104Y-83270476D01*
X139286104Y-83270476D02*
X139324200Y-83308571D01*
X139324200Y-83308571D02*
X139362295Y-83384762D01*
X139362295Y-83384762D02*
X139362295Y-83613333D01*
X139362295Y-83613333D02*
X139324200Y-83689524D01*
X139324200Y-83689524D02*
X139286104Y-83727619D01*
X138562295Y-82965714D02*
X138562295Y-82470476D01*
X138562295Y-82470476D02*
X138867057Y-82737142D01*
X138867057Y-82737142D02*
X138867057Y-82622857D01*
X138867057Y-82622857D02*
X138905152Y-82546666D01*
X138905152Y-82546666D02*
X138943247Y-82508571D01*
X138943247Y-82508571D02*
X139019438Y-82470476D01*
X139019438Y-82470476D02*
X139209914Y-82470476D01*
X139209914Y-82470476D02*
X139286104Y-82508571D01*
X139286104Y-82508571D02*
X139324200Y-82546666D01*
X139324200Y-82546666D02*
X139362295Y-82622857D01*
X139362295Y-82622857D02*
X139362295Y-82851428D01*
X139362295Y-82851428D02*
X139324200Y-82927619D01*
X139324200Y-82927619D02*
X139286104Y-82965714D01*
X169362295Y-125514285D02*
X168981342Y-125780952D01*
X169362295Y-125971428D02*
X168562295Y-125971428D01*
X168562295Y-125971428D02*
X168562295Y-125666666D01*
X168562295Y-125666666D02*
X168600390Y-125590476D01*
X168600390Y-125590476D02*
X168638485Y-125552381D01*
X168638485Y-125552381D02*
X168714676Y-125514285D01*
X168714676Y-125514285D02*
X168828961Y-125514285D01*
X168828961Y-125514285D02*
X168905152Y-125552381D01*
X168905152Y-125552381D02*
X168943247Y-125590476D01*
X168943247Y-125590476D02*
X168981342Y-125666666D01*
X168981342Y-125666666D02*
X168981342Y-125971428D01*
X169362295Y-124752381D02*
X169362295Y-125209524D01*
X169362295Y-124980952D02*
X168562295Y-124980952D01*
X168562295Y-124980952D02*
X168676580Y-125057143D01*
X168676580Y-125057143D02*
X168752771Y-125133333D01*
X168752771Y-125133333D02*
X168790866Y-125209524D01*
X168828961Y-124066666D02*
X169362295Y-124066666D01*
X168524200Y-124257142D02*
X169095628Y-124447619D01*
X169095628Y-124447619D02*
X169095628Y-123952380D01*
X158060714Y-121299795D02*
X157794047Y-120918842D01*
X157603571Y-121299795D02*
X157603571Y-120499795D01*
X157603571Y-120499795D02*
X157908333Y-120499795D01*
X157908333Y-120499795D02*
X157984523Y-120537890D01*
X157984523Y-120537890D02*
X158022618Y-120575985D01*
X158022618Y-120575985D02*
X158060714Y-120652176D01*
X158060714Y-120652176D02*
X158060714Y-120766461D01*
X158060714Y-120766461D02*
X158022618Y-120842652D01*
X158022618Y-120842652D02*
X157984523Y-120880747D01*
X157984523Y-120880747D02*
X157908333Y-120918842D01*
X157908333Y-120918842D02*
X157603571Y-120918842D01*
X158822618Y-121299795D02*
X158365475Y-121299795D01*
X158594047Y-121299795D02*
X158594047Y-120499795D01*
X158594047Y-120499795D02*
X158517856Y-120614080D01*
X158517856Y-120614080D02*
X158441666Y-120690271D01*
X158441666Y-120690271D02*
X158365475Y-120728366D01*
X159089285Y-120499795D02*
X159622619Y-120499795D01*
X159622619Y-120499795D02*
X159279761Y-121299795D01*
X185031666Y-102439819D02*
X185031666Y-103154104D01*
X185031666Y-103154104D02*
X184984047Y-103296961D01*
X184984047Y-103296961D02*
X184888809Y-103392200D01*
X184888809Y-103392200D02*
X184745952Y-103439819D01*
X184745952Y-103439819D02*
X184650714Y-103439819D01*
X185555476Y-103439819D02*
X185745952Y-103439819D01*
X185745952Y-103439819D02*
X185841190Y-103392200D01*
X185841190Y-103392200D02*
X185888809Y-103344580D01*
X185888809Y-103344580D02*
X185984047Y-103201723D01*
X185984047Y-103201723D02*
X186031666Y-103011247D01*
X186031666Y-103011247D02*
X186031666Y-102630295D01*
X186031666Y-102630295D02*
X185984047Y-102535057D01*
X185984047Y-102535057D02*
X185936428Y-102487438D01*
X185936428Y-102487438D02*
X185841190Y-102439819D01*
X185841190Y-102439819D02*
X185650714Y-102439819D01*
X185650714Y-102439819D02*
X185555476Y-102487438D01*
X185555476Y-102487438D02*
X185507857Y-102535057D01*
X185507857Y-102535057D02*
X185460238Y-102630295D01*
X185460238Y-102630295D02*
X185460238Y-102868390D01*
X185460238Y-102868390D02*
X185507857Y-102963628D01*
X185507857Y-102963628D02*
X185555476Y-103011247D01*
X185555476Y-103011247D02*
X185650714Y-103058866D01*
X185650714Y-103058866D02*
X185841190Y-103058866D01*
X185841190Y-103058866D02*
X185936428Y-103011247D01*
X185936428Y-103011247D02*
X185984047Y-102963628D01*
X185984047Y-102963628D02*
X186031666Y-102868390D01*
X126277355Y-84613332D02*
X126315451Y-84651428D01*
X126315451Y-84651428D02*
X126353546Y-84765713D01*
X126353546Y-84765713D02*
X126353546Y-84841904D01*
X126353546Y-84841904D02*
X126315451Y-84956190D01*
X126315451Y-84956190D02*
X126239260Y-85032380D01*
X126239260Y-85032380D02*
X126163070Y-85070475D01*
X126163070Y-85070475D02*
X126010689Y-85108571D01*
X126010689Y-85108571D02*
X125896403Y-85108571D01*
X125896403Y-85108571D02*
X125744022Y-85070475D01*
X125744022Y-85070475D02*
X125667831Y-85032380D01*
X125667831Y-85032380D02*
X125591641Y-84956190D01*
X125591641Y-84956190D02*
X125553546Y-84841904D01*
X125553546Y-84841904D02*
X125553546Y-84765713D01*
X125553546Y-84765713D02*
X125591641Y-84651428D01*
X125591641Y-84651428D02*
X125629736Y-84613332D01*
X125896403Y-84156190D02*
X125858308Y-84232380D01*
X125858308Y-84232380D02*
X125820212Y-84270475D01*
X125820212Y-84270475D02*
X125744022Y-84308571D01*
X125744022Y-84308571D02*
X125705927Y-84308571D01*
X125705927Y-84308571D02*
X125629736Y-84270475D01*
X125629736Y-84270475D02*
X125591641Y-84232380D01*
X125591641Y-84232380D02*
X125553546Y-84156190D01*
X125553546Y-84156190D02*
X125553546Y-84003809D01*
X125553546Y-84003809D02*
X125591641Y-83927618D01*
X125591641Y-83927618D02*
X125629736Y-83889523D01*
X125629736Y-83889523D02*
X125705927Y-83851428D01*
X125705927Y-83851428D02*
X125744022Y-83851428D01*
X125744022Y-83851428D02*
X125820212Y-83889523D01*
X125820212Y-83889523D02*
X125858308Y-83927618D01*
X125858308Y-83927618D02*
X125896403Y-84003809D01*
X125896403Y-84003809D02*
X125896403Y-84156190D01*
X125896403Y-84156190D02*
X125934498Y-84232380D01*
X125934498Y-84232380D02*
X125972593Y-84270475D01*
X125972593Y-84270475D02*
X126048784Y-84308571D01*
X126048784Y-84308571D02*
X126201165Y-84308571D01*
X126201165Y-84308571D02*
X126277355Y-84270475D01*
X126277355Y-84270475D02*
X126315451Y-84232380D01*
X126315451Y-84232380D02*
X126353546Y-84156190D01*
X126353546Y-84156190D02*
X126353546Y-84003809D01*
X126353546Y-84003809D02*
X126315451Y-83927618D01*
X126315451Y-83927618D02*
X126277355Y-83889523D01*
X126277355Y-83889523D02*
X126201165Y-83851428D01*
X126201165Y-83851428D02*
X126048784Y-83851428D01*
X126048784Y-83851428D02*
X125972593Y-83889523D01*
X125972593Y-83889523D02*
X125934498Y-83927618D01*
X125934498Y-83927618D02*
X125896403Y-84003809D01*
X167862295Y-125514285D02*
X167481342Y-125780952D01*
X167862295Y-125971428D02*
X167062295Y-125971428D01*
X167062295Y-125971428D02*
X167062295Y-125666666D01*
X167062295Y-125666666D02*
X167100390Y-125590476D01*
X167100390Y-125590476D02*
X167138485Y-125552381D01*
X167138485Y-125552381D02*
X167214676Y-125514285D01*
X167214676Y-125514285D02*
X167328961Y-125514285D01*
X167328961Y-125514285D02*
X167405152Y-125552381D01*
X167405152Y-125552381D02*
X167443247Y-125590476D01*
X167443247Y-125590476D02*
X167481342Y-125666666D01*
X167481342Y-125666666D02*
X167481342Y-125971428D01*
X167862295Y-124752381D02*
X167862295Y-125209524D01*
X167862295Y-124980952D02*
X167062295Y-124980952D01*
X167062295Y-124980952D02*
X167176580Y-125057143D01*
X167176580Y-125057143D02*
X167252771Y-125133333D01*
X167252771Y-125133333D02*
X167290866Y-125209524D01*
X167062295Y-124028571D02*
X167062295Y-124409523D01*
X167062295Y-124409523D02*
X167443247Y-124447619D01*
X167443247Y-124447619D02*
X167405152Y-124409523D01*
X167405152Y-124409523D02*
X167367057Y-124333333D01*
X167367057Y-124333333D02*
X167367057Y-124142857D01*
X167367057Y-124142857D02*
X167405152Y-124066666D01*
X167405152Y-124066666D02*
X167443247Y-124028571D01*
X167443247Y-124028571D02*
X167519438Y-123990476D01*
X167519438Y-123990476D02*
X167709914Y-123990476D01*
X167709914Y-123990476D02*
X167786104Y-124028571D01*
X167786104Y-124028571D02*
X167824200Y-124066666D01*
X167824200Y-124066666D02*
X167862295Y-124142857D01*
X167862295Y-124142857D02*
X167862295Y-124333333D01*
X167862295Y-124333333D02*
X167824200Y-124409523D01*
X167824200Y-124409523D02*
X167786104Y-124447619D01*
X173485714Y-108862295D02*
X173219047Y-108481342D01*
X173028571Y-108862295D02*
X173028571Y-108062295D01*
X173028571Y-108062295D02*
X173333333Y-108062295D01*
X173333333Y-108062295D02*
X173409523Y-108100390D01*
X173409523Y-108100390D02*
X173447618Y-108138485D01*
X173447618Y-108138485D02*
X173485714Y-108214676D01*
X173485714Y-108214676D02*
X173485714Y-108328961D01*
X173485714Y-108328961D02*
X173447618Y-108405152D01*
X173447618Y-108405152D02*
X173409523Y-108443247D01*
X173409523Y-108443247D02*
X173333333Y-108481342D01*
X173333333Y-108481342D02*
X173028571Y-108481342D01*
X173752380Y-108062295D02*
X174247618Y-108062295D01*
X174247618Y-108062295D02*
X173980952Y-108367057D01*
X173980952Y-108367057D02*
X174095237Y-108367057D01*
X174095237Y-108367057D02*
X174171428Y-108405152D01*
X174171428Y-108405152D02*
X174209523Y-108443247D01*
X174209523Y-108443247D02*
X174247618Y-108519438D01*
X174247618Y-108519438D02*
X174247618Y-108709914D01*
X174247618Y-108709914D02*
X174209523Y-108786104D01*
X174209523Y-108786104D02*
X174171428Y-108824200D01*
X174171428Y-108824200D02*
X174095237Y-108862295D01*
X174095237Y-108862295D02*
X173866666Y-108862295D01*
X173866666Y-108862295D02*
X173790475Y-108824200D01*
X173790475Y-108824200D02*
X173752380Y-108786104D01*
X174933333Y-108328961D02*
X174933333Y-108862295D01*
X174742857Y-108024200D02*
X174552380Y-108595628D01*
X174552380Y-108595628D02*
X175047619Y-108595628D01*
X180362295Y-125084285D02*
X179981342Y-125350952D01*
X180362295Y-125541428D02*
X179562295Y-125541428D01*
X179562295Y-125541428D02*
X179562295Y-125236666D01*
X179562295Y-125236666D02*
X179600390Y-125160476D01*
X179600390Y-125160476D02*
X179638485Y-125122381D01*
X179638485Y-125122381D02*
X179714676Y-125084285D01*
X179714676Y-125084285D02*
X179828961Y-125084285D01*
X179828961Y-125084285D02*
X179905152Y-125122381D01*
X179905152Y-125122381D02*
X179943247Y-125160476D01*
X179943247Y-125160476D02*
X179981342Y-125236666D01*
X179981342Y-125236666D02*
X179981342Y-125541428D01*
X180362295Y-124322381D02*
X180362295Y-124779524D01*
X180362295Y-124550952D02*
X179562295Y-124550952D01*
X179562295Y-124550952D02*
X179676580Y-124627143D01*
X179676580Y-124627143D02*
X179752771Y-124703333D01*
X179752771Y-124703333D02*
X179790866Y-124779524D01*
X180362295Y-123941428D02*
X180362295Y-123789047D01*
X180362295Y-123789047D02*
X180324200Y-123712857D01*
X180324200Y-123712857D02*
X180286104Y-123674761D01*
X180286104Y-123674761D02*
X180171819Y-123598571D01*
X180171819Y-123598571D02*
X180019438Y-123560476D01*
X180019438Y-123560476D02*
X179714676Y-123560476D01*
X179714676Y-123560476D02*
X179638485Y-123598571D01*
X179638485Y-123598571D02*
X179600390Y-123636666D01*
X179600390Y-123636666D02*
X179562295Y-123712857D01*
X179562295Y-123712857D02*
X179562295Y-123865238D01*
X179562295Y-123865238D02*
X179600390Y-123941428D01*
X179600390Y-123941428D02*
X179638485Y-123979523D01*
X179638485Y-123979523D02*
X179714676Y-124017619D01*
X179714676Y-124017619D02*
X179905152Y-124017619D01*
X179905152Y-124017619D02*
X179981342Y-123979523D01*
X179981342Y-123979523D02*
X180019438Y-123941428D01*
X180019438Y-123941428D02*
X180057533Y-123865238D01*
X180057533Y-123865238D02*
X180057533Y-123712857D01*
X180057533Y-123712857D02*
X180019438Y-123636666D01*
X180019438Y-123636666D02*
X179981342Y-123598571D01*
X179981342Y-123598571D02*
X179905152Y-123560476D01*
X152485714Y-89862295D02*
X152219047Y-89481342D01*
X152028571Y-89862295D02*
X152028571Y-89062295D01*
X152028571Y-89062295D02*
X152333333Y-89062295D01*
X152333333Y-89062295D02*
X152409523Y-89100390D01*
X152409523Y-89100390D02*
X152447618Y-89138485D01*
X152447618Y-89138485D02*
X152485714Y-89214676D01*
X152485714Y-89214676D02*
X152485714Y-89328961D01*
X152485714Y-89328961D02*
X152447618Y-89405152D01*
X152447618Y-89405152D02*
X152409523Y-89443247D01*
X152409523Y-89443247D02*
X152333333Y-89481342D01*
X152333333Y-89481342D02*
X152028571Y-89481342D01*
X152790475Y-89138485D02*
X152828571Y-89100390D01*
X152828571Y-89100390D02*
X152904761Y-89062295D01*
X152904761Y-89062295D02*
X153095237Y-89062295D01*
X153095237Y-89062295D02*
X153171428Y-89100390D01*
X153171428Y-89100390D02*
X153209523Y-89138485D01*
X153209523Y-89138485D02*
X153247618Y-89214676D01*
X153247618Y-89214676D02*
X153247618Y-89290866D01*
X153247618Y-89290866D02*
X153209523Y-89405152D01*
X153209523Y-89405152D02*
X152752380Y-89862295D01*
X152752380Y-89862295D02*
X153247618Y-89862295D01*
X153628571Y-89862295D02*
X153780952Y-89862295D01*
X153780952Y-89862295D02*
X153857142Y-89824200D01*
X153857142Y-89824200D02*
X153895238Y-89786104D01*
X153895238Y-89786104D02*
X153971428Y-89671819D01*
X153971428Y-89671819D02*
X154009523Y-89519438D01*
X154009523Y-89519438D02*
X154009523Y-89214676D01*
X154009523Y-89214676D02*
X153971428Y-89138485D01*
X153971428Y-89138485D02*
X153933333Y-89100390D01*
X153933333Y-89100390D02*
X153857142Y-89062295D01*
X153857142Y-89062295D02*
X153704761Y-89062295D01*
X153704761Y-89062295D02*
X153628571Y-89100390D01*
X153628571Y-89100390D02*
X153590476Y-89138485D01*
X153590476Y-89138485D02*
X153552380Y-89214676D01*
X153552380Y-89214676D02*
X153552380Y-89405152D01*
X153552380Y-89405152D02*
X153590476Y-89481342D01*
X153590476Y-89481342D02*
X153628571Y-89519438D01*
X153628571Y-89519438D02*
X153704761Y-89557533D01*
X153704761Y-89557533D02*
X153857142Y-89557533D01*
X153857142Y-89557533D02*
X153933333Y-89519438D01*
X153933333Y-89519438D02*
X153971428Y-89481342D01*
X153971428Y-89481342D02*
X154009523Y-89405152D01*
X152862295Y-102024285D02*
X152481342Y-102290952D01*
X152862295Y-102481428D02*
X152062295Y-102481428D01*
X152062295Y-102481428D02*
X152062295Y-102176666D01*
X152062295Y-102176666D02*
X152100390Y-102100476D01*
X152100390Y-102100476D02*
X152138485Y-102062381D01*
X152138485Y-102062381D02*
X152214676Y-102024285D01*
X152214676Y-102024285D02*
X152328961Y-102024285D01*
X152328961Y-102024285D02*
X152405152Y-102062381D01*
X152405152Y-102062381D02*
X152443247Y-102100476D01*
X152443247Y-102100476D02*
X152481342Y-102176666D01*
X152481342Y-102176666D02*
X152481342Y-102481428D01*
X152062295Y-101757619D02*
X152062295Y-101262381D01*
X152062295Y-101262381D02*
X152367057Y-101529047D01*
X152367057Y-101529047D02*
X152367057Y-101414762D01*
X152367057Y-101414762D02*
X152405152Y-101338571D01*
X152405152Y-101338571D02*
X152443247Y-101300476D01*
X152443247Y-101300476D02*
X152519438Y-101262381D01*
X152519438Y-101262381D02*
X152709914Y-101262381D01*
X152709914Y-101262381D02*
X152786104Y-101300476D01*
X152786104Y-101300476D02*
X152824200Y-101338571D01*
X152824200Y-101338571D02*
X152862295Y-101414762D01*
X152862295Y-101414762D02*
X152862295Y-101643333D01*
X152862295Y-101643333D02*
X152824200Y-101719524D01*
X152824200Y-101719524D02*
X152786104Y-101757619D01*
X152862295Y-100500476D02*
X152862295Y-100957619D01*
X152862295Y-100729047D02*
X152062295Y-100729047D01*
X152062295Y-100729047D02*
X152176580Y-100805238D01*
X152176580Y-100805238D02*
X152252771Y-100881428D01*
X152252771Y-100881428D02*
X152290866Y-100957619D01*
X182786104Y-99014285D02*
X182824200Y-99052381D01*
X182824200Y-99052381D02*
X182862295Y-99166666D01*
X182862295Y-99166666D02*
X182862295Y-99242857D01*
X182862295Y-99242857D02*
X182824200Y-99357143D01*
X182824200Y-99357143D02*
X182748009Y-99433333D01*
X182748009Y-99433333D02*
X182671819Y-99471428D01*
X182671819Y-99471428D02*
X182519438Y-99509524D01*
X182519438Y-99509524D02*
X182405152Y-99509524D01*
X182405152Y-99509524D02*
X182252771Y-99471428D01*
X182252771Y-99471428D02*
X182176580Y-99433333D01*
X182176580Y-99433333D02*
X182100390Y-99357143D01*
X182100390Y-99357143D02*
X182062295Y-99242857D01*
X182062295Y-99242857D02*
X182062295Y-99166666D01*
X182062295Y-99166666D02*
X182100390Y-99052381D01*
X182100390Y-99052381D02*
X182138485Y-99014285D01*
X182062295Y-98328571D02*
X182062295Y-98480952D01*
X182062295Y-98480952D02*
X182100390Y-98557143D01*
X182100390Y-98557143D02*
X182138485Y-98595238D01*
X182138485Y-98595238D02*
X182252771Y-98671428D01*
X182252771Y-98671428D02*
X182405152Y-98709524D01*
X182405152Y-98709524D02*
X182709914Y-98709524D01*
X182709914Y-98709524D02*
X182786104Y-98671428D01*
X182786104Y-98671428D02*
X182824200Y-98633333D01*
X182824200Y-98633333D02*
X182862295Y-98557143D01*
X182862295Y-98557143D02*
X182862295Y-98404762D01*
X182862295Y-98404762D02*
X182824200Y-98328571D01*
X182824200Y-98328571D02*
X182786104Y-98290476D01*
X182786104Y-98290476D02*
X182709914Y-98252381D01*
X182709914Y-98252381D02*
X182519438Y-98252381D01*
X182519438Y-98252381D02*
X182443247Y-98290476D01*
X182443247Y-98290476D02*
X182405152Y-98328571D01*
X182405152Y-98328571D02*
X182367057Y-98404762D01*
X182367057Y-98404762D02*
X182367057Y-98557143D01*
X182367057Y-98557143D02*
X182405152Y-98633333D01*
X182405152Y-98633333D02*
X182443247Y-98671428D01*
X182443247Y-98671428D02*
X182519438Y-98709524D01*
X182862295Y-97490476D02*
X182862295Y-97947619D01*
X182862295Y-97719047D02*
X182062295Y-97719047D01*
X182062295Y-97719047D02*
X182176580Y-97795238D01*
X182176580Y-97795238D02*
X182252771Y-97871428D01*
X182252771Y-97871428D02*
X182290866Y-97947619D01*
X126277355Y-82633332D02*
X126315451Y-82671428D01*
X126315451Y-82671428D02*
X126353546Y-82785713D01*
X126353546Y-82785713D02*
X126353546Y-82861904D01*
X126353546Y-82861904D02*
X126315451Y-82976190D01*
X126315451Y-82976190D02*
X126239260Y-83052380D01*
X126239260Y-83052380D02*
X126163070Y-83090475D01*
X126163070Y-83090475D02*
X126010689Y-83128571D01*
X126010689Y-83128571D02*
X125896403Y-83128571D01*
X125896403Y-83128571D02*
X125744022Y-83090475D01*
X125744022Y-83090475D02*
X125667831Y-83052380D01*
X125667831Y-83052380D02*
X125591641Y-82976190D01*
X125591641Y-82976190D02*
X125553546Y-82861904D01*
X125553546Y-82861904D02*
X125553546Y-82785713D01*
X125553546Y-82785713D02*
X125591641Y-82671428D01*
X125591641Y-82671428D02*
X125629736Y-82633332D01*
X125553546Y-82366666D02*
X125553546Y-81833332D01*
X125553546Y-81833332D02*
X126353546Y-82176190D01*
X131793546Y-86190475D02*
X130993546Y-86190475D01*
X130993546Y-86190475D02*
X130993546Y-85999999D01*
X130993546Y-85999999D02*
X131031641Y-85885713D01*
X131031641Y-85885713D02*
X131107831Y-85809523D01*
X131107831Y-85809523D02*
X131184022Y-85771428D01*
X131184022Y-85771428D02*
X131336403Y-85733332D01*
X131336403Y-85733332D02*
X131450689Y-85733332D01*
X131450689Y-85733332D02*
X131603070Y-85771428D01*
X131603070Y-85771428D02*
X131679260Y-85809523D01*
X131679260Y-85809523D02*
X131755451Y-85885713D01*
X131755451Y-85885713D02*
X131793546Y-85999999D01*
X131793546Y-85999999D02*
X131793546Y-86190475D01*
X131069736Y-85428571D02*
X131031641Y-85390475D01*
X131031641Y-85390475D02*
X130993546Y-85314285D01*
X130993546Y-85314285D02*
X130993546Y-85123809D01*
X130993546Y-85123809D02*
X131031641Y-85047618D01*
X131031641Y-85047618D02*
X131069736Y-85009523D01*
X131069736Y-85009523D02*
X131145927Y-84971428D01*
X131145927Y-84971428D02*
X131222117Y-84971428D01*
X131222117Y-84971428D02*
X131336403Y-85009523D01*
X131336403Y-85009523D02*
X131793546Y-85466666D01*
X131793546Y-85466666D02*
X131793546Y-84971428D01*
X165485714Y-114893604D02*
X165447618Y-114931700D01*
X165447618Y-114931700D02*
X165333333Y-114969795D01*
X165333333Y-114969795D02*
X165257142Y-114969795D01*
X165257142Y-114969795D02*
X165142856Y-114931700D01*
X165142856Y-114931700D02*
X165066666Y-114855509D01*
X165066666Y-114855509D02*
X165028571Y-114779319D01*
X165028571Y-114779319D02*
X164990475Y-114626938D01*
X164990475Y-114626938D02*
X164990475Y-114512652D01*
X164990475Y-114512652D02*
X165028571Y-114360271D01*
X165028571Y-114360271D02*
X165066666Y-114284080D01*
X165066666Y-114284080D02*
X165142856Y-114207890D01*
X165142856Y-114207890D02*
X165257142Y-114169795D01*
X165257142Y-114169795D02*
X165333333Y-114169795D01*
X165333333Y-114169795D02*
X165447618Y-114207890D01*
X165447618Y-114207890D02*
X165485714Y-114245985D01*
X166247618Y-114969795D02*
X165790475Y-114969795D01*
X166019047Y-114969795D02*
X166019047Y-114169795D01*
X166019047Y-114169795D02*
X165942856Y-114284080D01*
X165942856Y-114284080D02*
X165866666Y-114360271D01*
X165866666Y-114360271D02*
X165790475Y-114398366D01*
X166971428Y-114169795D02*
X166590476Y-114169795D01*
X166590476Y-114169795D02*
X166552380Y-114550747D01*
X166552380Y-114550747D02*
X166590476Y-114512652D01*
X166590476Y-114512652D02*
X166666666Y-114474557D01*
X166666666Y-114474557D02*
X166857142Y-114474557D01*
X166857142Y-114474557D02*
X166933333Y-114512652D01*
X166933333Y-114512652D02*
X166971428Y-114550747D01*
X166971428Y-114550747D02*
X167009523Y-114626938D01*
X167009523Y-114626938D02*
X167009523Y-114817414D01*
X167009523Y-114817414D02*
X166971428Y-114893604D01*
X166971428Y-114893604D02*
X166933333Y-114931700D01*
X166933333Y-114931700D02*
X166857142Y-114969795D01*
X166857142Y-114969795D02*
X166666666Y-114969795D01*
X166666666Y-114969795D02*
X166590476Y-114931700D01*
X166590476Y-114931700D02*
X166552380Y-114893604D01*
X160886104Y-79014285D02*
X160924200Y-79052381D01*
X160924200Y-79052381D02*
X160962295Y-79166666D01*
X160962295Y-79166666D02*
X160962295Y-79242857D01*
X160962295Y-79242857D02*
X160924200Y-79357143D01*
X160924200Y-79357143D02*
X160848009Y-79433333D01*
X160848009Y-79433333D02*
X160771819Y-79471428D01*
X160771819Y-79471428D02*
X160619438Y-79509524D01*
X160619438Y-79509524D02*
X160505152Y-79509524D01*
X160505152Y-79509524D02*
X160352771Y-79471428D01*
X160352771Y-79471428D02*
X160276580Y-79433333D01*
X160276580Y-79433333D02*
X160200390Y-79357143D01*
X160200390Y-79357143D02*
X160162295Y-79242857D01*
X160162295Y-79242857D02*
X160162295Y-79166666D01*
X160162295Y-79166666D02*
X160200390Y-79052381D01*
X160200390Y-79052381D02*
X160238485Y-79014285D01*
X160428961Y-78328571D02*
X160962295Y-78328571D01*
X160124200Y-78519047D02*
X160695628Y-78709524D01*
X160695628Y-78709524D02*
X160695628Y-78214285D01*
X160428961Y-77566666D02*
X160962295Y-77566666D01*
X160124200Y-77757142D02*
X160695628Y-77947619D01*
X160695628Y-77947619D02*
X160695628Y-77452380D01*
X168559524Y-115769795D02*
X168559524Y-114969795D01*
X168559524Y-114969795D02*
X168750000Y-114969795D01*
X168750000Y-114969795D02*
X168864286Y-115007890D01*
X168864286Y-115007890D02*
X168940476Y-115084080D01*
X168940476Y-115084080D02*
X168978571Y-115160271D01*
X168978571Y-115160271D02*
X169016667Y-115312652D01*
X169016667Y-115312652D02*
X169016667Y-115426938D01*
X169016667Y-115426938D02*
X168978571Y-115579319D01*
X168978571Y-115579319D02*
X168940476Y-115655509D01*
X168940476Y-115655509D02*
X168864286Y-115731700D01*
X168864286Y-115731700D02*
X168750000Y-115769795D01*
X168750000Y-115769795D02*
X168559524Y-115769795D01*
X169397619Y-115769795D02*
X169550000Y-115769795D01*
X169550000Y-115769795D02*
X169626190Y-115731700D01*
X169626190Y-115731700D02*
X169664286Y-115693604D01*
X169664286Y-115693604D02*
X169740476Y-115579319D01*
X169740476Y-115579319D02*
X169778571Y-115426938D01*
X169778571Y-115426938D02*
X169778571Y-115122176D01*
X169778571Y-115122176D02*
X169740476Y-115045985D01*
X169740476Y-115045985D02*
X169702381Y-115007890D01*
X169702381Y-115007890D02*
X169626190Y-114969795D01*
X169626190Y-114969795D02*
X169473809Y-114969795D01*
X169473809Y-114969795D02*
X169397619Y-115007890D01*
X169397619Y-115007890D02*
X169359524Y-115045985D01*
X169359524Y-115045985D02*
X169321428Y-115122176D01*
X169321428Y-115122176D02*
X169321428Y-115312652D01*
X169321428Y-115312652D02*
X169359524Y-115388842D01*
X169359524Y-115388842D02*
X169397619Y-115426938D01*
X169397619Y-115426938D02*
X169473809Y-115465033D01*
X169473809Y-115465033D02*
X169626190Y-115465033D01*
X169626190Y-115465033D02*
X169702381Y-115426938D01*
X169702381Y-115426938D02*
X169740476Y-115388842D01*
X169740476Y-115388842D02*
X169778571Y-115312652D01*
X116283333Y-85712295D02*
X116283333Y-86283723D01*
X116283333Y-86283723D02*
X116245238Y-86398009D01*
X116245238Y-86398009D02*
X116169047Y-86474200D01*
X116169047Y-86474200D02*
X116054762Y-86512295D01*
X116054762Y-86512295D02*
X115978571Y-86512295D01*
X116626190Y-85788485D02*
X116664286Y-85750390D01*
X116664286Y-85750390D02*
X116740476Y-85712295D01*
X116740476Y-85712295D02*
X116930952Y-85712295D01*
X116930952Y-85712295D02*
X117007143Y-85750390D01*
X117007143Y-85750390D02*
X117045238Y-85788485D01*
X117045238Y-85788485D02*
X117083333Y-85864676D01*
X117083333Y-85864676D02*
X117083333Y-85940866D01*
X117083333Y-85940866D02*
X117045238Y-86055152D01*
X117045238Y-86055152D02*
X116588095Y-86512295D01*
X116588095Y-86512295D02*
X117083333Y-86512295D01*
X143662295Y-119109523D02*
X144309914Y-119109523D01*
X144309914Y-119109523D02*
X144386104Y-119071428D01*
X144386104Y-119071428D02*
X144424200Y-119033333D01*
X144424200Y-119033333D02*
X144462295Y-118957142D01*
X144462295Y-118957142D02*
X144462295Y-118804761D01*
X144462295Y-118804761D02*
X144424200Y-118728571D01*
X144424200Y-118728571D02*
X144386104Y-118690476D01*
X144386104Y-118690476D02*
X144309914Y-118652380D01*
X144309914Y-118652380D02*
X143662295Y-118652380D01*
X143928961Y-117928571D02*
X144462295Y-117928571D01*
X143624200Y-118119047D02*
X144195628Y-118309524D01*
X144195628Y-118309524D02*
X144195628Y-117814285D01*
X161916104Y-79014285D02*
X161954200Y-79052381D01*
X161954200Y-79052381D02*
X161992295Y-79166666D01*
X161992295Y-79166666D02*
X161992295Y-79242857D01*
X161992295Y-79242857D02*
X161954200Y-79357143D01*
X161954200Y-79357143D02*
X161878009Y-79433333D01*
X161878009Y-79433333D02*
X161801819Y-79471428D01*
X161801819Y-79471428D02*
X161649438Y-79509524D01*
X161649438Y-79509524D02*
X161535152Y-79509524D01*
X161535152Y-79509524D02*
X161382771Y-79471428D01*
X161382771Y-79471428D02*
X161306580Y-79433333D01*
X161306580Y-79433333D02*
X161230390Y-79357143D01*
X161230390Y-79357143D02*
X161192295Y-79242857D01*
X161192295Y-79242857D02*
X161192295Y-79166666D01*
X161192295Y-79166666D02*
X161230390Y-79052381D01*
X161230390Y-79052381D02*
X161268485Y-79014285D01*
X161458961Y-78328571D02*
X161992295Y-78328571D01*
X161154200Y-78519047D02*
X161725628Y-78709524D01*
X161725628Y-78709524D02*
X161725628Y-78214285D01*
X161268485Y-77947619D02*
X161230390Y-77909523D01*
X161230390Y-77909523D02*
X161192295Y-77833333D01*
X161192295Y-77833333D02*
X161192295Y-77642857D01*
X161192295Y-77642857D02*
X161230390Y-77566666D01*
X161230390Y-77566666D02*
X161268485Y-77528571D01*
X161268485Y-77528571D02*
X161344676Y-77490476D01*
X161344676Y-77490476D02*
X161420866Y-77490476D01*
X161420866Y-77490476D02*
X161535152Y-77528571D01*
X161535152Y-77528571D02*
X161992295Y-77985714D01*
X161992295Y-77985714D02*
X161992295Y-77490476D01*
X160498604Y-123176785D02*
X160536700Y-123214881D01*
X160536700Y-123214881D02*
X160574795Y-123329166D01*
X160574795Y-123329166D02*
X160574795Y-123405357D01*
X160574795Y-123405357D02*
X160536700Y-123519643D01*
X160536700Y-123519643D02*
X160460509Y-123595833D01*
X160460509Y-123595833D02*
X160384319Y-123633928D01*
X160384319Y-123633928D02*
X160231938Y-123672024D01*
X160231938Y-123672024D02*
X160117652Y-123672024D01*
X160117652Y-123672024D02*
X159965271Y-123633928D01*
X159965271Y-123633928D02*
X159889080Y-123595833D01*
X159889080Y-123595833D02*
X159812890Y-123519643D01*
X159812890Y-123519643D02*
X159774795Y-123405357D01*
X159774795Y-123405357D02*
X159774795Y-123329166D01*
X159774795Y-123329166D02*
X159812890Y-123214881D01*
X159812890Y-123214881D02*
X159850985Y-123176785D01*
X159850985Y-122872024D02*
X159812890Y-122833928D01*
X159812890Y-122833928D02*
X159774795Y-122757738D01*
X159774795Y-122757738D02*
X159774795Y-122567262D01*
X159774795Y-122567262D02*
X159812890Y-122491071D01*
X159812890Y-122491071D02*
X159850985Y-122452976D01*
X159850985Y-122452976D02*
X159927176Y-122414881D01*
X159927176Y-122414881D02*
X160003366Y-122414881D01*
X160003366Y-122414881D02*
X160117652Y-122452976D01*
X160117652Y-122452976D02*
X160574795Y-122910119D01*
X160574795Y-122910119D02*
X160574795Y-122414881D01*
X159774795Y-121691071D02*
X159774795Y-122072023D01*
X159774795Y-122072023D02*
X160155747Y-122110119D01*
X160155747Y-122110119D02*
X160117652Y-122072023D01*
X160117652Y-122072023D02*
X160079557Y-121995833D01*
X160079557Y-121995833D02*
X160079557Y-121805357D01*
X160079557Y-121805357D02*
X160117652Y-121729166D01*
X160117652Y-121729166D02*
X160155747Y-121691071D01*
X160155747Y-121691071D02*
X160231938Y-121652976D01*
X160231938Y-121652976D02*
X160422414Y-121652976D01*
X160422414Y-121652976D02*
X160498604Y-121691071D01*
X160498604Y-121691071D02*
X160536700Y-121729166D01*
X160536700Y-121729166D02*
X160574795Y-121805357D01*
X160574795Y-121805357D02*
X160574795Y-121995833D01*
X160574795Y-121995833D02*
X160536700Y-122072023D01*
X160536700Y-122072023D02*
X160498604Y-122110119D01*
X146036104Y-105002725D02*
X146074200Y-105040821D01*
X146074200Y-105040821D02*
X146112295Y-105155106D01*
X146112295Y-105155106D02*
X146112295Y-105231297D01*
X146112295Y-105231297D02*
X146074200Y-105345583D01*
X146074200Y-105345583D02*
X145998009Y-105421773D01*
X145998009Y-105421773D02*
X145921819Y-105459868D01*
X145921819Y-105459868D02*
X145769438Y-105497964D01*
X145769438Y-105497964D02*
X145655152Y-105497964D01*
X145655152Y-105497964D02*
X145502771Y-105459868D01*
X145502771Y-105459868D02*
X145426580Y-105421773D01*
X145426580Y-105421773D02*
X145350390Y-105345583D01*
X145350390Y-105345583D02*
X145312295Y-105231297D01*
X145312295Y-105231297D02*
X145312295Y-105155106D01*
X145312295Y-105155106D02*
X145350390Y-105040821D01*
X145350390Y-105040821D02*
X145388485Y-105002725D01*
X146112295Y-104240821D02*
X146112295Y-104697964D01*
X146112295Y-104469392D02*
X145312295Y-104469392D01*
X145312295Y-104469392D02*
X145426580Y-104545583D01*
X145426580Y-104545583D02*
X145502771Y-104621773D01*
X145502771Y-104621773D02*
X145540866Y-104697964D01*
X145312295Y-103974154D02*
X145312295Y-103440820D01*
X145312295Y-103440820D02*
X146112295Y-103783678D01*
X153614795Y-117854285D02*
X153233842Y-118120952D01*
X153614795Y-118311428D02*
X152814795Y-118311428D01*
X152814795Y-118311428D02*
X152814795Y-118006666D01*
X152814795Y-118006666D02*
X152852890Y-117930476D01*
X152852890Y-117930476D02*
X152890985Y-117892381D01*
X152890985Y-117892381D02*
X152967176Y-117854285D01*
X152967176Y-117854285D02*
X153081461Y-117854285D01*
X153081461Y-117854285D02*
X153157652Y-117892381D01*
X153157652Y-117892381D02*
X153195747Y-117930476D01*
X153195747Y-117930476D02*
X153233842Y-118006666D01*
X153233842Y-118006666D02*
X153233842Y-118311428D01*
X152890985Y-117549524D02*
X152852890Y-117511428D01*
X152852890Y-117511428D02*
X152814795Y-117435238D01*
X152814795Y-117435238D02*
X152814795Y-117244762D01*
X152814795Y-117244762D02*
X152852890Y-117168571D01*
X152852890Y-117168571D02*
X152890985Y-117130476D01*
X152890985Y-117130476D02*
X152967176Y-117092381D01*
X152967176Y-117092381D02*
X153043366Y-117092381D01*
X153043366Y-117092381D02*
X153157652Y-117130476D01*
X153157652Y-117130476D02*
X153614795Y-117587619D01*
X153614795Y-117587619D02*
X153614795Y-117092381D01*
X152814795Y-116406666D02*
X152814795Y-116559047D01*
X152814795Y-116559047D02*
X152852890Y-116635238D01*
X152852890Y-116635238D02*
X152890985Y-116673333D01*
X152890985Y-116673333D02*
X153005271Y-116749523D01*
X153005271Y-116749523D02*
X153157652Y-116787619D01*
X153157652Y-116787619D02*
X153462414Y-116787619D01*
X153462414Y-116787619D02*
X153538604Y-116749523D01*
X153538604Y-116749523D02*
X153576700Y-116711428D01*
X153576700Y-116711428D02*
X153614795Y-116635238D01*
X153614795Y-116635238D02*
X153614795Y-116482857D01*
X153614795Y-116482857D02*
X153576700Y-116406666D01*
X153576700Y-116406666D02*
X153538604Y-116368571D01*
X153538604Y-116368571D02*
X153462414Y-116330476D01*
X153462414Y-116330476D02*
X153271938Y-116330476D01*
X153271938Y-116330476D02*
X153195747Y-116368571D01*
X153195747Y-116368571D02*
X153157652Y-116406666D01*
X153157652Y-116406666D02*
X153119557Y-116482857D01*
X153119557Y-116482857D02*
X153119557Y-116635238D01*
X153119557Y-116635238D02*
X153157652Y-116711428D01*
X153157652Y-116711428D02*
X153195747Y-116749523D01*
X153195747Y-116749523D02*
X153271938Y-116787619D01*
X159786104Y-79034285D02*
X159824200Y-79072381D01*
X159824200Y-79072381D02*
X159862295Y-79186666D01*
X159862295Y-79186666D02*
X159862295Y-79262857D01*
X159862295Y-79262857D02*
X159824200Y-79377143D01*
X159824200Y-79377143D02*
X159748009Y-79453333D01*
X159748009Y-79453333D02*
X159671819Y-79491428D01*
X159671819Y-79491428D02*
X159519438Y-79529524D01*
X159519438Y-79529524D02*
X159405152Y-79529524D01*
X159405152Y-79529524D02*
X159252771Y-79491428D01*
X159252771Y-79491428D02*
X159176580Y-79453333D01*
X159176580Y-79453333D02*
X159100390Y-79377143D01*
X159100390Y-79377143D02*
X159062295Y-79262857D01*
X159062295Y-79262857D02*
X159062295Y-79186666D01*
X159062295Y-79186666D02*
X159100390Y-79072381D01*
X159100390Y-79072381D02*
X159138485Y-79034285D01*
X159062295Y-78348571D02*
X159062295Y-78500952D01*
X159062295Y-78500952D02*
X159100390Y-78577143D01*
X159100390Y-78577143D02*
X159138485Y-78615238D01*
X159138485Y-78615238D02*
X159252771Y-78691428D01*
X159252771Y-78691428D02*
X159405152Y-78729524D01*
X159405152Y-78729524D02*
X159709914Y-78729524D01*
X159709914Y-78729524D02*
X159786104Y-78691428D01*
X159786104Y-78691428D02*
X159824200Y-78653333D01*
X159824200Y-78653333D02*
X159862295Y-78577143D01*
X159862295Y-78577143D02*
X159862295Y-78424762D01*
X159862295Y-78424762D02*
X159824200Y-78348571D01*
X159824200Y-78348571D02*
X159786104Y-78310476D01*
X159786104Y-78310476D02*
X159709914Y-78272381D01*
X159709914Y-78272381D02*
X159519438Y-78272381D01*
X159519438Y-78272381D02*
X159443247Y-78310476D01*
X159443247Y-78310476D02*
X159405152Y-78348571D01*
X159405152Y-78348571D02*
X159367057Y-78424762D01*
X159367057Y-78424762D02*
X159367057Y-78577143D01*
X159367057Y-78577143D02*
X159405152Y-78653333D01*
X159405152Y-78653333D02*
X159443247Y-78691428D01*
X159443247Y-78691428D02*
X159519438Y-78729524D01*
X159062295Y-77777142D02*
X159062295Y-77700952D01*
X159062295Y-77700952D02*
X159100390Y-77624761D01*
X159100390Y-77624761D02*
X159138485Y-77586666D01*
X159138485Y-77586666D02*
X159214676Y-77548571D01*
X159214676Y-77548571D02*
X159367057Y-77510476D01*
X159367057Y-77510476D02*
X159557533Y-77510476D01*
X159557533Y-77510476D02*
X159709914Y-77548571D01*
X159709914Y-77548571D02*
X159786104Y-77586666D01*
X159786104Y-77586666D02*
X159824200Y-77624761D01*
X159824200Y-77624761D02*
X159862295Y-77700952D01*
X159862295Y-77700952D02*
X159862295Y-77777142D01*
X159862295Y-77777142D02*
X159824200Y-77853333D01*
X159824200Y-77853333D02*
X159786104Y-77891428D01*
X159786104Y-77891428D02*
X159709914Y-77929523D01*
X159709914Y-77929523D02*
X159557533Y-77967619D01*
X159557533Y-77967619D02*
X159367057Y-77967619D01*
X159367057Y-77967619D02*
X159214676Y-77929523D01*
X159214676Y-77929523D02*
X159138485Y-77891428D01*
X159138485Y-77891428D02*
X159100390Y-77853333D01*
X159100390Y-77853333D02*
X159062295Y-77777142D01*
X152615714Y-125911104D02*
X152577618Y-125949200D01*
X152577618Y-125949200D02*
X152463333Y-125987295D01*
X152463333Y-125987295D02*
X152387142Y-125987295D01*
X152387142Y-125987295D02*
X152272856Y-125949200D01*
X152272856Y-125949200D02*
X152196666Y-125873009D01*
X152196666Y-125873009D02*
X152158571Y-125796819D01*
X152158571Y-125796819D02*
X152120475Y-125644438D01*
X152120475Y-125644438D02*
X152120475Y-125530152D01*
X152120475Y-125530152D02*
X152158571Y-125377771D01*
X152158571Y-125377771D02*
X152196666Y-125301580D01*
X152196666Y-125301580D02*
X152272856Y-125225390D01*
X152272856Y-125225390D02*
X152387142Y-125187295D01*
X152387142Y-125187295D02*
X152463333Y-125187295D01*
X152463333Y-125187295D02*
X152577618Y-125225390D01*
X152577618Y-125225390D02*
X152615714Y-125263485D01*
X152920475Y-125263485D02*
X152958571Y-125225390D01*
X152958571Y-125225390D02*
X153034761Y-125187295D01*
X153034761Y-125187295D02*
X153225237Y-125187295D01*
X153225237Y-125187295D02*
X153301428Y-125225390D01*
X153301428Y-125225390D02*
X153339523Y-125263485D01*
X153339523Y-125263485D02*
X153377618Y-125339676D01*
X153377618Y-125339676D02*
X153377618Y-125415866D01*
X153377618Y-125415866D02*
X153339523Y-125530152D01*
X153339523Y-125530152D02*
X152882380Y-125987295D01*
X152882380Y-125987295D02*
X153377618Y-125987295D01*
X153834761Y-125530152D02*
X153758571Y-125492057D01*
X153758571Y-125492057D02*
X153720476Y-125453961D01*
X153720476Y-125453961D02*
X153682380Y-125377771D01*
X153682380Y-125377771D02*
X153682380Y-125339676D01*
X153682380Y-125339676D02*
X153720476Y-125263485D01*
X153720476Y-125263485D02*
X153758571Y-125225390D01*
X153758571Y-125225390D02*
X153834761Y-125187295D01*
X153834761Y-125187295D02*
X153987142Y-125187295D01*
X153987142Y-125187295D02*
X154063333Y-125225390D01*
X154063333Y-125225390D02*
X154101428Y-125263485D01*
X154101428Y-125263485D02*
X154139523Y-125339676D01*
X154139523Y-125339676D02*
X154139523Y-125377771D01*
X154139523Y-125377771D02*
X154101428Y-125453961D01*
X154101428Y-125453961D02*
X154063333Y-125492057D01*
X154063333Y-125492057D02*
X153987142Y-125530152D01*
X153987142Y-125530152D02*
X153834761Y-125530152D01*
X153834761Y-125530152D02*
X153758571Y-125568247D01*
X153758571Y-125568247D02*
X153720476Y-125606342D01*
X153720476Y-125606342D02*
X153682380Y-125682533D01*
X153682380Y-125682533D02*
X153682380Y-125834914D01*
X153682380Y-125834914D02*
X153720476Y-125911104D01*
X153720476Y-125911104D02*
X153758571Y-125949200D01*
X153758571Y-125949200D02*
X153834761Y-125987295D01*
X153834761Y-125987295D02*
X153987142Y-125987295D01*
X153987142Y-125987295D02*
X154063333Y-125949200D01*
X154063333Y-125949200D02*
X154101428Y-125911104D01*
X154101428Y-125911104D02*
X154139523Y-125834914D01*
X154139523Y-125834914D02*
X154139523Y-125682533D01*
X154139523Y-125682533D02*
X154101428Y-125606342D01*
X154101428Y-125606342D02*
X154063333Y-125568247D01*
X154063333Y-125568247D02*
X153987142Y-125530152D01*
X157960714Y-118823604D02*
X157922618Y-118861700D01*
X157922618Y-118861700D02*
X157808333Y-118899795D01*
X157808333Y-118899795D02*
X157732142Y-118899795D01*
X157732142Y-118899795D02*
X157617856Y-118861700D01*
X157617856Y-118861700D02*
X157541666Y-118785509D01*
X157541666Y-118785509D02*
X157503571Y-118709319D01*
X157503571Y-118709319D02*
X157465475Y-118556938D01*
X157465475Y-118556938D02*
X157465475Y-118442652D01*
X157465475Y-118442652D02*
X157503571Y-118290271D01*
X157503571Y-118290271D02*
X157541666Y-118214080D01*
X157541666Y-118214080D02*
X157617856Y-118137890D01*
X157617856Y-118137890D02*
X157732142Y-118099795D01*
X157732142Y-118099795D02*
X157808333Y-118099795D01*
X157808333Y-118099795D02*
X157922618Y-118137890D01*
X157922618Y-118137890D02*
X157960714Y-118175985D01*
X158722618Y-118899795D02*
X158265475Y-118899795D01*
X158494047Y-118899795D02*
X158494047Y-118099795D01*
X158494047Y-118099795D02*
X158417856Y-118214080D01*
X158417856Y-118214080D02*
X158341666Y-118290271D01*
X158341666Y-118290271D02*
X158265475Y-118328366D01*
X159408333Y-118366461D02*
X159408333Y-118899795D01*
X159217857Y-118061700D02*
X159027380Y-118633128D01*
X159027380Y-118633128D02*
X159522619Y-118633128D01*
X144586104Y-83014285D02*
X144624200Y-83052381D01*
X144624200Y-83052381D02*
X144662295Y-83166666D01*
X144662295Y-83166666D02*
X144662295Y-83242857D01*
X144662295Y-83242857D02*
X144624200Y-83357143D01*
X144624200Y-83357143D02*
X144548009Y-83433333D01*
X144548009Y-83433333D02*
X144471819Y-83471428D01*
X144471819Y-83471428D02*
X144319438Y-83509524D01*
X144319438Y-83509524D02*
X144205152Y-83509524D01*
X144205152Y-83509524D02*
X144052771Y-83471428D01*
X144052771Y-83471428D02*
X143976580Y-83433333D01*
X143976580Y-83433333D02*
X143900390Y-83357143D01*
X143900390Y-83357143D02*
X143862295Y-83242857D01*
X143862295Y-83242857D02*
X143862295Y-83166666D01*
X143862295Y-83166666D02*
X143900390Y-83052381D01*
X143900390Y-83052381D02*
X143938485Y-83014285D01*
X143938485Y-82709524D02*
X143900390Y-82671428D01*
X143900390Y-82671428D02*
X143862295Y-82595238D01*
X143862295Y-82595238D02*
X143862295Y-82404762D01*
X143862295Y-82404762D02*
X143900390Y-82328571D01*
X143900390Y-82328571D02*
X143938485Y-82290476D01*
X143938485Y-82290476D02*
X144014676Y-82252381D01*
X144014676Y-82252381D02*
X144090866Y-82252381D01*
X144090866Y-82252381D02*
X144205152Y-82290476D01*
X144205152Y-82290476D02*
X144662295Y-82747619D01*
X144662295Y-82747619D02*
X144662295Y-82252381D01*
X144662295Y-81871428D02*
X144662295Y-81719047D01*
X144662295Y-81719047D02*
X144624200Y-81642857D01*
X144624200Y-81642857D02*
X144586104Y-81604761D01*
X144586104Y-81604761D02*
X144471819Y-81528571D01*
X144471819Y-81528571D02*
X144319438Y-81490476D01*
X144319438Y-81490476D02*
X144014676Y-81490476D01*
X144014676Y-81490476D02*
X143938485Y-81528571D01*
X143938485Y-81528571D02*
X143900390Y-81566666D01*
X143900390Y-81566666D02*
X143862295Y-81642857D01*
X143862295Y-81642857D02*
X143862295Y-81795238D01*
X143862295Y-81795238D02*
X143900390Y-81871428D01*
X143900390Y-81871428D02*
X143938485Y-81909523D01*
X143938485Y-81909523D02*
X144014676Y-81947619D01*
X144014676Y-81947619D02*
X144205152Y-81947619D01*
X144205152Y-81947619D02*
X144281342Y-81909523D01*
X144281342Y-81909523D02*
X144319438Y-81871428D01*
X144319438Y-81871428D02*
X144357533Y-81795238D01*
X144357533Y-81795238D02*
X144357533Y-81642857D01*
X144357533Y-81642857D02*
X144319438Y-81566666D01*
X144319438Y-81566666D02*
X144281342Y-81528571D01*
X144281342Y-81528571D02*
X144205152Y-81490476D01*
X145985714Y-84362295D02*
X145719047Y-83981342D01*
X145528571Y-84362295D02*
X145528571Y-83562295D01*
X145528571Y-83562295D02*
X145833333Y-83562295D01*
X145833333Y-83562295D02*
X145909523Y-83600390D01*
X145909523Y-83600390D02*
X145947618Y-83638485D01*
X145947618Y-83638485D02*
X145985714Y-83714676D01*
X145985714Y-83714676D02*
X145985714Y-83828961D01*
X145985714Y-83828961D02*
X145947618Y-83905152D01*
X145947618Y-83905152D02*
X145909523Y-83943247D01*
X145909523Y-83943247D02*
X145833333Y-83981342D01*
X145833333Y-83981342D02*
X145528571Y-83981342D01*
X146290475Y-83638485D02*
X146328571Y-83600390D01*
X146328571Y-83600390D02*
X146404761Y-83562295D01*
X146404761Y-83562295D02*
X146595237Y-83562295D01*
X146595237Y-83562295D02*
X146671428Y-83600390D01*
X146671428Y-83600390D02*
X146709523Y-83638485D01*
X146709523Y-83638485D02*
X146747618Y-83714676D01*
X146747618Y-83714676D02*
X146747618Y-83790866D01*
X146747618Y-83790866D02*
X146709523Y-83905152D01*
X146709523Y-83905152D02*
X146252380Y-84362295D01*
X146252380Y-84362295D02*
X146747618Y-84362295D01*
X147433333Y-83828961D02*
X147433333Y-84362295D01*
X147242857Y-83524200D02*
X147052380Y-84095628D01*
X147052380Y-84095628D02*
X147547619Y-84095628D01*
X167985714Y-106316104D02*
X167947618Y-106354200D01*
X167947618Y-106354200D02*
X167833333Y-106392295D01*
X167833333Y-106392295D02*
X167757142Y-106392295D01*
X167757142Y-106392295D02*
X167642856Y-106354200D01*
X167642856Y-106354200D02*
X167566666Y-106278009D01*
X167566666Y-106278009D02*
X167528571Y-106201819D01*
X167528571Y-106201819D02*
X167490475Y-106049438D01*
X167490475Y-106049438D02*
X167490475Y-105935152D01*
X167490475Y-105935152D02*
X167528571Y-105782771D01*
X167528571Y-105782771D02*
X167566666Y-105706580D01*
X167566666Y-105706580D02*
X167642856Y-105630390D01*
X167642856Y-105630390D02*
X167757142Y-105592295D01*
X167757142Y-105592295D02*
X167833333Y-105592295D01*
X167833333Y-105592295D02*
X167947618Y-105630390D01*
X167947618Y-105630390D02*
X167985714Y-105668485D01*
X168709523Y-105592295D02*
X168328571Y-105592295D01*
X168328571Y-105592295D02*
X168290475Y-105973247D01*
X168290475Y-105973247D02*
X168328571Y-105935152D01*
X168328571Y-105935152D02*
X168404761Y-105897057D01*
X168404761Y-105897057D02*
X168595237Y-105897057D01*
X168595237Y-105897057D02*
X168671428Y-105935152D01*
X168671428Y-105935152D02*
X168709523Y-105973247D01*
X168709523Y-105973247D02*
X168747618Y-106049438D01*
X168747618Y-106049438D02*
X168747618Y-106239914D01*
X168747618Y-106239914D02*
X168709523Y-106316104D01*
X168709523Y-106316104D02*
X168671428Y-106354200D01*
X168671428Y-106354200D02*
X168595237Y-106392295D01*
X168595237Y-106392295D02*
X168404761Y-106392295D01*
X168404761Y-106392295D02*
X168328571Y-106354200D01*
X168328571Y-106354200D02*
X168290475Y-106316104D01*
X169128571Y-106392295D02*
X169280952Y-106392295D01*
X169280952Y-106392295D02*
X169357142Y-106354200D01*
X169357142Y-106354200D02*
X169395238Y-106316104D01*
X169395238Y-106316104D02*
X169471428Y-106201819D01*
X169471428Y-106201819D02*
X169509523Y-106049438D01*
X169509523Y-106049438D02*
X169509523Y-105744676D01*
X169509523Y-105744676D02*
X169471428Y-105668485D01*
X169471428Y-105668485D02*
X169433333Y-105630390D01*
X169433333Y-105630390D02*
X169357142Y-105592295D01*
X169357142Y-105592295D02*
X169204761Y-105592295D01*
X169204761Y-105592295D02*
X169128571Y-105630390D01*
X169128571Y-105630390D02*
X169090476Y-105668485D01*
X169090476Y-105668485D02*
X169052380Y-105744676D01*
X169052380Y-105744676D02*
X169052380Y-105935152D01*
X169052380Y-105935152D02*
X169090476Y-106011342D01*
X169090476Y-106011342D02*
X169128571Y-106049438D01*
X169128571Y-106049438D02*
X169204761Y-106087533D01*
X169204761Y-106087533D02*
X169357142Y-106087533D01*
X169357142Y-106087533D02*
X169433333Y-106049438D01*
X169433333Y-106049438D02*
X169471428Y-106011342D01*
X169471428Y-106011342D02*
X169509523Y-105935152D01*
X181786104Y-99014285D02*
X181824200Y-99052381D01*
X181824200Y-99052381D02*
X181862295Y-99166666D01*
X181862295Y-99166666D02*
X181862295Y-99242857D01*
X181862295Y-99242857D02*
X181824200Y-99357143D01*
X181824200Y-99357143D02*
X181748009Y-99433333D01*
X181748009Y-99433333D02*
X181671819Y-99471428D01*
X181671819Y-99471428D02*
X181519438Y-99509524D01*
X181519438Y-99509524D02*
X181405152Y-99509524D01*
X181405152Y-99509524D02*
X181252771Y-99471428D01*
X181252771Y-99471428D02*
X181176580Y-99433333D01*
X181176580Y-99433333D02*
X181100390Y-99357143D01*
X181100390Y-99357143D02*
X181062295Y-99242857D01*
X181062295Y-99242857D02*
X181062295Y-99166666D01*
X181062295Y-99166666D02*
X181100390Y-99052381D01*
X181100390Y-99052381D02*
X181138485Y-99014285D01*
X181062295Y-98290476D02*
X181062295Y-98671428D01*
X181062295Y-98671428D02*
X181443247Y-98709524D01*
X181443247Y-98709524D02*
X181405152Y-98671428D01*
X181405152Y-98671428D02*
X181367057Y-98595238D01*
X181367057Y-98595238D02*
X181367057Y-98404762D01*
X181367057Y-98404762D02*
X181405152Y-98328571D01*
X181405152Y-98328571D02*
X181443247Y-98290476D01*
X181443247Y-98290476D02*
X181519438Y-98252381D01*
X181519438Y-98252381D02*
X181709914Y-98252381D01*
X181709914Y-98252381D02*
X181786104Y-98290476D01*
X181786104Y-98290476D02*
X181824200Y-98328571D01*
X181824200Y-98328571D02*
X181862295Y-98404762D01*
X181862295Y-98404762D02*
X181862295Y-98595238D01*
X181862295Y-98595238D02*
X181824200Y-98671428D01*
X181824200Y-98671428D02*
X181786104Y-98709524D01*
X181405152Y-97795238D02*
X181367057Y-97871428D01*
X181367057Y-97871428D02*
X181328961Y-97909523D01*
X181328961Y-97909523D02*
X181252771Y-97947619D01*
X181252771Y-97947619D02*
X181214676Y-97947619D01*
X181214676Y-97947619D02*
X181138485Y-97909523D01*
X181138485Y-97909523D02*
X181100390Y-97871428D01*
X181100390Y-97871428D02*
X181062295Y-97795238D01*
X181062295Y-97795238D02*
X181062295Y-97642857D01*
X181062295Y-97642857D02*
X181100390Y-97566666D01*
X181100390Y-97566666D02*
X181138485Y-97528571D01*
X181138485Y-97528571D02*
X181214676Y-97490476D01*
X181214676Y-97490476D02*
X181252771Y-97490476D01*
X181252771Y-97490476D02*
X181328961Y-97528571D01*
X181328961Y-97528571D02*
X181367057Y-97566666D01*
X181367057Y-97566666D02*
X181405152Y-97642857D01*
X181405152Y-97642857D02*
X181405152Y-97795238D01*
X181405152Y-97795238D02*
X181443247Y-97871428D01*
X181443247Y-97871428D02*
X181481342Y-97909523D01*
X181481342Y-97909523D02*
X181557533Y-97947619D01*
X181557533Y-97947619D02*
X181709914Y-97947619D01*
X181709914Y-97947619D02*
X181786104Y-97909523D01*
X181786104Y-97909523D02*
X181824200Y-97871428D01*
X181824200Y-97871428D02*
X181862295Y-97795238D01*
X181862295Y-97795238D02*
X181862295Y-97642857D01*
X181862295Y-97642857D02*
X181824200Y-97566666D01*
X181824200Y-97566666D02*
X181786104Y-97528571D01*
X181786104Y-97528571D02*
X181709914Y-97490476D01*
X181709914Y-97490476D02*
X181557533Y-97490476D01*
X181557533Y-97490476D02*
X181481342Y-97528571D01*
X181481342Y-97528571D02*
X181443247Y-97566666D01*
X181443247Y-97566666D02*
X181405152Y-97642857D01*
X149506104Y-86351785D02*
X149544200Y-86389881D01*
X149544200Y-86389881D02*
X149582295Y-86504166D01*
X149582295Y-86504166D02*
X149582295Y-86580357D01*
X149582295Y-86580357D02*
X149544200Y-86694643D01*
X149544200Y-86694643D02*
X149468009Y-86770833D01*
X149468009Y-86770833D02*
X149391819Y-86808928D01*
X149391819Y-86808928D02*
X149239438Y-86847024D01*
X149239438Y-86847024D02*
X149125152Y-86847024D01*
X149125152Y-86847024D02*
X148972771Y-86808928D01*
X148972771Y-86808928D02*
X148896580Y-86770833D01*
X148896580Y-86770833D02*
X148820390Y-86694643D01*
X148820390Y-86694643D02*
X148782295Y-86580357D01*
X148782295Y-86580357D02*
X148782295Y-86504166D01*
X148782295Y-86504166D02*
X148820390Y-86389881D01*
X148820390Y-86389881D02*
X148858485Y-86351785D01*
X148782295Y-86085119D02*
X148782295Y-85589881D01*
X148782295Y-85589881D02*
X149087057Y-85856547D01*
X149087057Y-85856547D02*
X149087057Y-85742262D01*
X149087057Y-85742262D02*
X149125152Y-85666071D01*
X149125152Y-85666071D02*
X149163247Y-85627976D01*
X149163247Y-85627976D02*
X149239438Y-85589881D01*
X149239438Y-85589881D02*
X149429914Y-85589881D01*
X149429914Y-85589881D02*
X149506104Y-85627976D01*
X149506104Y-85627976D02*
X149544200Y-85666071D01*
X149544200Y-85666071D02*
X149582295Y-85742262D01*
X149582295Y-85742262D02*
X149582295Y-85970833D01*
X149582295Y-85970833D02*
X149544200Y-86047024D01*
X149544200Y-86047024D02*
X149506104Y-86085119D01*
X149582295Y-84827976D02*
X149582295Y-85285119D01*
X149582295Y-85056547D02*
X148782295Y-85056547D01*
X148782295Y-85056547D02*
X148896580Y-85132738D01*
X148896580Y-85132738D02*
X148972771Y-85208928D01*
X148972771Y-85208928D02*
X149010866Y-85285119D01*
X141786104Y-83014285D02*
X141824200Y-83052381D01*
X141824200Y-83052381D02*
X141862295Y-83166666D01*
X141862295Y-83166666D02*
X141862295Y-83242857D01*
X141862295Y-83242857D02*
X141824200Y-83357143D01*
X141824200Y-83357143D02*
X141748009Y-83433333D01*
X141748009Y-83433333D02*
X141671819Y-83471428D01*
X141671819Y-83471428D02*
X141519438Y-83509524D01*
X141519438Y-83509524D02*
X141405152Y-83509524D01*
X141405152Y-83509524D02*
X141252771Y-83471428D01*
X141252771Y-83471428D02*
X141176580Y-83433333D01*
X141176580Y-83433333D02*
X141100390Y-83357143D01*
X141100390Y-83357143D02*
X141062295Y-83242857D01*
X141062295Y-83242857D02*
X141062295Y-83166666D01*
X141062295Y-83166666D02*
X141100390Y-83052381D01*
X141100390Y-83052381D02*
X141138485Y-83014285D01*
X141138485Y-82709524D02*
X141100390Y-82671428D01*
X141100390Y-82671428D02*
X141062295Y-82595238D01*
X141062295Y-82595238D02*
X141062295Y-82404762D01*
X141062295Y-82404762D02*
X141100390Y-82328571D01*
X141100390Y-82328571D02*
X141138485Y-82290476D01*
X141138485Y-82290476D02*
X141214676Y-82252381D01*
X141214676Y-82252381D02*
X141290866Y-82252381D01*
X141290866Y-82252381D02*
X141405152Y-82290476D01*
X141405152Y-82290476D02*
X141862295Y-82747619D01*
X141862295Y-82747619D02*
X141862295Y-82252381D01*
X141062295Y-81757142D02*
X141062295Y-81680952D01*
X141062295Y-81680952D02*
X141100390Y-81604761D01*
X141100390Y-81604761D02*
X141138485Y-81566666D01*
X141138485Y-81566666D02*
X141214676Y-81528571D01*
X141214676Y-81528571D02*
X141367057Y-81490476D01*
X141367057Y-81490476D02*
X141557533Y-81490476D01*
X141557533Y-81490476D02*
X141709914Y-81528571D01*
X141709914Y-81528571D02*
X141786104Y-81566666D01*
X141786104Y-81566666D02*
X141824200Y-81604761D01*
X141824200Y-81604761D02*
X141862295Y-81680952D01*
X141862295Y-81680952D02*
X141862295Y-81757142D01*
X141862295Y-81757142D02*
X141824200Y-81833333D01*
X141824200Y-81833333D02*
X141786104Y-81871428D01*
X141786104Y-81871428D02*
X141709914Y-81909523D01*
X141709914Y-81909523D02*
X141557533Y-81947619D01*
X141557533Y-81947619D02*
X141367057Y-81947619D01*
X141367057Y-81947619D02*
X141214676Y-81909523D01*
X141214676Y-81909523D02*
X141138485Y-81871428D01*
X141138485Y-81871428D02*
X141100390Y-81833333D01*
X141100390Y-81833333D02*
X141062295Y-81757142D01*
X185763095Y-55529819D02*
X185763095Y-54529819D01*
X185763095Y-55006009D02*
X186334523Y-55006009D01*
X186334523Y-55529819D02*
X186334523Y-54529819D01*
X186763095Y-54625057D02*
X186810714Y-54577438D01*
X186810714Y-54577438D02*
X186905952Y-54529819D01*
X186905952Y-54529819D02*
X187144047Y-54529819D01*
X187144047Y-54529819D02*
X187239285Y-54577438D01*
X187239285Y-54577438D02*
X187286904Y-54625057D01*
X187286904Y-54625057D02*
X187334523Y-54720295D01*
X187334523Y-54720295D02*
X187334523Y-54815533D01*
X187334523Y-54815533D02*
X187286904Y-54958390D01*
X187286904Y-54958390D02*
X186715476Y-55529819D01*
X186715476Y-55529819D02*
X187334523Y-55529819D01*
X153862295Y-102024285D02*
X153481342Y-102290952D01*
X153862295Y-102481428D02*
X153062295Y-102481428D01*
X153062295Y-102481428D02*
X153062295Y-102176666D01*
X153062295Y-102176666D02*
X153100390Y-102100476D01*
X153100390Y-102100476D02*
X153138485Y-102062381D01*
X153138485Y-102062381D02*
X153214676Y-102024285D01*
X153214676Y-102024285D02*
X153328961Y-102024285D01*
X153328961Y-102024285D02*
X153405152Y-102062381D01*
X153405152Y-102062381D02*
X153443247Y-102100476D01*
X153443247Y-102100476D02*
X153481342Y-102176666D01*
X153481342Y-102176666D02*
X153481342Y-102481428D01*
X153138485Y-101719524D02*
X153100390Y-101681428D01*
X153100390Y-101681428D02*
X153062295Y-101605238D01*
X153062295Y-101605238D02*
X153062295Y-101414762D01*
X153062295Y-101414762D02*
X153100390Y-101338571D01*
X153100390Y-101338571D02*
X153138485Y-101300476D01*
X153138485Y-101300476D02*
X153214676Y-101262381D01*
X153214676Y-101262381D02*
X153290866Y-101262381D01*
X153290866Y-101262381D02*
X153405152Y-101300476D01*
X153405152Y-101300476D02*
X153862295Y-101757619D01*
X153862295Y-101757619D02*
X153862295Y-101262381D01*
X153062295Y-100538571D02*
X153062295Y-100919523D01*
X153062295Y-100919523D02*
X153443247Y-100957619D01*
X153443247Y-100957619D02*
X153405152Y-100919523D01*
X153405152Y-100919523D02*
X153367057Y-100843333D01*
X153367057Y-100843333D02*
X153367057Y-100652857D01*
X153367057Y-100652857D02*
X153405152Y-100576666D01*
X153405152Y-100576666D02*
X153443247Y-100538571D01*
X153443247Y-100538571D02*
X153519438Y-100500476D01*
X153519438Y-100500476D02*
X153709914Y-100500476D01*
X153709914Y-100500476D02*
X153786104Y-100538571D01*
X153786104Y-100538571D02*
X153824200Y-100576666D01*
X153824200Y-100576666D02*
X153862295Y-100652857D01*
X153862295Y-100652857D02*
X153862295Y-100843333D01*
X153862295Y-100843333D02*
X153824200Y-100919523D01*
X153824200Y-100919523D02*
X153786104Y-100957619D01*
X145356104Y-123014285D02*
X145394200Y-123052381D01*
X145394200Y-123052381D02*
X145432295Y-123166666D01*
X145432295Y-123166666D02*
X145432295Y-123242857D01*
X145432295Y-123242857D02*
X145394200Y-123357143D01*
X145394200Y-123357143D02*
X145318009Y-123433333D01*
X145318009Y-123433333D02*
X145241819Y-123471428D01*
X145241819Y-123471428D02*
X145089438Y-123509524D01*
X145089438Y-123509524D02*
X144975152Y-123509524D01*
X144975152Y-123509524D02*
X144822771Y-123471428D01*
X144822771Y-123471428D02*
X144746580Y-123433333D01*
X144746580Y-123433333D02*
X144670390Y-123357143D01*
X144670390Y-123357143D02*
X144632295Y-123242857D01*
X144632295Y-123242857D02*
X144632295Y-123166666D01*
X144632295Y-123166666D02*
X144670390Y-123052381D01*
X144670390Y-123052381D02*
X144708485Y-123014285D01*
X144632295Y-122747619D02*
X144632295Y-122252381D01*
X144632295Y-122252381D02*
X144937057Y-122519047D01*
X144937057Y-122519047D02*
X144937057Y-122404762D01*
X144937057Y-122404762D02*
X144975152Y-122328571D01*
X144975152Y-122328571D02*
X145013247Y-122290476D01*
X145013247Y-122290476D02*
X145089438Y-122252381D01*
X145089438Y-122252381D02*
X145279914Y-122252381D01*
X145279914Y-122252381D02*
X145356104Y-122290476D01*
X145356104Y-122290476D02*
X145394200Y-122328571D01*
X145394200Y-122328571D02*
X145432295Y-122404762D01*
X145432295Y-122404762D02*
X145432295Y-122633333D01*
X145432295Y-122633333D02*
X145394200Y-122709524D01*
X145394200Y-122709524D02*
X145356104Y-122747619D01*
X144632295Y-121757142D02*
X144632295Y-121680952D01*
X144632295Y-121680952D02*
X144670390Y-121604761D01*
X144670390Y-121604761D02*
X144708485Y-121566666D01*
X144708485Y-121566666D02*
X144784676Y-121528571D01*
X144784676Y-121528571D02*
X144937057Y-121490476D01*
X144937057Y-121490476D02*
X145127533Y-121490476D01*
X145127533Y-121490476D02*
X145279914Y-121528571D01*
X145279914Y-121528571D02*
X145356104Y-121566666D01*
X145356104Y-121566666D02*
X145394200Y-121604761D01*
X145394200Y-121604761D02*
X145432295Y-121680952D01*
X145432295Y-121680952D02*
X145432295Y-121757142D01*
X145432295Y-121757142D02*
X145394200Y-121833333D01*
X145394200Y-121833333D02*
X145356104Y-121871428D01*
X145356104Y-121871428D02*
X145279914Y-121909523D01*
X145279914Y-121909523D02*
X145127533Y-121947619D01*
X145127533Y-121947619D02*
X144937057Y-121947619D01*
X144937057Y-121947619D02*
X144784676Y-121909523D01*
X144784676Y-121909523D02*
X144708485Y-121871428D01*
X144708485Y-121871428D02*
X144670390Y-121833333D01*
X144670390Y-121833333D02*
X144632295Y-121757142D01*
X155626104Y-101514285D02*
X155664200Y-101552381D01*
X155664200Y-101552381D02*
X155702295Y-101666666D01*
X155702295Y-101666666D02*
X155702295Y-101742857D01*
X155702295Y-101742857D02*
X155664200Y-101857143D01*
X155664200Y-101857143D02*
X155588009Y-101933333D01*
X155588009Y-101933333D02*
X155511819Y-101971428D01*
X155511819Y-101971428D02*
X155359438Y-102009524D01*
X155359438Y-102009524D02*
X155245152Y-102009524D01*
X155245152Y-102009524D02*
X155092771Y-101971428D01*
X155092771Y-101971428D02*
X155016580Y-101933333D01*
X155016580Y-101933333D02*
X154940390Y-101857143D01*
X154940390Y-101857143D02*
X154902295Y-101742857D01*
X154902295Y-101742857D02*
X154902295Y-101666666D01*
X154902295Y-101666666D02*
X154940390Y-101552381D01*
X154940390Y-101552381D02*
X154978485Y-101514285D01*
X154902295Y-100790476D02*
X154902295Y-101171428D01*
X154902295Y-101171428D02*
X155283247Y-101209524D01*
X155283247Y-101209524D02*
X155245152Y-101171428D01*
X155245152Y-101171428D02*
X155207057Y-101095238D01*
X155207057Y-101095238D02*
X155207057Y-100904762D01*
X155207057Y-100904762D02*
X155245152Y-100828571D01*
X155245152Y-100828571D02*
X155283247Y-100790476D01*
X155283247Y-100790476D02*
X155359438Y-100752381D01*
X155359438Y-100752381D02*
X155549914Y-100752381D01*
X155549914Y-100752381D02*
X155626104Y-100790476D01*
X155626104Y-100790476D02*
X155664200Y-100828571D01*
X155664200Y-100828571D02*
X155702295Y-100904762D01*
X155702295Y-100904762D02*
X155702295Y-101095238D01*
X155702295Y-101095238D02*
X155664200Y-101171428D01*
X155664200Y-101171428D02*
X155626104Y-101209524D01*
X155702295Y-99990476D02*
X155702295Y-100447619D01*
X155702295Y-100219047D02*
X154902295Y-100219047D01*
X154902295Y-100219047D02*
X155016580Y-100295238D01*
X155016580Y-100295238D02*
X155092771Y-100371428D01*
X155092771Y-100371428D02*
X155130866Y-100447619D01*
X123511104Y-103633332D02*
X123549200Y-103671428D01*
X123549200Y-103671428D02*
X123587295Y-103785713D01*
X123587295Y-103785713D02*
X123587295Y-103861904D01*
X123587295Y-103861904D02*
X123549200Y-103976190D01*
X123549200Y-103976190D02*
X123473009Y-104052380D01*
X123473009Y-104052380D02*
X123396819Y-104090475D01*
X123396819Y-104090475D02*
X123244438Y-104128571D01*
X123244438Y-104128571D02*
X123130152Y-104128571D01*
X123130152Y-104128571D02*
X122977771Y-104090475D01*
X122977771Y-104090475D02*
X122901580Y-104052380D01*
X122901580Y-104052380D02*
X122825390Y-103976190D01*
X122825390Y-103976190D02*
X122787295Y-103861904D01*
X122787295Y-103861904D02*
X122787295Y-103785713D01*
X122787295Y-103785713D02*
X122825390Y-103671428D01*
X122825390Y-103671428D02*
X122863485Y-103633332D01*
X123587295Y-102871428D02*
X123587295Y-103328571D01*
X123587295Y-103099999D02*
X122787295Y-103099999D01*
X122787295Y-103099999D02*
X122901580Y-103176190D01*
X122901580Y-103176190D02*
X122977771Y-103252380D01*
X122977771Y-103252380D02*
X123015866Y-103328571D01*
X164636104Y-77514285D02*
X164674200Y-77552381D01*
X164674200Y-77552381D02*
X164712295Y-77666666D01*
X164712295Y-77666666D02*
X164712295Y-77742857D01*
X164712295Y-77742857D02*
X164674200Y-77857143D01*
X164674200Y-77857143D02*
X164598009Y-77933333D01*
X164598009Y-77933333D02*
X164521819Y-77971428D01*
X164521819Y-77971428D02*
X164369438Y-78009524D01*
X164369438Y-78009524D02*
X164255152Y-78009524D01*
X164255152Y-78009524D02*
X164102771Y-77971428D01*
X164102771Y-77971428D02*
X164026580Y-77933333D01*
X164026580Y-77933333D02*
X163950390Y-77857143D01*
X163950390Y-77857143D02*
X163912295Y-77742857D01*
X163912295Y-77742857D02*
X163912295Y-77666666D01*
X163912295Y-77666666D02*
X163950390Y-77552381D01*
X163950390Y-77552381D02*
X163988485Y-77514285D01*
X163912295Y-76790476D02*
X163912295Y-77171428D01*
X163912295Y-77171428D02*
X164293247Y-77209524D01*
X164293247Y-77209524D02*
X164255152Y-77171428D01*
X164255152Y-77171428D02*
X164217057Y-77095238D01*
X164217057Y-77095238D02*
X164217057Y-76904762D01*
X164217057Y-76904762D02*
X164255152Y-76828571D01*
X164255152Y-76828571D02*
X164293247Y-76790476D01*
X164293247Y-76790476D02*
X164369438Y-76752381D01*
X164369438Y-76752381D02*
X164559914Y-76752381D01*
X164559914Y-76752381D02*
X164636104Y-76790476D01*
X164636104Y-76790476D02*
X164674200Y-76828571D01*
X164674200Y-76828571D02*
X164712295Y-76904762D01*
X164712295Y-76904762D02*
X164712295Y-77095238D01*
X164712295Y-77095238D02*
X164674200Y-77171428D01*
X164674200Y-77171428D02*
X164636104Y-77209524D01*
X163912295Y-76257142D02*
X163912295Y-76180952D01*
X163912295Y-76180952D02*
X163950390Y-76104761D01*
X163950390Y-76104761D02*
X163988485Y-76066666D01*
X163988485Y-76066666D02*
X164064676Y-76028571D01*
X164064676Y-76028571D02*
X164217057Y-75990476D01*
X164217057Y-75990476D02*
X164407533Y-75990476D01*
X164407533Y-75990476D02*
X164559914Y-76028571D01*
X164559914Y-76028571D02*
X164636104Y-76066666D01*
X164636104Y-76066666D02*
X164674200Y-76104761D01*
X164674200Y-76104761D02*
X164712295Y-76180952D01*
X164712295Y-76180952D02*
X164712295Y-76257142D01*
X164712295Y-76257142D02*
X164674200Y-76333333D01*
X164674200Y-76333333D02*
X164636104Y-76371428D01*
X164636104Y-76371428D02*
X164559914Y-76409523D01*
X164559914Y-76409523D02*
X164407533Y-76447619D01*
X164407533Y-76447619D02*
X164217057Y-76447619D01*
X164217057Y-76447619D02*
X164064676Y-76409523D01*
X164064676Y-76409523D02*
X163988485Y-76371428D01*
X163988485Y-76371428D02*
X163950390Y-76333333D01*
X163950390Y-76333333D02*
X163912295Y-76257142D01*
X138669819Y-63944523D02*
X139384104Y-63944523D01*
X139384104Y-63944523D02*
X139526961Y-63992142D01*
X139526961Y-63992142D02*
X139622200Y-64087380D01*
X139622200Y-64087380D02*
X139669819Y-64230237D01*
X139669819Y-64230237D02*
X139669819Y-64325475D01*
X139669819Y-62944523D02*
X139669819Y-63515951D01*
X139669819Y-63230237D02*
X138669819Y-63230237D01*
X138669819Y-63230237D02*
X138812676Y-63325475D01*
X138812676Y-63325475D02*
X138907914Y-63420713D01*
X138907914Y-63420713D02*
X138955533Y-63515951D01*
X138669819Y-62325475D02*
X138669819Y-62230237D01*
X138669819Y-62230237D02*
X138717438Y-62134999D01*
X138717438Y-62134999D02*
X138765057Y-62087380D01*
X138765057Y-62087380D02*
X138860295Y-62039761D01*
X138860295Y-62039761D02*
X139050771Y-61992142D01*
X139050771Y-61992142D02*
X139288866Y-61992142D01*
X139288866Y-61992142D02*
X139479342Y-62039761D01*
X139479342Y-62039761D02*
X139574580Y-62087380D01*
X139574580Y-62087380D02*
X139622200Y-62134999D01*
X139622200Y-62134999D02*
X139669819Y-62230237D01*
X139669819Y-62230237D02*
X139669819Y-62325475D01*
X139669819Y-62325475D02*
X139622200Y-62420713D01*
X139622200Y-62420713D02*
X139574580Y-62468332D01*
X139574580Y-62468332D02*
X139479342Y-62515951D01*
X139479342Y-62515951D02*
X139288866Y-62563570D01*
X139288866Y-62563570D02*
X139050771Y-62563570D01*
X139050771Y-62563570D02*
X138860295Y-62515951D01*
X138860295Y-62515951D02*
X138765057Y-62468332D01*
X138765057Y-62468332D02*
X138717438Y-62420713D01*
X138717438Y-62420713D02*
X138669819Y-62325475D01*
X124277355Y-83633332D02*
X124315451Y-83671428D01*
X124315451Y-83671428D02*
X124353546Y-83785713D01*
X124353546Y-83785713D02*
X124353546Y-83861904D01*
X124353546Y-83861904D02*
X124315451Y-83976190D01*
X124315451Y-83976190D02*
X124239260Y-84052380D01*
X124239260Y-84052380D02*
X124163070Y-84090475D01*
X124163070Y-84090475D02*
X124010689Y-84128571D01*
X124010689Y-84128571D02*
X123896403Y-84128571D01*
X123896403Y-84128571D02*
X123744022Y-84090475D01*
X123744022Y-84090475D02*
X123667831Y-84052380D01*
X123667831Y-84052380D02*
X123591641Y-83976190D01*
X123591641Y-83976190D02*
X123553546Y-83861904D01*
X123553546Y-83861904D02*
X123553546Y-83785713D01*
X123553546Y-83785713D02*
X123591641Y-83671428D01*
X123591641Y-83671428D02*
X123629736Y-83633332D01*
X123629736Y-83328571D02*
X123591641Y-83290475D01*
X123591641Y-83290475D02*
X123553546Y-83214285D01*
X123553546Y-83214285D02*
X123553546Y-83023809D01*
X123553546Y-83023809D02*
X123591641Y-82947618D01*
X123591641Y-82947618D02*
X123629736Y-82909523D01*
X123629736Y-82909523D02*
X123705927Y-82871428D01*
X123705927Y-82871428D02*
X123782117Y-82871428D01*
X123782117Y-82871428D02*
X123896403Y-82909523D01*
X123896403Y-82909523D02*
X124353546Y-83366666D01*
X124353546Y-83366666D02*
X124353546Y-82871428D01*
X181786104Y-82814285D02*
X181824200Y-82852381D01*
X181824200Y-82852381D02*
X181862295Y-82966666D01*
X181862295Y-82966666D02*
X181862295Y-83042857D01*
X181862295Y-83042857D02*
X181824200Y-83157143D01*
X181824200Y-83157143D02*
X181748009Y-83233333D01*
X181748009Y-83233333D02*
X181671819Y-83271428D01*
X181671819Y-83271428D02*
X181519438Y-83309524D01*
X181519438Y-83309524D02*
X181405152Y-83309524D01*
X181405152Y-83309524D02*
X181252771Y-83271428D01*
X181252771Y-83271428D02*
X181176580Y-83233333D01*
X181176580Y-83233333D02*
X181100390Y-83157143D01*
X181100390Y-83157143D02*
X181062295Y-83042857D01*
X181062295Y-83042857D02*
X181062295Y-82966666D01*
X181062295Y-82966666D02*
X181100390Y-82852381D01*
X181100390Y-82852381D02*
X181138485Y-82814285D01*
X181062295Y-82547619D02*
X181062295Y-82052381D01*
X181062295Y-82052381D02*
X181367057Y-82319047D01*
X181367057Y-82319047D02*
X181367057Y-82204762D01*
X181367057Y-82204762D02*
X181405152Y-82128571D01*
X181405152Y-82128571D02*
X181443247Y-82090476D01*
X181443247Y-82090476D02*
X181519438Y-82052381D01*
X181519438Y-82052381D02*
X181709914Y-82052381D01*
X181709914Y-82052381D02*
X181786104Y-82090476D01*
X181786104Y-82090476D02*
X181824200Y-82128571D01*
X181824200Y-82128571D02*
X181862295Y-82204762D01*
X181862295Y-82204762D02*
X181862295Y-82433333D01*
X181862295Y-82433333D02*
X181824200Y-82509524D01*
X181824200Y-82509524D02*
X181786104Y-82547619D01*
X181062295Y-81785714D02*
X181062295Y-81252380D01*
X181062295Y-81252380D02*
X181862295Y-81595238D01*
X163012295Y-122947023D02*
X163659914Y-122947023D01*
X163659914Y-122947023D02*
X163736104Y-122908928D01*
X163736104Y-122908928D02*
X163774200Y-122870833D01*
X163774200Y-122870833D02*
X163812295Y-122794642D01*
X163812295Y-122794642D02*
X163812295Y-122642261D01*
X163812295Y-122642261D02*
X163774200Y-122566071D01*
X163774200Y-122566071D02*
X163736104Y-122527976D01*
X163736104Y-122527976D02*
X163659914Y-122489880D01*
X163659914Y-122489880D02*
X163012295Y-122489880D01*
X163812295Y-121689881D02*
X163812295Y-122147024D01*
X163812295Y-121918452D02*
X163012295Y-121918452D01*
X163012295Y-121918452D02*
X163126580Y-121994643D01*
X163126580Y-121994643D02*
X163202771Y-122070833D01*
X163202771Y-122070833D02*
X163240866Y-122147024D01*
X179485714Y-105286104D02*
X179447618Y-105324200D01*
X179447618Y-105324200D02*
X179333333Y-105362295D01*
X179333333Y-105362295D02*
X179257142Y-105362295D01*
X179257142Y-105362295D02*
X179142856Y-105324200D01*
X179142856Y-105324200D02*
X179066666Y-105248009D01*
X179066666Y-105248009D02*
X179028571Y-105171819D01*
X179028571Y-105171819D02*
X178990475Y-105019438D01*
X178990475Y-105019438D02*
X178990475Y-104905152D01*
X178990475Y-104905152D02*
X179028571Y-104752771D01*
X179028571Y-104752771D02*
X179066666Y-104676580D01*
X179066666Y-104676580D02*
X179142856Y-104600390D01*
X179142856Y-104600390D02*
X179257142Y-104562295D01*
X179257142Y-104562295D02*
X179333333Y-104562295D01*
X179333333Y-104562295D02*
X179447618Y-104600390D01*
X179447618Y-104600390D02*
X179485714Y-104638485D01*
X179752380Y-104562295D02*
X180247618Y-104562295D01*
X180247618Y-104562295D02*
X179980952Y-104867057D01*
X179980952Y-104867057D02*
X180095237Y-104867057D01*
X180095237Y-104867057D02*
X180171428Y-104905152D01*
X180171428Y-104905152D02*
X180209523Y-104943247D01*
X180209523Y-104943247D02*
X180247618Y-105019438D01*
X180247618Y-105019438D02*
X180247618Y-105209914D01*
X180247618Y-105209914D02*
X180209523Y-105286104D01*
X180209523Y-105286104D02*
X180171428Y-105324200D01*
X180171428Y-105324200D02*
X180095237Y-105362295D01*
X180095237Y-105362295D02*
X179866666Y-105362295D01*
X179866666Y-105362295D02*
X179790475Y-105324200D01*
X179790475Y-105324200D02*
X179752380Y-105286104D01*
X180628571Y-105362295D02*
X180780952Y-105362295D01*
X180780952Y-105362295D02*
X180857142Y-105324200D01*
X180857142Y-105324200D02*
X180895238Y-105286104D01*
X180895238Y-105286104D02*
X180971428Y-105171819D01*
X180971428Y-105171819D02*
X181009523Y-105019438D01*
X181009523Y-105019438D02*
X181009523Y-104714676D01*
X181009523Y-104714676D02*
X180971428Y-104638485D01*
X180971428Y-104638485D02*
X180933333Y-104600390D01*
X180933333Y-104600390D02*
X180857142Y-104562295D01*
X180857142Y-104562295D02*
X180704761Y-104562295D01*
X180704761Y-104562295D02*
X180628571Y-104600390D01*
X180628571Y-104600390D02*
X180590476Y-104638485D01*
X180590476Y-104638485D02*
X180552380Y-104714676D01*
X180552380Y-104714676D02*
X180552380Y-104905152D01*
X180552380Y-104905152D02*
X180590476Y-104981342D01*
X180590476Y-104981342D02*
X180628571Y-105019438D01*
X180628571Y-105019438D02*
X180704761Y-105057533D01*
X180704761Y-105057533D02*
X180857142Y-105057533D01*
X180857142Y-105057533D02*
X180933333Y-105019438D01*
X180933333Y-105019438D02*
X180971428Y-104981342D01*
X180971428Y-104981342D02*
X181009523Y-104905152D01*
X120697918Y-82192295D02*
X120431251Y-81811342D01*
X120240775Y-82192295D02*
X120240775Y-81392295D01*
X120240775Y-81392295D02*
X120545537Y-81392295D01*
X120545537Y-81392295D02*
X120621727Y-81430390D01*
X120621727Y-81430390D02*
X120659822Y-81468485D01*
X120659822Y-81468485D02*
X120697918Y-81544676D01*
X120697918Y-81544676D02*
X120697918Y-81658961D01*
X120697918Y-81658961D02*
X120659822Y-81735152D01*
X120659822Y-81735152D02*
X120621727Y-81773247D01*
X120621727Y-81773247D02*
X120545537Y-81811342D01*
X120545537Y-81811342D02*
X120240775Y-81811342D01*
X121155060Y-81735152D02*
X121078870Y-81697057D01*
X121078870Y-81697057D02*
X121040775Y-81658961D01*
X121040775Y-81658961D02*
X121002679Y-81582771D01*
X121002679Y-81582771D02*
X121002679Y-81544676D01*
X121002679Y-81544676D02*
X121040775Y-81468485D01*
X121040775Y-81468485D02*
X121078870Y-81430390D01*
X121078870Y-81430390D02*
X121155060Y-81392295D01*
X121155060Y-81392295D02*
X121307441Y-81392295D01*
X121307441Y-81392295D02*
X121383632Y-81430390D01*
X121383632Y-81430390D02*
X121421727Y-81468485D01*
X121421727Y-81468485D02*
X121459822Y-81544676D01*
X121459822Y-81544676D02*
X121459822Y-81582771D01*
X121459822Y-81582771D02*
X121421727Y-81658961D01*
X121421727Y-81658961D02*
X121383632Y-81697057D01*
X121383632Y-81697057D02*
X121307441Y-81735152D01*
X121307441Y-81735152D02*
X121155060Y-81735152D01*
X121155060Y-81735152D02*
X121078870Y-81773247D01*
X121078870Y-81773247D02*
X121040775Y-81811342D01*
X121040775Y-81811342D02*
X121002679Y-81887533D01*
X121002679Y-81887533D02*
X121002679Y-82039914D01*
X121002679Y-82039914D02*
X121040775Y-82116104D01*
X121040775Y-82116104D02*
X121078870Y-82154200D01*
X121078870Y-82154200D02*
X121155060Y-82192295D01*
X121155060Y-82192295D02*
X121307441Y-82192295D01*
X121307441Y-82192295D02*
X121383632Y-82154200D01*
X121383632Y-82154200D02*
X121421727Y-82116104D01*
X121421727Y-82116104D02*
X121459822Y-82039914D01*
X121459822Y-82039914D02*
X121459822Y-81887533D01*
X121459822Y-81887533D02*
X121421727Y-81811342D01*
X121421727Y-81811342D02*
X121383632Y-81773247D01*
X121383632Y-81773247D02*
X121307441Y-81735152D01*
X175733333Y-124632295D02*
X175733333Y-125203723D01*
X175733333Y-125203723D02*
X175695238Y-125318009D01*
X175695238Y-125318009D02*
X175619047Y-125394200D01*
X175619047Y-125394200D02*
X175504762Y-125432295D01*
X175504762Y-125432295D02*
X175428571Y-125432295D01*
X176495238Y-124632295D02*
X176114286Y-124632295D01*
X176114286Y-124632295D02*
X176076190Y-125013247D01*
X176076190Y-125013247D02*
X176114286Y-124975152D01*
X176114286Y-124975152D02*
X176190476Y-124937057D01*
X176190476Y-124937057D02*
X176380952Y-124937057D01*
X176380952Y-124937057D02*
X176457143Y-124975152D01*
X176457143Y-124975152D02*
X176495238Y-125013247D01*
X176495238Y-125013247D02*
X176533333Y-125089438D01*
X176533333Y-125089438D02*
X176533333Y-125279914D01*
X176533333Y-125279914D02*
X176495238Y-125356104D01*
X176495238Y-125356104D02*
X176457143Y-125394200D01*
X176457143Y-125394200D02*
X176380952Y-125432295D01*
X176380952Y-125432295D02*
X176190476Y-125432295D01*
X176190476Y-125432295D02*
X176114286Y-125394200D01*
X176114286Y-125394200D02*
X176076190Y-125356104D01*
X171286104Y-79014285D02*
X171324200Y-79052381D01*
X171324200Y-79052381D02*
X171362295Y-79166666D01*
X171362295Y-79166666D02*
X171362295Y-79242857D01*
X171362295Y-79242857D02*
X171324200Y-79357143D01*
X171324200Y-79357143D02*
X171248009Y-79433333D01*
X171248009Y-79433333D02*
X171171819Y-79471428D01*
X171171819Y-79471428D02*
X171019438Y-79509524D01*
X171019438Y-79509524D02*
X170905152Y-79509524D01*
X170905152Y-79509524D02*
X170752771Y-79471428D01*
X170752771Y-79471428D02*
X170676580Y-79433333D01*
X170676580Y-79433333D02*
X170600390Y-79357143D01*
X170600390Y-79357143D02*
X170562295Y-79242857D01*
X170562295Y-79242857D02*
X170562295Y-79166666D01*
X170562295Y-79166666D02*
X170600390Y-79052381D01*
X170600390Y-79052381D02*
X170638485Y-79014285D01*
X170828961Y-78328571D02*
X171362295Y-78328571D01*
X170524200Y-78519047D02*
X171095628Y-78709524D01*
X171095628Y-78709524D02*
X171095628Y-78214285D01*
X171362295Y-77871428D02*
X171362295Y-77719047D01*
X171362295Y-77719047D02*
X171324200Y-77642857D01*
X171324200Y-77642857D02*
X171286104Y-77604761D01*
X171286104Y-77604761D02*
X171171819Y-77528571D01*
X171171819Y-77528571D02*
X171019438Y-77490476D01*
X171019438Y-77490476D02*
X170714676Y-77490476D01*
X170714676Y-77490476D02*
X170638485Y-77528571D01*
X170638485Y-77528571D02*
X170600390Y-77566666D01*
X170600390Y-77566666D02*
X170562295Y-77642857D01*
X170562295Y-77642857D02*
X170562295Y-77795238D01*
X170562295Y-77795238D02*
X170600390Y-77871428D01*
X170600390Y-77871428D02*
X170638485Y-77909523D01*
X170638485Y-77909523D02*
X170714676Y-77947619D01*
X170714676Y-77947619D02*
X170905152Y-77947619D01*
X170905152Y-77947619D02*
X170981342Y-77909523D01*
X170981342Y-77909523D02*
X171019438Y-77871428D01*
X171019438Y-77871428D02*
X171057533Y-77795238D01*
X171057533Y-77795238D02*
X171057533Y-77642857D01*
X171057533Y-77642857D02*
X171019438Y-77566666D01*
X171019438Y-77566666D02*
X170981342Y-77528571D01*
X170981342Y-77528571D02*
X170905152Y-77490476D01*
X120091667Y-102192295D02*
X119825000Y-101811342D01*
X119634524Y-102192295D02*
X119634524Y-101392295D01*
X119634524Y-101392295D02*
X119939286Y-101392295D01*
X119939286Y-101392295D02*
X120015476Y-101430390D01*
X120015476Y-101430390D02*
X120053571Y-101468485D01*
X120053571Y-101468485D02*
X120091667Y-101544676D01*
X120091667Y-101544676D02*
X120091667Y-101658961D01*
X120091667Y-101658961D02*
X120053571Y-101735152D01*
X120053571Y-101735152D02*
X120015476Y-101773247D01*
X120015476Y-101773247D02*
X119939286Y-101811342D01*
X119939286Y-101811342D02*
X119634524Y-101811342D01*
X120777381Y-101392295D02*
X120625000Y-101392295D01*
X120625000Y-101392295D02*
X120548809Y-101430390D01*
X120548809Y-101430390D02*
X120510714Y-101468485D01*
X120510714Y-101468485D02*
X120434524Y-101582771D01*
X120434524Y-101582771D02*
X120396428Y-101735152D01*
X120396428Y-101735152D02*
X120396428Y-102039914D01*
X120396428Y-102039914D02*
X120434524Y-102116104D01*
X120434524Y-102116104D02*
X120472619Y-102154200D01*
X120472619Y-102154200D02*
X120548809Y-102192295D01*
X120548809Y-102192295D02*
X120701190Y-102192295D01*
X120701190Y-102192295D02*
X120777381Y-102154200D01*
X120777381Y-102154200D02*
X120815476Y-102116104D01*
X120815476Y-102116104D02*
X120853571Y-102039914D01*
X120853571Y-102039914D02*
X120853571Y-101849438D01*
X120853571Y-101849438D02*
X120815476Y-101773247D01*
X120815476Y-101773247D02*
X120777381Y-101735152D01*
X120777381Y-101735152D02*
X120701190Y-101697057D01*
X120701190Y-101697057D02*
X120548809Y-101697057D01*
X120548809Y-101697057D02*
X120472619Y-101735152D01*
X120472619Y-101735152D02*
X120434524Y-101773247D01*
X120434524Y-101773247D02*
X120396428Y-101849438D01*
X155485714Y-84986104D02*
X155447618Y-85024200D01*
X155447618Y-85024200D02*
X155333333Y-85062295D01*
X155333333Y-85062295D02*
X155257142Y-85062295D01*
X155257142Y-85062295D02*
X155142856Y-85024200D01*
X155142856Y-85024200D02*
X155066666Y-84948009D01*
X155066666Y-84948009D02*
X155028571Y-84871819D01*
X155028571Y-84871819D02*
X154990475Y-84719438D01*
X154990475Y-84719438D02*
X154990475Y-84605152D01*
X154990475Y-84605152D02*
X155028571Y-84452771D01*
X155028571Y-84452771D02*
X155066666Y-84376580D01*
X155066666Y-84376580D02*
X155142856Y-84300390D01*
X155142856Y-84300390D02*
X155257142Y-84262295D01*
X155257142Y-84262295D02*
X155333333Y-84262295D01*
X155333333Y-84262295D02*
X155447618Y-84300390D01*
X155447618Y-84300390D02*
X155485714Y-84338485D01*
X156171428Y-84528961D02*
X156171428Y-85062295D01*
X155980952Y-84224200D02*
X155790475Y-84795628D01*
X155790475Y-84795628D02*
X156285714Y-84795628D01*
X156514285Y-84262295D02*
X157047619Y-84262295D01*
X157047619Y-84262295D02*
X156704761Y-85062295D01*
X161786104Y-74514285D02*
X161824200Y-74552381D01*
X161824200Y-74552381D02*
X161862295Y-74666666D01*
X161862295Y-74666666D02*
X161862295Y-74742857D01*
X161862295Y-74742857D02*
X161824200Y-74857143D01*
X161824200Y-74857143D02*
X161748009Y-74933333D01*
X161748009Y-74933333D02*
X161671819Y-74971428D01*
X161671819Y-74971428D02*
X161519438Y-75009524D01*
X161519438Y-75009524D02*
X161405152Y-75009524D01*
X161405152Y-75009524D02*
X161252771Y-74971428D01*
X161252771Y-74971428D02*
X161176580Y-74933333D01*
X161176580Y-74933333D02*
X161100390Y-74857143D01*
X161100390Y-74857143D02*
X161062295Y-74742857D01*
X161062295Y-74742857D02*
X161062295Y-74666666D01*
X161062295Y-74666666D02*
X161100390Y-74552381D01*
X161100390Y-74552381D02*
X161138485Y-74514285D01*
X161328961Y-73828571D02*
X161862295Y-73828571D01*
X161024200Y-74019047D02*
X161595628Y-74209524D01*
X161595628Y-74209524D02*
X161595628Y-73714285D01*
X161405152Y-73295238D02*
X161367057Y-73371428D01*
X161367057Y-73371428D02*
X161328961Y-73409523D01*
X161328961Y-73409523D02*
X161252771Y-73447619D01*
X161252771Y-73447619D02*
X161214676Y-73447619D01*
X161214676Y-73447619D02*
X161138485Y-73409523D01*
X161138485Y-73409523D02*
X161100390Y-73371428D01*
X161100390Y-73371428D02*
X161062295Y-73295238D01*
X161062295Y-73295238D02*
X161062295Y-73142857D01*
X161062295Y-73142857D02*
X161100390Y-73066666D01*
X161100390Y-73066666D02*
X161138485Y-73028571D01*
X161138485Y-73028571D02*
X161214676Y-72990476D01*
X161214676Y-72990476D02*
X161252771Y-72990476D01*
X161252771Y-72990476D02*
X161328961Y-73028571D01*
X161328961Y-73028571D02*
X161367057Y-73066666D01*
X161367057Y-73066666D02*
X161405152Y-73142857D01*
X161405152Y-73142857D02*
X161405152Y-73295238D01*
X161405152Y-73295238D02*
X161443247Y-73371428D01*
X161443247Y-73371428D02*
X161481342Y-73409523D01*
X161481342Y-73409523D02*
X161557533Y-73447619D01*
X161557533Y-73447619D02*
X161709914Y-73447619D01*
X161709914Y-73447619D02*
X161786104Y-73409523D01*
X161786104Y-73409523D02*
X161824200Y-73371428D01*
X161824200Y-73371428D02*
X161862295Y-73295238D01*
X161862295Y-73295238D02*
X161862295Y-73142857D01*
X161862295Y-73142857D02*
X161824200Y-73066666D01*
X161824200Y-73066666D02*
X161786104Y-73028571D01*
X161786104Y-73028571D02*
X161709914Y-72990476D01*
X161709914Y-72990476D02*
X161557533Y-72990476D01*
X161557533Y-72990476D02*
X161481342Y-73028571D01*
X161481342Y-73028571D02*
X161443247Y-73066666D01*
X161443247Y-73066666D02*
X161405152Y-73142857D01*
X137140476Y-87399795D02*
X137140476Y-88047414D01*
X137140476Y-88047414D02*
X137178571Y-88123604D01*
X137178571Y-88123604D02*
X137216666Y-88161700D01*
X137216666Y-88161700D02*
X137292857Y-88199795D01*
X137292857Y-88199795D02*
X137445238Y-88199795D01*
X137445238Y-88199795D02*
X137521428Y-88161700D01*
X137521428Y-88161700D02*
X137559523Y-88123604D01*
X137559523Y-88123604D02*
X137597619Y-88047414D01*
X137597619Y-88047414D02*
X137597619Y-87399795D01*
X137940475Y-87475985D02*
X137978571Y-87437890D01*
X137978571Y-87437890D02*
X138054761Y-87399795D01*
X138054761Y-87399795D02*
X138245237Y-87399795D01*
X138245237Y-87399795D02*
X138321428Y-87437890D01*
X138321428Y-87437890D02*
X138359523Y-87475985D01*
X138359523Y-87475985D02*
X138397618Y-87552176D01*
X138397618Y-87552176D02*
X138397618Y-87628366D01*
X138397618Y-87628366D02*
X138359523Y-87742652D01*
X138359523Y-87742652D02*
X137902380Y-88199795D01*
X137902380Y-88199795D02*
X138397618Y-88199795D01*
X179562295Y-83609523D02*
X180209914Y-83609523D01*
X180209914Y-83609523D02*
X180286104Y-83571428D01*
X180286104Y-83571428D02*
X180324200Y-83533333D01*
X180324200Y-83533333D02*
X180362295Y-83457142D01*
X180362295Y-83457142D02*
X180362295Y-83304761D01*
X180362295Y-83304761D02*
X180324200Y-83228571D01*
X180324200Y-83228571D02*
X180286104Y-83190476D01*
X180286104Y-83190476D02*
X180209914Y-83152380D01*
X180209914Y-83152380D02*
X179562295Y-83152380D01*
X179562295Y-82428571D02*
X179562295Y-82580952D01*
X179562295Y-82580952D02*
X179600390Y-82657143D01*
X179600390Y-82657143D02*
X179638485Y-82695238D01*
X179638485Y-82695238D02*
X179752771Y-82771428D01*
X179752771Y-82771428D02*
X179905152Y-82809524D01*
X179905152Y-82809524D02*
X180209914Y-82809524D01*
X180209914Y-82809524D02*
X180286104Y-82771428D01*
X180286104Y-82771428D02*
X180324200Y-82733333D01*
X180324200Y-82733333D02*
X180362295Y-82657143D01*
X180362295Y-82657143D02*
X180362295Y-82504762D01*
X180362295Y-82504762D02*
X180324200Y-82428571D01*
X180324200Y-82428571D02*
X180286104Y-82390476D01*
X180286104Y-82390476D02*
X180209914Y-82352381D01*
X180209914Y-82352381D02*
X180019438Y-82352381D01*
X180019438Y-82352381D02*
X179943247Y-82390476D01*
X179943247Y-82390476D02*
X179905152Y-82428571D01*
X179905152Y-82428571D02*
X179867057Y-82504762D01*
X179867057Y-82504762D02*
X179867057Y-82657143D01*
X179867057Y-82657143D02*
X179905152Y-82733333D01*
X179905152Y-82733333D02*
X179943247Y-82771428D01*
X179943247Y-82771428D02*
X180019438Y-82809524D01*
X157760714Y-117123604D02*
X157722618Y-117161700D01*
X157722618Y-117161700D02*
X157608333Y-117199795D01*
X157608333Y-117199795D02*
X157532142Y-117199795D01*
X157532142Y-117199795D02*
X157417856Y-117161700D01*
X157417856Y-117161700D02*
X157341666Y-117085509D01*
X157341666Y-117085509D02*
X157303571Y-117009319D01*
X157303571Y-117009319D02*
X157265475Y-116856938D01*
X157265475Y-116856938D02*
X157265475Y-116742652D01*
X157265475Y-116742652D02*
X157303571Y-116590271D01*
X157303571Y-116590271D02*
X157341666Y-116514080D01*
X157341666Y-116514080D02*
X157417856Y-116437890D01*
X157417856Y-116437890D02*
X157532142Y-116399795D01*
X157532142Y-116399795D02*
X157608333Y-116399795D01*
X157608333Y-116399795D02*
X157722618Y-116437890D01*
X157722618Y-116437890D02*
X157760714Y-116475985D01*
X158522618Y-117199795D02*
X158065475Y-117199795D01*
X158294047Y-117199795D02*
X158294047Y-116399795D01*
X158294047Y-116399795D02*
X158217856Y-116514080D01*
X158217856Y-116514080D02*
X158141666Y-116590271D01*
X158141666Y-116590271D02*
X158065475Y-116628366D01*
X158789285Y-116399795D02*
X159284523Y-116399795D01*
X159284523Y-116399795D02*
X159017857Y-116704557D01*
X159017857Y-116704557D02*
X159132142Y-116704557D01*
X159132142Y-116704557D02*
X159208333Y-116742652D01*
X159208333Y-116742652D02*
X159246428Y-116780747D01*
X159246428Y-116780747D02*
X159284523Y-116856938D01*
X159284523Y-116856938D02*
X159284523Y-117047414D01*
X159284523Y-117047414D02*
X159246428Y-117123604D01*
X159246428Y-117123604D02*
X159208333Y-117161700D01*
X159208333Y-117161700D02*
X159132142Y-117199795D01*
X159132142Y-117199795D02*
X158903571Y-117199795D01*
X158903571Y-117199795D02*
X158827380Y-117161700D01*
X158827380Y-117161700D02*
X158789285Y-117123604D01*
X164985714Y-107446104D02*
X164947618Y-107484200D01*
X164947618Y-107484200D02*
X164833333Y-107522295D01*
X164833333Y-107522295D02*
X164757142Y-107522295D01*
X164757142Y-107522295D02*
X164642856Y-107484200D01*
X164642856Y-107484200D02*
X164566666Y-107408009D01*
X164566666Y-107408009D02*
X164528571Y-107331819D01*
X164528571Y-107331819D02*
X164490475Y-107179438D01*
X164490475Y-107179438D02*
X164490475Y-107065152D01*
X164490475Y-107065152D02*
X164528571Y-106912771D01*
X164528571Y-106912771D02*
X164566666Y-106836580D01*
X164566666Y-106836580D02*
X164642856Y-106760390D01*
X164642856Y-106760390D02*
X164757142Y-106722295D01*
X164757142Y-106722295D02*
X164833333Y-106722295D01*
X164833333Y-106722295D02*
X164947618Y-106760390D01*
X164947618Y-106760390D02*
X164985714Y-106798485D01*
X165671428Y-106988961D02*
X165671428Y-107522295D01*
X165480952Y-106684200D02*
X165290475Y-107255628D01*
X165290475Y-107255628D02*
X165785714Y-107255628D01*
X166242857Y-106722295D02*
X166319047Y-106722295D01*
X166319047Y-106722295D02*
X166395238Y-106760390D01*
X166395238Y-106760390D02*
X166433333Y-106798485D01*
X166433333Y-106798485D02*
X166471428Y-106874676D01*
X166471428Y-106874676D02*
X166509523Y-107027057D01*
X166509523Y-107027057D02*
X166509523Y-107217533D01*
X166509523Y-107217533D02*
X166471428Y-107369914D01*
X166471428Y-107369914D02*
X166433333Y-107446104D01*
X166433333Y-107446104D02*
X166395238Y-107484200D01*
X166395238Y-107484200D02*
X166319047Y-107522295D01*
X166319047Y-107522295D02*
X166242857Y-107522295D01*
X166242857Y-107522295D02*
X166166666Y-107484200D01*
X166166666Y-107484200D02*
X166128571Y-107446104D01*
X166128571Y-107446104D02*
X166090476Y-107369914D01*
X166090476Y-107369914D02*
X166052380Y-107217533D01*
X166052380Y-107217533D02*
X166052380Y-107027057D01*
X166052380Y-107027057D02*
X166090476Y-106874676D01*
X166090476Y-106874676D02*
X166128571Y-106798485D01*
X166128571Y-106798485D02*
X166166666Y-106760390D01*
X166166666Y-106760390D02*
X166242857Y-106722295D01*
X162862295Y-74514285D02*
X162481342Y-74780952D01*
X162862295Y-74971428D02*
X162062295Y-74971428D01*
X162062295Y-74971428D02*
X162062295Y-74666666D01*
X162062295Y-74666666D02*
X162100390Y-74590476D01*
X162100390Y-74590476D02*
X162138485Y-74552381D01*
X162138485Y-74552381D02*
X162214676Y-74514285D01*
X162214676Y-74514285D02*
X162328961Y-74514285D01*
X162328961Y-74514285D02*
X162405152Y-74552381D01*
X162405152Y-74552381D02*
X162443247Y-74590476D01*
X162443247Y-74590476D02*
X162481342Y-74666666D01*
X162481342Y-74666666D02*
X162481342Y-74971428D01*
X162062295Y-74247619D02*
X162062295Y-73752381D01*
X162062295Y-73752381D02*
X162367057Y-74019047D01*
X162367057Y-74019047D02*
X162367057Y-73904762D01*
X162367057Y-73904762D02*
X162405152Y-73828571D01*
X162405152Y-73828571D02*
X162443247Y-73790476D01*
X162443247Y-73790476D02*
X162519438Y-73752381D01*
X162519438Y-73752381D02*
X162709914Y-73752381D01*
X162709914Y-73752381D02*
X162786104Y-73790476D01*
X162786104Y-73790476D02*
X162824200Y-73828571D01*
X162824200Y-73828571D02*
X162862295Y-73904762D01*
X162862295Y-73904762D02*
X162862295Y-74133333D01*
X162862295Y-74133333D02*
X162824200Y-74209524D01*
X162824200Y-74209524D02*
X162786104Y-74247619D01*
X162138485Y-73447619D02*
X162100390Y-73409523D01*
X162100390Y-73409523D02*
X162062295Y-73333333D01*
X162062295Y-73333333D02*
X162062295Y-73142857D01*
X162062295Y-73142857D02*
X162100390Y-73066666D01*
X162100390Y-73066666D02*
X162138485Y-73028571D01*
X162138485Y-73028571D02*
X162214676Y-72990476D01*
X162214676Y-72990476D02*
X162290866Y-72990476D01*
X162290866Y-72990476D02*
X162405152Y-73028571D01*
X162405152Y-73028571D02*
X162862295Y-73485714D01*
X162862295Y-73485714D02*
X162862295Y-72990476D01*
X182786104Y-82814285D02*
X182824200Y-82852381D01*
X182824200Y-82852381D02*
X182862295Y-82966666D01*
X182862295Y-82966666D02*
X182862295Y-83042857D01*
X182862295Y-83042857D02*
X182824200Y-83157143D01*
X182824200Y-83157143D02*
X182748009Y-83233333D01*
X182748009Y-83233333D02*
X182671819Y-83271428D01*
X182671819Y-83271428D02*
X182519438Y-83309524D01*
X182519438Y-83309524D02*
X182405152Y-83309524D01*
X182405152Y-83309524D02*
X182252771Y-83271428D01*
X182252771Y-83271428D02*
X182176580Y-83233333D01*
X182176580Y-83233333D02*
X182100390Y-83157143D01*
X182100390Y-83157143D02*
X182062295Y-83042857D01*
X182062295Y-83042857D02*
X182062295Y-82966666D01*
X182062295Y-82966666D02*
X182100390Y-82852381D01*
X182100390Y-82852381D02*
X182138485Y-82814285D01*
X182062295Y-82547619D02*
X182062295Y-82052381D01*
X182062295Y-82052381D02*
X182367057Y-82319047D01*
X182367057Y-82319047D02*
X182367057Y-82204762D01*
X182367057Y-82204762D02*
X182405152Y-82128571D01*
X182405152Y-82128571D02*
X182443247Y-82090476D01*
X182443247Y-82090476D02*
X182519438Y-82052381D01*
X182519438Y-82052381D02*
X182709914Y-82052381D01*
X182709914Y-82052381D02*
X182786104Y-82090476D01*
X182786104Y-82090476D02*
X182824200Y-82128571D01*
X182824200Y-82128571D02*
X182862295Y-82204762D01*
X182862295Y-82204762D02*
X182862295Y-82433333D01*
X182862295Y-82433333D02*
X182824200Y-82509524D01*
X182824200Y-82509524D02*
X182786104Y-82547619D01*
X182062295Y-81366666D02*
X182062295Y-81519047D01*
X182062295Y-81519047D02*
X182100390Y-81595238D01*
X182100390Y-81595238D02*
X182138485Y-81633333D01*
X182138485Y-81633333D02*
X182252771Y-81709523D01*
X182252771Y-81709523D02*
X182405152Y-81747619D01*
X182405152Y-81747619D02*
X182709914Y-81747619D01*
X182709914Y-81747619D02*
X182786104Y-81709523D01*
X182786104Y-81709523D02*
X182824200Y-81671428D01*
X182824200Y-81671428D02*
X182862295Y-81595238D01*
X182862295Y-81595238D02*
X182862295Y-81442857D01*
X182862295Y-81442857D02*
X182824200Y-81366666D01*
X182824200Y-81366666D02*
X182786104Y-81328571D01*
X182786104Y-81328571D02*
X182709914Y-81290476D01*
X182709914Y-81290476D02*
X182519438Y-81290476D01*
X182519438Y-81290476D02*
X182443247Y-81328571D01*
X182443247Y-81328571D02*
X182405152Y-81366666D01*
X182405152Y-81366666D02*
X182367057Y-81442857D01*
X182367057Y-81442857D02*
X182367057Y-81595238D01*
X182367057Y-81595238D02*
X182405152Y-81671428D01*
X182405152Y-81671428D02*
X182443247Y-81709523D01*
X182443247Y-81709523D02*
X182519438Y-81747619D01*
X164485714Y-113031104D02*
X164447618Y-113069200D01*
X164447618Y-113069200D02*
X164333333Y-113107295D01*
X164333333Y-113107295D02*
X164257142Y-113107295D01*
X164257142Y-113107295D02*
X164142856Y-113069200D01*
X164142856Y-113069200D02*
X164066666Y-112993009D01*
X164066666Y-112993009D02*
X164028571Y-112916819D01*
X164028571Y-112916819D02*
X163990475Y-112764438D01*
X163990475Y-112764438D02*
X163990475Y-112650152D01*
X163990475Y-112650152D02*
X164028571Y-112497771D01*
X164028571Y-112497771D02*
X164066666Y-112421580D01*
X164066666Y-112421580D02*
X164142856Y-112345390D01*
X164142856Y-112345390D02*
X164257142Y-112307295D01*
X164257142Y-112307295D02*
X164333333Y-112307295D01*
X164333333Y-112307295D02*
X164447618Y-112345390D01*
X164447618Y-112345390D02*
X164485714Y-112383485D01*
X165209523Y-112307295D02*
X164828571Y-112307295D01*
X164828571Y-112307295D02*
X164790475Y-112688247D01*
X164790475Y-112688247D02*
X164828571Y-112650152D01*
X164828571Y-112650152D02*
X164904761Y-112612057D01*
X164904761Y-112612057D02*
X165095237Y-112612057D01*
X165095237Y-112612057D02*
X165171428Y-112650152D01*
X165171428Y-112650152D02*
X165209523Y-112688247D01*
X165209523Y-112688247D02*
X165247618Y-112764438D01*
X165247618Y-112764438D02*
X165247618Y-112954914D01*
X165247618Y-112954914D02*
X165209523Y-113031104D01*
X165209523Y-113031104D02*
X165171428Y-113069200D01*
X165171428Y-113069200D02*
X165095237Y-113107295D01*
X165095237Y-113107295D02*
X164904761Y-113107295D01*
X164904761Y-113107295D02*
X164828571Y-113069200D01*
X164828571Y-113069200D02*
X164790475Y-113031104D01*
X165971428Y-112307295D02*
X165590476Y-112307295D01*
X165590476Y-112307295D02*
X165552380Y-112688247D01*
X165552380Y-112688247D02*
X165590476Y-112650152D01*
X165590476Y-112650152D02*
X165666666Y-112612057D01*
X165666666Y-112612057D02*
X165857142Y-112612057D01*
X165857142Y-112612057D02*
X165933333Y-112650152D01*
X165933333Y-112650152D02*
X165971428Y-112688247D01*
X165971428Y-112688247D02*
X166009523Y-112764438D01*
X166009523Y-112764438D02*
X166009523Y-112954914D01*
X166009523Y-112954914D02*
X165971428Y-113031104D01*
X165971428Y-113031104D02*
X165933333Y-113069200D01*
X165933333Y-113069200D02*
X165857142Y-113107295D01*
X165857142Y-113107295D02*
X165666666Y-113107295D01*
X165666666Y-113107295D02*
X165590476Y-113069200D01*
X165590476Y-113069200D02*
X165552380Y-113031104D01*
X120091667Y-105424795D02*
X119825000Y-105043842D01*
X119634524Y-105424795D02*
X119634524Y-104624795D01*
X119634524Y-104624795D02*
X119939286Y-104624795D01*
X119939286Y-104624795D02*
X120015476Y-104662890D01*
X120015476Y-104662890D02*
X120053571Y-104700985D01*
X120053571Y-104700985D02*
X120091667Y-104777176D01*
X120091667Y-104777176D02*
X120091667Y-104891461D01*
X120091667Y-104891461D02*
X120053571Y-104967652D01*
X120053571Y-104967652D02*
X120015476Y-105005747D01*
X120015476Y-105005747D02*
X119939286Y-105043842D01*
X119939286Y-105043842D02*
X119634524Y-105043842D01*
X120358333Y-104624795D02*
X120891667Y-104624795D01*
X120891667Y-104624795D02*
X120548809Y-105424795D01*
X185763095Y-126079819D02*
X185763095Y-125079819D01*
X185763095Y-125556009D02*
X186334523Y-125556009D01*
X186334523Y-126079819D02*
X186334523Y-125079819D01*
X187239285Y-125413152D02*
X187239285Y-126079819D01*
X187001190Y-125032200D02*
X186763095Y-125746485D01*
X186763095Y-125746485D02*
X187382142Y-125746485D01*
X144986104Y-105002725D02*
X145024200Y-105040821D01*
X145024200Y-105040821D02*
X145062295Y-105155106D01*
X145062295Y-105155106D02*
X145062295Y-105231297D01*
X145062295Y-105231297D02*
X145024200Y-105345583D01*
X145024200Y-105345583D02*
X144948009Y-105421773D01*
X144948009Y-105421773D02*
X144871819Y-105459868D01*
X144871819Y-105459868D02*
X144719438Y-105497964D01*
X144719438Y-105497964D02*
X144605152Y-105497964D01*
X144605152Y-105497964D02*
X144452771Y-105459868D01*
X144452771Y-105459868D02*
X144376580Y-105421773D01*
X144376580Y-105421773D02*
X144300390Y-105345583D01*
X144300390Y-105345583D02*
X144262295Y-105231297D01*
X144262295Y-105231297D02*
X144262295Y-105155106D01*
X144262295Y-105155106D02*
X144300390Y-105040821D01*
X144300390Y-105040821D02*
X144338485Y-105002725D01*
X144338485Y-104697964D02*
X144300390Y-104659868D01*
X144300390Y-104659868D02*
X144262295Y-104583678D01*
X144262295Y-104583678D02*
X144262295Y-104393202D01*
X144262295Y-104393202D02*
X144300390Y-104317011D01*
X144300390Y-104317011D02*
X144338485Y-104278916D01*
X144338485Y-104278916D02*
X144414676Y-104240821D01*
X144414676Y-104240821D02*
X144490866Y-104240821D01*
X144490866Y-104240821D02*
X144605152Y-104278916D01*
X144605152Y-104278916D02*
X145062295Y-104736059D01*
X145062295Y-104736059D02*
X145062295Y-104240821D01*
X145062295Y-103478916D02*
X145062295Y-103936059D01*
X145062295Y-103707487D02*
X144262295Y-103707487D01*
X144262295Y-103707487D02*
X144376580Y-103783678D01*
X144376580Y-103783678D02*
X144452771Y-103859868D01*
X144452771Y-103859868D02*
X144490866Y-103936059D01*
X143286104Y-83014285D02*
X143324200Y-83052381D01*
X143324200Y-83052381D02*
X143362295Y-83166666D01*
X143362295Y-83166666D02*
X143362295Y-83242857D01*
X143362295Y-83242857D02*
X143324200Y-83357143D01*
X143324200Y-83357143D02*
X143248009Y-83433333D01*
X143248009Y-83433333D02*
X143171819Y-83471428D01*
X143171819Y-83471428D02*
X143019438Y-83509524D01*
X143019438Y-83509524D02*
X142905152Y-83509524D01*
X142905152Y-83509524D02*
X142752771Y-83471428D01*
X142752771Y-83471428D02*
X142676580Y-83433333D01*
X142676580Y-83433333D02*
X142600390Y-83357143D01*
X142600390Y-83357143D02*
X142562295Y-83242857D01*
X142562295Y-83242857D02*
X142562295Y-83166666D01*
X142562295Y-83166666D02*
X142600390Y-83052381D01*
X142600390Y-83052381D02*
X142638485Y-83014285D01*
X143362295Y-82252381D02*
X143362295Y-82709524D01*
X143362295Y-82480952D02*
X142562295Y-82480952D01*
X142562295Y-82480952D02*
X142676580Y-82557143D01*
X142676580Y-82557143D02*
X142752771Y-82633333D01*
X142752771Y-82633333D02*
X142790866Y-82709524D01*
X143362295Y-81871428D02*
X143362295Y-81719047D01*
X143362295Y-81719047D02*
X143324200Y-81642857D01*
X143324200Y-81642857D02*
X143286104Y-81604761D01*
X143286104Y-81604761D02*
X143171819Y-81528571D01*
X143171819Y-81528571D02*
X143019438Y-81490476D01*
X143019438Y-81490476D02*
X142714676Y-81490476D01*
X142714676Y-81490476D02*
X142638485Y-81528571D01*
X142638485Y-81528571D02*
X142600390Y-81566666D01*
X142600390Y-81566666D02*
X142562295Y-81642857D01*
X142562295Y-81642857D02*
X142562295Y-81795238D01*
X142562295Y-81795238D02*
X142600390Y-81871428D01*
X142600390Y-81871428D02*
X142638485Y-81909523D01*
X142638485Y-81909523D02*
X142714676Y-81947619D01*
X142714676Y-81947619D02*
X142905152Y-81947619D01*
X142905152Y-81947619D02*
X142981342Y-81909523D01*
X142981342Y-81909523D02*
X143019438Y-81871428D01*
X143019438Y-81871428D02*
X143057533Y-81795238D01*
X143057533Y-81795238D02*
X143057533Y-81642857D01*
X143057533Y-81642857D02*
X143019438Y-81566666D01*
X143019438Y-81566666D02*
X142981342Y-81528571D01*
X142981342Y-81528571D02*
X142905152Y-81490476D01*
X175485714Y-106362295D02*
X175219047Y-105981342D01*
X175028571Y-106362295D02*
X175028571Y-105562295D01*
X175028571Y-105562295D02*
X175333333Y-105562295D01*
X175333333Y-105562295D02*
X175409523Y-105600390D01*
X175409523Y-105600390D02*
X175447618Y-105638485D01*
X175447618Y-105638485D02*
X175485714Y-105714676D01*
X175485714Y-105714676D02*
X175485714Y-105828961D01*
X175485714Y-105828961D02*
X175447618Y-105905152D01*
X175447618Y-105905152D02*
X175409523Y-105943247D01*
X175409523Y-105943247D02*
X175333333Y-105981342D01*
X175333333Y-105981342D02*
X175028571Y-105981342D01*
X175752380Y-105562295D02*
X176247618Y-105562295D01*
X176247618Y-105562295D02*
X175980952Y-105867057D01*
X175980952Y-105867057D02*
X176095237Y-105867057D01*
X176095237Y-105867057D02*
X176171428Y-105905152D01*
X176171428Y-105905152D02*
X176209523Y-105943247D01*
X176209523Y-105943247D02*
X176247618Y-106019438D01*
X176247618Y-106019438D02*
X176247618Y-106209914D01*
X176247618Y-106209914D02*
X176209523Y-106286104D01*
X176209523Y-106286104D02*
X176171428Y-106324200D01*
X176171428Y-106324200D02*
X176095237Y-106362295D01*
X176095237Y-106362295D02*
X175866666Y-106362295D01*
X175866666Y-106362295D02*
X175790475Y-106324200D01*
X175790475Y-106324200D02*
X175752380Y-106286104D01*
X176971428Y-105562295D02*
X176590476Y-105562295D01*
X176590476Y-105562295D02*
X176552380Y-105943247D01*
X176552380Y-105943247D02*
X176590476Y-105905152D01*
X176590476Y-105905152D02*
X176666666Y-105867057D01*
X176666666Y-105867057D02*
X176857142Y-105867057D01*
X176857142Y-105867057D02*
X176933333Y-105905152D01*
X176933333Y-105905152D02*
X176971428Y-105943247D01*
X176971428Y-105943247D02*
X177009523Y-106019438D01*
X177009523Y-106019438D02*
X177009523Y-106209914D01*
X177009523Y-106209914D02*
X176971428Y-106286104D01*
X176971428Y-106286104D02*
X176933333Y-106324200D01*
X176933333Y-106324200D02*
X176857142Y-106362295D01*
X176857142Y-106362295D02*
X176666666Y-106362295D01*
X176666666Y-106362295D02*
X176590476Y-106324200D01*
X176590476Y-106324200D02*
X176552380Y-106286104D01*
X125036667Y-114862295D02*
X124770000Y-114481342D01*
X124579524Y-114862295D02*
X124579524Y-114062295D01*
X124579524Y-114062295D02*
X124884286Y-114062295D01*
X124884286Y-114062295D02*
X124960476Y-114100390D01*
X124960476Y-114100390D02*
X124998571Y-114138485D01*
X124998571Y-114138485D02*
X125036667Y-114214676D01*
X125036667Y-114214676D02*
X125036667Y-114328961D01*
X125036667Y-114328961D02*
X124998571Y-114405152D01*
X124998571Y-114405152D02*
X124960476Y-114443247D01*
X124960476Y-114443247D02*
X124884286Y-114481342D01*
X124884286Y-114481342D02*
X124579524Y-114481342D01*
X125798571Y-114862295D02*
X125341428Y-114862295D01*
X125570000Y-114862295D02*
X125570000Y-114062295D01*
X125570000Y-114062295D02*
X125493809Y-114176580D01*
X125493809Y-114176580D02*
X125417619Y-114252771D01*
X125417619Y-114252771D02*
X125341428Y-114290866D01*
X170086104Y-78014285D02*
X170124200Y-78052381D01*
X170124200Y-78052381D02*
X170162295Y-78166666D01*
X170162295Y-78166666D02*
X170162295Y-78242857D01*
X170162295Y-78242857D02*
X170124200Y-78357143D01*
X170124200Y-78357143D02*
X170048009Y-78433333D01*
X170048009Y-78433333D02*
X169971819Y-78471428D01*
X169971819Y-78471428D02*
X169819438Y-78509524D01*
X169819438Y-78509524D02*
X169705152Y-78509524D01*
X169705152Y-78509524D02*
X169552771Y-78471428D01*
X169552771Y-78471428D02*
X169476580Y-78433333D01*
X169476580Y-78433333D02*
X169400390Y-78357143D01*
X169400390Y-78357143D02*
X169362295Y-78242857D01*
X169362295Y-78242857D02*
X169362295Y-78166666D01*
X169362295Y-78166666D02*
X169400390Y-78052381D01*
X169400390Y-78052381D02*
X169438485Y-78014285D01*
X169628961Y-77328571D02*
X170162295Y-77328571D01*
X169324200Y-77519047D02*
X169895628Y-77709524D01*
X169895628Y-77709524D02*
X169895628Y-77214285D01*
X169362295Y-76566666D02*
X169362295Y-76719047D01*
X169362295Y-76719047D02*
X169400390Y-76795238D01*
X169400390Y-76795238D02*
X169438485Y-76833333D01*
X169438485Y-76833333D02*
X169552771Y-76909523D01*
X169552771Y-76909523D02*
X169705152Y-76947619D01*
X169705152Y-76947619D02*
X170009914Y-76947619D01*
X170009914Y-76947619D02*
X170086104Y-76909523D01*
X170086104Y-76909523D02*
X170124200Y-76871428D01*
X170124200Y-76871428D02*
X170162295Y-76795238D01*
X170162295Y-76795238D02*
X170162295Y-76642857D01*
X170162295Y-76642857D02*
X170124200Y-76566666D01*
X170124200Y-76566666D02*
X170086104Y-76528571D01*
X170086104Y-76528571D02*
X170009914Y-76490476D01*
X170009914Y-76490476D02*
X169819438Y-76490476D01*
X169819438Y-76490476D02*
X169743247Y-76528571D01*
X169743247Y-76528571D02*
X169705152Y-76566666D01*
X169705152Y-76566666D02*
X169667057Y-76642857D01*
X169667057Y-76642857D02*
X169667057Y-76795238D01*
X169667057Y-76795238D02*
X169705152Y-76871428D01*
X169705152Y-76871428D02*
X169743247Y-76909523D01*
X169743247Y-76909523D02*
X169819438Y-76947619D01*
X159914795Y-117133333D02*
X159914795Y-117514285D01*
X159914795Y-117514285D02*
X159114795Y-117514285D01*
X159914795Y-116447619D02*
X159914795Y-116904762D01*
X159914795Y-116676190D02*
X159114795Y-116676190D01*
X159114795Y-116676190D02*
X159229080Y-116752381D01*
X159229080Y-116752381D02*
X159305271Y-116828571D01*
X159305271Y-116828571D02*
X159343366Y-116904762D01*
X125671104Y-102633332D02*
X125709200Y-102671428D01*
X125709200Y-102671428D02*
X125747295Y-102785713D01*
X125747295Y-102785713D02*
X125747295Y-102861904D01*
X125747295Y-102861904D02*
X125709200Y-102976190D01*
X125709200Y-102976190D02*
X125633009Y-103052380D01*
X125633009Y-103052380D02*
X125556819Y-103090475D01*
X125556819Y-103090475D02*
X125404438Y-103128571D01*
X125404438Y-103128571D02*
X125290152Y-103128571D01*
X125290152Y-103128571D02*
X125137771Y-103090475D01*
X125137771Y-103090475D02*
X125061580Y-103052380D01*
X125061580Y-103052380D02*
X124985390Y-102976190D01*
X124985390Y-102976190D02*
X124947295Y-102861904D01*
X124947295Y-102861904D02*
X124947295Y-102785713D01*
X124947295Y-102785713D02*
X124985390Y-102671428D01*
X124985390Y-102671428D02*
X125023485Y-102633332D01*
X124947295Y-101909523D02*
X124947295Y-102290475D01*
X124947295Y-102290475D02*
X125328247Y-102328571D01*
X125328247Y-102328571D02*
X125290152Y-102290475D01*
X125290152Y-102290475D02*
X125252057Y-102214285D01*
X125252057Y-102214285D02*
X125252057Y-102023809D01*
X125252057Y-102023809D02*
X125290152Y-101947618D01*
X125290152Y-101947618D02*
X125328247Y-101909523D01*
X125328247Y-101909523D02*
X125404438Y-101871428D01*
X125404438Y-101871428D02*
X125594914Y-101871428D01*
X125594914Y-101871428D02*
X125671104Y-101909523D01*
X125671104Y-101909523D02*
X125709200Y-101947618D01*
X125709200Y-101947618D02*
X125747295Y-102023809D01*
X125747295Y-102023809D02*
X125747295Y-102214285D01*
X125747295Y-102214285D02*
X125709200Y-102290475D01*
X125709200Y-102290475D02*
X125671104Y-102328571D01*
X125671104Y-104633332D02*
X125709200Y-104671428D01*
X125709200Y-104671428D02*
X125747295Y-104785713D01*
X125747295Y-104785713D02*
X125747295Y-104861904D01*
X125747295Y-104861904D02*
X125709200Y-104976190D01*
X125709200Y-104976190D02*
X125633009Y-105052380D01*
X125633009Y-105052380D02*
X125556819Y-105090475D01*
X125556819Y-105090475D02*
X125404438Y-105128571D01*
X125404438Y-105128571D02*
X125290152Y-105128571D01*
X125290152Y-105128571D02*
X125137771Y-105090475D01*
X125137771Y-105090475D02*
X125061580Y-105052380D01*
X125061580Y-105052380D02*
X124985390Y-104976190D01*
X124985390Y-104976190D02*
X124947295Y-104861904D01*
X124947295Y-104861904D02*
X124947295Y-104785713D01*
X124947295Y-104785713D02*
X124985390Y-104671428D01*
X124985390Y-104671428D02*
X125023485Y-104633332D01*
X124947295Y-103947618D02*
X124947295Y-104099999D01*
X124947295Y-104099999D02*
X124985390Y-104176190D01*
X124985390Y-104176190D02*
X125023485Y-104214285D01*
X125023485Y-104214285D02*
X125137771Y-104290475D01*
X125137771Y-104290475D02*
X125290152Y-104328571D01*
X125290152Y-104328571D02*
X125594914Y-104328571D01*
X125594914Y-104328571D02*
X125671104Y-104290475D01*
X125671104Y-104290475D02*
X125709200Y-104252380D01*
X125709200Y-104252380D02*
X125747295Y-104176190D01*
X125747295Y-104176190D02*
X125747295Y-104023809D01*
X125747295Y-104023809D02*
X125709200Y-103947618D01*
X125709200Y-103947618D02*
X125671104Y-103909523D01*
X125671104Y-103909523D02*
X125594914Y-103871428D01*
X125594914Y-103871428D02*
X125404438Y-103871428D01*
X125404438Y-103871428D02*
X125328247Y-103909523D01*
X125328247Y-103909523D02*
X125290152Y-103947618D01*
X125290152Y-103947618D02*
X125252057Y-104023809D01*
X125252057Y-104023809D02*
X125252057Y-104176190D01*
X125252057Y-104176190D02*
X125290152Y-104252380D01*
X125290152Y-104252380D02*
X125328247Y-104290475D01*
X125328247Y-104290475D02*
X125404438Y-104328571D01*
X120787918Y-85772295D02*
X120521251Y-85391342D01*
X120330775Y-85772295D02*
X120330775Y-84972295D01*
X120330775Y-84972295D02*
X120635537Y-84972295D01*
X120635537Y-84972295D02*
X120711727Y-85010390D01*
X120711727Y-85010390D02*
X120749822Y-85048485D01*
X120749822Y-85048485D02*
X120787918Y-85124676D01*
X120787918Y-85124676D02*
X120787918Y-85238961D01*
X120787918Y-85238961D02*
X120749822Y-85315152D01*
X120749822Y-85315152D02*
X120711727Y-85353247D01*
X120711727Y-85353247D02*
X120635537Y-85391342D01*
X120635537Y-85391342D02*
X120330775Y-85391342D01*
X121168870Y-85772295D02*
X121321251Y-85772295D01*
X121321251Y-85772295D02*
X121397441Y-85734200D01*
X121397441Y-85734200D02*
X121435537Y-85696104D01*
X121435537Y-85696104D02*
X121511727Y-85581819D01*
X121511727Y-85581819D02*
X121549822Y-85429438D01*
X121549822Y-85429438D02*
X121549822Y-85124676D01*
X121549822Y-85124676D02*
X121511727Y-85048485D01*
X121511727Y-85048485D02*
X121473632Y-85010390D01*
X121473632Y-85010390D02*
X121397441Y-84972295D01*
X121397441Y-84972295D02*
X121245060Y-84972295D01*
X121245060Y-84972295D02*
X121168870Y-85010390D01*
X121168870Y-85010390D02*
X121130775Y-85048485D01*
X121130775Y-85048485D02*
X121092679Y-85124676D01*
X121092679Y-85124676D02*
X121092679Y-85315152D01*
X121092679Y-85315152D02*
X121130775Y-85391342D01*
X121130775Y-85391342D02*
X121168870Y-85429438D01*
X121168870Y-85429438D02*
X121245060Y-85467533D01*
X121245060Y-85467533D02*
X121397441Y-85467533D01*
X121397441Y-85467533D02*
X121473632Y-85429438D01*
X121473632Y-85429438D02*
X121511727Y-85391342D01*
X121511727Y-85391342D02*
X121549822Y-85315152D01*
X111713095Y-55529819D02*
X111713095Y-54529819D01*
X111713095Y-55006009D02*
X112284523Y-55006009D01*
X112284523Y-55529819D02*
X112284523Y-54529819D01*
X113284523Y-55529819D02*
X112713095Y-55529819D01*
X112998809Y-55529819D02*
X112998809Y-54529819D01*
X112998809Y-54529819D02*
X112903571Y-54672676D01*
X112903571Y-54672676D02*
X112808333Y-54767914D01*
X112808333Y-54767914D02*
X112713095Y-54815533D01*
X158390476Y-109562295D02*
X158390476Y-110209914D01*
X158390476Y-110209914D02*
X158428571Y-110286104D01*
X158428571Y-110286104D02*
X158466666Y-110324200D01*
X158466666Y-110324200D02*
X158542857Y-110362295D01*
X158542857Y-110362295D02*
X158695238Y-110362295D01*
X158695238Y-110362295D02*
X158771428Y-110324200D01*
X158771428Y-110324200D02*
X158809523Y-110286104D01*
X158809523Y-110286104D02*
X158847619Y-110209914D01*
X158847619Y-110209914D02*
X158847619Y-109562295D01*
X159609523Y-109562295D02*
X159228571Y-109562295D01*
X159228571Y-109562295D02*
X159190475Y-109943247D01*
X159190475Y-109943247D02*
X159228571Y-109905152D01*
X159228571Y-109905152D02*
X159304761Y-109867057D01*
X159304761Y-109867057D02*
X159495237Y-109867057D01*
X159495237Y-109867057D02*
X159571428Y-109905152D01*
X159571428Y-109905152D02*
X159609523Y-109943247D01*
X159609523Y-109943247D02*
X159647618Y-110019438D01*
X159647618Y-110019438D02*
X159647618Y-110209914D01*
X159647618Y-110209914D02*
X159609523Y-110286104D01*
X159609523Y-110286104D02*
X159571428Y-110324200D01*
X159571428Y-110324200D02*
X159495237Y-110362295D01*
X159495237Y-110362295D02*
X159304761Y-110362295D01*
X159304761Y-110362295D02*
X159228571Y-110324200D01*
X159228571Y-110324200D02*
X159190475Y-110286104D01*
X175486104Y-79014285D02*
X175524200Y-79052381D01*
X175524200Y-79052381D02*
X175562295Y-79166666D01*
X175562295Y-79166666D02*
X175562295Y-79242857D01*
X175562295Y-79242857D02*
X175524200Y-79357143D01*
X175524200Y-79357143D02*
X175448009Y-79433333D01*
X175448009Y-79433333D02*
X175371819Y-79471428D01*
X175371819Y-79471428D02*
X175219438Y-79509524D01*
X175219438Y-79509524D02*
X175105152Y-79509524D01*
X175105152Y-79509524D02*
X174952771Y-79471428D01*
X174952771Y-79471428D02*
X174876580Y-79433333D01*
X174876580Y-79433333D02*
X174800390Y-79357143D01*
X174800390Y-79357143D02*
X174762295Y-79242857D01*
X174762295Y-79242857D02*
X174762295Y-79166666D01*
X174762295Y-79166666D02*
X174800390Y-79052381D01*
X174800390Y-79052381D02*
X174838485Y-79014285D01*
X174762295Y-78290476D02*
X174762295Y-78671428D01*
X174762295Y-78671428D02*
X175143247Y-78709524D01*
X175143247Y-78709524D02*
X175105152Y-78671428D01*
X175105152Y-78671428D02*
X175067057Y-78595238D01*
X175067057Y-78595238D02*
X175067057Y-78404762D01*
X175067057Y-78404762D02*
X175105152Y-78328571D01*
X175105152Y-78328571D02*
X175143247Y-78290476D01*
X175143247Y-78290476D02*
X175219438Y-78252381D01*
X175219438Y-78252381D02*
X175409914Y-78252381D01*
X175409914Y-78252381D02*
X175486104Y-78290476D01*
X175486104Y-78290476D02*
X175524200Y-78328571D01*
X175524200Y-78328571D02*
X175562295Y-78404762D01*
X175562295Y-78404762D02*
X175562295Y-78595238D01*
X175562295Y-78595238D02*
X175524200Y-78671428D01*
X175524200Y-78671428D02*
X175486104Y-78709524D01*
X174838485Y-77947619D02*
X174800390Y-77909523D01*
X174800390Y-77909523D02*
X174762295Y-77833333D01*
X174762295Y-77833333D02*
X174762295Y-77642857D01*
X174762295Y-77642857D02*
X174800390Y-77566666D01*
X174800390Y-77566666D02*
X174838485Y-77528571D01*
X174838485Y-77528571D02*
X174914676Y-77490476D01*
X174914676Y-77490476D02*
X174990866Y-77490476D01*
X174990866Y-77490476D02*
X175105152Y-77528571D01*
X175105152Y-77528571D02*
X175562295Y-77985714D01*
X175562295Y-77985714D02*
X175562295Y-77490476D01*
X111713095Y-126079819D02*
X111713095Y-125079819D01*
X111713095Y-125556009D02*
X112284523Y-125556009D01*
X112284523Y-126079819D02*
X112284523Y-125079819D01*
X112665476Y-125079819D02*
X113284523Y-125079819D01*
X113284523Y-125079819D02*
X112951190Y-125460771D01*
X112951190Y-125460771D02*
X113094047Y-125460771D01*
X113094047Y-125460771D02*
X113189285Y-125508390D01*
X113189285Y-125508390D02*
X113236904Y-125556009D01*
X113236904Y-125556009D02*
X113284523Y-125651247D01*
X113284523Y-125651247D02*
X113284523Y-125889342D01*
X113284523Y-125889342D02*
X113236904Y-125984580D01*
X113236904Y-125984580D02*
X113189285Y-126032200D01*
X113189285Y-126032200D02*
X113094047Y-126079819D01*
X113094047Y-126079819D02*
X112808333Y-126079819D01*
X112808333Y-126079819D02*
X112713095Y-126032200D01*
X112713095Y-126032200D02*
X112665476Y-125984580D01*
X181485714Y-89332295D02*
X181219047Y-88951342D01*
X181028571Y-89332295D02*
X181028571Y-88532295D01*
X181028571Y-88532295D02*
X181333333Y-88532295D01*
X181333333Y-88532295D02*
X181409523Y-88570390D01*
X181409523Y-88570390D02*
X181447618Y-88608485D01*
X181447618Y-88608485D02*
X181485714Y-88684676D01*
X181485714Y-88684676D02*
X181485714Y-88798961D01*
X181485714Y-88798961D02*
X181447618Y-88875152D01*
X181447618Y-88875152D02*
X181409523Y-88913247D01*
X181409523Y-88913247D02*
X181333333Y-88951342D01*
X181333333Y-88951342D02*
X181028571Y-88951342D01*
X181752380Y-88532295D02*
X182247618Y-88532295D01*
X182247618Y-88532295D02*
X181980952Y-88837057D01*
X181980952Y-88837057D02*
X182095237Y-88837057D01*
X182095237Y-88837057D02*
X182171428Y-88875152D01*
X182171428Y-88875152D02*
X182209523Y-88913247D01*
X182209523Y-88913247D02*
X182247618Y-88989438D01*
X182247618Y-88989438D02*
X182247618Y-89179914D01*
X182247618Y-89179914D02*
X182209523Y-89256104D01*
X182209523Y-89256104D02*
X182171428Y-89294200D01*
X182171428Y-89294200D02*
X182095237Y-89332295D01*
X182095237Y-89332295D02*
X181866666Y-89332295D01*
X181866666Y-89332295D02*
X181790475Y-89294200D01*
X181790475Y-89294200D02*
X181752380Y-89256104D01*
X182514285Y-88532295D02*
X183009523Y-88532295D01*
X183009523Y-88532295D02*
X182742857Y-88837057D01*
X182742857Y-88837057D02*
X182857142Y-88837057D01*
X182857142Y-88837057D02*
X182933333Y-88875152D01*
X182933333Y-88875152D02*
X182971428Y-88913247D01*
X182971428Y-88913247D02*
X183009523Y-88989438D01*
X183009523Y-88989438D02*
X183009523Y-89179914D01*
X183009523Y-89179914D02*
X182971428Y-89256104D01*
X182971428Y-89256104D02*
X182933333Y-89294200D01*
X182933333Y-89294200D02*
X182857142Y-89332295D01*
X182857142Y-89332295D02*
X182628571Y-89332295D01*
X182628571Y-89332295D02*
X182552380Y-89294200D01*
X182552380Y-89294200D02*
X182514285Y-89256104D01*
X156015714Y-125911104D02*
X155977618Y-125949200D01*
X155977618Y-125949200D02*
X155863333Y-125987295D01*
X155863333Y-125987295D02*
X155787142Y-125987295D01*
X155787142Y-125987295D02*
X155672856Y-125949200D01*
X155672856Y-125949200D02*
X155596666Y-125873009D01*
X155596666Y-125873009D02*
X155558571Y-125796819D01*
X155558571Y-125796819D02*
X155520475Y-125644438D01*
X155520475Y-125644438D02*
X155520475Y-125530152D01*
X155520475Y-125530152D02*
X155558571Y-125377771D01*
X155558571Y-125377771D02*
X155596666Y-125301580D01*
X155596666Y-125301580D02*
X155672856Y-125225390D01*
X155672856Y-125225390D02*
X155787142Y-125187295D01*
X155787142Y-125187295D02*
X155863333Y-125187295D01*
X155863333Y-125187295D02*
X155977618Y-125225390D01*
X155977618Y-125225390D02*
X156015714Y-125263485D01*
X156320475Y-125263485D02*
X156358571Y-125225390D01*
X156358571Y-125225390D02*
X156434761Y-125187295D01*
X156434761Y-125187295D02*
X156625237Y-125187295D01*
X156625237Y-125187295D02*
X156701428Y-125225390D01*
X156701428Y-125225390D02*
X156739523Y-125263485D01*
X156739523Y-125263485D02*
X156777618Y-125339676D01*
X156777618Y-125339676D02*
X156777618Y-125415866D01*
X156777618Y-125415866D02*
X156739523Y-125530152D01*
X156739523Y-125530152D02*
X156282380Y-125987295D01*
X156282380Y-125987295D02*
X156777618Y-125987295D01*
X157082380Y-125263485D02*
X157120476Y-125225390D01*
X157120476Y-125225390D02*
X157196666Y-125187295D01*
X157196666Y-125187295D02*
X157387142Y-125187295D01*
X157387142Y-125187295D02*
X157463333Y-125225390D01*
X157463333Y-125225390D02*
X157501428Y-125263485D01*
X157501428Y-125263485D02*
X157539523Y-125339676D01*
X157539523Y-125339676D02*
X157539523Y-125415866D01*
X157539523Y-125415866D02*
X157501428Y-125530152D01*
X157501428Y-125530152D02*
X157044285Y-125987295D01*
X157044285Y-125987295D02*
X157539523Y-125987295D01*
X150809795Y-118439285D02*
X150428842Y-118705952D01*
X150809795Y-118896428D02*
X150009795Y-118896428D01*
X150009795Y-118896428D02*
X150009795Y-118591666D01*
X150009795Y-118591666D02*
X150047890Y-118515476D01*
X150047890Y-118515476D02*
X150085985Y-118477381D01*
X150085985Y-118477381D02*
X150162176Y-118439285D01*
X150162176Y-118439285D02*
X150276461Y-118439285D01*
X150276461Y-118439285D02*
X150352652Y-118477381D01*
X150352652Y-118477381D02*
X150390747Y-118515476D01*
X150390747Y-118515476D02*
X150428842Y-118591666D01*
X150428842Y-118591666D02*
X150428842Y-118896428D01*
X150085985Y-118134524D02*
X150047890Y-118096428D01*
X150047890Y-118096428D02*
X150009795Y-118020238D01*
X150009795Y-118020238D02*
X150009795Y-117829762D01*
X150009795Y-117829762D02*
X150047890Y-117753571D01*
X150047890Y-117753571D02*
X150085985Y-117715476D01*
X150085985Y-117715476D02*
X150162176Y-117677381D01*
X150162176Y-117677381D02*
X150238366Y-117677381D01*
X150238366Y-117677381D02*
X150352652Y-117715476D01*
X150352652Y-117715476D02*
X150809795Y-118172619D01*
X150809795Y-118172619D02*
X150809795Y-117677381D01*
X150009795Y-117410714D02*
X150009795Y-116877380D01*
X150009795Y-116877380D02*
X150809795Y-117220238D01*
X162985714Y-114899795D02*
X162719047Y-114518842D01*
X162528571Y-114899795D02*
X162528571Y-114099795D01*
X162528571Y-114099795D02*
X162833333Y-114099795D01*
X162833333Y-114099795D02*
X162909523Y-114137890D01*
X162909523Y-114137890D02*
X162947618Y-114175985D01*
X162947618Y-114175985D02*
X162985714Y-114252176D01*
X162985714Y-114252176D02*
X162985714Y-114366461D01*
X162985714Y-114366461D02*
X162947618Y-114442652D01*
X162947618Y-114442652D02*
X162909523Y-114480747D01*
X162909523Y-114480747D02*
X162833333Y-114518842D01*
X162833333Y-114518842D02*
X162528571Y-114518842D01*
X163747618Y-114899795D02*
X163290475Y-114899795D01*
X163519047Y-114899795D02*
X163519047Y-114099795D01*
X163519047Y-114099795D02*
X163442856Y-114214080D01*
X163442856Y-114214080D02*
X163366666Y-114290271D01*
X163366666Y-114290271D02*
X163290475Y-114328366D01*
X164433333Y-114099795D02*
X164280952Y-114099795D01*
X164280952Y-114099795D02*
X164204761Y-114137890D01*
X164204761Y-114137890D02*
X164166666Y-114175985D01*
X164166666Y-114175985D02*
X164090476Y-114290271D01*
X164090476Y-114290271D02*
X164052380Y-114442652D01*
X164052380Y-114442652D02*
X164052380Y-114747414D01*
X164052380Y-114747414D02*
X164090476Y-114823604D01*
X164090476Y-114823604D02*
X164128571Y-114861700D01*
X164128571Y-114861700D02*
X164204761Y-114899795D01*
X164204761Y-114899795D02*
X164357142Y-114899795D01*
X164357142Y-114899795D02*
X164433333Y-114861700D01*
X164433333Y-114861700D02*
X164471428Y-114823604D01*
X164471428Y-114823604D02*
X164509523Y-114747414D01*
X164509523Y-114747414D02*
X164509523Y-114556938D01*
X164509523Y-114556938D02*
X164471428Y-114480747D01*
X164471428Y-114480747D02*
X164433333Y-114442652D01*
X164433333Y-114442652D02*
X164357142Y-114404557D01*
X164357142Y-114404557D02*
X164204761Y-114404557D01*
X164204761Y-114404557D02*
X164128571Y-114442652D01*
X164128571Y-114442652D02*
X164090476Y-114480747D01*
X164090476Y-114480747D02*
X164052380Y-114556938D01*
X138235714Y-101123604D02*
X138197618Y-101161700D01*
X138197618Y-101161700D02*
X138083333Y-101199795D01*
X138083333Y-101199795D02*
X138007142Y-101199795D01*
X138007142Y-101199795D02*
X137892856Y-101161700D01*
X137892856Y-101161700D02*
X137816666Y-101085509D01*
X137816666Y-101085509D02*
X137778571Y-101009319D01*
X137778571Y-101009319D02*
X137740475Y-100856938D01*
X137740475Y-100856938D02*
X137740475Y-100742652D01*
X137740475Y-100742652D02*
X137778571Y-100590271D01*
X137778571Y-100590271D02*
X137816666Y-100514080D01*
X137816666Y-100514080D02*
X137892856Y-100437890D01*
X137892856Y-100437890D02*
X138007142Y-100399795D01*
X138007142Y-100399795D02*
X138083333Y-100399795D01*
X138083333Y-100399795D02*
X138197618Y-100437890D01*
X138197618Y-100437890D02*
X138235714Y-100475985D01*
X138540475Y-100475985D02*
X138578571Y-100437890D01*
X138578571Y-100437890D02*
X138654761Y-100399795D01*
X138654761Y-100399795D02*
X138845237Y-100399795D01*
X138845237Y-100399795D02*
X138921428Y-100437890D01*
X138921428Y-100437890D02*
X138959523Y-100475985D01*
X138959523Y-100475985D02*
X138997618Y-100552176D01*
X138997618Y-100552176D02*
X138997618Y-100628366D01*
X138997618Y-100628366D02*
X138959523Y-100742652D01*
X138959523Y-100742652D02*
X138502380Y-101199795D01*
X138502380Y-101199795D02*
X138997618Y-101199795D01*
X139264285Y-100399795D02*
X139797619Y-100399795D01*
X139797619Y-100399795D02*
X139454761Y-101199795D01*
X181786104Y-94014285D02*
X181824200Y-94052381D01*
X181824200Y-94052381D02*
X181862295Y-94166666D01*
X181862295Y-94166666D02*
X181862295Y-94242857D01*
X181862295Y-94242857D02*
X181824200Y-94357143D01*
X181824200Y-94357143D02*
X181748009Y-94433333D01*
X181748009Y-94433333D02*
X181671819Y-94471428D01*
X181671819Y-94471428D02*
X181519438Y-94509524D01*
X181519438Y-94509524D02*
X181405152Y-94509524D01*
X181405152Y-94509524D02*
X181252771Y-94471428D01*
X181252771Y-94471428D02*
X181176580Y-94433333D01*
X181176580Y-94433333D02*
X181100390Y-94357143D01*
X181100390Y-94357143D02*
X181062295Y-94242857D01*
X181062295Y-94242857D02*
X181062295Y-94166666D01*
X181062295Y-94166666D02*
X181100390Y-94052381D01*
X181100390Y-94052381D02*
X181138485Y-94014285D01*
X181062295Y-93747619D02*
X181062295Y-93252381D01*
X181062295Y-93252381D02*
X181367057Y-93519047D01*
X181367057Y-93519047D02*
X181367057Y-93404762D01*
X181367057Y-93404762D02*
X181405152Y-93328571D01*
X181405152Y-93328571D02*
X181443247Y-93290476D01*
X181443247Y-93290476D02*
X181519438Y-93252381D01*
X181519438Y-93252381D02*
X181709914Y-93252381D01*
X181709914Y-93252381D02*
X181786104Y-93290476D01*
X181786104Y-93290476D02*
X181824200Y-93328571D01*
X181824200Y-93328571D02*
X181862295Y-93404762D01*
X181862295Y-93404762D02*
X181862295Y-93633333D01*
X181862295Y-93633333D02*
X181824200Y-93709524D01*
X181824200Y-93709524D02*
X181786104Y-93747619D01*
X181405152Y-92795238D02*
X181367057Y-92871428D01*
X181367057Y-92871428D02*
X181328961Y-92909523D01*
X181328961Y-92909523D02*
X181252771Y-92947619D01*
X181252771Y-92947619D02*
X181214676Y-92947619D01*
X181214676Y-92947619D02*
X181138485Y-92909523D01*
X181138485Y-92909523D02*
X181100390Y-92871428D01*
X181100390Y-92871428D02*
X181062295Y-92795238D01*
X181062295Y-92795238D02*
X181062295Y-92642857D01*
X181062295Y-92642857D02*
X181100390Y-92566666D01*
X181100390Y-92566666D02*
X181138485Y-92528571D01*
X181138485Y-92528571D02*
X181214676Y-92490476D01*
X181214676Y-92490476D02*
X181252771Y-92490476D01*
X181252771Y-92490476D02*
X181328961Y-92528571D01*
X181328961Y-92528571D02*
X181367057Y-92566666D01*
X181367057Y-92566666D02*
X181405152Y-92642857D01*
X181405152Y-92642857D02*
X181405152Y-92795238D01*
X181405152Y-92795238D02*
X181443247Y-92871428D01*
X181443247Y-92871428D02*
X181481342Y-92909523D01*
X181481342Y-92909523D02*
X181557533Y-92947619D01*
X181557533Y-92947619D02*
X181709914Y-92947619D01*
X181709914Y-92947619D02*
X181786104Y-92909523D01*
X181786104Y-92909523D02*
X181824200Y-92871428D01*
X181824200Y-92871428D02*
X181862295Y-92795238D01*
X181862295Y-92795238D02*
X181862295Y-92642857D01*
X181862295Y-92642857D02*
X181824200Y-92566666D01*
X181824200Y-92566666D02*
X181786104Y-92528571D01*
X181786104Y-92528571D02*
X181709914Y-92490476D01*
X181709914Y-92490476D02*
X181557533Y-92490476D01*
X181557533Y-92490476D02*
X181481342Y-92528571D01*
X181481342Y-92528571D02*
X181443247Y-92566666D01*
X181443247Y-92566666D02*
X181405152Y-92642857D01*
X151862295Y-102024285D02*
X151481342Y-102290952D01*
X151862295Y-102481428D02*
X151062295Y-102481428D01*
X151062295Y-102481428D02*
X151062295Y-102176666D01*
X151062295Y-102176666D02*
X151100390Y-102100476D01*
X151100390Y-102100476D02*
X151138485Y-102062381D01*
X151138485Y-102062381D02*
X151214676Y-102024285D01*
X151214676Y-102024285D02*
X151328961Y-102024285D01*
X151328961Y-102024285D02*
X151405152Y-102062381D01*
X151405152Y-102062381D02*
X151443247Y-102100476D01*
X151443247Y-102100476D02*
X151481342Y-102176666D01*
X151481342Y-102176666D02*
X151481342Y-102481428D01*
X151062295Y-101757619D02*
X151062295Y-101262381D01*
X151062295Y-101262381D02*
X151367057Y-101529047D01*
X151367057Y-101529047D02*
X151367057Y-101414762D01*
X151367057Y-101414762D02*
X151405152Y-101338571D01*
X151405152Y-101338571D02*
X151443247Y-101300476D01*
X151443247Y-101300476D02*
X151519438Y-101262381D01*
X151519438Y-101262381D02*
X151709914Y-101262381D01*
X151709914Y-101262381D02*
X151786104Y-101300476D01*
X151786104Y-101300476D02*
X151824200Y-101338571D01*
X151824200Y-101338571D02*
X151862295Y-101414762D01*
X151862295Y-101414762D02*
X151862295Y-101643333D01*
X151862295Y-101643333D02*
X151824200Y-101719524D01*
X151824200Y-101719524D02*
X151786104Y-101757619D01*
X151062295Y-100767142D02*
X151062295Y-100690952D01*
X151062295Y-100690952D02*
X151100390Y-100614761D01*
X151100390Y-100614761D02*
X151138485Y-100576666D01*
X151138485Y-100576666D02*
X151214676Y-100538571D01*
X151214676Y-100538571D02*
X151367057Y-100500476D01*
X151367057Y-100500476D02*
X151557533Y-100500476D01*
X151557533Y-100500476D02*
X151709914Y-100538571D01*
X151709914Y-100538571D02*
X151786104Y-100576666D01*
X151786104Y-100576666D02*
X151824200Y-100614761D01*
X151824200Y-100614761D02*
X151862295Y-100690952D01*
X151862295Y-100690952D02*
X151862295Y-100767142D01*
X151862295Y-100767142D02*
X151824200Y-100843333D01*
X151824200Y-100843333D02*
X151786104Y-100881428D01*
X151786104Y-100881428D02*
X151709914Y-100919523D01*
X151709914Y-100919523D02*
X151557533Y-100957619D01*
X151557533Y-100957619D02*
X151367057Y-100957619D01*
X151367057Y-100957619D02*
X151214676Y-100919523D01*
X151214676Y-100919523D02*
X151138485Y-100881428D01*
X151138485Y-100881428D02*
X151100390Y-100843333D01*
X151100390Y-100843333D02*
X151062295Y-100767142D01*
X155626104Y-97014285D02*
X155664200Y-97052381D01*
X155664200Y-97052381D02*
X155702295Y-97166666D01*
X155702295Y-97166666D02*
X155702295Y-97242857D01*
X155702295Y-97242857D02*
X155664200Y-97357143D01*
X155664200Y-97357143D02*
X155588009Y-97433333D01*
X155588009Y-97433333D02*
X155511819Y-97471428D01*
X155511819Y-97471428D02*
X155359438Y-97509524D01*
X155359438Y-97509524D02*
X155245152Y-97509524D01*
X155245152Y-97509524D02*
X155092771Y-97471428D01*
X155092771Y-97471428D02*
X155016580Y-97433333D01*
X155016580Y-97433333D02*
X154940390Y-97357143D01*
X154940390Y-97357143D02*
X154902295Y-97242857D01*
X154902295Y-97242857D02*
X154902295Y-97166666D01*
X154902295Y-97166666D02*
X154940390Y-97052381D01*
X154940390Y-97052381D02*
X154978485Y-97014285D01*
X155168961Y-96328571D02*
X155702295Y-96328571D01*
X154864200Y-96519047D02*
X155435628Y-96709524D01*
X155435628Y-96709524D02*
X155435628Y-96214285D01*
X154902295Y-95985714D02*
X154902295Y-95490476D01*
X154902295Y-95490476D02*
X155207057Y-95757142D01*
X155207057Y-95757142D02*
X155207057Y-95642857D01*
X155207057Y-95642857D02*
X155245152Y-95566666D01*
X155245152Y-95566666D02*
X155283247Y-95528571D01*
X155283247Y-95528571D02*
X155359438Y-95490476D01*
X155359438Y-95490476D02*
X155549914Y-95490476D01*
X155549914Y-95490476D02*
X155626104Y-95528571D01*
X155626104Y-95528571D02*
X155664200Y-95566666D01*
X155664200Y-95566666D02*
X155702295Y-95642857D01*
X155702295Y-95642857D02*
X155702295Y-95871428D01*
X155702295Y-95871428D02*
X155664200Y-95947619D01*
X155664200Y-95947619D02*
X155626104Y-95985714D01*
X175443247Y-123696666D02*
X175443247Y-123963332D01*
X175862295Y-123963332D02*
X175062295Y-123963332D01*
X175062295Y-123963332D02*
X175062295Y-123582380D01*
X175862295Y-122858571D02*
X175862295Y-123315714D01*
X175862295Y-123087142D02*
X175062295Y-123087142D01*
X175062295Y-123087142D02*
X175176580Y-123163333D01*
X175176580Y-123163333D02*
X175252771Y-123239523D01*
X175252771Y-123239523D02*
X175290866Y-123315714D01*
X177985714Y-109036104D02*
X177947618Y-109074200D01*
X177947618Y-109074200D02*
X177833333Y-109112295D01*
X177833333Y-109112295D02*
X177757142Y-109112295D01*
X177757142Y-109112295D02*
X177642856Y-109074200D01*
X177642856Y-109074200D02*
X177566666Y-108998009D01*
X177566666Y-108998009D02*
X177528571Y-108921819D01*
X177528571Y-108921819D02*
X177490475Y-108769438D01*
X177490475Y-108769438D02*
X177490475Y-108655152D01*
X177490475Y-108655152D02*
X177528571Y-108502771D01*
X177528571Y-108502771D02*
X177566666Y-108426580D01*
X177566666Y-108426580D02*
X177642856Y-108350390D01*
X177642856Y-108350390D02*
X177757142Y-108312295D01*
X177757142Y-108312295D02*
X177833333Y-108312295D01*
X177833333Y-108312295D02*
X177947618Y-108350390D01*
X177947618Y-108350390D02*
X177985714Y-108388485D01*
X178709523Y-108312295D02*
X178328571Y-108312295D01*
X178328571Y-108312295D02*
X178290475Y-108693247D01*
X178290475Y-108693247D02*
X178328571Y-108655152D01*
X178328571Y-108655152D02*
X178404761Y-108617057D01*
X178404761Y-108617057D02*
X178595237Y-108617057D01*
X178595237Y-108617057D02*
X178671428Y-108655152D01*
X178671428Y-108655152D02*
X178709523Y-108693247D01*
X178709523Y-108693247D02*
X178747618Y-108769438D01*
X178747618Y-108769438D02*
X178747618Y-108959914D01*
X178747618Y-108959914D02*
X178709523Y-109036104D01*
X178709523Y-109036104D02*
X178671428Y-109074200D01*
X178671428Y-109074200D02*
X178595237Y-109112295D01*
X178595237Y-109112295D02*
X178404761Y-109112295D01*
X178404761Y-109112295D02*
X178328571Y-109074200D01*
X178328571Y-109074200D02*
X178290475Y-109036104D01*
X179014285Y-108312295D02*
X179509523Y-108312295D01*
X179509523Y-108312295D02*
X179242857Y-108617057D01*
X179242857Y-108617057D02*
X179357142Y-108617057D01*
X179357142Y-108617057D02*
X179433333Y-108655152D01*
X179433333Y-108655152D02*
X179471428Y-108693247D01*
X179471428Y-108693247D02*
X179509523Y-108769438D01*
X179509523Y-108769438D02*
X179509523Y-108959914D01*
X179509523Y-108959914D02*
X179471428Y-109036104D01*
X179471428Y-109036104D02*
X179433333Y-109074200D01*
X179433333Y-109074200D02*
X179357142Y-109112295D01*
X179357142Y-109112295D02*
X179128571Y-109112295D01*
X179128571Y-109112295D02*
X179052380Y-109074200D01*
X179052380Y-109074200D02*
X179014285Y-109036104D01*
X145685714Y-113556104D02*
X145647618Y-113594200D01*
X145647618Y-113594200D02*
X145533333Y-113632295D01*
X145533333Y-113632295D02*
X145457142Y-113632295D01*
X145457142Y-113632295D02*
X145342856Y-113594200D01*
X145342856Y-113594200D02*
X145266666Y-113518009D01*
X145266666Y-113518009D02*
X145228571Y-113441819D01*
X145228571Y-113441819D02*
X145190475Y-113289438D01*
X145190475Y-113289438D02*
X145190475Y-113175152D01*
X145190475Y-113175152D02*
X145228571Y-113022771D01*
X145228571Y-113022771D02*
X145266666Y-112946580D01*
X145266666Y-112946580D02*
X145342856Y-112870390D01*
X145342856Y-112870390D02*
X145457142Y-112832295D01*
X145457142Y-112832295D02*
X145533333Y-112832295D01*
X145533333Y-112832295D02*
X145647618Y-112870390D01*
X145647618Y-112870390D02*
X145685714Y-112908485D01*
X145952380Y-112832295D02*
X146447618Y-112832295D01*
X146447618Y-112832295D02*
X146180952Y-113137057D01*
X146180952Y-113137057D02*
X146295237Y-113137057D01*
X146295237Y-113137057D02*
X146371428Y-113175152D01*
X146371428Y-113175152D02*
X146409523Y-113213247D01*
X146409523Y-113213247D02*
X146447618Y-113289438D01*
X146447618Y-113289438D02*
X146447618Y-113479914D01*
X146447618Y-113479914D02*
X146409523Y-113556104D01*
X146409523Y-113556104D02*
X146371428Y-113594200D01*
X146371428Y-113594200D02*
X146295237Y-113632295D01*
X146295237Y-113632295D02*
X146066666Y-113632295D01*
X146066666Y-113632295D02*
X145990475Y-113594200D01*
X145990475Y-113594200D02*
X145952380Y-113556104D01*
X147133333Y-113098961D02*
X147133333Y-113632295D01*
X146942857Y-112794200D02*
X146752380Y-113365628D01*
X146752380Y-113365628D02*
X147247619Y-113365628D01*
X150536104Y-86351785D02*
X150574200Y-86389881D01*
X150574200Y-86389881D02*
X150612295Y-86504166D01*
X150612295Y-86504166D02*
X150612295Y-86580357D01*
X150612295Y-86580357D02*
X150574200Y-86694643D01*
X150574200Y-86694643D02*
X150498009Y-86770833D01*
X150498009Y-86770833D02*
X150421819Y-86808928D01*
X150421819Y-86808928D02*
X150269438Y-86847024D01*
X150269438Y-86847024D02*
X150155152Y-86847024D01*
X150155152Y-86847024D02*
X150002771Y-86808928D01*
X150002771Y-86808928D02*
X149926580Y-86770833D01*
X149926580Y-86770833D02*
X149850390Y-86694643D01*
X149850390Y-86694643D02*
X149812295Y-86580357D01*
X149812295Y-86580357D02*
X149812295Y-86504166D01*
X149812295Y-86504166D02*
X149850390Y-86389881D01*
X149850390Y-86389881D02*
X149888485Y-86351785D01*
X149812295Y-86085119D02*
X149812295Y-85589881D01*
X149812295Y-85589881D02*
X150117057Y-85856547D01*
X150117057Y-85856547D02*
X150117057Y-85742262D01*
X150117057Y-85742262D02*
X150155152Y-85666071D01*
X150155152Y-85666071D02*
X150193247Y-85627976D01*
X150193247Y-85627976D02*
X150269438Y-85589881D01*
X150269438Y-85589881D02*
X150459914Y-85589881D01*
X150459914Y-85589881D02*
X150536104Y-85627976D01*
X150536104Y-85627976D02*
X150574200Y-85666071D01*
X150574200Y-85666071D02*
X150612295Y-85742262D01*
X150612295Y-85742262D02*
X150612295Y-85970833D01*
X150612295Y-85970833D02*
X150574200Y-86047024D01*
X150574200Y-86047024D02*
X150536104Y-86085119D01*
X149888485Y-85285119D02*
X149850390Y-85247023D01*
X149850390Y-85247023D02*
X149812295Y-85170833D01*
X149812295Y-85170833D02*
X149812295Y-84980357D01*
X149812295Y-84980357D02*
X149850390Y-84904166D01*
X149850390Y-84904166D02*
X149888485Y-84866071D01*
X149888485Y-84866071D02*
X149964676Y-84827976D01*
X149964676Y-84827976D02*
X150040866Y-84827976D01*
X150040866Y-84827976D02*
X150155152Y-84866071D01*
X150155152Y-84866071D02*
X150612295Y-85323214D01*
X150612295Y-85323214D02*
X150612295Y-84827976D01*
X164825714Y-124369795D02*
X164559047Y-123988842D01*
X164368571Y-124369795D02*
X164368571Y-123569795D01*
X164368571Y-123569795D02*
X164673333Y-123569795D01*
X164673333Y-123569795D02*
X164749523Y-123607890D01*
X164749523Y-123607890D02*
X164787618Y-123645985D01*
X164787618Y-123645985D02*
X164825714Y-123722176D01*
X164825714Y-123722176D02*
X164825714Y-123836461D01*
X164825714Y-123836461D02*
X164787618Y-123912652D01*
X164787618Y-123912652D02*
X164749523Y-123950747D01*
X164749523Y-123950747D02*
X164673333Y-123988842D01*
X164673333Y-123988842D02*
X164368571Y-123988842D01*
X165130475Y-123645985D02*
X165168571Y-123607890D01*
X165168571Y-123607890D02*
X165244761Y-123569795D01*
X165244761Y-123569795D02*
X165435237Y-123569795D01*
X165435237Y-123569795D02*
X165511428Y-123607890D01*
X165511428Y-123607890D02*
X165549523Y-123645985D01*
X165549523Y-123645985D02*
X165587618Y-123722176D01*
X165587618Y-123722176D02*
X165587618Y-123798366D01*
X165587618Y-123798366D02*
X165549523Y-123912652D01*
X165549523Y-123912652D02*
X165092380Y-124369795D01*
X165092380Y-124369795D02*
X165587618Y-124369795D01*
X165892380Y-123645985D02*
X165930476Y-123607890D01*
X165930476Y-123607890D02*
X166006666Y-123569795D01*
X166006666Y-123569795D02*
X166197142Y-123569795D01*
X166197142Y-123569795D02*
X166273333Y-123607890D01*
X166273333Y-123607890D02*
X166311428Y-123645985D01*
X166311428Y-123645985D02*
X166349523Y-123722176D01*
X166349523Y-123722176D02*
X166349523Y-123798366D01*
X166349523Y-123798366D02*
X166311428Y-123912652D01*
X166311428Y-123912652D02*
X165854285Y-124369795D01*
X165854285Y-124369795D02*
X166349523Y-124369795D01*
X158786104Y-79034285D02*
X158824200Y-79072381D01*
X158824200Y-79072381D02*
X158862295Y-79186666D01*
X158862295Y-79186666D02*
X158862295Y-79262857D01*
X158862295Y-79262857D02*
X158824200Y-79377143D01*
X158824200Y-79377143D02*
X158748009Y-79453333D01*
X158748009Y-79453333D02*
X158671819Y-79491428D01*
X158671819Y-79491428D02*
X158519438Y-79529524D01*
X158519438Y-79529524D02*
X158405152Y-79529524D01*
X158405152Y-79529524D02*
X158252771Y-79491428D01*
X158252771Y-79491428D02*
X158176580Y-79453333D01*
X158176580Y-79453333D02*
X158100390Y-79377143D01*
X158100390Y-79377143D02*
X158062295Y-79262857D01*
X158062295Y-79262857D02*
X158062295Y-79186666D01*
X158062295Y-79186666D02*
X158100390Y-79072381D01*
X158100390Y-79072381D02*
X158138485Y-79034285D01*
X158062295Y-78310476D02*
X158062295Y-78691428D01*
X158062295Y-78691428D02*
X158443247Y-78729524D01*
X158443247Y-78729524D02*
X158405152Y-78691428D01*
X158405152Y-78691428D02*
X158367057Y-78615238D01*
X158367057Y-78615238D02*
X158367057Y-78424762D01*
X158367057Y-78424762D02*
X158405152Y-78348571D01*
X158405152Y-78348571D02*
X158443247Y-78310476D01*
X158443247Y-78310476D02*
X158519438Y-78272381D01*
X158519438Y-78272381D02*
X158709914Y-78272381D01*
X158709914Y-78272381D02*
X158786104Y-78310476D01*
X158786104Y-78310476D02*
X158824200Y-78348571D01*
X158824200Y-78348571D02*
X158862295Y-78424762D01*
X158862295Y-78424762D02*
X158862295Y-78615238D01*
X158862295Y-78615238D02*
X158824200Y-78691428D01*
X158824200Y-78691428D02*
X158786104Y-78729524D01*
X158062295Y-78005714D02*
X158062295Y-77472380D01*
X158062295Y-77472380D02*
X158862295Y-77815238D01*
X178062295Y-117016666D02*
X178633723Y-117016666D01*
X178633723Y-117016666D02*
X178748009Y-117054761D01*
X178748009Y-117054761D02*
X178824200Y-117130952D01*
X178824200Y-117130952D02*
X178862295Y-117245237D01*
X178862295Y-117245237D02*
X178862295Y-117321428D01*
X178062295Y-116292856D02*
X178062295Y-116445237D01*
X178062295Y-116445237D02*
X178100390Y-116521428D01*
X178100390Y-116521428D02*
X178138485Y-116559523D01*
X178138485Y-116559523D02*
X178252771Y-116635713D01*
X178252771Y-116635713D02*
X178405152Y-116673809D01*
X178405152Y-116673809D02*
X178709914Y-116673809D01*
X178709914Y-116673809D02*
X178786104Y-116635713D01*
X178786104Y-116635713D02*
X178824200Y-116597618D01*
X178824200Y-116597618D02*
X178862295Y-116521428D01*
X178862295Y-116521428D02*
X178862295Y-116369047D01*
X178862295Y-116369047D02*
X178824200Y-116292856D01*
X178824200Y-116292856D02*
X178786104Y-116254761D01*
X178786104Y-116254761D02*
X178709914Y-116216666D01*
X178709914Y-116216666D02*
X178519438Y-116216666D01*
X178519438Y-116216666D02*
X178443247Y-116254761D01*
X178443247Y-116254761D02*
X178405152Y-116292856D01*
X178405152Y-116292856D02*
X178367057Y-116369047D01*
X178367057Y-116369047D02*
X178367057Y-116521428D01*
X178367057Y-116521428D02*
X178405152Y-116597618D01*
X178405152Y-116597618D02*
X178443247Y-116635713D01*
X178443247Y-116635713D02*
X178519438Y-116673809D01*
%TO.C,R28*%
D11*
X151157500Y-121275242D02*
X151157500Y-121749758D01*
X152202500Y-121275242D02*
X152202500Y-121749758D01*
%TO.C,C35*%
X155358767Y-114830000D02*
X155066233Y-114830000D01*
X155358767Y-115850000D02*
X155066233Y-115850000D01*
%TO.C,C26*%
X142990000Y-101884420D02*
X142990000Y-102165580D01*
X144010000Y-101884420D02*
X144010000Y-102165580D01*
%TO.C,D1*%
X127271251Y-80802500D02*
X127321251Y-80802500D01*
X127271251Y-82322500D02*
X127271251Y-80802500D01*
X128271251Y-82322500D02*
X127271251Y-82322500D01*
X128441251Y-80802500D02*
X129221251Y-80802500D01*
X130341251Y-80802500D02*
X130391251Y-80802500D01*
X130391251Y-80802500D02*
X130391251Y-82322500D01*
X130391251Y-82322500D02*
X129391251Y-82322500D01*
X129211251Y-80262500D02*
X128881251Y-80502500D01*
X128881251Y-80022500D01*
X129211251Y-80262500D01*
G36*
X129211251Y-80262500D02*
G01*
X128881251Y-80502500D01*
X128881251Y-80022500D01*
X129211251Y-80262500D01*
G37*
%TO.C,U3*%
X153352500Y-119140000D02*
X153827500Y-119140000D01*
X153352500Y-119615000D02*
X153352500Y-119140000D01*
X153352500Y-122360000D02*
X153352500Y-121885000D01*
X153827500Y-122360000D02*
X153352500Y-122360000D01*
X156097500Y-119140000D02*
X156572500Y-119140000D01*
X156572500Y-119140000D02*
X156572500Y-119615000D01*
X156572500Y-121885000D02*
X156572500Y-122360000D01*
X156572500Y-122360000D02*
X156097500Y-122360000D01*
X155712500Y-118610000D02*
X155472500Y-118280000D01*
X155952500Y-118280000D01*
X155712500Y-118610000D01*
G36*
X155712500Y-118610000D02*
G01*
X155472500Y-118280000D01*
X155952500Y-118280000D01*
X155712500Y-118610000D01*
G37*
%TO.C,C62*%
X170587836Y-106640000D02*
X170372164Y-106640000D01*
X170587836Y-107360000D02*
X170372164Y-107360000D01*
%TO.C,C24*%
X140642164Y-101477500D02*
X140857836Y-101477500D01*
X140642164Y-102197500D02*
X140857836Y-102197500D01*
%TO.C,C41*%
X156140000Y-103392164D02*
X156140000Y-103607836D01*
X156860000Y-103392164D02*
X156860000Y-103607836D01*
%TO.C,C16*%
X170927500Y-123271920D02*
X170927500Y-123553080D01*
X171947500Y-123271920D02*
X171947500Y-123553080D01*
%TO.C,C23*%
X141870000Y-101337164D02*
X141870000Y-101552836D01*
X142590000Y-101337164D02*
X142590000Y-101552836D01*
%TO.C,D3*%
X126665000Y-100802500D02*
X126715000Y-100802500D01*
X126665000Y-102322500D02*
X126665000Y-100802500D01*
X127665000Y-102322500D02*
X126665000Y-102322500D01*
X127835000Y-100802500D02*
X128615000Y-100802500D01*
X129735000Y-100802500D02*
X129785000Y-100802500D01*
X129785000Y-100802500D02*
X129785000Y-102322500D01*
X129785000Y-102322500D02*
X128785000Y-102322500D01*
X128605000Y-100262500D02*
X128275000Y-100502500D01*
X128275000Y-100022500D01*
X128605000Y-100262500D01*
G36*
X128605000Y-100262500D02*
G01*
X128275000Y-100502500D01*
X128275000Y-100022500D01*
X128605000Y-100262500D01*
G37*
%TO.C,R23*%
X137620000Y-85346359D02*
X137620000Y-85653641D01*
X138380000Y-85346359D02*
X138380000Y-85653641D01*
%TO.C,D4*%
X126665000Y-104677500D02*
X127665000Y-104677500D01*
X126665000Y-106197500D02*
X126665000Y-104677500D01*
X126715000Y-106197500D02*
X126665000Y-106197500D01*
X128615000Y-106197500D02*
X127835000Y-106197500D01*
X128785000Y-104677500D02*
X129785000Y-104677500D01*
X129785000Y-104677500D02*
X129785000Y-106197500D01*
X129785000Y-106197500D02*
X129735000Y-106197500D01*
X127845000Y-106737500D02*
X128175000Y-106497500D01*
X128175000Y-106977500D01*
X127845000Y-106737500D01*
G36*
X128175000Y-106977500D02*
G01*
X127845000Y-106737500D01*
X128175000Y-106497500D01*
X128175000Y-106977500D01*
G37*
%TO.C,C54*%
X162240000Y-80627836D02*
X162240000Y-80412164D01*
X162960000Y-80627836D02*
X162960000Y-80412164D01*
%TO.C,R2*%
X124932742Y-94377500D02*
X125407258Y-94377500D01*
X124932742Y-95422500D02*
X125407258Y-95422500D01*
%TO.C,C45*%
X156140000Y-91607836D02*
X156140000Y-91392164D01*
X156860000Y-91607836D02*
X156860000Y-91392164D01*
%TO.C,D10*%
X167665000Y-118102500D02*
X167665000Y-119572500D01*
X167665000Y-119572500D02*
X169950000Y-119572500D01*
X169950000Y-118102500D02*
X167665000Y-118102500D01*
%TO.C,R21*%
X172103641Y-118557500D02*
X171796359Y-118557500D01*
X172103641Y-119317500D02*
X171796359Y-119317500D01*
%TO.C,C56*%
X161892164Y-111225000D02*
X162107836Y-111225000D01*
X161892164Y-111945000D02*
X162107836Y-111945000D01*
%TO.C,Y1*%
X169060000Y-77640000D02*
X164940000Y-77640000D01*
X169060000Y-81060000D02*
X169060000Y-77640000D01*
%TO.C,R20*%
X172203641Y-116457500D02*
X171896359Y-116457500D01*
X172203641Y-117217500D02*
X171896359Y-117217500D01*
%TO.C,J1*%
X108125000Y-109000000D02*
X108125000Y-114000000D01*
X110125000Y-108400000D02*
X110125000Y-109000000D01*
X110125000Y-108400000D02*
X112500000Y-108400000D01*
X110125000Y-109000000D02*
X108125000Y-109000000D01*
X110125000Y-114000000D02*
X108125000Y-114000000D01*
X110125000Y-114000000D02*
X110125000Y-114600000D01*
X114150000Y-108400000D02*
X115500000Y-108400000D01*
X117150000Y-108400000D02*
X119550000Y-108400000D01*
X119550000Y-108400000D02*
X119550000Y-107000000D01*
X120650000Y-114600000D02*
X110125000Y-114600000D01*
X121100000Y-108400000D02*
X121100000Y-107000000D01*
X121100000Y-108400000D02*
X122225000Y-108400000D01*
X122225000Y-114600000D02*
X122225000Y-108400000D01*
%TO.C,R18*%
X180620000Y-124416359D02*
X180620000Y-124723641D01*
X181380000Y-124416359D02*
X181380000Y-124723641D01*
%TO.C,C18*%
X146390000Y-102380604D02*
X146390000Y-102596276D01*
X147110000Y-102380604D02*
X147110000Y-102596276D01*
%TO.C,R5*%
X161111359Y-119457500D02*
X161418641Y-119457500D01*
X161111359Y-120217500D02*
X161418641Y-120217500D01*
%TO.C,C33*%
X138640000Y-85392164D02*
X138640000Y-85607836D01*
X139360000Y-85392164D02*
X139360000Y-85607836D01*
%TO.C,R14*%
X168420000Y-122653641D02*
X168420000Y-122346359D01*
X169180000Y-122653641D02*
X169180000Y-122346359D01*
%TO.C,R17*%
X161121359Y-120557500D02*
X161428641Y-120557500D01*
X161121359Y-121317500D02*
X161428641Y-121317500D01*
%TO.C,J9*%
X183550000Y-103920000D02*
X184730000Y-103920000D01*
X183550000Y-104730000D02*
X183550000Y-103920000D01*
X183550000Y-105540000D02*
X183550000Y-110555000D01*
X183550000Y-105540000D02*
X184063292Y-105540000D01*
X183550000Y-110555000D02*
X184412077Y-110555000D01*
X185047923Y-110555000D02*
X185682077Y-110555000D01*
X186317923Y-103985000D02*
X187180000Y-103985000D01*
X186317923Y-110555000D02*
X187180000Y-110555000D01*
X187180000Y-103985000D02*
X187180000Y-110555000D01*
%TO.C,C8*%
X124471251Y-84372164D02*
X124471251Y-84587836D01*
X125191251Y-84372164D02*
X125191251Y-84587836D01*
%TO.C,R15*%
X167120000Y-122653641D02*
X167120000Y-122346359D01*
X167880000Y-122653641D02*
X167880000Y-122346359D01*
%TO.C,R34*%
X173846359Y-106620000D02*
X174153641Y-106620000D01*
X173846359Y-107380000D02*
X174153641Y-107380000D01*
%TO.C,R19*%
X178630000Y-124416359D02*
X178630000Y-124723641D01*
X179390000Y-124416359D02*
X179390000Y-124723641D01*
%TO.C,R29*%
X151403641Y-89957500D02*
X151096359Y-89957500D01*
X151403641Y-90717500D02*
X151096359Y-90717500D01*
%TO.C,R31*%
X152120000Y-99663641D02*
X152120000Y-99356359D01*
X152880000Y-99663641D02*
X152880000Y-99356359D01*
%TO.C,C61*%
X182140000Y-96392164D02*
X182140000Y-96607836D01*
X182860000Y-96392164D02*
X182860000Y-96607836D01*
%TO.C,C7*%
X124471251Y-82392164D02*
X124471251Y-82607836D01*
X125191251Y-82392164D02*
X125191251Y-82607836D01*
%TO.C,D2*%
X127271251Y-84677500D02*
X128271251Y-84677500D01*
X127271251Y-86197500D02*
X127271251Y-84677500D01*
X127321251Y-86197500D02*
X127271251Y-86197500D01*
X129221251Y-86197500D02*
X128441251Y-86197500D01*
X129391251Y-84677500D02*
X130391251Y-84677500D01*
X130391251Y-84677500D02*
X130391251Y-86197500D01*
X130391251Y-86197500D02*
X130341251Y-86197500D01*
X128451251Y-86737500D02*
X128781251Y-86497500D01*
X128781251Y-86977500D01*
X128451251Y-86737500D01*
G36*
X128781251Y-86977500D02*
G01*
X128451251Y-86737500D01*
X128781251Y-86497500D01*
X128781251Y-86977500D01*
G37*
%TO.C,C15*%
X165784420Y-115527500D02*
X166065580Y-115527500D01*
X165784420Y-116547500D02*
X166065580Y-116547500D01*
%TO.C,C44*%
X160240000Y-80627836D02*
X160240000Y-80412164D01*
X160960000Y-80627836D02*
X160960000Y-80412164D01*
%TO.C,D9*%
X167665000Y-116102500D02*
X167665000Y-117572500D01*
X167665000Y-117572500D02*
X169950000Y-117572500D01*
X169950000Y-116102500D02*
X167665000Y-116102500D01*
%TO.C,J2*%
X108125000Y-89000000D02*
X108125000Y-94000000D01*
X110125000Y-88400000D02*
X110125000Y-89000000D01*
X110125000Y-88400000D02*
X112500000Y-88400000D01*
X110125000Y-89000000D02*
X108125000Y-89000000D01*
X110125000Y-94000000D02*
X108125000Y-94000000D01*
X110125000Y-94000000D02*
X110125000Y-94600000D01*
X114150000Y-88400000D02*
X115500000Y-88400000D01*
X117150000Y-88400000D02*
X119550000Y-88400000D01*
X119550000Y-88400000D02*
X119550000Y-87000000D01*
X120650000Y-94600000D02*
X110125000Y-94600000D01*
X121100000Y-88400000D02*
X121100000Y-87000000D01*
X121100000Y-88400000D02*
X122225000Y-88400000D01*
X122225000Y-94600000D02*
X122225000Y-88400000D01*
%TO.C,U4*%
X144940000Y-117590000D02*
X144990000Y-117590000D01*
X144940000Y-119410000D02*
X144940000Y-117590000D01*
X144990000Y-119410000D02*
X144940000Y-119410000D01*
X146110000Y-117590000D02*
X146890000Y-117590000D01*
X148010000Y-117590000D02*
X148060000Y-117590000D01*
X148060000Y-117590000D02*
X148060000Y-119410000D01*
X148060000Y-119410000D02*
X148010000Y-119410000D01*
X144990000Y-119950000D02*
X144660000Y-120190000D01*
X144660000Y-119710000D01*
X144990000Y-119950000D01*
G36*
X144990000Y-119950000D02*
G01*
X144660000Y-120190000D01*
X144660000Y-119710000D01*
X144990000Y-119950000D01*
G37*
%TO.C,C42*%
X161240000Y-80627836D02*
X161240000Y-80412164D01*
X161960000Y-80627836D02*
X161960000Y-80412164D01*
%TO.C,C25*%
X158452500Y-122396920D02*
X158452500Y-122678080D01*
X159472500Y-122396920D02*
X159472500Y-122678080D01*
%TO.C,C17*%
X145390000Y-102380604D02*
X145390000Y-102596276D01*
X146110000Y-102380604D02*
X146110000Y-102596276D01*
%TO.C,R26*%
X155449758Y-116565000D02*
X154975242Y-116565000D01*
X155449758Y-117610000D02*
X154975242Y-117610000D01*
%TO.C,C60*%
X159240000Y-80627836D02*
X159240000Y-80412164D01*
X159960000Y-80627836D02*
X159960000Y-80412164D01*
%TO.C,C28*%
X153345580Y-123415000D02*
X153064420Y-123415000D01*
X153345580Y-124435000D02*
X153064420Y-124435000D01*
%TO.C,C14*%
X161515580Y-118027500D02*
X161234420Y-118027500D01*
X161515580Y-119047500D02*
X161234420Y-119047500D01*
%TO.C,C29*%
X143890000Y-84892164D02*
X143890000Y-85107836D01*
X144610000Y-84892164D02*
X144610000Y-85107836D01*
%TO.C,R24*%
X146653641Y-85120000D02*
X146346359Y-85120000D01*
X146653641Y-85880000D02*
X146346359Y-85880000D01*
%TO.C,C59*%
X170587836Y-105640000D02*
X170372164Y-105640000D01*
X170587836Y-106360000D02*
X170372164Y-106360000D01*
%TO.C,C58*%
X181140000Y-96392164D02*
X181140000Y-96607836D01*
X181860000Y-96392164D02*
X181860000Y-96607836D01*
%TO.C,C31*%
X148890000Y-87925336D02*
X148890000Y-87709664D01*
X149610000Y-87925336D02*
X149610000Y-87709664D01*
%TO.C,C20*%
X141610000Y-85627836D02*
X141610000Y-85412164D01*
X142330000Y-85627836D02*
X142330000Y-85412164D01*
%TO.C,R25*%
X153120000Y-99663641D02*
X153120000Y-99356359D01*
X153880000Y-99663641D02*
X153880000Y-99356359D01*
%TO.C,C30*%
X145990000Y-122640580D02*
X145990000Y-122359420D01*
X147010000Y-122640580D02*
X147010000Y-122359420D01*
%TO.C,C51*%
X156140000Y-101107836D02*
X156140000Y-100892164D01*
X156860000Y-101107836D02*
X156860000Y-100892164D01*
%TO.C,C1*%
X121865000Y-103392164D02*
X121865000Y-103607836D01*
X122585000Y-103392164D02*
X122585000Y-103607836D01*
%TO.C,C50*%
X163990000Y-79607836D02*
X163990000Y-79392164D01*
X164710000Y-79607836D02*
X164710000Y-79392164D01*
%TO.C,J10*%
X140150000Y-64950000D02*
X140150000Y-63770000D01*
X140215000Y-61320000D02*
X146785000Y-61320000D01*
X140215000Y-62182077D02*
X140215000Y-61320000D01*
X140960000Y-64950000D02*
X140150000Y-64950000D01*
X141770000Y-64950000D02*
X141770000Y-64436708D01*
X141770000Y-64950000D02*
X146785000Y-64950000D01*
X146785000Y-62182077D02*
X146785000Y-61320000D01*
X146785000Y-63452077D02*
X146785000Y-62817923D01*
X146785000Y-64950000D02*
X146785000Y-64087923D01*
%TO.C,C2*%
X122471251Y-83392164D02*
X122471251Y-83607836D01*
X123191251Y-83392164D02*
X123191251Y-83607836D01*
%TO.C,C37*%
X181140000Y-84407836D02*
X181140000Y-84192164D01*
X181860000Y-84407836D02*
X181860000Y-84192164D01*
%TO.C,U1*%
X163640000Y-117827500D02*
X164115000Y-117827500D01*
X163640000Y-118302500D02*
X163640000Y-117827500D01*
X163640000Y-121047500D02*
X163640000Y-120572500D01*
X164115000Y-121047500D02*
X163640000Y-121047500D01*
X166385000Y-117827500D02*
X166860000Y-117827500D01*
X166860000Y-117827500D02*
X166860000Y-118302500D01*
X166860000Y-120572500D02*
X166860000Y-121047500D01*
X166860000Y-121047500D02*
X166385000Y-121047500D01*
X164500000Y-121577500D02*
X164740000Y-121907500D01*
X164260000Y-121907500D01*
X164500000Y-121577500D01*
G36*
X164740000Y-121907500D02*
G01*
X164260000Y-121907500D01*
X164500000Y-121577500D01*
X164740000Y-121907500D01*
G37*
%TO.C,C39*%
X178392164Y-105640000D02*
X178607836Y-105640000D01*
X178392164Y-106360000D02*
X178607836Y-106360000D01*
%TO.C,R8*%
X120677610Y-82620000D02*
X120984892Y-82620000D01*
X120677610Y-83380000D02*
X120984892Y-83380000D01*
%TO.C,J5*%
X171830000Y-131150000D02*
X171830000Y-129450000D01*
X181170000Y-131150000D02*
X181170000Y-129450000D01*
%TO.C,C49*%
X170640000Y-80607836D02*
X170640000Y-80392164D01*
X171360000Y-80607836D02*
X171360000Y-80392164D01*
%TO.C,R6*%
X120071359Y-102620000D02*
X120378641Y-102620000D01*
X120071359Y-103380000D02*
X120378641Y-103380000D01*
%TO.C,C47*%
X156107836Y-85340000D02*
X155892164Y-85340000D01*
X156107836Y-86060000D02*
X155892164Y-86060000D01*
%TO.C,C48*%
X161140000Y-76587836D02*
X161140000Y-76372164D01*
X161860000Y-76587836D02*
X161860000Y-76372164D01*
%TO.C,U2*%
X137890000Y-88390000D02*
X138840000Y-88390000D01*
X137890000Y-89340000D02*
X137890000Y-88390000D01*
X137890000Y-98610000D02*
X137890000Y-97660000D01*
X138840000Y-98610000D02*
X137890000Y-98610000D01*
X147160000Y-88390000D02*
X148110000Y-88390000D01*
X148110000Y-88390000D02*
X148110000Y-89340000D01*
X148110000Y-97660000D02*
X148110000Y-98610000D01*
X148110000Y-98610000D02*
X147160000Y-98610000D01*
X137250000Y-89340000D02*
X136910000Y-88870000D01*
X137590000Y-88870000D01*
X137250000Y-89340000D01*
G36*
X137250000Y-89340000D02*
G01*
X136910000Y-88870000D01*
X137590000Y-88870000D01*
X137250000Y-89340000D01*
G37*
%TO.C,U6*%
X158890000Y-83390000D02*
X159840000Y-83390000D01*
X158890000Y-84340000D02*
X158890000Y-83390000D01*
X158890000Y-103610000D02*
X158890000Y-102660000D01*
X159840000Y-103610000D02*
X158890000Y-103610000D01*
X178160000Y-83390000D02*
X179110000Y-83390000D01*
X179110000Y-83390000D02*
X179110000Y-84340000D01*
X179110000Y-102660000D02*
X179110000Y-103610000D01*
X179110000Y-103610000D02*
X178160000Y-103610000D01*
X178160000Y-82750000D02*
X178630000Y-82410000D01*
X178630000Y-83090000D01*
X178160000Y-82750000D01*
G36*
X178630000Y-83090000D02*
G01*
X178160000Y-82750000D01*
X178630000Y-82410000D01*
X178630000Y-83090000D01*
G37*
%TO.C,C13*%
X161515580Y-116427500D02*
X161234420Y-116427500D01*
X161515580Y-117447500D02*
X161234420Y-117447500D01*
%TO.C,C40*%
X165607836Y-105640000D02*
X165392164Y-105640000D01*
X165607836Y-106360000D02*
X165392164Y-106360000D01*
%TO.C,R32*%
X162140000Y-76326359D02*
X162140000Y-76633641D01*
X162900000Y-76326359D02*
X162900000Y-76633641D01*
%TO.C,C36*%
X182140000Y-84407836D02*
X182140000Y-84192164D01*
X182860000Y-84407836D02*
X182860000Y-84192164D01*
%TO.C,C55*%
X164107836Y-111225000D02*
X163892164Y-111225000D01*
X164107836Y-111945000D02*
X163892164Y-111945000D01*
%TO.C,R7*%
X120378641Y-103620000D02*
X120071359Y-103620000D01*
X120378641Y-104380000D02*
X120071359Y-104380000D01*
%TO.C,C21*%
X144390000Y-102380604D02*
X144390000Y-102596276D01*
X145110000Y-102380604D02*
X145110000Y-102596276D01*
%TO.C,C19*%
X142640000Y-85627836D02*
X142640000Y-85412164D01*
X143360000Y-85627836D02*
X143360000Y-85412164D01*
%TO.C,R35*%
X174153641Y-105620000D02*
X173846359Y-105620000D01*
X174153641Y-106380000D02*
X173846359Y-106380000D01*
%TO.C,R1*%
X124932742Y-115277500D02*
X125407258Y-115277500D01*
X124932742Y-116322500D02*
X125407258Y-116322500D01*
%TO.C,C46*%
X169240000Y-79392164D02*
X169240000Y-79607836D01*
X169960000Y-79392164D02*
X169960000Y-79607836D01*
%TO.C,L1*%
X157542500Y-117162779D02*
X157542500Y-116837221D01*
X158562500Y-117162779D02*
X158562500Y-116837221D01*
%TO.C,C5*%
X123865000Y-102392164D02*
X123865000Y-102607836D01*
X124585000Y-102392164D02*
X124585000Y-102607836D01*
%TO.C,C6*%
X123865000Y-104392164D02*
X123865000Y-104607836D01*
X124585000Y-104392164D02*
X124585000Y-104607836D01*
%TO.C,R9*%
X120984892Y-83620000D02*
X120677610Y-83620000D01*
X120984892Y-84380000D02*
X120677610Y-84380000D01*
%TO.C,U5*%
D12*
X160500000Y-108250000D02*
X161010000Y-108250000D01*
X160500000Y-110750000D02*
X161010000Y-110750000D01*
X162990000Y-108250000D02*
X163500000Y-108250000D01*
X163500000Y-110750000D02*
X162990000Y-110750000D01*
D13*
X160100000Y-108700000D02*
G75*
G02*
X159900000Y-108700000I-100000J0D01*
G01*
X159900000Y-108700000D02*
G75*
G02*
X160100000Y-108700000I100000J0D01*
G01*
%TO.C,C52*%
D11*
X174840000Y-80707836D02*
X174840000Y-80492164D01*
X175560000Y-80707836D02*
X175560000Y-80492164D01*
%TO.C,R33*%
X182153641Y-87420000D02*
X181846359Y-87420000D01*
X182153641Y-88180000D02*
X181846359Y-88180000D01*
%TO.C,C22*%
X156314420Y-123415000D02*
X156595580Y-123415000D01*
X156314420Y-124435000D02*
X156595580Y-124435000D01*
%TO.C,R27*%
X151157500Y-117875242D02*
X151157500Y-118349758D01*
X152202500Y-117875242D02*
X152202500Y-118349758D01*
%TO.C,R16*%
X163145000Y-115783859D02*
X163145000Y-116091141D01*
X163905000Y-115783859D02*
X163905000Y-116091141D01*
%TO.C,C27*%
X140642164Y-100507500D02*
X140857836Y-100507500D01*
X140642164Y-101227500D02*
X140857836Y-101227500D01*
%TO.C,C38*%
X181140000Y-91372164D02*
X181140000Y-91587836D01*
X181860000Y-91372164D02*
X181860000Y-91587836D01*
%TO.C,R30*%
X151120000Y-99663641D02*
X151120000Y-99356359D01*
X151880000Y-99663641D02*
X151880000Y-99356359D01*
%TO.C,C43*%
X156140000Y-96607836D02*
X156140000Y-96392164D01*
X156860000Y-96607836D02*
X156860000Y-96392164D01*
%TO.C,F1*%
X173490000Y-123662779D02*
X173490000Y-123337221D01*
X174510000Y-123662779D02*
X174510000Y-123337221D01*
%TO.C,C53*%
X178392164Y-107140000D02*
X178607836Y-107140000D01*
X178392164Y-107860000D02*
X178607836Y-107860000D01*
%TO.C,C34*%
X146059420Y-114190000D02*
X146340580Y-114190000D01*
X146059420Y-115210000D02*
X146340580Y-115210000D01*
%TO.C,C32*%
X149890000Y-87925336D02*
X149890000Y-87709664D01*
X150610000Y-87925336D02*
X150610000Y-87709664D01*
%TO.C,R22*%
X165493641Y-122457500D02*
X165186359Y-122457500D01*
X165493641Y-123217500D02*
X165186359Y-123217500D01*
%TO.C,C57*%
X158140000Y-80627836D02*
X158140000Y-80412164D01*
X158860000Y-80627836D02*
X158860000Y-80412164D01*
%TO.C,J6*%
X179590000Y-113690000D02*
X179590000Y-114610000D01*
X179590000Y-114610000D02*
X181190000Y-114610000D01*
X179590000Y-118890000D02*
X179590000Y-119810000D01*
X179590000Y-119810000D02*
X187410000Y-119810000D01*
X181190000Y-113690000D02*
X181190000Y-114610000D01*
X181190000Y-114610000D02*
X181190000Y-114890000D01*
X181190000Y-118610000D02*
X179975000Y-118610000D01*
X181190000Y-118610000D02*
X181190000Y-118890000D01*
X181190000Y-118890000D02*
X179590000Y-118890000D01*
X181190000Y-119810000D02*
X181190000Y-118890000D01*
X183050000Y-116250000D02*
X187410000Y-116250000D01*
X183050000Y-117250000D02*
X183050000Y-116250000D01*
X185150000Y-118050000D02*
X187410000Y-118050000D01*
X185150000Y-118550000D02*
X187410000Y-118550000D01*
X187410000Y-113690000D02*
X179590000Y-113690000D01*
X187410000Y-117250000D02*
X183050000Y-117250000D01*
X187410000Y-119810000D02*
X187410000Y-113690000D01*
X183550000Y-114450000D02*
X185150000Y-114450000D01*
X185150000Y-115450000D01*
X183550000Y-115450000D01*
X183550000Y-114450000D01*
X183550000Y-118050000D02*
X185150000Y-118050000D01*
X185150000Y-119050000D01*
X183550000Y-119050000D01*
X183550000Y-118050000D01*
%TD*%
M02*
