%TF.GenerationSoftware,KiCad,Pcbnew,10.0.6-10.0.6~ubuntu24.04.1*%
%TF.CreationDate,2026-09-07T21:02:59+08:00*%
%TF.ProjectId,FESboard,46455362-6f61-4726-942e-6b696361645f,rev?*%
%TF.SameCoordinates,Original*%
%TF.FileFunction,Soldermask,Top*%
%TF.FilePolarity,Negative*%
%FSLAX46Y46*%
G04 Gerber Fmt 4.6, Leading zero omitted, Abs format (unit mm)*
G04 Created by KiCad (PCBNEW 10.0.6-10.0.6~ubuntu24.04.1) date 2026-09-07 21:02:59*
%MOMM*%
%LPD*%
G01*
G04 APERTURE LIST*
G04 Aperture macros list*
%AMRoundRect*
0 Rectangle with rounded corners*
0 $1 Rounding radius*
0 $2 $3 $4 $5 $6 $7 $8 $9 X,Y pos of 4 corners*
0 Add a 4 corners polygon primitive as box body*
4,1,4,$2,$3,$4,$5,$6,$7,$8,$9,$2,$3,0*
0 Add four circle primitives for the rounded corners*
1,1,$1+$1,$2,$3*
1,1,$1+$1,$4,$5*
1,1,$1+$1,$6,$7*
1,1,$1+$1,$8,$9*
0 Add four rect primitives between the rounded corners*
20,1,$1+$1,$2,$3,$4,$5,0*
20,1,$1+$1,$4,$5,$6,$7,0*
20,1,$1+$1,$6,$7,$8,$9,0*
20,1,$1+$1,$8,$9,$2,$3,0*%
G04 Aperture macros list end*
%ADD10C,0.010000*%
%ADD11RoundRect,0.200000X-0.275000X0.200000X-0.275000X-0.200000X0.275000X-0.200000X0.275000X0.200000X0*%
%ADD12RoundRect,0.237500X0.300000X0.237500X-0.300000X0.237500X-0.300000X-0.237500X0.300000X-0.237500X0*%
%ADD13RoundRect,0.225000X-0.250000X0.225000X-0.250000X-0.225000X0.250000X-0.225000X0.250000X0.225000X0*%
%ADD14RoundRect,0.150000X-0.150000X0.587500X-0.150000X-0.587500X0.150000X-0.587500X0.150000X0.587500X0*%
%ADD15RoundRect,0.062500X-0.062500X0.350000X-0.062500X-0.350000X0.062500X-0.350000X0.062500X0.350000X0*%
%ADD16RoundRect,0.062500X-0.350000X0.062500X-0.350000X-0.062500X0.350000X-0.062500X0.350000X0.062500X0*%
%ADD17R,1.680000X1.680000*%
%ADD18RoundRect,0.140000X0.140000X0.170000X-0.140000X0.170000X-0.140000X-0.170000X0.140000X-0.170000X0*%
%ADD19RoundRect,0.140000X-0.140000X-0.170000X0.140000X-0.170000X0.140000X0.170000X-0.140000X0.170000X0*%
%ADD20RoundRect,0.140000X-0.170000X0.140000X-0.170000X-0.140000X0.170000X-0.140000X0.170000X0.140000X0*%
%ADD21RoundRect,0.135000X-0.185000X0.135000X-0.185000X-0.135000X0.185000X-0.135000X0.185000X0.135000X0*%
%ADD22RoundRect,0.150000X0.150000X-0.587500X0.150000X0.587500X-0.150000X0.587500X-0.150000X-0.587500X0*%
%ADD23RoundRect,0.140000X0.170000X-0.140000X0.170000X0.140000X-0.170000X0.140000X-0.170000X-0.140000X0*%
%ADD24RoundRect,0.200000X-0.200000X-0.275000X0.200000X-0.275000X0.200000X0.275000X-0.200000X0.275000X0*%
%ADD25RoundRect,0.218750X-0.218750X-0.256250X0.218750X-0.256250X0.218750X0.256250X-0.218750X0.256250X0*%
%ADD26RoundRect,0.135000X0.135000X0.185000X-0.135000X0.185000X-0.135000X-0.185000X0.135000X-0.185000X0*%
%ADD27RoundRect,0.250000X0.450000X0.350000X-0.450000X0.350000X-0.450000X-0.350000X0.450000X-0.350000X0*%
%ADD28C,1.500000*%
%ADD29R,1.200000X2.500000*%
%ADD30RoundRect,0.135000X-0.135000X-0.185000X0.135000X-0.185000X0.135000X0.185000X-0.135000X0.185000X0*%
%ADD31RoundRect,0.135000X0.185000X-0.135000X0.185000X0.135000X-0.185000X0.135000X-0.185000X-0.135000X0*%
%ADD32R,1.000000X1.000000*%
%ADD33C,1.000000*%
%ADD34RoundRect,0.225000X-0.225000X-0.250000X0.225000X-0.250000X0.225000X0.250000X-0.225000X0.250000X0*%
%ADD35RoundRect,0.150000X0.150000X-0.512500X0.150000X0.512500X-0.150000X0.512500X-0.150000X-0.512500X0*%
%ADD36RoundRect,0.200000X0.200000X0.275000X-0.200000X0.275000X-0.200000X-0.275000X0.200000X-0.275000X0*%
%ADD37RoundRect,0.225000X0.225000X0.250000X-0.225000X0.250000X-0.225000X-0.250000X0.225000X-0.250000X0*%
%ADD38C,6.400000*%
%ADD39RoundRect,0.225000X0.250000X-0.225000X0.250000X0.225000X-0.250000X0.225000X-0.250000X-0.225000X0*%
%ADD40RoundRect,0.062500X0.062500X-0.375000X0.062500X0.375000X-0.062500X0.375000X-0.062500X-0.375000X0*%
%ADD41RoundRect,0.062500X0.375000X-0.062500X0.375000X0.062500X-0.375000X0.062500X-0.375000X-0.062500X0*%
%ADD42R,1.600000X1.600000*%
%ADD43C,0.650000*%
%ADD44RoundRect,0.150000X-0.150000X-0.425000X0.150000X-0.425000X0.150000X0.425000X-0.150000X0.425000X0*%
%ADD45RoundRect,0.075000X-0.075000X-0.500000X0.075000X-0.500000X0.075000X0.500000X-0.075000X0.500000X0*%
%ADD46O,1.000000X2.100000*%
%ADD47O,1.000000X1.800000*%
%ADD48RoundRect,0.075000X-0.662500X-0.075000X0.662500X-0.075000X0.662500X0.075000X-0.662500X0.075000X0*%
%ADD49RoundRect,0.075000X-0.075000X-0.662500X0.075000X-0.662500X0.075000X0.662500X-0.075000X0.662500X0*%
%ADD50RoundRect,0.075000X-0.075000X0.662500X-0.075000X-0.662500X0.075000X-0.662500X0.075000X0.662500X0*%
%ADD51RoundRect,0.075000X-0.662500X0.075000X-0.662500X-0.075000X0.662500X-0.075000X0.662500X0.075000X0*%
%ADD52RoundRect,0.218750X0.256250X-0.218750X0.256250X0.218750X-0.256250X0.218750X-0.256250X-0.218750X0*%
%ADD53RoundRect,0.250000X0.625000X-0.350000X0.625000X0.350000X-0.625000X0.350000X-0.625000X-0.350000X0*%
%ADD54O,1.750000X1.200000*%
G04 APERTURE END LIST*
D10*
%TO.C,U5*%
X161180000Y-108650000D02*
X161180000Y-108850000D01*
X161180000Y-108857000D01*
X161179000Y-108863000D01*
X161178000Y-108870000D01*
X161177000Y-108876000D01*
X161176000Y-108882000D01*
X161174000Y-108889000D01*
X161172000Y-108895000D01*
X161169000Y-108901000D01*
X161166000Y-108907000D01*
X161163000Y-108912000D01*
X161160000Y-108918000D01*
X161156000Y-108923000D01*
X161152000Y-108929000D01*
X161148000Y-108934000D01*
X161143000Y-108938000D01*
X161139000Y-108943000D01*
X161134000Y-108947000D01*
X161128000Y-108951000D01*
X161123000Y-108955000D01*
X161118000Y-108958000D01*
X161112000Y-108961000D01*
X161106000Y-108964000D01*
X161100000Y-108967000D01*
X161094000Y-108969000D01*
X161087000Y-108971000D01*
X161081000Y-108972000D01*
X161075000Y-108973000D01*
X161068000Y-108974000D01*
X161062000Y-108975000D01*
X161055000Y-108975000D01*
X160615000Y-108975000D01*
X160608000Y-108975000D01*
X160602000Y-108974000D01*
X160595000Y-108973000D01*
X160589000Y-108972000D01*
X160583000Y-108971000D01*
X160576000Y-108969000D01*
X160570000Y-108967000D01*
X160564000Y-108964000D01*
X160558000Y-108961000D01*
X160552000Y-108958000D01*
X160547000Y-108955000D01*
X160542000Y-108951000D01*
X160536000Y-108947000D01*
X160531000Y-108943000D01*
X160527000Y-108938000D01*
X160522000Y-108934000D01*
X160518000Y-108929000D01*
X160514000Y-108923000D01*
X160510000Y-108918000D01*
X160507000Y-108912000D01*
X160504000Y-108907000D01*
X160501000Y-108901000D01*
X160498000Y-108895000D01*
X160496000Y-108889000D01*
X160494000Y-108882000D01*
X160493000Y-108876000D01*
X160492000Y-108870000D01*
X160491000Y-108863000D01*
X160490000Y-108857000D01*
X160490000Y-108850000D01*
X160490000Y-108650000D01*
X160490000Y-108643000D01*
X160491000Y-108637000D01*
X160492000Y-108630000D01*
X160493000Y-108624000D01*
X160494000Y-108618000D01*
X160496000Y-108611000D01*
X160498000Y-108605000D01*
X160501000Y-108599000D01*
X160504000Y-108593000D01*
X160507000Y-108588000D01*
X160510000Y-108582000D01*
X160514000Y-108577000D01*
X160518000Y-108571000D01*
X160522000Y-108566000D01*
X160527000Y-108562000D01*
X160531000Y-108557000D01*
X160536000Y-108553000D01*
X160542000Y-108549000D01*
X160547000Y-108545000D01*
X160552000Y-108542000D01*
X160558000Y-108539000D01*
X160564000Y-108536000D01*
X160570000Y-108533000D01*
X160576000Y-108531000D01*
X160583000Y-108529000D01*
X160589000Y-108528000D01*
X160595000Y-108527000D01*
X160602000Y-108526000D01*
X160608000Y-108525000D01*
X160615000Y-108525000D01*
X161055000Y-108525000D01*
X161062000Y-108525000D01*
X161068000Y-108526000D01*
X161075000Y-108527000D01*
X161081000Y-108528000D01*
X161087000Y-108529000D01*
X161094000Y-108531000D01*
X161100000Y-108533000D01*
X161106000Y-108536000D01*
X161112000Y-108539000D01*
X161118000Y-108542000D01*
X161123000Y-108545000D01*
X161128000Y-108549000D01*
X161134000Y-108553000D01*
X161139000Y-108557000D01*
X161143000Y-108562000D01*
X161148000Y-108566000D01*
X161152000Y-108571000D01*
X161156000Y-108577000D01*
X161160000Y-108582000D01*
X161163000Y-108588000D01*
X161166000Y-108593000D01*
X161169000Y-108599000D01*
X161172000Y-108605000D01*
X161174000Y-108611000D01*
X161176000Y-108618000D01*
X161177000Y-108624000D01*
X161178000Y-108630000D01*
X161179000Y-108637000D01*
X161180000Y-108643000D01*
X161180000Y-108650000D01*
G36*
X161068000Y-108526000D02*
G01*
X161075000Y-108527000D01*
X161081000Y-108528000D01*
X161087000Y-108529000D01*
X161094000Y-108531000D01*
X161100000Y-108533000D01*
X161106000Y-108536000D01*
X161112000Y-108539000D01*
X161118000Y-108542000D01*
X161123000Y-108545000D01*
X161128000Y-108549000D01*
X161134000Y-108553000D01*
X161139000Y-108557000D01*
X161143000Y-108562000D01*
X161148000Y-108566000D01*
X161152000Y-108571000D01*
X161156000Y-108577000D01*
X161160000Y-108582000D01*
X161163000Y-108588000D01*
X161166000Y-108593000D01*
X161169000Y-108599000D01*
X161172000Y-108605000D01*
X161174000Y-108611000D01*
X161176000Y-108618000D01*
X161177000Y-108624000D01*
X161178000Y-108630000D01*
X161179000Y-108637000D01*
X161180000Y-108643000D01*
X161180000Y-108650000D01*
X161180000Y-108850000D01*
X161180000Y-108857000D01*
X161179000Y-108863000D01*
X161178000Y-108870000D01*
X161177000Y-108876000D01*
X161176000Y-108882000D01*
X161174000Y-108889000D01*
X161172000Y-108895000D01*
X161169000Y-108901000D01*
X161166000Y-108907000D01*
X161163000Y-108912000D01*
X161160000Y-108918000D01*
X161156000Y-108923000D01*
X161152000Y-108929000D01*
X161148000Y-108934000D01*
X161143000Y-108938000D01*
X161139000Y-108943000D01*
X161134000Y-108947000D01*
X161128000Y-108951000D01*
X161123000Y-108955000D01*
X161118000Y-108958000D01*
X161112000Y-108961000D01*
X161106000Y-108964000D01*
X161100000Y-108967000D01*
X161094000Y-108969000D01*
X161087000Y-108971000D01*
X161081000Y-108972000D01*
X161075000Y-108973000D01*
X161068000Y-108974000D01*
X161062000Y-108975000D01*
X161055000Y-108975000D01*
X160615000Y-108975000D01*
X160608000Y-108975000D01*
X160602000Y-108974000D01*
X160595000Y-108973000D01*
X160589000Y-108972000D01*
X160583000Y-108971000D01*
X160576000Y-108969000D01*
X160570000Y-108967000D01*
X160564000Y-108964000D01*
X160558000Y-108961000D01*
X160552000Y-108958000D01*
X160547000Y-108955000D01*
X160542000Y-108951000D01*
X160536000Y-108947000D01*
X160531000Y-108943000D01*
X160527000Y-108938000D01*
X160522000Y-108934000D01*
X160518000Y-108929000D01*
X160514000Y-108923000D01*
X160510000Y-108918000D01*
X160507000Y-108912000D01*
X160504000Y-108907000D01*
X160501000Y-108901000D01*
X160498000Y-108895000D01*
X160496000Y-108889000D01*
X160494000Y-108882000D01*
X160493000Y-108876000D01*
X160492000Y-108870000D01*
X160491000Y-108863000D01*
X160490000Y-108857000D01*
X160490000Y-108850000D01*
X160490000Y-108650000D01*
X160490000Y-108643000D01*
X160491000Y-108637000D01*
X160492000Y-108630000D01*
X160493000Y-108624000D01*
X160494000Y-108618000D01*
X160496000Y-108611000D01*
X160498000Y-108605000D01*
X160501000Y-108599000D01*
X160504000Y-108593000D01*
X160507000Y-108588000D01*
X160510000Y-108582000D01*
X160514000Y-108577000D01*
X160518000Y-108571000D01*
X160522000Y-108566000D01*
X160527000Y-108562000D01*
X160531000Y-108557000D01*
X160536000Y-108553000D01*
X160542000Y-108549000D01*
X160547000Y-108545000D01*
X160552000Y-108542000D01*
X160558000Y-108539000D01*
X160564000Y-108536000D01*
X160570000Y-108533000D01*
X160576000Y-108531000D01*
X160583000Y-108529000D01*
X160589000Y-108528000D01*
X160595000Y-108527000D01*
X160602000Y-108526000D01*
X160608000Y-108525000D01*
X160615000Y-108525000D01*
X161055000Y-108525000D01*
X161062000Y-108525000D01*
X161068000Y-108526000D01*
G37*
X161180000Y-109150000D02*
X161180000Y-109350000D01*
X161180000Y-109357000D01*
X161179000Y-109363000D01*
X161178000Y-109370000D01*
X161177000Y-109376000D01*
X161176000Y-109382000D01*
X161174000Y-109389000D01*
X161172000Y-109395000D01*
X161169000Y-109401000D01*
X161166000Y-109407000D01*
X161163000Y-109412000D01*
X161160000Y-109418000D01*
X161156000Y-109423000D01*
X161152000Y-109429000D01*
X161148000Y-109434000D01*
X161143000Y-109438000D01*
X161139000Y-109443000D01*
X161134000Y-109447000D01*
X161128000Y-109451000D01*
X161123000Y-109455000D01*
X161118000Y-109458000D01*
X161112000Y-109461000D01*
X161106000Y-109464000D01*
X161100000Y-109467000D01*
X161094000Y-109469000D01*
X161087000Y-109471000D01*
X161081000Y-109472000D01*
X161075000Y-109473000D01*
X161068000Y-109474000D01*
X161062000Y-109475000D01*
X161055000Y-109475000D01*
X160615000Y-109475000D01*
X160608000Y-109475000D01*
X160602000Y-109474000D01*
X160595000Y-109473000D01*
X160589000Y-109472000D01*
X160583000Y-109471000D01*
X160576000Y-109469000D01*
X160570000Y-109467000D01*
X160564000Y-109464000D01*
X160558000Y-109461000D01*
X160552000Y-109458000D01*
X160547000Y-109455000D01*
X160542000Y-109451000D01*
X160536000Y-109447000D01*
X160531000Y-109443000D01*
X160527000Y-109438000D01*
X160522000Y-109434000D01*
X160518000Y-109429000D01*
X160514000Y-109423000D01*
X160510000Y-109418000D01*
X160507000Y-109412000D01*
X160504000Y-109407000D01*
X160501000Y-109401000D01*
X160498000Y-109395000D01*
X160496000Y-109389000D01*
X160494000Y-109382000D01*
X160493000Y-109376000D01*
X160492000Y-109370000D01*
X160491000Y-109363000D01*
X160490000Y-109357000D01*
X160490000Y-109350000D01*
X160490000Y-109150000D01*
X160490000Y-109143000D01*
X160491000Y-109137000D01*
X160492000Y-109130000D01*
X160493000Y-109124000D01*
X160494000Y-109118000D01*
X160496000Y-109111000D01*
X160498000Y-109105000D01*
X160501000Y-109099000D01*
X160504000Y-109093000D01*
X160507000Y-109088000D01*
X160510000Y-109082000D01*
X160514000Y-109077000D01*
X160518000Y-109071000D01*
X160522000Y-109066000D01*
X160527000Y-109062000D01*
X160531000Y-109057000D01*
X160536000Y-109053000D01*
X160542000Y-109049000D01*
X160547000Y-109045000D01*
X160552000Y-109042000D01*
X160558000Y-109039000D01*
X160564000Y-109036000D01*
X160570000Y-109033000D01*
X160576000Y-109031000D01*
X160583000Y-109029000D01*
X160589000Y-109028000D01*
X160595000Y-109027000D01*
X160602000Y-109026000D01*
X160608000Y-109025000D01*
X160615000Y-109025000D01*
X161055000Y-109025000D01*
X161062000Y-109025000D01*
X161068000Y-109026000D01*
X161075000Y-109027000D01*
X161081000Y-109028000D01*
X161087000Y-109029000D01*
X161094000Y-109031000D01*
X161100000Y-109033000D01*
X161106000Y-109036000D01*
X161112000Y-109039000D01*
X161118000Y-109042000D01*
X161123000Y-109045000D01*
X161128000Y-109049000D01*
X161134000Y-109053000D01*
X161139000Y-109057000D01*
X161143000Y-109062000D01*
X161148000Y-109066000D01*
X161152000Y-109071000D01*
X161156000Y-109077000D01*
X161160000Y-109082000D01*
X161163000Y-109088000D01*
X161166000Y-109093000D01*
X161169000Y-109099000D01*
X161172000Y-109105000D01*
X161174000Y-109111000D01*
X161176000Y-109118000D01*
X161177000Y-109124000D01*
X161178000Y-109130000D01*
X161179000Y-109137000D01*
X161180000Y-109143000D01*
X161180000Y-109150000D01*
G36*
X161068000Y-109026000D02*
G01*
X161075000Y-109027000D01*
X161081000Y-109028000D01*
X161087000Y-109029000D01*
X161094000Y-109031000D01*
X161100000Y-109033000D01*
X161106000Y-109036000D01*
X161112000Y-109039000D01*
X161118000Y-109042000D01*
X161123000Y-109045000D01*
X161128000Y-109049000D01*
X161134000Y-109053000D01*
X161139000Y-109057000D01*
X161143000Y-109062000D01*
X161148000Y-109066000D01*
X161152000Y-109071000D01*
X161156000Y-109077000D01*
X161160000Y-109082000D01*
X161163000Y-109088000D01*
X161166000Y-109093000D01*
X161169000Y-109099000D01*
X161172000Y-109105000D01*
X161174000Y-109111000D01*
X161176000Y-109118000D01*
X161177000Y-109124000D01*
X161178000Y-109130000D01*
X161179000Y-109137000D01*
X161180000Y-109143000D01*
X161180000Y-109150000D01*
X161180000Y-109350000D01*
X161180000Y-109357000D01*
X161179000Y-109363000D01*
X161178000Y-109370000D01*
X161177000Y-109376000D01*
X161176000Y-109382000D01*
X161174000Y-109389000D01*
X161172000Y-109395000D01*
X161169000Y-109401000D01*
X161166000Y-109407000D01*
X161163000Y-109412000D01*
X161160000Y-109418000D01*
X161156000Y-109423000D01*
X161152000Y-109429000D01*
X161148000Y-109434000D01*
X161143000Y-109438000D01*
X161139000Y-109443000D01*
X161134000Y-109447000D01*
X161128000Y-109451000D01*
X161123000Y-109455000D01*
X161118000Y-109458000D01*
X161112000Y-109461000D01*
X161106000Y-109464000D01*
X161100000Y-109467000D01*
X161094000Y-109469000D01*
X161087000Y-109471000D01*
X161081000Y-109472000D01*
X161075000Y-109473000D01*
X161068000Y-109474000D01*
X161062000Y-109475000D01*
X161055000Y-109475000D01*
X160615000Y-109475000D01*
X160608000Y-109475000D01*
X160602000Y-109474000D01*
X160595000Y-109473000D01*
X160589000Y-109472000D01*
X160583000Y-109471000D01*
X160576000Y-109469000D01*
X160570000Y-109467000D01*
X160564000Y-109464000D01*
X160558000Y-109461000D01*
X160552000Y-109458000D01*
X160547000Y-109455000D01*
X160542000Y-109451000D01*
X160536000Y-109447000D01*
X160531000Y-109443000D01*
X160527000Y-109438000D01*
X160522000Y-109434000D01*
X160518000Y-109429000D01*
X160514000Y-109423000D01*
X160510000Y-109418000D01*
X160507000Y-109412000D01*
X160504000Y-109407000D01*
X160501000Y-109401000D01*
X160498000Y-109395000D01*
X160496000Y-109389000D01*
X160494000Y-109382000D01*
X160493000Y-109376000D01*
X160492000Y-109370000D01*
X160491000Y-109363000D01*
X160490000Y-109357000D01*
X160490000Y-109350000D01*
X160490000Y-109150000D01*
X160490000Y-109143000D01*
X160491000Y-109137000D01*
X160492000Y-109130000D01*
X160493000Y-109124000D01*
X160494000Y-109118000D01*
X160496000Y-109111000D01*
X160498000Y-109105000D01*
X160501000Y-109099000D01*
X160504000Y-109093000D01*
X160507000Y-109088000D01*
X160510000Y-109082000D01*
X160514000Y-109077000D01*
X160518000Y-109071000D01*
X160522000Y-109066000D01*
X160527000Y-109062000D01*
X160531000Y-109057000D01*
X160536000Y-109053000D01*
X160542000Y-109049000D01*
X160547000Y-109045000D01*
X160552000Y-109042000D01*
X160558000Y-109039000D01*
X160564000Y-109036000D01*
X160570000Y-109033000D01*
X160576000Y-109031000D01*
X160583000Y-109029000D01*
X160589000Y-109028000D01*
X160595000Y-109027000D01*
X160602000Y-109026000D01*
X160608000Y-109025000D01*
X160615000Y-109025000D01*
X161055000Y-109025000D01*
X161062000Y-109025000D01*
X161068000Y-109026000D01*
G37*
X161180000Y-109650000D02*
X161180000Y-109850000D01*
X161180000Y-109857000D01*
X161179000Y-109863000D01*
X161178000Y-109870000D01*
X161177000Y-109876000D01*
X161176000Y-109882000D01*
X161174000Y-109889000D01*
X161172000Y-109895000D01*
X161169000Y-109901000D01*
X161166000Y-109907000D01*
X161163000Y-109912000D01*
X161160000Y-109918000D01*
X161156000Y-109923000D01*
X161152000Y-109929000D01*
X161148000Y-109934000D01*
X161143000Y-109938000D01*
X161139000Y-109943000D01*
X161134000Y-109947000D01*
X161128000Y-109951000D01*
X161123000Y-109955000D01*
X161118000Y-109958000D01*
X161112000Y-109961000D01*
X161106000Y-109964000D01*
X161100000Y-109967000D01*
X161094000Y-109969000D01*
X161087000Y-109971000D01*
X161081000Y-109972000D01*
X161075000Y-109973000D01*
X161068000Y-109974000D01*
X161062000Y-109975000D01*
X161055000Y-109975000D01*
X160615000Y-109975000D01*
X160608000Y-109975000D01*
X160602000Y-109974000D01*
X160595000Y-109973000D01*
X160589000Y-109972000D01*
X160583000Y-109971000D01*
X160576000Y-109969000D01*
X160570000Y-109967000D01*
X160564000Y-109964000D01*
X160558000Y-109961000D01*
X160552000Y-109958000D01*
X160547000Y-109955000D01*
X160542000Y-109951000D01*
X160536000Y-109947000D01*
X160531000Y-109943000D01*
X160527000Y-109938000D01*
X160522000Y-109934000D01*
X160518000Y-109929000D01*
X160514000Y-109923000D01*
X160510000Y-109918000D01*
X160507000Y-109912000D01*
X160504000Y-109907000D01*
X160501000Y-109901000D01*
X160498000Y-109895000D01*
X160496000Y-109889000D01*
X160494000Y-109882000D01*
X160493000Y-109876000D01*
X160492000Y-109870000D01*
X160491000Y-109863000D01*
X160490000Y-109857000D01*
X160490000Y-109850000D01*
X160490000Y-109650000D01*
X160490000Y-109643000D01*
X160491000Y-109637000D01*
X160492000Y-109630000D01*
X160493000Y-109624000D01*
X160494000Y-109618000D01*
X160496000Y-109611000D01*
X160498000Y-109605000D01*
X160501000Y-109599000D01*
X160504000Y-109593000D01*
X160507000Y-109588000D01*
X160510000Y-109582000D01*
X160514000Y-109577000D01*
X160518000Y-109571000D01*
X160522000Y-109566000D01*
X160527000Y-109562000D01*
X160531000Y-109557000D01*
X160536000Y-109553000D01*
X160542000Y-109549000D01*
X160547000Y-109545000D01*
X160552000Y-109542000D01*
X160558000Y-109539000D01*
X160564000Y-109536000D01*
X160570000Y-109533000D01*
X160576000Y-109531000D01*
X160583000Y-109529000D01*
X160589000Y-109528000D01*
X160595000Y-109527000D01*
X160602000Y-109526000D01*
X160608000Y-109525000D01*
X160615000Y-109525000D01*
X161055000Y-109525000D01*
X161062000Y-109525000D01*
X161068000Y-109526000D01*
X161075000Y-109527000D01*
X161081000Y-109528000D01*
X161087000Y-109529000D01*
X161094000Y-109531000D01*
X161100000Y-109533000D01*
X161106000Y-109536000D01*
X161112000Y-109539000D01*
X161118000Y-109542000D01*
X161123000Y-109545000D01*
X161128000Y-109549000D01*
X161134000Y-109553000D01*
X161139000Y-109557000D01*
X161143000Y-109562000D01*
X161148000Y-109566000D01*
X161152000Y-109571000D01*
X161156000Y-109577000D01*
X161160000Y-109582000D01*
X161163000Y-109588000D01*
X161166000Y-109593000D01*
X161169000Y-109599000D01*
X161172000Y-109605000D01*
X161174000Y-109611000D01*
X161176000Y-109618000D01*
X161177000Y-109624000D01*
X161178000Y-109630000D01*
X161179000Y-109637000D01*
X161180000Y-109643000D01*
X161180000Y-109650000D01*
G36*
X161068000Y-109526000D02*
G01*
X161075000Y-109527000D01*
X161081000Y-109528000D01*
X161087000Y-109529000D01*
X161094000Y-109531000D01*
X161100000Y-109533000D01*
X161106000Y-109536000D01*
X161112000Y-109539000D01*
X161118000Y-109542000D01*
X161123000Y-109545000D01*
X161128000Y-109549000D01*
X161134000Y-109553000D01*
X161139000Y-109557000D01*
X161143000Y-109562000D01*
X161148000Y-109566000D01*
X161152000Y-109571000D01*
X161156000Y-109577000D01*
X161160000Y-109582000D01*
X161163000Y-109588000D01*
X161166000Y-109593000D01*
X161169000Y-109599000D01*
X161172000Y-109605000D01*
X161174000Y-109611000D01*
X161176000Y-109618000D01*
X161177000Y-109624000D01*
X161178000Y-109630000D01*
X161179000Y-109637000D01*
X161180000Y-109643000D01*
X161180000Y-109650000D01*
X161180000Y-109850000D01*
X161180000Y-109857000D01*
X161179000Y-109863000D01*
X161178000Y-109870000D01*
X161177000Y-109876000D01*
X161176000Y-109882000D01*
X161174000Y-109889000D01*
X161172000Y-109895000D01*
X161169000Y-109901000D01*
X161166000Y-109907000D01*
X161163000Y-109912000D01*
X161160000Y-109918000D01*
X161156000Y-109923000D01*
X161152000Y-109929000D01*
X161148000Y-109934000D01*
X161143000Y-109938000D01*
X161139000Y-109943000D01*
X161134000Y-109947000D01*
X161128000Y-109951000D01*
X161123000Y-109955000D01*
X161118000Y-109958000D01*
X161112000Y-109961000D01*
X161106000Y-109964000D01*
X161100000Y-109967000D01*
X161094000Y-109969000D01*
X161087000Y-109971000D01*
X161081000Y-109972000D01*
X161075000Y-109973000D01*
X161068000Y-109974000D01*
X161062000Y-109975000D01*
X161055000Y-109975000D01*
X160615000Y-109975000D01*
X160608000Y-109975000D01*
X160602000Y-109974000D01*
X160595000Y-109973000D01*
X160589000Y-109972000D01*
X160583000Y-109971000D01*
X160576000Y-109969000D01*
X160570000Y-109967000D01*
X160564000Y-109964000D01*
X160558000Y-109961000D01*
X160552000Y-109958000D01*
X160547000Y-109955000D01*
X160542000Y-109951000D01*
X160536000Y-109947000D01*
X160531000Y-109943000D01*
X160527000Y-109938000D01*
X160522000Y-109934000D01*
X160518000Y-109929000D01*
X160514000Y-109923000D01*
X160510000Y-109918000D01*
X160507000Y-109912000D01*
X160504000Y-109907000D01*
X160501000Y-109901000D01*
X160498000Y-109895000D01*
X160496000Y-109889000D01*
X160494000Y-109882000D01*
X160493000Y-109876000D01*
X160492000Y-109870000D01*
X160491000Y-109863000D01*
X160490000Y-109857000D01*
X160490000Y-109850000D01*
X160490000Y-109650000D01*
X160490000Y-109643000D01*
X160491000Y-109637000D01*
X160492000Y-109630000D01*
X160493000Y-109624000D01*
X160494000Y-109618000D01*
X160496000Y-109611000D01*
X160498000Y-109605000D01*
X160501000Y-109599000D01*
X160504000Y-109593000D01*
X160507000Y-109588000D01*
X160510000Y-109582000D01*
X160514000Y-109577000D01*
X160518000Y-109571000D01*
X160522000Y-109566000D01*
X160527000Y-109562000D01*
X160531000Y-109557000D01*
X160536000Y-109553000D01*
X160542000Y-109549000D01*
X160547000Y-109545000D01*
X160552000Y-109542000D01*
X160558000Y-109539000D01*
X160564000Y-109536000D01*
X160570000Y-109533000D01*
X160576000Y-109531000D01*
X160583000Y-109529000D01*
X160589000Y-109528000D01*
X160595000Y-109527000D01*
X160602000Y-109526000D01*
X160608000Y-109525000D01*
X160615000Y-109525000D01*
X161055000Y-109525000D01*
X161062000Y-109525000D01*
X161068000Y-109526000D01*
G37*
X161180000Y-110150000D02*
X161180000Y-110350000D01*
X161180000Y-110357000D01*
X161179000Y-110363000D01*
X161178000Y-110370000D01*
X161177000Y-110376000D01*
X161176000Y-110382000D01*
X161174000Y-110389000D01*
X161172000Y-110395000D01*
X161169000Y-110401000D01*
X161166000Y-110407000D01*
X161163000Y-110412000D01*
X161160000Y-110418000D01*
X161156000Y-110423000D01*
X161152000Y-110429000D01*
X161148000Y-110434000D01*
X161143000Y-110438000D01*
X161139000Y-110443000D01*
X161134000Y-110447000D01*
X161128000Y-110451000D01*
X161123000Y-110455000D01*
X161118000Y-110458000D01*
X161112000Y-110461000D01*
X161106000Y-110464000D01*
X161100000Y-110467000D01*
X161094000Y-110469000D01*
X161087000Y-110471000D01*
X161081000Y-110472000D01*
X161075000Y-110473000D01*
X161068000Y-110474000D01*
X161062000Y-110475000D01*
X161055000Y-110475000D01*
X160615000Y-110475000D01*
X160608000Y-110475000D01*
X160602000Y-110474000D01*
X160595000Y-110473000D01*
X160589000Y-110472000D01*
X160583000Y-110471000D01*
X160576000Y-110469000D01*
X160570000Y-110467000D01*
X160564000Y-110464000D01*
X160558000Y-110461000D01*
X160552000Y-110458000D01*
X160547000Y-110455000D01*
X160542000Y-110451000D01*
X160536000Y-110447000D01*
X160531000Y-110443000D01*
X160527000Y-110438000D01*
X160522000Y-110434000D01*
X160518000Y-110429000D01*
X160514000Y-110423000D01*
X160510000Y-110418000D01*
X160507000Y-110412000D01*
X160504000Y-110407000D01*
X160501000Y-110401000D01*
X160498000Y-110395000D01*
X160496000Y-110389000D01*
X160494000Y-110382000D01*
X160493000Y-110376000D01*
X160492000Y-110370000D01*
X160491000Y-110363000D01*
X160490000Y-110357000D01*
X160490000Y-110350000D01*
X160490000Y-110150000D01*
X160490000Y-110143000D01*
X160491000Y-110137000D01*
X160492000Y-110130000D01*
X160493000Y-110124000D01*
X160494000Y-110118000D01*
X160496000Y-110111000D01*
X160498000Y-110105000D01*
X160501000Y-110099000D01*
X160504000Y-110093000D01*
X160507000Y-110088000D01*
X160510000Y-110082000D01*
X160514000Y-110077000D01*
X160518000Y-110071000D01*
X160522000Y-110066000D01*
X160527000Y-110062000D01*
X160531000Y-110057000D01*
X160536000Y-110053000D01*
X160542000Y-110049000D01*
X160547000Y-110045000D01*
X160552000Y-110042000D01*
X160558000Y-110039000D01*
X160564000Y-110036000D01*
X160570000Y-110033000D01*
X160576000Y-110031000D01*
X160583000Y-110029000D01*
X160589000Y-110028000D01*
X160595000Y-110027000D01*
X160602000Y-110026000D01*
X160608000Y-110025000D01*
X160615000Y-110025000D01*
X161055000Y-110025000D01*
X161062000Y-110025000D01*
X161068000Y-110026000D01*
X161075000Y-110027000D01*
X161081000Y-110028000D01*
X161087000Y-110029000D01*
X161094000Y-110031000D01*
X161100000Y-110033000D01*
X161106000Y-110036000D01*
X161112000Y-110039000D01*
X161118000Y-110042000D01*
X161123000Y-110045000D01*
X161128000Y-110049000D01*
X161134000Y-110053000D01*
X161139000Y-110057000D01*
X161143000Y-110062000D01*
X161148000Y-110066000D01*
X161152000Y-110071000D01*
X161156000Y-110077000D01*
X161160000Y-110082000D01*
X161163000Y-110088000D01*
X161166000Y-110093000D01*
X161169000Y-110099000D01*
X161172000Y-110105000D01*
X161174000Y-110111000D01*
X161176000Y-110118000D01*
X161177000Y-110124000D01*
X161178000Y-110130000D01*
X161179000Y-110137000D01*
X161180000Y-110143000D01*
X161180000Y-110150000D01*
G36*
X161068000Y-110026000D02*
G01*
X161075000Y-110027000D01*
X161081000Y-110028000D01*
X161087000Y-110029000D01*
X161094000Y-110031000D01*
X161100000Y-110033000D01*
X161106000Y-110036000D01*
X161112000Y-110039000D01*
X161118000Y-110042000D01*
X161123000Y-110045000D01*
X161128000Y-110049000D01*
X161134000Y-110053000D01*
X161139000Y-110057000D01*
X161143000Y-110062000D01*
X161148000Y-110066000D01*
X161152000Y-110071000D01*
X161156000Y-110077000D01*
X161160000Y-110082000D01*
X161163000Y-110088000D01*
X161166000Y-110093000D01*
X161169000Y-110099000D01*
X161172000Y-110105000D01*
X161174000Y-110111000D01*
X161176000Y-110118000D01*
X161177000Y-110124000D01*
X161178000Y-110130000D01*
X161179000Y-110137000D01*
X161180000Y-110143000D01*
X161180000Y-110150000D01*
X161180000Y-110350000D01*
X161180000Y-110357000D01*
X161179000Y-110363000D01*
X161178000Y-110370000D01*
X161177000Y-110376000D01*
X161176000Y-110382000D01*
X161174000Y-110389000D01*
X161172000Y-110395000D01*
X161169000Y-110401000D01*
X161166000Y-110407000D01*
X161163000Y-110412000D01*
X161160000Y-110418000D01*
X161156000Y-110423000D01*
X161152000Y-110429000D01*
X161148000Y-110434000D01*
X161143000Y-110438000D01*
X161139000Y-110443000D01*
X161134000Y-110447000D01*
X161128000Y-110451000D01*
X161123000Y-110455000D01*
X161118000Y-110458000D01*
X161112000Y-110461000D01*
X161106000Y-110464000D01*
X161100000Y-110467000D01*
X161094000Y-110469000D01*
X161087000Y-110471000D01*
X161081000Y-110472000D01*
X161075000Y-110473000D01*
X161068000Y-110474000D01*
X161062000Y-110475000D01*
X161055000Y-110475000D01*
X160615000Y-110475000D01*
X160608000Y-110475000D01*
X160602000Y-110474000D01*
X160595000Y-110473000D01*
X160589000Y-110472000D01*
X160583000Y-110471000D01*
X160576000Y-110469000D01*
X160570000Y-110467000D01*
X160564000Y-110464000D01*
X160558000Y-110461000D01*
X160552000Y-110458000D01*
X160547000Y-110455000D01*
X160542000Y-110451000D01*
X160536000Y-110447000D01*
X160531000Y-110443000D01*
X160527000Y-110438000D01*
X160522000Y-110434000D01*
X160518000Y-110429000D01*
X160514000Y-110423000D01*
X160510000Y-110418000D01*
X160507000Y-110412000D01*
X160504000Y-110407000D01*
X160501000Y-110401000D01*
X160498000Y-110395000D01*
X160496000Y-110389000D01*
X160494000Y-110382000D01*
X160493000Y-110376000D01*
X160492000Y-110370000D01*
X160491000Y-110363000D01*
X160490000Y-110357000D01*
X160490000Y-110350000D01*
X160490000Y-110150000D01*
X160490000Y-110143000D01*
X160491000Y-110137000D01*
X160492000Y-110130000D01*
X160493000Y-110124000D01*
X160494000Y-110118000D01*
X160496000Y-110111000D01*
X160498000Y-110105000D01*
X160501000Y-110099000D01*
X160504000Y-110093000D01*
X160507000Y-110088000D01*
X160510000Y-110082000D01*
X160514000Y-110077000D01*
X160518000Y-110071000D01*
X160522000Y-110066000D01*
X160527000Y-110062000D01*
X160531000Y-110057000D01*
X160536000Y-110053000D01*
X160542000Y-110049000D01*
X160547000Y-110045000D01*
X160552000Y-110042000D01*
X160558000Y-110039000D01*
X160564000Y-110036000D01*
X160570000Y-110033000D01*
X160576000Y-110031000D01*
X160583000Y-110029000D01*
X160589000Y-110028000D01*
X160595000Y-110027000D01*
X160602000Y-110026000D01*
X160608000Y-110025000D01*
X160615000Y-110025000D01*
X161055000Y-110025000D01*
X161062000Y-110025000D01*
X161068000Y-110026000D01*
G37*
X161400000Y-108240000D02*
X161600000Y-108240000D01*
X161607000Y-108240000D01*
X161613000Y-108241000D01*
X161620000Y-108242000D01*
X161626000Y-108243000D01*
X161632000Y-108244000D01*
X161639000Y-108246000D01*
X161645000Y-108248000D01*
X161651000Y-108251000D01*
X161657000Y-108254000D01*
X161662000Y-108257000D01*
X161668000Y-108260000D01*
X161673000Y-108264000D01*
X161679000Y-108268000D01*
X161684000Y-108272000D01*
X161688000Y-108277000D01*
X161693000Y-108281000D01*
X161697000Y-108286000D01*
X161701000Y-108292000D01*
X161705000Y-108297000D01*
X161708000Y-108302000D01*
X161711000Y-108308000D01*
X161714000Y-108314000D01*
X161717000Y-108320000D01*
X161719000Y-108326000D01*
X161721000Y-108333000D01*
X161722000Y-108339000D01*
X161723000Y-108345000D01*
X161724000Y-108352000D01*
X161725000Y-108358000D01*
X161725000Y-108365000D01*
X161725000Y-108805000D01*
X161725000Y-108812000D01*
X161724000Y-108818000D01*
X161723000Y-108825000D01*
X161722000Y-108831000D01*
X161721000Y-108837000D01*
X161719000Y-108844000D01*
X161717000Y-108850000D01*
X161714000Y-108856000D01*
X161711000Y-108862000D01*
X161708000Y-108868000D01*
X161705000Y-108873000D01*
X161701000Y-108878000D01*
X161697000Y-108884000D01*
X161693000Y-108889000D01*
X161688000Y-108893000D01*
X161684000Y-108898000D01*
X161679000Y-108902000D01*
X161673000Y-108906000D01*
X161668000Y-108910000D01*
X161662000Y-108913000D01*
X161657000Y-108916000D01*
X161651000Y-108919000D01*
X161645000Y-108922000D01*
X161639000Y-108924000D01*
X161632000Y-108926000D01*
X161626000Y-108927000D01*
X161620000Y-108928000D01*
X161613000Y-108929000D01*
X161607000Y-108930000D01*
X161600000Y-108930000D01*
X161400000Y-108930000D01*
X161393000Y-108930000D01*
X161387000Y-108929000D01*
X161380000Y-108928000D01*
X161374000Y-108927000D01*
X161368000Y-108926000D01*
X161361000Y-108924000D01*
X161355000Y-108922000D01*
X161349000Y-108919000D01*
X161343000Y-108916000D01*
X161337000Y-108913000D01*
X161332000Y-108910000D01*
X161327000Y-108906000D01*
X161321000Y-108902000D01*
X161316000Y-108898000D01*
X161312000Y-108893000D01*
X161307000Y-108889000D01*
X161303000Y-108884000D01*
X161299000Y-108878000D01*
X161295000Y-108873000D01*
X161292000Y-108868000D01*
X161289000Y-108862000D01*
X161286000Y-108856000D01*
X161283000Y-108850000D01*
X161281000Y-108844000D01*
X161279000Y-108837000D01*
X161278000Y-108831000D01*
X161277000Y-108825000D01*
X161276000Y-108818000D01*
X161275000Y-108812000D01*
X161275000Y-108805000D01*
X161275000Y-108365000D01*
X161275000Y-108358000D01*
X161276000Y-108352000D01*
X161277000Y-108345000D01*
X161278000Y-108339000D01*
X161279000Y-108333000D01*
X161281000Y-108326000D01*
X161283000Y-108320000D01*
X161286000Y-108314000D01*
X161289000Y-108308000D01*
X161292000Y-108302000D01*
X161295000Y-108297000D01*
X161299000Y-108292000D01*
X161303000Y-108286000D01*
X161307000Y-108281000D01*
X161312000Y-108277000D01*
X161316000Y-108272000D01*
X161321000Y-108268000D01*
X161327000Y-108264000D01*
X161332000Y-108260000D01*
X161338000Y-108257000D01*
X161343000Y-108254000D01*
X161349000Y-108251000D01*
X161355000Y-108248000D01*
X161361000Y-108246000D01*
X161368000Y-108244000D01*
X161374000Y-108243000D01*
X161380000Y-108242000D01*
X161387000Y-108241000D01*
X161393000Y-108240000D01*
X161400000Y-108240000D01*
G36*
X161613000Y-108241000D02*
G01*
X161620000Y-108242000D01*
X161626000Y-108243000D01*
X161632000Y-108244000D01*
X161639000Y-108246000D01*
X161645000Y-108248000D01*
X161651000Y-108251000D01*
X161657000Y-108254000D01*
X161662000Y-108257000D01*
X161668000Y-108260000D01*
X161673000Y-108264000D01*
X161679000Y-108268000D01*
X161684000Y-108272000D01*
X161688000Y-108277000D01*
X161693000Y-108281000D01*
X161697000Y-108286000D01*
X161701000Y-108292000D01*
X161705000Y-108297000D01*
X161708000Y-108302000D01*
X161711000Y-108308000D01*
X161714000Y-108314000D01*
X161717000Y-108320000D01*
X161719000Y-108326000D01*
X161721000Y-108333000D01*
X161722000Y-108339000D01*
X161723000Y-108345000D01*
X161724000Y-108352000D01*
X161725000Y-108358000D01*
X161725000Y-108365000D01*
X161725000Y-108805000D01*
X161725000Y-108812000D01*
X161724000Y-108818000D01*
X161723000Y-108825000D01*
X161722000Y-108831000D01*
X161721000Y-108837000D01*
X161719000Y-108844000D01*
X161717000Y-108850000D01*
X161714000Y-108856000D01*
X161711000Y-108862000D01*
X161708000Y-108868000D01*
X161705000Y-108873000D01*
X161701000Y-108878000D01*
X161697000Y-108884000D01*
X161693000Y-108889000D01*
X161688000Y-108893000D01*
X161684000Y-108898000D01*
X161679000Y-108902000D01*
X161673000Y-108906000D01*
X161668000Y-108910000D01*
X161662000Y-108913000D01*
X161657000Y-108916000D01*
X161651000Y-108919000D01*
X161645000Y-108922000D01*
X161639000Y-108924000D01*
X161632000Y-108926000D01*
X161626000Y-108927000D01*
X161620000Y-108928000D01*
X161613000Y-108929000D01*
X161607000Y-108930000D01*
X161600000Y-108930000D01*
X161400000Y-108930000D01*
X161393000Y-108930000D01*
X161387000Y-108929000D01*
X161380000Y-108928000D01*
X161374000Y-108927000D01*
X161368000Y-108926000D01*
X161361000Y-108924000D01*
X161355000Y-108922000D01*
X161349000Y-108919000D01*
X161343000Y-108916000D01*
X161337000Y-108913000D01*
X161332000Y-108910000D01*
X161327000Y-108906000D01*
X161321000Y-108902000D01*
X161316000Y-108898000D01*
X161312000Y-108893000D01*
X161307000Y-108889000D01*
X161303000Y-108884000D01*
X161299000Y-108878000D01*
X161295000Y-108873000D01*
X161292000Y-108868000D01*
X161289000Y-108862000D01*
X161286000Y-108856000D01*
X161283000Y-108850000D01*
X161281000Y-108844000D01*
X161279000Y-108837000D01*
X161278000Y-108831000D01*
X161277000Y-108825000D01*
X161276000Y-108818000D01*
X161275000Y-108812000D01*
X161275000Y-108805000D01*
X161275000Y-108365000D01*
X161275000Y-108358000D01*
X161276000Y-108352000D01*
X161277000Y-108345000D01*
X161278000Y-108339000D01*
X161279000Y-108333000D01*
X161281000Y-108326000D01*
X161283000Y-108320000D01*
X161286000Y-108314000D01*
X161289000Y-108308000D01*
X161292000Y-108302000D01*
X161295000Y-108297000D01*
X161299000Y-108292000D01*
X161303000Y-108286000D01*
X161307000Y-108281000D01*
X161312000Y-108277000D01*
X161316000Y-108272000D01*
X161321000Y-108268000D01*
X161327000Y-108264000D01*
X161332000Y-108260000D01*
X161338000Y-108257000D01*
X161343000Y-108254000D01*
X161349000Y-108251000D01*
X161355000Y-108248000D01*
X161361000Y-108246000D01*
X161368000Y-108244000D01*
X161374000Y-108243000D01*
X161380000Y-108242000D01*
X161387000Y-108241000D01*
X161393000Y-108240000D01*
X161400000Y-108240000D01*
X161600000Y-108240000D01*
X161607000Y-108240000D01*
X161613000Y-108241000D01*
G37*
X161400000Y-110070000D02*
X161600000Y-110070000D01*
X161607000Y-110070000D01*
X161613000Y-110071000D01*
X161620000Y-110072000D01*
X161626000Y-110073000D01*
X161632000Y-110074000D01*
X161639000Y-110076000D01*
X161645000Y-110078000D01*
X161651000Y-110081000D01*
X161657000Y-110084000D01*
X161662000Y-110087000D01*
X161668000Y-110090000D01*
X161673000Y-110094000D01*
X161679000Y-110098000D01*
X161684000Y-110102000D01*
X161688000Y-110107000D01*
X161693000Y-110111000D01*
X161697000Y-110116000D01*
X161701000Y-110122000D01*
X161705000Y-110127000D01*
X161708000Y-110132000D01*
X161711000Y-110138000D01*
X161714000Y-110144000D01*
X161717000Y-110150000D01*
X161719000Y-110156000D01*
X161721000Y-110163000D01*
X161722000Y-110169000D01*
X161723000Y-110175000D01*
X161724000Y-110182000D01*
X161725000Y-110188000D01*
X161725000Y-110195000D01*
X161725000Y-110635000D01*
X161725000Y-110642000D01*
X161724000Y-110648000D01*
X161723000Y-110655000D01*
X161722000Y-110661000D01*
X161721000Y-110667000D01*
X161719000Y-110674000D01*
X161717000Y-110680000D01*
X161714000Y-110686000D01*
X161711000Y-110692000D01*
X161708000Y-110698000D01*
X161705000Y-110703000D01*
X161701000Y-110708000D01*
X161697000Y-110714000D01*
X161693000Y-110719000D01*
X161688000Y-110723000D01*
X161684000Y-110728000D01*
X161679000Y-110732000D01*
X161673000Y-110736000D01*
X161668000Y-110740000D01*
X161662000Y-110743000D01*
X161657000Y-110746000D01*
X161651000Y-110749000D01*
X161645000Y-110752000D01*
X161639000Y-110754000D01*
X161632000Y-110756000D01*
X161626000Y-110757000D01*
X161620000Y-110758000D01*
X161613000Y-110759000D01*
X161607000Y-110760000D01*
X161600000Y-110760000D01*
X161400000Y-110760000D01*
X161393000Y-110760000D01*
X161387000Y-110759000D01*
X161380000Y-110758000D01*
X161374000Y-110757000D01*
X161368000Y-110756000D01*
X161361000Y-110754000D01*
X161355000Y-110752000D01*
X161349000Y-110749000D01*
X161343000Y-110746000D01*
X161337000Y-110743000D01*
X161332000Y-110740000D01*
X161327000Y-110736000D01*
X161321000Y-110732000D01*
X161316000Y-110728000D01*
X161312000Y-110723000D01*
X161307000Y-110719000D01*
X161303000Y-110714000D01*
X161299000Y-110708000D01*
X161295000Y-110703000D01*
X161292000Y-110698000D01*
X161289000Y-110692000D01*
X161286000Y-110686000D01*
X161283000Y-110680000D01*
X161281000Y-110674000D01*
X161279000Y-110667000D01*
X161278000Y-110661000D01*
X161277000Y-110655000D01*
X161276000Y-110648000D01*
X161275000Y-110642000D01*
X161275000Y-110635000D01*
X161275000Y-110195000D01*
X161275000Y-110188000D01*
X161276000Y-110182000D01*
X161277000Y-110175000D01*
X161278000Y-110169000D01*
X161279000Y-110163000D01*
X161281000Y-110156000D01*
X161283000Y-110150000D01*
X161286000Y-110144000D01*
X161289000Y-110138000D01*
X161292000Y-110132000D01*
X161295000Y-110127000D01*
X161299000Y-110122000D01*
X161303000Y-110116000D01*
X161307000Y-110111000D01*
X161312000Y-110107000D01*
X161316000Y-110102000D01*
X161321000Y-110098000D01*
X161327000Y-110094000D01*
X161332000Y-110090000D01*
X161338000Y-110087000D01*
X161343000Y-110084000D01*
X161349000Y-110081000D01*
X161355000Y-110078000D01*
X161361000Y-110076000D01*
X161368000Y-110074000D01*
X161374000Y-110073000D01*
X161380000Y-110072000D01*
X161387000Y-110071000D01*
X161393000Y-110070000D01*
X161400000Y-110070000D01*
G36*
X161613000Y-110071000D02*
G01*
X161620000Y-110072000D01*
X161626000Y-110073000D01*
X161632000Y-110074000D01*
X161639000Y-110076000D01*
X161645000Y-110078000D01*
X161651000Y-110081000D01*
X161657000Y-110084000D01*
X161662000Y-110087000D01*
X161668000Y-110090000D01*
X161673000Y-110094000D01*
X161679000Y-110098000D01*
X161684000Y-110102000D01*
X161688000Y-110107000D01*
X161693000Y-110111000D01*
X161697000Y-110116000D01*
X161701000Y-110122000D01*
X161705000Y-110127000D01*
X161708000Y-110132000D01*
X161711000Y-110138000D01*
X161714000Y-110144000D01*
X161717000Y-110150000D01*
X161719000Y-110156000D01*
X161721000Y-110163000D01*
X161722000Y-110169000D01*
X161723000Y-110175000D01*
X161724000Y-110182000D01*
X161725000Y-110188000D01*
X161725000Y-110195000D01*
X161725000Y-110635000D01*
X161725000Y-110642000D01*
X161724000Y-110648000D01*
X161723000Y-110655000D01*
X161722000Y-110661000D01*
X161721000Y-110667000D01*
X161719000Y-110674000D01*
X161717000Y-110680000D01*
X161714000Y-110686000D01*
X161711000Y-110692000D01*
X161708000Y-110698000D01*
X161705000Y-110703000D01*
X161701000Y-110708000D01*
X161697000Y-110714000D01*
X161693000Y-110719000D01*
X161688000Y-110723000D01*
X161684000Y-110728000D01*
X161679000Y-110732000D01*
X161673000Y-110736000D01*
X161668000Y-110740000D01*
X161662000Y-110743000D01*
X161657000Y-110746000D01*
X161651000Y-110749000D01*
X161645000Y-110752000D01*
X161639000Y-110754000D01*
X161632000Y-110756000D01*
X161626000Y-110757000D01*
X161620000Y-110758000D01*
X161613000Y-110759000D01*
X161607000Y-110760000D01*
X161600000Y-110760000D01*
X161400000Y-110760000D01*
X161393000Y-110760000D01*
X161387000Y-110759000D01*
X161380000Y-110758000D01*
X161374000Y-110757000D01*
X161368000Y-110756000D01*
X161361000Y-110754000D01*
X161355000Y-110752000D01*
X161349000Y-110749000D01*
X161343000Y-110746000D01*
X161337000Y-110743000D01*
X161332000Y-110740000D01*
X161327000Y-110736000D01*
X161321000Y-110732000D01*
X161316000Y-110728000D01*
X161312000Y-110723000D01*
X161307000Y-110719000D01*
X161303000Y-110714000D01*
X161299000Y-110708000D01*
X161295000Y-110703000D01*
X161292000Y-110698000D01*
X161289000Y-110692000D01*
X161286000Y-110686000D01*
X161283000Y-110680000D01*
X161281000Y-110674000D01*
X161279000Y-110667000D01*
X161278000Y-110661000D01*
X161277000Y-110655000D01*
X161276000Y-110648000D01*
X161275000Y-110642000D01*
X161275000Y-110635000D01*
X161275000Y-110195000D01*
X161275000Y-110188000D01*
X161276000Y-110182000D01*
X161277000Y-110175000D01*
X161278000Y-110169000D01*
X161279000Y-110163000D01*
X161281000Y-110156000D01*
X161283000Y-110150000D01*
X161286000Y-110144000D01*
X161289000Y-110138000D01*
X161292000Y-110132000D01*
X161295000Y-110127000D01*
X161299000Y-110122000D01*
X161303000Y-110116000D01*
X161307000Y-110111000D01*
X161312000Y-110107000D01*
X161316000Y-110102000D01*
X161321000Y-110098000D01*
X161327000Y-110094000D01*
X161332000Y-110090000D01*
X161338000Y-110087000D01*
X161343000Y-110084000D01*
X161349000Y-110081000D01*
X161355000Y-110078000D01*
X161361000Y-110076000D01*
X161368000Y-110074000D01*
X161374000Y-110073000D01*
X161380000Y-110072000D01*
X161387000Y-110071000D01*
X161393000Y-110070000D01*
X161400000Y-110070000D01*
X161600000Y-110070000D01*
X161607000Y-110070000D01*
X161613000Y-110071000D01*
G37*
X161900000Y-108240000D02*
X162100000Y-108240000D01*
X162107000Y-108240000D01*
X162113000Y-108241000D01*
X162120000Y-108242000D01*
X162126000Y-108243000D01*
X162132000Y-108244000D01*
X162139000Y-108246000D01*
X162145000Y-108248000D01*
X162151000Y-108251000D01*
X162157000Y-108254000D01*
X162163000Y-108257000D01*
X162168000Y-108260000D01*
X162173000Y-108264000D01*
X162179000Y-108268000D01*
X162184000Y-108272000D01*
X162188000Y-108277000D01*
X162193000Y-108281000D01*
X162197000Y-108286000D01*
X162201000Y-108292000D01*
X162205000Y-108297000D01*
X162208000Y-108302000D01*
X162211000Y-108308000D01*
X162214000Y-108314000D01*
X162217000Y-108320000D01*
X162219000Y-108326000D01*
X162221000Y-108333000D01*
X162222000Y-108339000D01*
X162223000Y-108345000D01*
X162224000Y-108352000D01*
X162225000Y-108358000D01*
X162225000Y-108365000D01*
X162225000Y-108805000D01*
X162225000Y-108812000D01*
X162224000Y-108818000D01*
X162223000Y-108825000D01*
X162222000Y-108831000D01*
X162221000Y-108837000D01*
X162219000Y-108844000D01*
X162217000Y-108850000D01*
X162214000Y-108856000D01*
X162211000Y-108862000D01*
X162208000Y-108868000D01*
X162205000Y-108873000D01*
X162201000Y-108878000D01*
X162197000Y-108884000D01*
X162193000Y-108889000D01*
X162188000Y-108893000D01*
X162184000Y-108898000D01*
X162179000Y-108902000D01*
X162173000Y-108906000D01*
X162168000Y-108910000D01*
X162163000Y-108913000D01*
X162157000Y-108916000D01*
X162151000Y-108919000D01*
X162145000Y-108922000D01*
X162139000Y-108924000D01*
X162132000Y-108926000D01*
X162126000Y-108927000D01*
X162120000Y-108928000D01*
X162113000Y-108929000D01*
X162107000Y-108930000D01*
X162100000Y-108930000D01*
X161900000Y-108930000D01*
X161893000Y-108930000D01*
X161887000Y-108929000D01*
X161880000Y-108928000D01*
X161874000Y-108927000D01*
X161868000Y-108926000D01*
X161861000Y-108924000D01*
X161855000Y-108922000D01*
X161849000Y-108919000D01*
X161843000Y-108916000D01*
X161837000Y-108913000D01*
X161832000Y-108910000D01*
X161827000Y-108906000D01*
X161821000Y-108902000D01*
X161816000Y-108898000D01*
X161812000Y-108893000D01*
X161807000Y-108889000D01*
X161803000Y-108884000D01*
X161799000Y-108878000D01*
X161795000Y-108873000D01*
X161792000Y-108868000D01*
X161789000Y-108862000D01*
X161786000Y-108856000D01*
X161783000Y-108850000D01*
X161781000Y-108844000D01*
X161779000Y-108837000D01*
X161778000Y-108831000D01*
X161777000Y-108825000D01*
X161776000Y-108818000D01*
X161775000Y-108812000D01*
X161775000Y-108805000D01*
X161775000Y-108365000D01*
X161775000Y-108358000D01*
X161776000Y-108352000D01*
X161777000Y-108345000D01*
X161778000Y-108339000D01*
X161779000Y-108333000D01*
X161781000Y-108326000D01*
X161783000Y-108320000D01*
X161786000Y-108314000D01*
X161789000Y-108308000D01*
X161792000Y-108302000D01*
X161795000Y-108297000D01*
X161799000Y-108292000D01*
X161803000Y-108286000D01*
X161807000Y-108281000D01*
X161812000Y-108277000D01*
X161816000Y-108272000D01*
X161821000Y-108268000D01*
X161827000Y-108264000D01*
X161832000Y-108260000D01*
X161838000Y-108257000D01*
X161843000Y-108254000D01*
X161849000Y-108251000D01*
X161855000Y-108248000D01*
X161861000Y-108246000D01*
X161868000Y-108244000D01*
X161874000Y-108243000D01*
X161880000Y-108242000D01*
X161887000Y-108241000D01*
X161893000Y-108240000D01*
X161900000Y-108240000D01*
G36*
X162113000Y-108241000D02*
G01*
X162120000Y-108242000D01*
X162126000Y-108243000D01*
X162132000Y-108244000D01*
X162139000Y-108246000D01*
X162145000Y-108248000D01*
X162151000Y-108251000D01*
X162157000Y-108254000D01*
X162163000Y-108257000D01*
X162168000Y-108260000D01*
X162173000Y-108264000D01*
X162179000Y-108268000D01*
X162184000Y-108272000D01*
X162188000Y-108277000D01*
X162193000Y-108281000D01*
X162197000Y-108286000D01*
X162201000Y-108292000D01*
X162205000Y-108297000D01*
X162208000Y-108302000D01*
X162211000Y-108308000D01*
X162214000Y-108314000D01*
X162217000Y-108320000D01*
X162219000Y-108326000D01*
X162221000Y-108333000D01*
X162222000Y-108339000D01*
X162223000Y-108345000D01*
X162224000Y-108352000D01*
X162225000Y-108358000D01*
X162225000Y-108365000D01*
X162225000Y-108805000D01*
X162225000Y-108812000D01*
X162224000Y-108818000D01*
X162223000Y-108825000D01*
X162222000Y-108831000D01*
X162221000Y-108837000D01*
X162219000Y-108844000D01*
X162217000Y-108850000D01*
X162214000Y-108856000D01*
X162211000Y-108862000D01*
X162208000Y-108868000D01*
X162205000Y-108873000D01*
X162201000Y-108878000D01*
X162197000Y-108884000D01*
X162193000Y-108889000D01*
X162188000Y-108893000D01*
X162184000Y-108898000D01*
X162179000Y-108902000D01*
X162173000Y-108906000D01*
X162168000Y-108910000D01*
X162163000Y-108913000D01*
X162157000Y-108916000D01*
X162151000Y-108919000D01*
X162145000Y-108922000D01*
X162139000Y-108924000D01*
X162132000Y-108926000D01*
X162126000Y-108927000D01*
X162120000Y-108928000D01*
X162113000Y-108929000D01*
X162107000Y-108930000D01*
X162100000Y-108930000D01*
X161900000Y-108930000D01*
X161893000Y-108930000D01*
X161887000Y-108929000D01*
X161880000Y-108928000D01*
X161874000Y-108927000D01*
X161868000Y-108926000D01*
X161861000Y-108924000D01*
X161855000Y-108922000D01*
X161849000Y-108919000D01*
X161843000Y-108916000D01*
X161837000Y-108913000D01*
X161832000Y-108910000D01*
X161827000Y-108906000D01*
X161821000Y-108902000D01*
X161816000Y-108898000D01*
X161812000Y-108893000D01*
X161807000Y-108889000D01*
X161803000Y-108884000D01*
X161799000Y-108878000D01*
X161795000Y-108873000D01*
X161792000Y-108868000D01*
X161789000Y-108862000D01*
X161786000Y-108856000D01*
X161783000Y-108850000D01*
X161781000Y-108844000D01*
X161779000Y-108837000D01*
X161778000Y-108831000D01*
X161777000Y-108825000D01*
X161776000Y-108818000D01*
X161775000Y-108812000D01*
X161775000Y-108805000D01*
X161775000Y-108365000D01*
X161775000Y-108358000D01*
X161776000Y-108352000D01*
X161777000Y-108345000D01*
X161778000Y-108339000D01*
X161779000Y-108333000D01*
X161781000Y-108326000D01*
X161783000Y-108320000D01*
X161786000Y-108314000D01*
X161789000Y-108308000D01*
X161792000Y-108302000D01*
X161795000Y-108297000D01*
X161799000Y-108292000D01*
X161803000Y-108286000D01*
X161807000Y-108281000D01*
X161812000Y-108277000D01*
X161816000Y-108272000D01*
X161821000Y-108268000D01*
X161827000Y-108264000D01*
X161832000Y-108260000D01*
X161838000Y-108257000D01*
X161843000Y-108254000D01*
X161849000Y-108251000D01*
X161855000Y-108248000D01*
X161861000Y-108246000D01*
X161868000Y-108244000D01*
X161874000Y-108243000D01*
X161880000Y-108242000D01*
X161887000Y-108241000D01*
X161893000Y-108240000D01*
X161900000Y-108240000D01*
X162100000Y-108240000D01*
X162107000Y-108240000D01*
X162113000Y-108241000D01*
G37*
X161900000Y-110070000D02*
X162100000Y-110070000D01*
X162107000Y-110070000D01*
X162113000Y-110071000D01*
X162120000Y-110072000D01*
X162126000Y-110073000D01*
X162132000Y-110074000D01*
X162139000Y-110076000D01*
X162145000Y-110078000D01*
X162151000Y-110081000D01*
X162157000Y-110084000D01*
X162163000Y-110087000D01*
X162168000Y-110090000D01*
X162173000Y-110094000D01*
X162179000Y-110098000D01*
X162184000Y-110102000D01*
X162188000Y-110107000D01*
X162193000Y-110111000D01*
X162197000Y-110116000D01*
X162201000Y-110122000D01*
X162205000Y-110127000D01*
X162208000Y-110132000D01*
X162211000Y-110138000D01*
X162214000Y-110144000D01*
X162217000Y-110150000D01*
X162219000Y-110156000D01*
X162221000Y-110163000D01*
X162222000Y-110169000D01*
X162223000Y-110175000D01*
X162224000Y-110182000D01*
X162225000Y-110188000D01*
X162225000Y-110195000D01*
X162225000Y-110635000D01*
X162225000Y-110642000D01*
X162224000Y-110648000D01*
X162223000Y-110655000D01*
X162222000Y-110661000D01*
X162221000Y-110667000D01*
X162219000Y-110674000D01*
X162217000Y-110680000D01*
X162214000Y-110686000D01*
X162211000Y-110692000D01*
X162208000Y-110698000D01*
X162205000Y-110703000D01*
X162201000Y-110708000D01*
X162197000Y-110714000D01*
X162193000Y-110719000D01*
X162188000Y-110723000D01*
X162184000Y-110728000D01*
X162179000Y-110732000D01*
X162173000Y-110736000D01*
X162168000Y-110740000D01*
X162163000Y-110743000D01*
X162157000Y-110746000D01*
X162151000Y-110749000D01*
X162145000Y-110752000D01*
X162139000Y-110754000D01*
X162132000Y-110756000D01*
X162126000Y-110757000D01*
X162120000Y-110758000D01*
X162113000Y-110759000D01*
X162107000Y-110760000D01*
X162100000Y-110760000D01*
X161900000Y-110760000D01*
X161893000Y-110760000D01*
X161887000Y-110759000D01*
X161880000Y-110758000D01*
X161874000Y-110757000D01*
X161868000Y-110756000D01*
X161861000Y-110754000D01*
X161855000Y-110752000D01*
X161849000Y-110749000D01*
X161843000Y-110746000D01*
X161837000Y-110743000D01*
X161832000Y-110740000D01*
X161827000Y-110736000D01*
X161821000Y-110732000D01*
X161816000Y-110728000D01*
X161812000Y-110723000D01*
X161807000Y-110719000D01*
X161803000Y-110714000D01*
X161799000Y-110708000D01*
X161795000Y-110703000D01*
X161792000Y-110698000D01*
X161789000Y-110692000D01*
X161786000Y-110686000D01*
X161783000Y-110680000D01*
X161781000Y-110674000D01*
X161779000Y-110667000D01*
X161778000Y-110661000D01*
X161777000Y-110655000D01*
X161776000Y-110648000D01*
X161775000Y-110642000D01*
X161775000Y-110635000D01*
X161775000Y-110195000D01*
X161775000Y-110188000D01*
X161776000Y-110182000D01*
X161777000Y-110175000D01*
X161778000Y-110169000D01*
X161779000Y-110163000D01*
X161781000Y-110156000D01*
X161783000Y-110150000D01*
X161786000Y-110144000D01*
X161789000Y-110138000D01*
X161792000Y-110132000D01*
X161795000Y-110127000D01*
X161799000Y-110122000D01*
X161803000Y-110116000D01*
X161807000Y-110111000D01*
X161812000Y-110107000D01*
X161816000Y-110102000D01*
X161821000Y-110098000D01*
X161827000Y-110094000D01*
X161832000Y-110090000D01*
X161838000Y-110087000D01*
X161843000Y-110084000D01*
X161849000Y-110081000D01*
X161855000Y-110078000D01*
X161861000Y-110076000D01*
X161868000Y-110074000D01*
X161874000Y-110073000D01*
X161880000Y-110072000D01*
X161887000Y-110071000D01*
X161893000Y-110070000D01*
X161900000Y-110070000D01*
G36*
X162113000Y-110071000D02*
G01*
X162120000Y-110072000D01*
X162126000Y-110073000D01*
X162132000Y-110074000D01*
X162139000Y-110076000D01*
X162145000Y-110078000D01*
X162151000Y-110081000D01*
X162157000Y-110084000D01*
X162163000Y-110087000D01*
X162168000Y-110090000D01*
X162173000Y-110094000D01*
X162179000Y-110098000D01*
X162184000Y-110102000D01*
X162188000Y-110107000D01*
X162193000Y-110111000D01*
X162197000Y-110116000D01*
X162201000Y-110122000D01*
X162205000Y-110127000D01*
X162208000Y-110132000D01*
X162211000Y-110138000D01*
X162214000Y-110144000D01*
X162217000Y-110150000D01*
X162219000Y-110156000D01*
X162221000Y-110163000D01*
X162222000Y-110169000D01*
X162223000Y-110175000D01*
X162224000Y-110182000D01*
X162225000Y-110188000D01*
X162225000Y-110195000D01*
X162225000Y-110635000D01*
X162225000Y-110642000D01*
X162224000Y-110648000D01*
X162223000Y-110655000D01*
X162222000Y-110661000D01*
X162221000Y-110667000D01*
X162219000Y-110674000D01*
X162217000Y-110680000D01*
X162214000Y-110686000D01*
X162211000Y-110692000D01*
X162208000Y-110698000D01*
X162205000Y-110703000D01*
X162201000Y-110708000D01*
X162197000Y-110714000D01*
X162193000Y-110719000D01*
X162188000Y-110723000D01*
X162184000Y-110728000D01*
X162179000Y-110732000D01*
X162173000Y-110736000D01*
X162168000Y-110740000D01*
X162163000Y-110743000D01*
X162157000Y-110746000D01*
X162151000Y-110749000D01*
X162145000Y-110752000D01*
X162139000Y-110754000D01*
X162132000Y-110756000D01*
X162126000Y-110757000D01*
X162120000Y-110758000D01*
X162113000Y-110759000D01*
X162107000Y-110760000D01*
X162100000Y-110760000D01*
X161900000Y-110760000D01*
X161893000Y-110760000D01*
X161887000Y-110759000D01*
X161880000Y-110758000D01*
X161874000Y-110757000D01*
X161868000Y-110756000D01*
X161861000Y-110754000D01*
X161855000Y-110752000D01*
X161849000Y-110749000D01*
X161843000Y-110746000D01*
X161837000Y-110743000D01*
X161832000Y-110740000D01*
X161827000Y-110736000D01*
X161821000Y-110732000D01*
X161816000Y-110728000D01*
X161812000Y-110723000D01*
X161807000Y-110719000D01*
X161803000Y-110714000D01*
X161799000Y-110708000D01*
X161795000Y-110703000D01*
X161792000Y-110698000D01*
X161789000Y-110692000D01*
X161786000Y-110686000D01*
X161783000Y-110680000D01*
X161781000Y-110674000D01*
X161779000Y-110667000D01*
X161778000Y-110661000D01*
X161777000Y-110655000D01*
X161776000Y-110648000D01*
X161775000Y-110642000D01*
X161775000Y-110635000D01*
X161775000Y-110195000D01*
X161775000Y-110188000D01*
X161776000Y-110182000D01*
X161777000Y-110175000D01*
X161778000Y-110169000D01*
X161779000Y-110163000D01*
X161781000Y-110156000D01*
X161783000Y-110150000D01*
X161786000Y-110144000D01*
X161789000Y-110138000D01*
X161792000Y-110132000D01*
X161795000Y-110127000D01*
X161799000Y-110122000D01*
X161803000Y-110116000D01*
X161807000Y-110111000D01*
X161812000Y-110107000D01*
X161816000Y-110102000D01*
X161821000Y-110098000D01*
X161827000Y-110094000D01*
X161832000Y-110090000D01*
X161838000Y-110087000D01*
X161843000Y-110084000D01*
X161849000Y-110081000D01*
X161855000Y-110078000D01*
X161861000Y-110076000D01*
X161868000Y-110074000D01*
X161874000Y-110073000D01*
X161880000Y-110072000D01*
X161887000Y-110071000D01*
X161893000Y-110070000D01*
X161900000Y-110070000D01*
X162100000Y-110070000D01*
X162107000Y-110070000D01*
X162113000Y-110071000D01*
G37*
X162400000Y-108240000D02*
X162600000Y-108240000D01*
X162607000Y-108240000D01*
X162613000Y-108241000D01*
X162620000Y-108242000D01*
X162626000Y-108243000D01*
X162632000Y-108244000D01*
X162639000Y-108246000D01*
X162645000Y-108248000D01*
X162651000Y-108251000D01*
X162657000Y-108254000D01*
X162662000Y-108257000D01*
X162668000Y-108260000D01*
X162673000Y-108264000D01*
X162679000Y-108268000D01*
X162684000Y-108272000D01*
X162688000Y-108277000D01*
X162693000Y-108281000D01*
X162697000Y-108286000D01*
X162701000Y-108292000D01*
X162705000Y-108297000D01*
X162708000Y-108302000D01*
X162711000Y-108308000D01*
X162714000Y-108314000D01*
X162717000Y-108320000D01*
X162719000Y-108326000D01*
X162721000Y-108333000D01*
X162722000Y-108339000D01*
X162723000Y-108345000D01*
X162724000Y-108352000D01*
X162725000Y-108358000D01*
X162725000Y-108365000D01*
X162725000Y-108805000D01*
X162725000Y-108812000D01*
X162724000Y-108818000D01*
X162723000Y-108825000D01*
X162722000Y-108831000D01*
X162721000Y-108837000D01*
X162719000Y-108844000D01*
X162717000Y-108850000D01*
X162714000Y-108856000D01*
X162711000Y-108862000D01*
X162708000Y-108868000D01*
X162705000Y-108873000D01*
X162701000Y-108878000D01*
X162697000Y-108884000D01*
X162693000Y-108889000D01*
X162688000Y-108893000D01*
X162684000Y-108898000D01*
X162679000Y-108902000D01*
X162673000Y-108906000D01*
X162668000Y-108910000D01*
X162662000Y-108913000D01*
X162657000Y-108916000D01*
X162651000Y-108919000D01*
X162645000Y-108922000D01*
X162639000Y-108924000D01*
X162632000Y-108926000D01*
X162626000Y-108927000D01*
X162620000Y-108928000D01*
X162613000Y-108929000D01*
X162607000Y-108930000D01*
X162600000Y-108930000D01*
X162400000Y-108930000D01*
X162393000Y-108930000D01*
X162387000Y-108929000D01*
X162380000Y-108928000D01*
X162374000Y-108927000D01*
X162368000Y-108926000D01*
X162361000Y-108924000D01*
X162355000Y-108922000D01*
X162349000Y-108919000D01*
X162343000Y-108916000D01*
X162337000Y-108913000D01*
X162332000Y-108910000D01*
X162327000Y-108906000D01*
X162321000Y-108902000D01*
X162316000Y-108898000D01*
X162312000Y-108893000D01*
X162307000Y-108889000D01*
X162303000Y-108884000D01*
X162299000Y-108878000D01*
X162295000Y-108873000D01*
X162292000Y-108868000D01*
X162289000Y-108862000D01*
X162286000Y-108856000D01*
X162283000Y-108850000D01*
X162281000Y-108844000D01*
X162279000Y-108837000D01*
X162278000Y-108831000D01*
X162277000Y-108825000D01*
X162276000Y-108818000D01*
X162275000Y-108812000D01*
X162275000Y-108805000D01*
X162275000Y-108365000D01*
X162275000Y-108358000D01*
X162276000Y-108352000D01*
X162277000Y-108345000D01*
X162278000Y-108339000D01*
X162279000Y-108333000D01*
X162281000Y-108326000D01*
X162283000Y-108320000D01*
X162286000Y-108314000D01*
X162289000Y-108308000D01*
X162292000Y-108302000D01*
X162295000Y-108297000D01*
X162299000Y-108292000D01*
X162303000Y-108286000D01*
X162307000Y-108281000D01*
X162312000Y-108277000D01*
X162316000Y-108272000D01*
X162321000Y-108268000D01*
X162327000Y-108264000D01*
X162332000Y-108260000D01*
X162338000Y-108257000D01*
X162343000Y-108254000D01*
X162349000Y-108251000D01*
X162355000Y-108248000D01*
X162361000Y-108246000D01*
X162368000Y-108244000D01*
X162374000Y-108243000D01*
X162380000Y-108242000D01*
X162387000Y-108241000D01*
X162393000Y-108240000D01*
X162400000Y-108240000D01*
G36*
X162613000Y-108241000D02*
G01*
X162620000Y-108242000D01*
X162626000Y-108243000D01*
X162632000Y-108244000D01*
X162639000Y-108246000D01*
X162645000Y-108248000D01*
X162651000Y-108251000D01*
X162657000Y-108254000D01*
X162662000Y-108257000D01*
X162668000Y-108260000D01*
X162673000Y-108264000D01*
X162679000Y-108268000D01*
X162684000Y-108272000D01*
X162688000Y-108277000D01*
X162693000Y-108281000D01*
X162697000Y-108286000D01*
X162701000Y-108292000D01*
X162705000Y-108297000D01*
X162708000Y-108302000D01*
X162711000Y-108308000D01*
X162714000Y-108314000D01*
X162717000Y-108320000D01*
X162719000Y-108326000D01*
X162721000Y-108333000D01*
X162722000Y-108339000D01*
X162723000Y-108345000D01*
X162724000Y-108352000D01*
X162725000Y-108358000D01*
X162725000Y-108365000D01*
X162725000Y-108805000D01*
X162725000Y-108812000D01*
X162724000Y-108818000D01*
X162723000Y-108825000D01*
X162722000Y-108831000D01*
X162721000Y-108837000D01*
X162719000Y-108844000D01*
X162717000Y-108850000D01*
X162714000Y-108856000D01*
X162711000Y-108862000D01*
X162708000Y-108868000D01*
X162705000Y-108873000D01*
X162701000Y-108878000D01*
X162697000Y-108884000D01*
X162693000Y-108889000D01*
X162688000Y-108893000D01*
X162684000Y-108898000D01*
X162679000Y-108902000D01*
X162673000Y-108906000D01*
X162668000Y-108910000D01*
X162662000Y-108913000D01*
X162657000Y-108916000D01*
X162651000Y-108919000D01*
X162645000Y-108922000D01*
X162639000Y-108924000D01*
X162632000Y-108926000D01*
X162626000Y-108927000D01*
X162620000Y-108928000D01*
X162613000Y-108929000D01*
X162607000Y-108930000D01*
X162600000Y-108930000D01*
X162400000Y-108930000D01*
X162393000Y-108930000D01*
X162387000Y-108929000D01*
X162380000Y-108928000D01*
X162374000Y-108927000D01*
X162368000Y-108926000D01*
X162361000Y-108924000D01*
X162355000Y-108922000D01*
X162349000Y-108919000D01*
X162343000Y-108916000D01*
X162337000Y-108913000D01*
X162332000Y-108910000D01*
X162327000Y-108906000D01*
X162321000Y-108902000D01*
X162316000Y-108898000D01*
X162312000Y-108893000D01*
X162307000Y-108889000D01*
X162303000Y-108884000D01*
X162299000Y-108878000D01*
X162295000Y-108873000D01*
X162292000Y-108868000D01*
X162289000Y-108862000D01*
X162286000Y-108856000D01*
X162283000Y-108850000D01*
X162281000Y-108844000D01*
X162279000Y-108837000D01*
X162278000Y-108831000D01*
X162277000Y-108825000D01*
X162276000Y-108818000D01*
X162275000Y-108812000D01*
X162275000Y-108805000D01*
X162275000Y-108365000D01*
X162275000Y-108358000D01*
X162276000Y-108352000D01*
X162277000Y-108345000D01*
X162278000Y-108339000D01*
X162279000Y-108333000D01*
X162281000Y-108326000D01*
X162283000Y-108320000D01*
X162286000Y-108314000D01*
X162289000Y-108308000D01*
X162292000Y-108302000D01*
X162295000Y-108297000D01*
X162299000Y-108292000D01*
X162303000Y-108286000D01*
X162307000Y-108281000D01*
X162312000Y-108277000D01*
X162316000Y-108272000D01*
X162321000Y-108268000D01*
X162327000Y-108264000D01*
X162332000Y-108260000D01*
X162338000Y-108257000D01*
X162343000Y-108254000D01*
X162349000Y-108251000D01*
X162355000Y-108248000D01*
X162361000Y-108246000D01*
X162368000Y-108244000D01*
X162374000Y-108243000D01*
X162380000Y-108242000D01*
X162387000Y-108241000D01*
X162393000Y-108240000D01*
X162400000Y-108240000D01*
X162600000Y-108240000D01*
X162607000Y-108240000D01*
X162613000Y-108241000D01*
G37*
X162400000Y-110070000D02*
X162600000Y-110070000D01*
X162607000Y-110070000D01*
X162613000Y-110071000D01*
X162620000Y-110072000D01*
X162626000Y-110073000D01*
X162632000Y-110074000D01*
X162639000Y-110076000D01*
X162645000Y-110078000D01*
X162651000Y-110081000D01*
X162657000Y-110084000D01*
X162662000Y-110087000D01*
X162668000Y-110090000D01*
X162673000Y-110094000D01*
X162679000Y-110098000D01*
X162684000Y-110102000D01*
X162688000Y-110107000D01*
X162693000Y-110111000D01*
X162697000Y-110116000D01*
X162701000Y-110122000D01*
X162705000Y-110127000D01*
X162708000Y-110132000D01*
X162711000Y-110138000D01*
X162714000Y-110144000D01*
X162717000Y-110150000D01*
X162719000Y-110156000D01*
X162721000Y-110163000D01*
X162722000Y-110169000D01*
X162723000Y-110175000D01*
X162724000Y-110182000D01*
X162725000Y-110188000D01*
X162725000Y-110195000D01*
X162725000Y-110635000D01*
X162725000Y-110642000D01*
X162724000Y-110648000D01*
X162723000Y-110655000D01*
X162722000Y-110661000D01*
X162721000Y-110667000D01*
X162719000Y-110674000D01*
X162717000Y-110680000D01*
X162714000Y-110686000D01*
X162711000Y-110692000D01*
X162708000Y-110698000D01*
X162705000Y-110703000D01*
X162701000Y-110708000D01*
X162697000Y-110714000D01*
X162693000Y-110719000D01*
X162688000Y-110723000D01*
X162684000Y-110728000D01*
X162679000Y-110732000D01*
X162673000Y-110736000D01*
X162668000Y-110740000D01*
X162662000Y-110743000D01*
X162657000Y-110746000D01*
X162651000Y-110749000D01*
X162645000Y-110752000D01*
X162639000Y-110754000D01*
X162632000Y-110756000D01*
X162626000Y-110757000D01*
X162620000Y-110758000D01*
X162613000Y-110759000D01*
X162607000Y-110760000D01*
X162600000Y-110760000D01*
X162400000Y-110760000D01*
X162393000Y-110760000D01*
X162387000Y-110759000D01*
X162380000Y-110758000D01*
X162374000Y-110757000D01*
X162368000Y-110756000D01*
X162361000Y-110754000D01*
X162355000Y-110752000D01*
X162349000Y-110749000D01*
X162343000Y-110746000D01*
X162337000Y-110743000D01*
X162332000Y-110740000D01*
X162327000Y-110736000D01*
X162321000Y-110732000D01*
X162316000Y-110728000D01*
X162312000Y-110723000D01*
X162307000Y-110719000D01*
X162303000Y-110714000D01*
X162299000Y-110708000D01*
X162295000Y-110703000D01*
X162292000Y-110698000D01*
X162289000Y-110692000D01*
X162286000Y-110686000D01*
X162283000Y-110680000D01*
X162281000Y-110674000D01*
X162279000Y-110667000D01*
X162278000Y-110661000D01*
X162277000Y-110655000D01*
X162276000Y-110648000D01*
X162275000Y-110642000D01*
X162275000Y-110635000D01*
X162275000Y-110195000D01*
X162275000Y-110188000D01*
X162276000Y-110182000D01*
X162277000Y-110175000D01*
X162278000Y-110169000D01*
X162279000Y-110163000D01*
X162281000Y-110156000D01*
X162283000Y-110150000D01*
X162286000Y-110144000D01*
X162289000Y-110138000D01*
X162292000Y-110132000D01*
X162295000Y-110127000D01*
X162299000Y-110122000D01*
X162303000Y-110116000D01*
X162307000Y-110111000D01*
X162312000Y-110107000D01*
X162316000Y-110102000D01*
X162321000Y-110098000D01*
X162327000Y-110094000D01*
X162332000Y-110090000D01*
X162338000Y-110087000D01*
X162343000Y-110084000D01*
X162349000Y-110081000D01*
X162355000Y-110078000D01*
X162361000Y-110076000D01*
X162368000Y-110074000D01*
X162374000Y-110073000D01*
X162380000Y-110072000D01*
X162387000Y-110071000D01*
X162393000Y-110070000D01*
X162400000Y-110070000D01*
G36*
X162613000Y-110071000D02*
G01*
X162620000Y-110072000D01*
X162626000Y-110073000D01*
X162632000Y-110074000D01*
X162639000Y-110076000D01*
X162645000Y-110078000D01*
X162651000Y-110081000D01*
X162657000Y-110084000D01*
X162662000Y-110087000D01*
X162668000Y-110090000D01*
X162673000Y-110094000D01*
X162679000Y-110098000D01*
X162684000Y-110102000D01*
X162688000Y-110107000D01*
X162693000Y-110111000D01*
X162697000Y-110116000D01*
X162701000Y-110122000D01*
X162705000Y-110127000D01*
X162708000Y-110132000D01*
X162711000Y-110138000D01*
X162714000Y-110144000D01*
X162717000Y-110150000D01*
X162719000Y-110156000D01*
X162721000Y-110163000D01*
X162722000Y-110169000D01*
X162723000Y-110175000D01*
X162724000Y-110182000D01*
X162725000Y-110188000D01*
X162725000Y-110195000D01*
X162725000Y-110635000D01*
X162725000Y-110642000D01*
X162724000Y-110648000D01*
X162723000Y-110655000D01*
X162722000Y-110661000D01*
X162721000Y-110667000D01*
X162719000Y-110674000D01*
X162717000Y-110680000D01*
X162714000Y-110686000D01*
X162711000Y-110692000D01*
X162708000Y-110698000D01*
X162705000Y-110703000D01*
X162701000Y-110708000D01*
X162697000Y-110714000D01*
X162693000Y-110719000D01*
X162688000Y-110723000D01*
X162684000Y-110728000D01*
X162679000Y-110732000D01*
X162673000Y-110736000D01*
X162668000Y-110740000D01*
X162662000Y-110743000D01*
X162657000Y-110746000D01*
X162651000Y-110749000D01*
X162645000Y-110752000D01*
X162639000Y-110754000D01*
X162632000Y-110756000D01*
X162626000Y-110757000D01*
X162620000Y-110758000D01*
X162613000Y-110759000D01*
X162607000Y-110760000D01*
X162600000Y-110760000D01*
X162400000Y-110760000D01*
X162393000Y-110760000D01*
X162387000Y-110759000D01*
X162380000Y-110758000D01*
X162374000Y-110757000D01*
X162368000Y-110756000D01*
X162361000Y-110754000D01*
X162355000Y-110752000D01*
X162349000Y-110749000D01*
X162343000Y-110746000D01*
X162337000Y-110743000D01*
X162332000Y-110740000D01*
X162327000Y-110736000D01*
X162321000Y-110732000D01*
X162316000Y-110728000D01*
X162312000Y-110723000D01*
X162307000Y-110719000D01*
X162303000Y-110714000D01*
X162299000Y-110708000D01*
X162295000Y-110703000D01*
X162292000Y-110698000D01*
X162289000Y-110692000D01*
X162286000Y-110686000D01*
X162283000Y-110680000D01*
X162281000Y-110674000D01*
X162279000Y-110667000D01*
X162278000Y-110661000D01*
X162277000Y-110655000D01*
X162276000Y-110648000D01*
X162275000Y-110642000D01*
X162275000Y-110635000D01*
X162275000Y-110195000D01*
X162275000Y-110188000D01*
X162276000Y-110182000D01*
X162277000Y-110175000D01*
X162278000Y-110169000D01*
X162279000Y-110163000D01*
X162281000Y-110156000D01*
X162283000Y-110150000D01*
X162286000Y-110144000D01*
X162289000Y-110138000D01*
X162292000Y-110132000D01*
X162295000Y-110127000D01*
X162299000Y-110122000D01*
X162303000Y-110116000D01*
X162307000Y-110111000D01*
X162312000Y-110107000D01*
X162316000Y-110102000D01*
X162321000Y-110098000D01*
X162327000Y-110094000D01*
X162332000Y-110090000D01*
X162338000Y-110087000D01*
X162343000Y-110084000D01*
X162349000Y-110081000D01*
X162355000Y-110078000D01*
X162361000Y-110076000D01*
X162368000Y-110074000D01*
X162374000Y-110073000D01*
X162380000Y-110072000D01*
X162387000Y-110071000D01*
X162393000Y-110070000D01*
X162400000Y-110070000D01*
X162600000Y-110070000D01*
X162607000Y-110070000D01*
X162613000Y-110071000D01*
G37*
X163510000Y-108650000D02*
X163510000Y-108850000D01*
X163510000Y-108857000D01*
X163509000Y-108863000D01*
X163508000Y-108870000D01*
X163507000Y-108876000D01*
X163506000Y-108882000D01*
X163504000Y-108889000D01*
X163502000Y-108895000D01*
X163499000Y-108901000D01*
X163496000Y-108907000D01*
X163493000Y-108912000D01*
X163490000Y-108918000D01*
X163486000Y-108923000D01*
X163482000Y-108929000D01*
X163478000Y-108934000D01*
X163473000Y-108938000D01*
X163469000Y-108943000D01*
X163464000Y-108947000D01*
X163458000Y-108951000D01*
X163453000Y-108955000D01*
X163448000Y-108958000D01*
X163442000Y-108961000D01*
X163436000Y-108964000D01*
X163430000Y-108967000D01*
X163424000Y-108969000D01*
X163417000Y-108971000D01*
X163411000Y-108972000D01*
X163405000Y-108973000D01*
X163398000Y-108974000D01*
X163392000Y-108975000D01*
X163385000Y-108975000D01*
X162945000Y-108975000D01*
X162938000Y-108975000D01*
X162932000Y-108974000D01*
X162925000Y-108973000D01*
X162919000Y-108972000D01*
X162913000Y-108971000D01*
X162906000Y-108969000D01*
X162900000Y-108967000D01*
X162894000Y-108964000D01*
X162888000Y-108961000D01*
X162882000Y-108958000D01*
X162877000Y-108955000D01*
X162872000Y-108951000D01*
X162866000Y-108947000D01*
X162861000Y-108943000D01*
X162857000Y-108938000D01*
X162852000Y-108934000D01*
X162848000Y-108929000D01*
X162844000Y-108923000D01*
X162840000Y-108918000D01*
X162837000Y-108912000D01*
X162834000Y-108907000D01*
X162831000Y-108901000D01*
X162828000Y-108895000D01*
X162826000Y-108889000D01*
X162824000Y-108882000D01*
X162823000Y-108876000D01*
X162822000Y-108870000D01*
X162821000Y-108863000D01*
X162820000Y-108857000D01*
X162820000Y-108850000D01*
X162820000Y-108650000D01*
X162820000Y-108643000D01*
X162821000Y-108637000D01*
X162822000Y-108630000D01*
X162823000Y-108624000D01*
X162824000Y-108618000D01*
X162826000Y-108611000D01*
X162828000Y-108605000D01*
X162831000Y-108599000D01*
X162834000Y-108593000D01*
X162837000Y-108588000D01*
X162840000Y-108582000D01*
X162844000Y-108577000D01*
X162848000Y-108571000D01*
X162852000Y-108566000D01*
X162857000Y-108562000D01*
X162861000Y-108557000D01*
X162866000Y-108553000D01*
X162872000Y-108549000D01*
X162877000Y-108545000D01*
X162882000Y-108542000D01*
X162888000Y-108539000D01*
X162894000Y-108536000D01*
X162900000Y-108533000D01*
X162906000Y-108531000D01*
X162913000Y-108529000D01*
X162919000Y-108528000D01*
X162925000Y-108527000D01*
X162932000Y-108526000D01*
X162938000Y-108525000D01*
X162945000Y-108525000D01*
X163385000Y-108525000D01*
X163392000Y-108525000D01*
X163398000Y-108526000D01*
X163405000Y-108527000D01*
X163411000Y-108528000D01*
X163417000Y-108529000D01*
X163424000Y-108531000D01*
X163430000Y-108533000D01*
X163436000Y-108536000D01*
X163442000Y-108539000D01*
X163448000Y-108542000D01*
X163453000Y-108545000D01*
X163458000Y-108549000D01*
X163464000Y-108553000D01*
X163469000Y-108557000D01*
X163473000Y-108562000D01*
X163478000Y-108566000D01*
X163482000Y-108571000D01*
X163486000Y-108577000D01*
X163490000Y-108582000D01*
X163493000Y-108588000D01*
X163496000Y-108593000D01*
X163499000Y-108599000D01*
X163502000Y-108605000D01*
X163504000Y-108611000D01*
X163506000Y-108618000D01*
X163507000Y-108624000D01*
X163508000Y-108630000D01*
X163509000Y-108637000D01*
X163510000Y-108643000D01*
X163510000Y-108650000D01*
G36*
X163398000Y-108526000D02*
G01*
X163405000Y-108527000D01*
X163411000Y-108528000D01*
X163417000Y-108529000D01*
X163424000Y-108531000D01*
X163430000Y-108533000D01*
X163436000Y-108536000D01*
X163442000Y-108539000D01*
X163448000Y-108542000D01*
X163453000Y-108545000D01*
X163458000Y-108549000D01*
X163464000Y-108553000D01*
X163469000Y-108557000D01*
X163473000Y-108562000D01*
X163478000Y-108566000D01*
X163482000Y-108571000D01*
X163486000Y-108577000D01*
X163490000Y-108582000D01*
X163493000Y-108588000D01*
X163496000Y-108593000D01*
X163499000Y-108599000D01*
X163502000Y-108605000D01*
X163504000Y-108611000D01*
X163506000Y-108618000D01*
X163507000Y-108624000D01*
X163508000Y-108630000D01*
X163509000Y-108637000D01*
X163510000Y-108643000D01*
X163510000Y-108650000D01*
X163510000Y-108850000D01*
X163510000Y-108857000D01*
X163509000Y-108863000D01*
X163508000Y-108870000D01*
X163507000Y-108876000D01*
X163506000Y-108882000D01*
X163504000Y-108889000D01*
X163502000Y-108895000D01*
X163499000Y-108901000D01*
X163496000Y-108907000D01*
X163493000Y-108912000D01*
X163490000Y-108918000D01*
X163486000Y-108923000D01*
X163482000Y-108929000D01*
X163478000Y-108934000D01*
X163473000Y-108938000D01*
X163469000Y-108943000D01*
X163464000Y-108947000D01*
X163458000Y-108951000D01*
X163453000Y-108955000D01*
X163448000Y-108958000D01*
X163442000Y-108961000D01*
X163436000Y-108964000D01*
X163430000Y-108967000D01*
X163424000Y-108969000D01*
X163417000Y-108971000D01*
X163411000Y-108972000D01*
X163405000Y-108973000D01*
X163398000Y-108974000D01*
X163392000Y-108975000D01*
X163385000Y-108975000D01*
X162945000Y-108975000D01*
X162938000Y-108975000D01*
X162932000Y-108974000D01*
X162925000Y-108973000D01*
X162919000Y-108972000D01*
X162913000Y-108971000D01*
X162906000Y-108969000D01*
X162900000Y-108967000D01*
X162894000Y-108964000D01*
X162888000Y-108961000D01*
X162882000Y-108958000D01*
X162877000Y-108955000D01*
X162872000Y-108951000D01*
X162866000Y-108947000D01*
X162861000Y-108943000D01*
X162857000Y-108938000D01*
X162852000Y-108934000D01*
X162848000Y-108929000D01*
X162844000Y-108923000D01*
X162840000Y-108918000D01*
X162837000Y-108912000D01*
X162834000Y-108907000D01*
X162831000Y-108901000D01*
X162828000Y-108895000D01*
X162826000Y-108889000D01*
X162824000Y-108882000D01*
X162823000Y-108876000D01*
X162822000Y-108870000D01*
X162821000Y-108863000D01*
X162820000Y-108857000D01*
X162820000Y-108850000D01*
X162820000Y-108650000D01*
X162820000Y-108643000D01*
X162821000Y-108637000D01*
X162822000Y-108630000D01*
X162823000Y-108624000D01*
X162824000Y-108618000D01*
X162826000Y-108611000D01*
X162828000Y-108605000D01*
X162831000Y-108599000D01*
X162834000Y-108593000D01*
X162837000Y-108588000D01*
X162840000Y-108582000D01*
X162844000Y-108577000D01*
X162848000Y-108571000D01*
X162852000Y-108566000D01*
X162857000Y-108562000D01*
X162861000Y-108557000D01*
X162866000Y-108553000D01*
X162872000Y-108549000D01*
X162877000Y-108545000D01*
X162882000Y-108542000D01*
X162888000Y-108539000D01*
X162894000Y-108536000D01*
X162900000Y-108533000D01*
X162906000Y-108531000D01*
X162913000Y-108529000D01*
X162919000Y-108528000D01*
X162925000Y-108527000D01*
X162932000Y-108526000D01*
X162938000Y-108525000D01*
X162945000Y-108525000D01*
X163385000Y-108525000D01*
X163392000Y-108525000D01*
X163398000Y-108526000D01*
G37*
X163510000Y-109150000D02*
X163510000Y-109350000D01*
X163510000Y-109357000D01*
X163509000Y-109363000D01*
X163508000Y-109370000D01*
X163507000Y-109376000D01*
X163506000Y-109382000D01*
X163504000Y-109389000D01*
X163502000Y-109395000D01*
X163499000Y-109401000D01*
X163496000Y-109407000D01*
X163493000Y-109412000D01*
X163490000Y-109418000D01*
X163486000Y-109423000D01*
X163482000Y-109429000D01*
X163478000Y-109434000D01*
X163473000Y-109438000D01*
X163469000Y-109443000D01*
X163464000Y-109447000D01*
X163458000Y-109451000D01*
X163453000Y-109455000D01*
X163448000Y-109458000D01*
X163442000Y-109461000D01*
X163436000Y-109464000D01*
X163430000Y-109467000D01*
X163424000Y-109469000D01*
X163417000Y-109471000D01*
X163411000Y-109472000D01*
X163405000Y-109473000D01*
X163398000Y-109474000D01*
X163392000Y-109475000D01*
X163385000Y-109475000D01*
X162945000Y-109475000D01*
X162938000Y-109475000D01*
X162932000Y-109474000D01*
X162925000Y-109473000D01*
X162919000Y-109472000D01*
X162913000Y-109471000D01*
X162906000Y-109469000D01*
X162900000Y-109467000D01*
X162894000Y-109464000D01*
X162888000Y-109461000D01*
X162882000Y-109458000D01*
X162877000Y-109455000D01*
X162872000Y-109451000D01*
X162866000Y-109447000D01*
X162861000Y-109443000D01*
X162857000Y-109438000D01*
X162852000Y-109434000D01*
X162848000Y-109429000D01*
X162844000Y-109423000D01*
X162840000Y-109418000D01*
X162837000Y-109412000D01*
X162834000Y-109407000D01*
X162831000Y-109401000D01*
X162828000Y-109395000D01*
X162826000Y-109389000D01*
X162824000Y-109382000D01*
X162823000Y-109376000D01*
X162822000Y-109370000D01*
X162821000Y-109363000D01*
X162820000Y-109357000D01*
X162820000Y-109350000D01*
X162820000Y-109150000D01*
X162820000Y-109143000D01*
X162821000Y-109137000D01*
X162822000Y-109130000D01*
X162823000Y-109124000D01*
X162824000Y-109118000D01*
X162826000Y-109111000D01*
X162828000Y-109105000D01*
X162831000Y-109099000D01*
X162834000Y-109093000D01*
X162837000Y-109088000D01*
X162840000Y-109082000D01*
X162844000Y-109077000D01*
X162848000Y-109071000D01*
X162852000Y-109066000D01*
X162857000Y-109062000D01*
X162861000Y-109057000D01*
X162866000Y-109053000D01*
X162872000Y-109049000D01*
X162877000Y-109045000D01*
X162882000Y-109042000D01*
X162888000Y-109039000D01*
X162894000Y-109036000D01*
X162900000Y-109033000D01*
X162906000Y-109031000D01*
X162913000Y-109029000D01*
X162919000Y-109028000D01*
X162925000Y-109027000D01*
X162932000Y-109026000D01*
X162938000Y-109025000D01*
X162945000Y-109025000D01*
X163385000Y-109025000D01*
X163392000Y-109025000D01*
X163398000Y-109026000D01*
X163405000Y-109027000D01*
X163411000Y-109028000D01*
X163417000Y-109029000D01*
X163424000Y-109031000D01*
X163430000Y-109033000D01*
X163436000Y-109036000D01*
X163442000Y-109039000D01*
X163448000Y-109042000D01*
X163453000Y-109045000D01*
X163458000Y-109049000D01*
X163464000Y-109053000D01*
X163469000Y-109057000D01*
X163473000Y-109062000D01*
X163478000Y-109066000D01*
X163482000Y-109071000D01*
X163486000Y-109077000D01*
X163490000Y-109082000D01*
X163493000Y-109088000D01*
X163496000Y-109093000D01*
X163499000Y-109099000D01*
X163502000Y-109105000D01*
X163504000Y-109111000D01*
X163506000Y-109118000D01*
X163507000Y-109124000D01*
X163508000Y-109130000D01*
X163509000Y-109137000D01*
X163510000Y-109143000D01*
X163510000Y-109150000D01*
G36*
X163398000Y-109026000D02*
G01*
X163405000Y-109027000D01*
X163411000Y-109028000D01*
X163417000Y-109029000D01*
X163424000Y-109031000D01*
X163430000Y-109033000D01*
X163436000Y-109036000D01*
X163442000Y-109039000D01*
X163448000Y-109042000D01*
X163453000Y-109045000D01*
X163458000Y-109049000D01*
X163464000Y-109053000D01*
X163469000Y-109057000D01*
X163473000Y-109062000D01*
X163478000Y-109066000D01*
X163482000Y-109071000D01*
X163486000Y-109077000D01*
X163490000Y-109082000D01*
X163493000Y-109088000D01*
X163496000Y-109093000D01*
X163499000Y-109099000D01*
X163502000Y-109105000D01*
X163504000Y-109111000D01*
X163506000Y-109118000D01*
X163507000Y-109124000D01*
X163508000Y-109130000D01*
X163509000Y-109137000D01*
X163510000Y-109143000D01*
X163510000Y-109150000D01*
X163510000Y-109350000D01*
X163510000Y-109357000D01*
X163509000Y-109363000D01*
X163508000Y-109370000D01*
X163507000Y-109376000D01*
X163506000Y-109382000D01*
X163504000Y-109389000D01*
X163502000Y-109395000D01*
X163499000Y-109401000D01*
X163496000Y-109407000D01*
X163493000Y-109412000D01*
X163490000Y-109418000D01*
X163486000Y-109423000D01*
X163482000Y-109429000D01*
X163478000Y-109434000D01*
X163473000Y-109438000D01*
X163469000Y-109443000D01*
X163464000Y-109447000D01*
X163458000Y-109451000D01*
X163453000Y-109455000D01*
X163448000Y-109458000D01*
X163442000Y-109461000D01*
X163436000Y-109464000D01*
X163430000Y-109467000D01*
X163424000Y-109469000D01*
X163417000Y-109471000D01*
X163411000Y-109472000D01*
X163405000Y-109473000D01*
X163398000Y-109474000D01*
X163392000Y-109475000D01*
X163385000Y-109475000D01*
X162945000Y-109475000D01*
X162938000Y-109475000D01*
X162932000Y-109474000D01*
X162925000Y-109473000D01*
X162919000Y-109472000D01*
X162913000Y-109471000D01*
X162906000Y-109469000D01*
X162900000Y-109467000D01*
X162894000Y-109464000D01*
X162888000Y-109461000D01*
X162882000Y-109458000D01*
X162877000Y-109455000D01*
X162872000Y-109451000D01*
X162866000Y-109447000D01*
X162861000Y-109443000D01*
X162857000Y-109438000D01*
X162852000Y-109434000D01*
X162848000Y-109429000D01*
X162844000Y-109423000D01*
X162840000Y-109418000D01*
X162837000Y-109412000D01*
X162834000Y-109407000D01*
X162831000Y-109401000D01*
X162828000Y-109395000D01*
X162826000Y-109389000D01*
X162824000Y-109382000D01*
X162823000Y-109376000D01*
X162822000Y-109370000D01*
X162821000Y-109363000D01*
X162820000Y-109357000D01*
X162820000Y-109350000D01*
X162820000Y-109150000D01*
X162820000Y-109143000D01*
X162821000Y-109137000D01*
X162822000Y-109130000D01*
X162823000Y-109124000D01*
X162824000Y-109118000D01*
X162826000Y-109111000D01*
X162828000Y-109105000D01*
X162831000Y-109099000D01*
X162834000Y-109093000D01*
X162837000Y-109088000D01*
X162840000Y-109082000D01*
X162844000Y-109077000D01*
X162848000Y-109071000D01*
X162852000Y-109066000D01*
X162857000Y-109062000D01*
X162861000Y-109057000D01*
X162866000Y-109053000D01*
X162872000Y-109049000D01*
X162877000Y-109045000D01*
X162882000Y-109042000D01*
X162888000Y-109039000D01*
X162894000Y-109036000D01*
X162900000Y-109033000D01*
X162906000Y-109031000D01*
X162913000Y-109029000D01*
X162919000Y-109028000D01*
X162925000Y-109027000D01*
X162932000Y-109026000D01*
X162938000Y-109025000D01*
X162945000Y-109025000D01*
X163385000Y-109025000D01*
X163392000Y-109025000D01*
X163398000Y-109026000D01*
G37*
X163510000Y-109650000D02*
X163510000Y-109850000D01*
X163510000Y-109857000D01*
X163509000Y-109863000D01*
X163508000Y-109870000D01*
X163507000Y-109876000D01*
X163506000Y-109882000D01*
X163504000Y-109889000D01*
X163502000Y-109895000D01*
X163499000Y-109901000D01*
X163496000Y-109907000D01*
X163493000Y-109912000D01*
X163490000Y-109918000D01*
X163486000Y-109923000D01*
X163482000Y-109929000D01*
X163478000Y-109934000D01*
X163473000Y-109938000D01*
X163469000Y-109943000D01*
X163464000Y-109947000D01*
X163458000Y-109951000D01*
X163453000Y-109955000D01*
X163448000Y-109958000D01*
X163442000Y-109961000D01*
X163436000Y-109964000D01*
X163430000Y-109967000D01*
X163424000Y-109969000D01*
X163417000Y-109971000D01*
X163411000Y-109972000D01*
X163405000Y-109973000D01*
X163398000Y-109974000D01*
X163392000Y-109975000D01*
X163385000Y-109975000D01*
X162945000Y-109975000D01*
X162938000Y-109975000D01*
X162932000Y-109974000D01*
X162925000Y-109973000D01*
X162919000Y-109972000D01*
X162913000Y-109971000D01*
X162906000Y-109969000D01*
X162900000Y-109967000D01*
X162894000Y-109964000D01*
X162888000Y-109961000D01*
X162882000Y-109958000D01*
X162877000Y-109955000D01*
X162872000Y-109951000D01*
X162866000Y-109947000D01*
X162861000Y-109943000D01*
X162857000Y-109938000D01*
X162852000Y-109934000D01*
X162848000Y-109929000D01*
X162844000Y-109923000D01*
X162840000Y-109918000D01*
X162837000Y-109912000D01*
X162834000Y-109907000D01*
X162831000Y-109901000D01*
X162828000Y-109895000D01*
X162826000Y-109889000D01*
X162824000Y-109882000D01*
X162823000Y-109876000D01*
X162822000Y-109870000D01*
X162821000Y-109863000D01*
X162820000Y-109857000D01*
X162820000Y-109850000D01*
X162820000Y-109650000D01*
X162820000Y-109643000D01*
X162821000Y-109637000D01*
X162822000Y-109630000D01*
X162823000Y-109624000D01*
X162824000Y-109618000D01*
X162826000Y-109611000D01*
X162828000Y-109605000D01*
X162831000Y-109599000D01*
X162834000Y-109593000D01*
X162837000Y-109588000D01*
X162840000Y-109582000D01*
X162844000Y-109577000D01*
X162848000Y-109571000D01*
X162852000Y-109566000D01*
X162857000Y-109562000D01*
X162861000Y-109557000D01*
X162866000Y-109553000D01*
X162872000Y-109549000D01*
X162877000Y-109545000D01*
X162882000Y-109542000D01*
X162888000Y-109539000D01*
X162894000Y-109536000D01*
X162900000Y-109533000D01*
X162906000Y-109531000D01*
X162913000Y-109529000D01*
X162919000Y-109528000D01*
X162925000Y-109527000D01*
X162932000Y-109526000D01*
X162938000Y-109525000D01*
X162945000Y-109525000D01*
X163385000Y-109525000D01*
X163392000Y-109525000D01*
X163398000Y-109526000D01*
X163405000Y-109527000D01*
X163411000Y-109528000D01*
X163417000Y-109529000D01*
X163424000Y-109531000D01*
X163430000Y-109533000D01*
X163436000Y-109536000D01*
X163442000Y-109539000D01*
X163448000Y-109542000D01*
X163453000Y-109545000D01*
X163458000Y-109549000D01*
X163464000Y-109553000D01*
X163469000Y-109557000D01*
X163473000Y-109562000D01*
X163478000Y-109566000D01*
X163482000Y-109571000D01*
X163486000Y-109577000D01*
X163490000Y-109582000D01*
X163493000Y-109588000D01*
X163496000Y-109593000D01*
X163499000Y-109599000D01*
X163502000Y-109605000D01*
X163504000Y-109611000D01*
X163506000Y-109618000D01*
X163507000Y-109624000D01*
X163508000Y-109630000D01*
X163509000Y-109637000D01*
X163510000Y-109643000D01*
X163510000Y-109650000D01*
G36*
X163398000Y-109526000D02*
G01*
X163405000Y-109527000D01*
X163411000Y-109528000D01*
X163417000Y-109529000D01*
X163424000Y-109531000D01*
X163430000Y-109533000D01*
X163436000Y-109536000D01*
X163442000Y-109539000D01*
X163448000Y-109542000D01*
X163453000Y-109545000D01*
X163458000Y-109549000D01*
X163464000Y-109553000D01*
X163469000Y-109557000D01*
X163473000Y-109562000D01*
X163478000Y-109566000D01*
X163482000Y-109571000D01*
X163486000Y-109577000D01*
X163490000Y-109582000D01*
X163493000Y-109588000D01*
X163496000Y-109593000D01*
X163499000Y-109599000D01*
X163502000Y-109605000D01*
X163504000Y-109611000D01*
X163506000Y-109618000D01*
X163507000Y-109624000D01*
X163508000Y-109630000D01*
X163509000Y-109637000D01*
X163510000Y-109643000D01*
X163510000Y-109650000D01*
X163510000Y-109850000D01*
X163510000Y-109857000D01*
X163509000Y-109863000D01*
X163508000Y-109870000D01*
X163507000Y-109876000D01*
X163506000Y-109882000D01*
X163504000Y-109889000D01*
X163502000Y-109895000D01*
X163499000Y-109901000D01*
X163496000Y-109907000D01*
X163493000Y-109912000D01*
X163490000Y-109918000D01*
X163486000Y-109923000D01*
X163482000Y-109929000D01*
X163478000Y-109934000D01*
X163473000Y-109938000D01*
X163469000Y-109943000D01*
X163464000Y-109947000D01*
X163458000Y-109951000D01*
X163453000Y-109955000D01*
X163448000Y-109958000D01*
X163442000Y-109961000D01*
X163436000Y-109964000D01*
X163430000Y-109967000D01*
X163424000Y-109969000D01*
X163417000Y-109971000D01*
X163411000Y-109972000D01*
X163405000Y-109973000D01*
X163398000Y-109974000D01*
X163392000Y-109975000D01*
X163385000Y-109975000D01*
X162945000Y-109975000D01*
X162938000Y-109975000D01*
X162932000Y-109974000D01*
X162925000Y-109973000D01*
X162919000Y-109972000D01*
X162913000Y-109971000D01*
X162906000Y-109969000D01*
X162900000Y-109967000D01*
X162894000Y-109964000D01*
X162888000Y-109961000D01*
X162882000Y-109958000D01*
X162877000Y-109955000D01*
X162872000Y-109951000D01*
X162866000Y-109947000D01*
X162861000Y-109943000D01*
X162857000Y-109938000D01*
X162852000Y-109934000D01*
X162848000Y-109929000D01*
X162844000Y-109923000D01*
X162840000Y-109918000D01*
X162837000Y-109912000D01*
X162834000Y-109907000D01*
X162831000Y-109901000D01*
X162828000Y-109895000D01*
X162826000Y-109889000D01*
X162824000Y-109882000D01*
X162823000Y-109876000D01*
X162822000Y-109870000D01*
X162821000Y-109863000D01*
X162820000Y-109857000D01*
X162820000Y-109850000D01*
X162820000Y-109650000D01*
X162820000Y-109643000D01*
X162821000Y-109637000D01*
X162822000Y-109630000D01*
X162823000Y-109624000D01*
X162824000Y-109618000D01*
X162826000Y-109611000D01*
X162828000Y-109605000D01*
X162831000Y-109599000D01*
X162834000Y-109593000D01*
X162837000Y-109588000D01*
X162840000Y-109582000D01*
X162844000Y-109577000D01*
X162848000Y-109571000D01*
X162852000Y-109566000D01*
X162857000Y-109562000D01*
X162861000Y-109557000D01*
X162866000Y-109553000D01*
X162872000Y-109549000D01*
X162877000Y-109545000D01*
X162882000Y-109542000D01*
X162888000Y-109539000D01*
X162894000Y-109536000D01*
X162900000Y-109533000D01*
X162906000Y-109531000D01*
X162913000Y-109529000D01*
X162919000Y-109528000D01*
X162925000Y-109527000D01*
X162932000Y-109526000D01*
X162938000Y-109525000D01*
X162945000Y-109525000D01*
X163385000Y-109525000D01*
X163392000Y-109525000D01*
X163398000Y-109526000D01*
G37*
X163510000Y-110150000D02*
X163510000Y-110350000D01*
X163510000Y-110357000D01*
X163509000Y-110363000D01*
X163508000Y-110370000D01*
X163507000Y-110376000D01*
X163506000Y-110382000D01*
X163504000Y-110389000D01*
X163502000Y-110395000D01*
X163499000Y-110401000D01*
X163496000Y-110407000D01*
X163493000Y-110412000D01*
X163490000Y-110418000D01*
X163486000Y-110423000D01*
X163482000Y-110429000D01*
X163478000Y-110434000D01*
X163473000Y-110438000D01*
X163469000Y-110443000D01*
X163464000Y-110447000D01*
X163458000Y-110451000D01*
X163453000Y-110455000D01*
X163448000Y-110458000D01*
X163442000Y-110461000D01*
X163436000Y-110464000D01*
X163430000Y-110467000D01*
X163424000Y-110469000D01*
X163417000Y-110471000D01*
X163411000Y-110472000D01*
X163405000Y-110473000D01*
X163398000Y-110474000D01*
X163392000Y-110475000D01*
X163385000Y-110475000D01*
X162945000Y-110475000D01*
X162938000Y-110475000D01*
X162932000Y-110474000D01*
X162925000Y-110473000D01*
X162919000Y-110472000D01*
X162913000Y-110471000D01*
X162906000Y-110469000D01*
X162900000Y-110467000D01*
X162894000Y-110464000D01*
X162888000Y-110461000D01*
X162882000Y-110458000D01*
X162877000Y-110455000D01*
X162872000Y-110451000D01*
X162866000Y-110447000D01*
X162861000Y-110443000D01*
X162857000Y-110438000D01*
X162852000Y-110434000D01*
X162848000Y-110429000D01*
X162844000Y-110423000D01*
X162840000Y-110418000D01*
X162837000Y-110412000D01*
X162834000Y-110407000D01*
X162831000Y-110401000D01*
X162828000Y-110395000D01*
X162826000Y-110389000D01*
X162824000Y-110382000D01*
X162823000Y-110376000D01*
X162822000Y-110370000D01*
X162821000Y-110363000D01*
X162820000Y-110357000D01*
X162820000Y-110350000D01*
X162820000Y-110150000D01*
X162820000Y-110143000D01*
X162821000Y-110137000D01*
X162822000Y-110130000D01*
X162823000Y-110124000D01*
X162824000Y-110118000D01*
X162826000Y-110111000D01*
X162828000Y-110105000D01*
X162831000Y-110099000D01*
X162834000Y-110093000D01*
X162837000Y-110088000D01*
X162840000Y-110082000D01*
X162844000Y-110077000D01*
X162848000Y-110071000D01*
X162852000Y-110066000D01*
X162857000Y-110062000D01*
X162861000Y-110057000D01*
X162866000Y-110053000D01*
X162872000Y-110049000D01*
X162877000Y-110045000D01*
X162882000Y-110042000D01*
X162888000Y-110039000D01*
X162894000Y-110036000D01*
X162900000Y-110033000D01*
X162906000Y-110031000D01*
X162913000Y-110029000D01*
X162919000Y-110028000D01*
X162925000Y-110027000D01*
X162932000Y-110026000D01*
X162938000Y-110025000D01*
X162945000Y-110025000D01*
X163385000Y-110025000D01*
X163392000Y-110025000D01*
X163398000Y-110026000D01*
X163405000Y-110027000D01*
X163411000Y-110028000D01*
X163417000Y-110029000D01*
X163424000Y-110031000D01*
X163430000Y-110033000D01*
X163436000Y-110036000D01*
X163442000Y-110039000D01*
X163448000Y-110042000D01*
X163453000Y-110045000D01*
X163458000Y-110049000D01*
X163464000Y-110053000D01*
X163469000Y-110057000D01*
X163473000Y-110062000D01*
X163478000Y-110066000D01*
X163482000Y-110071000D01*
X163486000Y-110077000D01*
X163490000Y-110082000D01*
X163493000Y-110088000D01*
X163496000Y-110093000D01*
X163499000Y-110099000D01*
X163502000Y-110105000D01*
X163504000Y-110111000D01*
X163506000Y-110118000D01*
X163507000Y-110124000D01*
X163508000Y-110130000D01*
X163509000Y-110137000D01*
X163510000Y-110143000D01*
X163510000Y-110150000D01*
G36*
X163398000Y-110026000D02*
G01*
X163405000Y-110027000D01*
X163411000Y-110028000D01*
X163417000Y-110029000D01*
X163424000Y-110031000D01*
X163430000Y-110033000D01*
X163436000Y-110036000D01*
X163442000Y-110039000D01*
X163448000Y-110042000D01*
X163453000Y-110045000D01*
X163458000Y-110049000D01*
X163464000Y-110053000D01*
X163469000Y-110057000D01*
X163473000Y-110062000D01*
X163478000Y-110066000D01*
X163482000Y-110071000D01*
X163486000Y-110077000D01*
X163490000Y-110082000D01*
X163493000Y-110088000D01*
X163496000Y-110093000D01*
X163499000Y-110099000D01*
X163502000Y-110105000D01*
X163504000Y-110111000D01*
X163506000Y-110118000D01*
X163507000Y-110124000D01*
X163508000Y-110130000D01*
X163509000Y-110137000D01*
X163510000Y-110143000D01*
X163510000Y-110150000D01*
X163510000Y-110350000D01*
X163510000Y-110357000D01*
X163509000Y-110363000D01*
X163508000Y-110370000D01*
X163507000Y-110376000D01*
X163506000Y-110382000D01*
X163504000Y-110389000D01*
X163502000Y-110395000D01*
X163499000Y-110401000D01*
X163496000Y-110407000D01*
X163493000Y-110412000D01*
X163490000Y-110418000D01*
X163486000Y-110423000D01*
X163482000Y-110429000D01*
X163478000Y-110434000D01*
X163473000Y-110438000D01*
X163469000Y-110443000D01*
X163464000Y-110447000D01*
X163458000Y-110451000D01*
X163453000Y-110455000D01*
X163448000Y-110458000D01*
X163442000Y-110461000D01*
X163436000Y-110464000D01*
X163430000Y-110467000D01*
X163424000Y-110469000D01*
X163417000Y-110471000D01*
X163411000Y-110472000D01*
X163405000Y-110473000D01*
X163398000Y-110474000D01*
X163392000Y-110475000D01*
X163385000Y-110475000D01*
X162945000Y-110475000D01*
X162938000Y-110475000D01*
X162932000Y-110474000D01*
X162925000Y-110473000D01*
X162919000Y-110472000D01*
X162913000Y-110471000D01*
X162906000Y-110469000D01*
X162900000Y-110467000D01*
X162894000Y-110464000D01*
X162888000Y-110461000D01*
X162882000Y-110458000D01*
X162877000Y-110455000D01*
X162872000Y-110451000D01*
X162866000Y-110447000D01*
X162861000Y-110443000D01*
X162857000Y-110438000D01*
X162852000Y-110434000D01*
X162848000Y-110429000D01*
X162844000Y-110423000D01*
X162840000Y-110418000D01*
X162837000Y-110412000D01*
X162834000Y-110407000D01*
X162831000Y-110401000D01*
X162828000Y-110395000D01*
X162826000Y-110389000D01*
X162824000Y-110382000D01*
X162823000Y-110376000D01*
X162822000Y-110370000D01*
X162821000Y-110363000D01*
X162820000Y-110357000D01*
X162820000Y-110350000D01*
X162820000Y-110150000D01*
X162820000Y-110143000D01*
X162821000Y-110137000D01*
X162822000Y-110130000D01*
X162823000Y-110124000D01*
X162824000Y-110118000D01*
X162826000Y-110111000D01*
X162828000Y-110105000D01*
X162831000Y-110099000D01*
X162834000Y-110093000D01*
X162837000Y-110088000D01*
X162840000Y-110082000D01*
X162844000Y-110077000D01*
X162848000Y-110071000D01*
X162852000Y-110066000D01*
X162857000Y-110062000D01*
X162861000Y-110057000D01*
X162866000Y-110053000D01*
X162872000Y-110049000D01*
X162877000Y-110045000D01*
X162882000Y-110042000D01*
X162888000Y-110039000D01*
X162894000Y-110036000D01*
X162900000Y-110033000D01*
X162906000Y-110031000D01*
X162913000Y-110029000D01*
X162919000Y-110028000D01*
X162925000Y-110027000D01*
X162932000Y-110026000D01*
X162938000Y-110025000D01*
X162945000Y-110025000D01*
X163385000Y-110025000D01*
X163392000Y-110025000D01*
X163398000Y-110026000D01*
G37*
%TD*%
D11*
%TO.C,R28*%
X151680000Y-120687500D03*
X151680000Y-122337500D03*
%TD*%
D12*
%TO.C,C35*%
X156075000Y-115340000D03*
X154350000Y-115340000D03*
%TD*%
D13*
%TO.C,C26*%
X143500000Y-101250000D03*
X143500000Y-102800000D03*
%TD*%
D14*
%TO.C,D1*%
X129781251Y-80625000D03*
X127881251Y-80625000D03*
X128831251Y-82500000D03*
%TD*%
D15*
%TO.C,U3*%
X155712500Y-119287500D03*
X155212500Y-119287500D03*
X154712500Y-119287500D03*
X154212500Y-119287500D03*
D16*
X153500000Y-120000000D03*
X153500000Y-120500000D03*
X153500000Y-121000000D03*
X153500000Y-121500000D03*
D15*
X154212500Y-122212500D03*
X154712500Y-122212500D03*
X155212500Y-122212500D03*
X155712500Y-122212500D03*
D16*
X156425000Y-121500000D03*
X156425000Y-121000000D03*
X156425000Y-120500000D03*
X156425000Y-120000000D03*
D17*
X154962500Y-120750000D03*
%TD*%
D18*
%TO.C,C62*%
X170960000Y-107000000D03*
X170000000Y-107000000D03*
%TD*%
D19*
%TO.C,C24*%
X140270000Y-101837500D03*
X141230000Y-101837500D03*
%TD*%
D20*
%TO.C,C41*%
X156500000Y-103020000D03*
X156500000Y-103980000D03*
%TD*%
D13*
%TO.C,C16*%
X171437500Y-122637500D03*
X171437500Y-124187500D03*
%TD*%
D20*
%TO.C,C23*%
X142230000Y-100965000D03*
X142230000Y-101925000D03*
%TD*%
D14*
%TO.C,D3*%
X129175000Y-100625000D03*
X127275000Y-100625000D03*
X128225000Y-102500000D03*
%TD*%
D21*
%TO.C,R23*%
X138000000Y-84990000D03*
X138000000Y-86010000D03*
%TD*%
D22*
%TO.C,D4*%
X127275000Y-106375000D03*
X129175000Y-106375000D03*
X128225000Y-104500000D03*
%TD*%
D23*
%TO.C,C54*%
X162600000Y-81000000D03*
X162600000Y-80040000D03*
%TD*%
D24*
%TO.C,R2*%
X124345000Y-94900000D03*
X125995000Y-94900000D03*
%TD*%
D23*
%TO.C,C45*%
X156500000Y-91980000D03*
X156500000Y-91020000D03*
%TD*%
D25*
%TO.C,D10*%
X168362500Y-118837500D03*
X169937500Y-118837500D03*
%TD*%
D26*
%TO.C,R21*%
X172460000Y-118937500D03*
X171440000Y-118937500D03*
%TD*%
D19*
%TO.C,C56*%
X161520000Y-111585000D03*
X162480000Y-111585000D03*
%TD*%
D27*
%TO.C,Y1*%
X168100000Y-78500000D03*
X165900000Y-78500000D03*
X165900000Y-80200000D03*
X168100000Y-80200000D03*
%TD*%
D26*
%TO.C,R20*%
X172560000Y-116837500D03*
X171540000Y-116837500D03*
%TD*%
D28*
%TO.C,J1*%
X111725000Y-111500000D03*
X118725000Y-111500000D03*
D29*
X116325000Y-108250000D03*
X113325000Y-108250000D03*
X121425000Y-114750000D03*
X120325000Y-108250000D03*
%TD*%
D21*
%TO.C,R18*%
X181000000Y-124060000D03*
X181000000Y-125080000D03*
%TD*%
D20*
%TO.C,C18*%
X146750000Y-102008440D03*
X146750000Y-102968440D03*
%TD*%
D30*
%TO.C,R5*%
X160755000Y-119837500D03*
X161775000Y-119837500D03*
%TD*%
D20*
%TO.C,C33*%
X139000000Y-85020000D03*
X139000000Y-85980000D03*
%TD*%
D31*
%TO.C,R14*%
X168800000Y-123010000D03*
X168800000Y-121990000D03*
%TD*%
D30*
%TO.C,R17*%
X160765000Y-120937500D03*
X161785000Y-120937500D03*
%TD*%
D32*
%TO.C,J9*%
X184730000Y-104730000D03*
D33*
X186000000Y-104730000D03*
X184730000Y-106000000D03*
X186000000Y-106000000D03*
X184730000Y-107270000D03*
X186000000Y-107270000D03*
X184730000Y-108540000D03*
X186000000Y-108540000D03*
X184730000Y-109810000D03*
X186000000Y-109810000D03*
%TD*%
D20*
%TO.C,C8*%
X124831251Y-84000000D03*
X124831251Y-84960000D03*
%TD*%
D31*
%TO.C,R15*%
X167500000Y-123010000D03*
X167500000Y-121990000D03*
%TD*%
D30*
%TO.C,R34*%
X173490000Y-107000000D03*
X174510000Y-107000000D03*
%TD*%
D21*
%TO.C,R19*%
X179010000Y-124060000D03*
X179010000Y-125080000D03*
%TD*%
D26*
%TO.C,R29*%
X151760000Y-90337500D03*
X150740000Y-90337500D03*
%TD*%
D31*
%TO.C,R31*%
X152500000Y-100020000D03*
X152500000Y-99000000D03*
%TD*%
D20*
%TO.C,C61*%
X182500000Y-96020000D03*
X182500000Y-96980000D03*
%TD*%
%TO.C,C7*%
X124831251Y-82020000D03*
X124831251Y-82980000D03*
%TD*%
D22*
%TO.C,D2*%
X127881251Y-86375000D03*
X129781251Y-86375000D03*
X128831251Y-84500000D03*
%TD*%
D34*
%TO.C,C15*%
X165150000Y-116037500D03*
X166700000Y-116037500D03*
%TD*%
D23*
%TO.C,C44*%
X160600000Y-81000000D03*
X160600000Y-80040000D03*
%TD*%
D25*
%TO.C,D9*%
X168362500Y-116837500D03*
X169937500Y-116837500D03*
%TD*%
D28*
%TO.C,J2*%
X111725000Y-91500000D03*
X118725000Y-91500000D03*
D29*
X116325000Y-88250000D03*
X113325000Y-88250000D03*
X121425000Y-94750000D03*
X120325000Y-88250000D03*
%TD*%
D35*
%TO.C,U4*%
X145550000Y-119637500D03*
X146500000Y-119637500D03*
X147450000Y-119637500D03*
X147450000Y-117362500D03*
X145550000Y-117362500D03*
%TD*%
D23*
%TO.C,C42*%
X161600000Y-81000000D03*
X161600000Y-80040000D03*
%TD*%
D13*
%TO.C,C25*%
X158962500Y-121762500D03*
X158962500Y-123312500D03*
%TD*%
D20*
%TO.C,C17*%
X145750000Y-102008440D03*
X145750000Y-102968440D03*
%TD*%
D36*
%TO.C,R26*%
X156037500Y-117087500D03*
X154387500Y-117087500D03*
%TD*%
D23*
%TO.C,C60*%
X159600000Y-81000000D03*
X159600000Y-80040000D03*
%TD*%
D37*
%TO.C,C28*%
X153980000Y-123925000D03*
X152430000Y-123925000D03*
%TD*%
%TO.C,C14*%
X162150000Y-118537500D03*
X160600000Y-118537500D03*
%TD*%
D20*
%TO.C,C29*%
X144250000Y-84520000D03*
X144250000Y-85480000D03*
%TD*%
D26*
%TO.C,R24*%
X147010000Y-85500000D03*
X145990000Y-85500000D03*
%TD*%
D18*
%TO.C,C59*%
X170960000Y-106000000D03*
X170000000Y-106000000D03*
%TD*%
D20*
%TO.C,C58*%
X181500000Y-96020000D03*
X181500000Y-96980000D03*
%TD*%
D23*
%TO.C,C31*%
X149250000Y-88297500D03*
X149250000Y-87337500D03*
%TD*%
%TO.C,C20*%
X141970000Y-86000000D03*
X141970000Y-85040000D03*
%TD*%
D38*
%TO.C,H2*%
X186525000Y-59225000D03*
%TD*%
D31*
%TO.C,R25*%
X153500000Y-100020000D03*
X153500000Y-99000000D03*
%TD*%
D39*
%TO.C,C30*%
X146500000Y-123275000D03*
X146500000Y-121725000D03*
%TD*%
D23*
%TO.C,C51*%
X156500000Y-101480000D03*
X156500000Y-100520000D03*
%TD*%
D20*
%TO.C,C1*%
X122225000Y-103020000D03*
X122225000Y-103980000D03*
%TD*%
D23*
%TO.C,C50*%
X164350000Y-79980000D03*
X164350000Y-79020000D03*
%TD*%
D32*
%TO.C,J10*%
X140960000Y-63770000D03*
D33*
X140960000Y-62500000D03*
X142230000Y-63770000D03*
X142230000Y-62500000D03*
X143500000Y-63770000D03*
X143500000Y-62500000D03*
X144770000Y-63770000D03*
X144770000Y-62500000D03*
X146040000Y-63770000D03*
X146040000Y-62500000D03*
%TD*%
D20*
%TO.C,C2*%
X122831251Y-83020000D03*
X122831251Y-83980000D03*
%TD*%
D23*
%TO.C,C37*%
X181500000Y-84780000D03*
X181500000Y-83820000D03*
%TD*%
D40*
%TO.C,U1*%
X164500000Y-120875000D03*
X165000000Y-120875000D03*
X165500000Y-120875000D03*
X166000000Y-120875000D03*
D41*
X166687500Y-120187500D03*
X166687500Y-119687500D03*
X166687500Y-119187500D03*
X166687500Y-118687500D03*
D40*
X166000000Y-118000000D03*
X165500000Y-118000000D03*
X165000000Y-118000000D03*
X164500000Y-118000000D03*
D41*
X163812500Y-118687500D03*
X163812500Y-119187500D03*
X163812500Y-119687500D03*
X163812500Y-120187500D03*
D42*
X165250000Y-119437500D03*
%TD*%
D19*
%TO.C,C39*%
X178020000Y-106000000D03*
X178980000Y-106000000D03*
%TD*%
D30*
%TO.C,R8*%
X120321251Y-83000000D03*
X121341251Y-83000000D03*
%TD*%
D43*
%TO.C,J5*%
X173610000Y-128645000D03*
X179390000Y-128645000D03*
D44*
X173300000Y-127570000D03*
X174100000Y-127570000D03*
D45*
X175250000Y-127570000D03*
X176250000Y-127570000D03*
X176750000Y-127570000D03*
X177750000Y-127570000D03*
D44*
X178900000Y-127570000D03*
X179700000Y-127570000D03*
X179700000Y-127570000D03*
X178900000Y-127570000D03*
D45*
X178250000Y-127570000D03*
X177250000Y-127570000D03*
X175750000Y-127570000D03*
X174750000Y-127570000D03*
D44*
X174100000Y-127570000D03*
X173300000Y-127570000D03*
D46*
X172180000Y-128145000D03*
D47*
X172180000Y-132325000D03*
D46*
X180820000Y-128145000D03*
D47*
X180820000Y-132325000D03*
%TD*%
D23*
%TO.C,C49*%
X171000000Y-80980000D03*
X171000000Y-80020000D03*
%TD*%
D30*
%TO.C,R6*%
X119715000Y-103000000D03*
X120735000Y-103000000D03*
%TD*%
D18*
%TO.C,C47*%
X156480000Y-85700000D03*
X155520000Y-85700000D03*
%TD*%
D23*
%TO.C,C48*%
X161500000Y-76960000D03*
X161500000Y-76000000D03*
%TD*%
D48*
%TO.C,U2*%
X137337500Y-89750000D03*
X137337500Y-90250000D03*
X137337500Y-90750000D03*
X137337500Y-91250000D03*
X137337500Y-91750000D03*
X137337500Y-92250000D03*
X137337500Y-92750000D03*
X137337500Y-93250000D03*
X137337500Y-93750000D03*
X137337500Y-94250000D03*
X137337500Y-94750000D03*
X137337500Y-95250000D03*
X137337500Y-95750000D03*
X137337500Y-96250000D03*
X137337500Y-96750000D03*
X137337500Y-97250000D03*
D49*
X139250000Y-99162500D03*
X139750000Y-99162500D03*
X140250000Y-99162500D03*
X140750000Y-99162500D03*
X141250000Y-99162500D03*
X141750000Y-99162500D03*
X142250000Y-99162500D03*
X142750000Y-99162500D03*
X143250000Y-99162500D03*
X143750000Y-99162500D03*
X144250000Y-99162500D03*
X144750000Y-99162500D03*
X145250000Y-99162500D03*
X145750000Y-99162500D03*
X146250000Y-99162500D03*
X146750000Y-99162500D03*
D48*
X148662500Y-97250000D03*
X148662500Y-96750000D03*
X148662500Y-96250000D03*
X148662500Y-95750000D03*
X148662500Y-95250000D03*
X148662500Y-94750000D03*
X148662500Y-94250000D03*
X148662500Y-93750000D03*
X148662500Y-93250000D03*
X148662500Y-92750000D03*
X148662500Y-92250000D03*
X148662500Y-91750000D03*
X148662500Y-91250000D03*
X148662500Y-90750000D03*
X148662500Y-90250000D03*
X148662500Y-89750000D03*
D49*
X146750000Y-87837500D03*
X146250000Y-87837500D03*
X145750000Y-87837500D03*
X145250000Y-87837500D03*
X144750000Y-87837500D03*
X144250000Y-87837500D03*
X143750000Y-87837500D03*
X143250000Y-87837500D03*
X142750000Y-87837500D03*
X142250000Y-87837500D03*
X141750000Y-87837500D03*
X141250000Y-87837500D03*
X140750000Y-87837500D03*
X140250000Y-87837500D03*
X139750000Y-87837500D03*
X139250000Y-87837500D03*
%TD*%
D50*
%TO.C,U6*%
X177750000Y-82837500D03*
X177250000Y-82837500D03*
X176750000Y-82837500D03*
X176250000Y-82837500D03*
X175750000Y-82837500D03*
X175250000Y-82837500D03*
X174750000Y-82837500D03*
X174250000Y-82837500D03*
X173750000Y-82837500D03*
X173250000Y-82837500D03*
X172750000Y-82837500D03*
X172250000Y-82837500D03*
X171750000Y-82837500D03*
X171250000Y-82837500D03*
X170750000Y-82837500D03*
X170250000Y-82837500D03*
X169750000Y-82837500D03*
X169250000Y-82837500D03*
X168750000Y-82837500D03*
X168250000Y-82837500D03*
X167750000Y-82837500D03*
X167250000Y-82837500D03*
X166750000Y-82837500D03*
X166250000Y-82837500D03*
X165750000Y-82837500D03*
X165250000Y-82837500D03*
X164750000Y-82837500D03*
X164250000Y-82837500D03*
X163750000Y-82837500D03*
X163250000Y-82837500D03*
X162750000Y-82837500D03*
X162250000Y-82837500D03*
X161750000Y-82837500D03*
X161250000Y-82837500D03*
X160750000Y-82837500D03*
X160250000Y-82837500D03*
D51*
X158337500Y-84750000D03*
X158337500Y-85250000D03*
X158337500Y-85750000D03*
X158337500Y-86250000D03*
X158337500Y-86750000D03*
X158337500Y-87250000D03*
X158337500Y-87750000D03*
X158337500Y-88250000D03*
X158337500Y-88750000D03*
X158337500Y-89250000D03*
X158337500Y-89750000D03*
X158337500Y-90250000D03*
X158337500Y-90750000D03*
X158337500Y-91250000D03*
X158337500Y-91750000D03*
X158337500Y-92250000D03*
X158337500Y-92750000D03*
X158337500Y-93250000D03*
X158337500Y-93750000D03*
X158337500Y-94250000D03*
X158337500Y-94750000D03*
X158337500Y-95250000D03*
X158337500Y-95750000D03*
X158337500Y-96250000D03*
X158337500Y-96750000D03*
X158337500Y-97250000D03*
X158337500Y-97750000D03*
X158337500Y-98250000D03*
X158337500Y-98750000D03*
X158337500Y-99250000D03*
X158337500Y-99750000D03*
X158337500Y-100250000D03*
X158337500Y-100750000D03*
X158337500Y-101250000D03*
X158337500Y-101750000D03*
X158337500Y-102250000D03*
D50*
X160250000Y-104162500D03*
X160750000Y-104162500D03*
X161250000Y-104162500D03*
X161750000Y-104162500D03*
X162250000Y-104162500D03*
X162750000Y-104162500D03*
X163250000Y-104162500D03*
X163750000Y-104162500D03*
X164250000Y-104162500D03*
X164750000Y-104162500D03*
X165250000Y-104162500D03*
X165750000Y-104162500D03*
X166250000Y-104162500D03*
X166750000Y-104162500D03*
X167250000Y-104162500D03*
X167750000Y-104162500D03*
X168250000Y-104162500D03*
X168750000Y-104162500D03*
X169250000Y-104162500D03*
X169750000Y-104162500D03*
X170250000Y-104162500D03*
X170750000Y-104162500D03*
X171250000Y-104162500D03*
X171750000Y-104162500D03*
X172250000Y-104162500D03*
X172750000Y-104162500D03*
X173250000Y-104162500D03*
X173750000Y-104162500D03*
X174250000Y-104162500D03*
X174750000Y-104162500D03*
X175250000Y-104162500D03*
X175750000Y-104162500D03*
X176250000Y-104162500D03*
X176750000Y-104162500D03*
X177250000Y-104162500D03*
X177750000Y-104162500D03*
D51*
X179662500Y-102250000D03*
X179662500Y-101750000D03*
X179662500Y-101250000D03*
X179662500Y-100750000D03*
X179662500Y-100250000D03*
X179662500Y-99750000D03*
X179662500Y-99250000D03*
X179662500Y-98750000D03*
X179662500Y-98250000D03*
X179662500Y-97750000D03*
X179662500Y-97250000D03*
X179662500Y-96750000D03*
X179662500Y-96250000D03*
X179662500Y-95750000D03*
X179662500Y-95250000D03*
X179662500Y-94750000D03*
X179662500Y-94250000D03*
X179662500Y-93750000D03*
X179662500Y-93250000D03*
X179662500Y-92750000D03*
X179662500Y-92250000D03*
X179662500Y-91750000D03*
X179662500Y-91250000D03*
X179662500Y-90750000D03*
X179662500Y-90250000D03*
X179662500Y-89750000D03*
X179662500Y-89250000D03*
X179662500Y-88750000D03*
X179662500Y-88250000D03*
X179662500Y-87750000D03*
X179662500Y-87250000D03*
X179662500Y-86750000D03*
X179662500Y-86250000D03*
X179662500Y-85750000D03*
X179662500Y-85250000D03*
X179662500Y-84750000D03*
%TD*%
D37*
%TO.C,C13*%
X162150000Y-116937500D03*
X160600000Y-116937500D03*
%TD*%
D18*
%TO.C,C40*%
X165980000Y-106000000D03*
X165020000Y-106000000D03*
%TD*%
D21*
%TO.C,R32*%
X162520000Y-75970000D03*
X162520000Y-76990000D03*
%TD*%
D23*
%TO.C,C36*%
X182500000Y-84780000D03*
X182500000Y-83820000D03*
%TD*%
D18*
%TO.C,C55*%
X164480000Y-111585000D03*
X163520000Y-111585000D03*
%TD*%
D26*
%TO.C,R7*%
X120735000Y-104000000D03*
X119715000Y-104000000D03*
%TD*%
D38*
%TO.C,H4*%
X186525000Y-129775000D03*
%TD*%
D20*
%TO.C,C21*%
X144750000Y-102008440D03*
X144750000Y-102968440D03*
%TD*%
D23*
%TO.C,C19*%
X143000000Y-86000000D03*
X143000000Y-85040000D03*
%TD*%
D26*
%TO.C,R35*%
X174510000Y-106000000D03*
X173490000Y-106000000D03*
%TD*%
D24*
%TO.C,R1*%
X124345000Y-115800000D03*
X125995000Y-115800000D03*
%TD*%
D20*
%TO.C,C46*%
X169600000Y-79020000D03*
X169600000Y-79980000D03*
%TD*%
D52*
%TO.C,L1*%
X158052500Y-117787500D03*
X158052500Y-116212500D03*
%TD*%
D20*
%TO.C,C5*%
X124225000Y-102020000D03*
X124225000Y-102980000D03*
%TD*%
%TO.C,C6*%
X124225000Y-104020000D03*
X124225000Y-104980000D03*
%TD*%
D26*
%TO.C,R9*%
X121341251Y-84000000D03*
X120321251Y-84000000D03*
%TD*%
D38*
%TO.C,H1*%
X112475000Y-59225000D03*
%TD*%
D23*
%TO.C,C52*%
X175200000Y-81080000D03*
X175200000Y-80120000D03*
%TD*%
D38*
%TO.C,H3*%
X112475000Y-129775000D03*
%TD*%
D26*
%TO.C,R33*%
X182510000Y-87800000D03*
X181490000Y-87800000D03*
%TD*%
D34*
%TO.C,C22*%
X155680000Y-123925000D03*
X157230000Y-123925000D03*
%TD*%
D11*
%TO.C,R27*%
X151680000Y-117287500D03*
X151680000Y-118937500D03*
%TD*%
D21*
%TO.C,R16*%
X163525000Y-115427500D03*
X163525000Y-116447500D03*
%TD*%
D19*
%TO.C,C27*%
X140270000Y-100867500D03*
X141230000Y-100867500D03*
%TD*%
D20*
%TO.C,C38*%
X181500000Y-91000000D03*
X181500000Y-91960000D03*
%TD*%
D31*
%TO.C,R30*%
X151500000Y-100020000D03*
X151500000Y-99000000D03*
%TD*%
D23*
%TO.C,C43*%
X156500000Y-96980000D03*
X156500000Y-96020000D03*
%TD*%
D52*
%TO.C,F1*%
X174000000Y-124287500D03*
X174000000Y-122712500D03*
%TD*%
D19*
%TO.C,C53*%
X178020000Y-107500000D03*
X178980000Y-107500000D03*
%TD*%
D34*
%TO.C,C34*%
X145425000Y-114700000D03*
X146975000Y-114700000D03*
%TD*%
D23*
%TO.C,C32*%
X150250000Y-88297500D03*
X150250000Y-87337500D03*
%TD*%
D26*
%TO.C,R22*%
X165850000Y-122837500D03*
X164830000Y-122837500D03*
%TD*%
D23*
%TO.C,C57*%
X158500000Y-81000000D03*
X158500000Y-80040000D03*
%TD*%
D53*
%TO.C,J6*%
X181050000Y-117750000D03*
D54*
X181050000Y-115750000D03*
%TD*%
M02*
